<svg xmlns="http://www.w3.org/2000/svg" xmlns:xlink="http://www.w3.org/1999/xlink" width="106" height="106" viewBox="0 0 106 106">
  <defs>
    <filter id="Trazado_982547" x="0" y="0" width="106" height="106" filterUnits="userSpaceOnUse">
      <feOffset dy="3" input="SourceAlpha"/>
      <feGaussianBlur stdDeviation="3" result="blur"/>
      <feFlood flood-opacity="0.161"/>
      <feComposite operator="in" in2="blur"/>
      <feComposite in="SourceGraphic"/>
    </filter>
  </defs>
  <g id="Grupo_1176442" data-name="Grupo 1176442" transform="translate(9 6)">
    <g id="Grupo_1173169" data-name="Grupo 1173169">
      <g id="Grupo_1172017" data-name="Grupo 1172017">
        <g id="Grupo_1167337" data-name="Grupo 1167337" transform="translate(0)">
          <g id="Grupo_1166720" data-name="Grupo 1166720">
            <g id="Grupo_1164305" data-name="Grupo 1164305">
              <g id="Grupo_1163948" data-name="Grupo 1163948">
                <g id="Grupo_1158168" data-name="Grupo 1158168">
                  <g id="Grupo_1152576" data-name="Grupo 1152576">
                    <g id="Grupo_1148633" data-name="Grupo 1148633">
                      <g id="Grupo_1148525" data-name="Grupo 1148525">
                        <g transform="matrix(1, 0, 0, 1, -9, -6)" filter="url(#Trazado_982547)">
                          <g id="Trazado_982547-2" data-name="Trazado 982547" transform="translate(9 6)" fill="#f2ecfd">
                            <path d="M 44 86.5 C 38.26187515258789 86.5 32.69618606567383 85.37651062011719 27.45755004882812 83.16075897216797 C 22.3968505859375 81.020263671875 17.85157585144043 77.95565032958984 13.94796276092529 74.05204010009766 C 10.04434967041016 70.1484375 6.979737281799316 65.6031494140625 4.839250087738037 60.54246139526367 C 2.62348747253418 55.30381393432617 1.5 49.73812484741211 1.5 44 C 1.5 38.26187515258789 2.62348747253418 32.69618606567383 4.839250087738037 27.45755004882812 C 6.979737281799316 22.3968505859375 10.04434967041016 17.85157585144043 13.94796276092529 13.94796276092529 C 17.85157585144043 10.04434967041016 22.3968505859375 6.979737281799316 27.45755004882812 4.839250087738037 C 32.69618606567383 2.62348747253418 38.26187515258789 1.5 44 1.5 C 49.73812484741211 1.5 55.30381393432617 2.62348747253418 60.54246139526367 4.839250087738037 C 65.6031494140625 6.979737281799316 70.1484375 10.04434967041016 74.05204010009766 13.94796276092529 C 77.95565032958984 17.85157585144043 81.020263671875 22.3968505859375 83.16075897216797 27.45755004882812 C 85.37651062011719 32.69618606567383 86.5 38.26187515258789 86.5 44 C 86.5 49.73812484741211 85.37651062011719 55.30381393432617 83.16075897216797 60.54246139526367 C 81.020263671875 65.6031494140625 77.95565032958984 70.1484375 74.05204010009766 74.05204010009766 C 70.1484375 77.95565032958984 65.6031494140625 81.020263671875 60.54246139526367 83.16075897216797 C 55.30381393432617 85.37651062011719 49.73812484741211 86.5 44 86.5 Z" stroke="none"/>
                            <path d="M 44 3 C 38.46371459960938 3 33.09462738037109 4.083610534667969 28.0418701171875 6.220756530761719 C 23.15997314453125 8.285614013671875 18.77495574951172 11.24228668212891 15.00862884521484 15.00862884521484 C 11.24228668212891 18.77495574951172 8.285614013671875 23.15997314453125 6.220756530761719 28.0418701171875 C 4.083610534667969 33.09462738037109 3 38.46371459960938 3 44 C 3 49.53628540039062 4.083610534667969 54.9053840637207 6.220756530761719 59.9581298828125 C 8.285614013671875 64.84002685546875 11.24228668212891 69.22504425048828 15.00862884521484 72.99138641357422 C 18.77495574951172 76.75771331787109 23.15997314453125 79.71438598632812 28.0418701171875 81.77925872802734 C 33.09462738037109 83.9163818359375 38.46371459960938 85 44 85 C 49.53628540039062 85 54.9053840637207 83.9163818359375 59.95814514160156 81.77925872802734 C 64.84002685546875 79.71438598632812 69.22504425048828 76.75771331787109 72.99138641357422 72.99138641357422 C 76.75771331787109 69.22504425048828 79.71438598632812 64.84002685546875 81.77925872802734 59.95814514160156 C 83.9163818359375 54.9053840637207 85 49.53628540039062 85 44 C 85 38.46371459960938 83.9163818359375 33.09462738037109 81.77925872802734 28.0418701171875 C 79.71438598632812 23.15997314453125 76.75771331787109 18.77495574951172 72.99138641357422 15.00862884521484 C 69.22504425048828 11.24228668212891 64.84002685546875 8.285614013671875 59.9581298828125 6.220756530761719 C 54.9053840637207 4.083610534667969 49.53628540039062 3 44 3 M 44 0 C 68.30054473876953 0 88 19.69947052001953 88 44 C 88 68.30054473876953 68.30054473876953 88 44 88 C 19.69947052001953 88 0 68.30054473876953 0 44 C 0 19.69947052001953 19.69947052001953 0 44 0 Z" stroke="none" fill="#8454ee"/>
                          </g>
                        </g>
                      </g>
                    </g>
                  </g>
                </g>
              </g>
            </g>
          </g>
        </g>
      </g>
    </g>
    <g id="inspire-idea_14781822_2_" data-name="inspire-idea_14781822 (2)" transform="translate(18.48 18.454)">
      <g id="Grupo_1173876" data-name="Grupo 1173876">
        <path id="Trazado_1030989" data-name="Trazado 1030989" d="M118.589,345.513v-3.738a2.273,2.273,0,0,0,1.847-2.233v-6.428h11.741v6.428a2.273,2.273,0,0,0,1.847,2.233l.32,3.22Z" transform="translate(-107.195 -299.641)" fill="#ca6e59"/>
        <path id="Trazado_1030990" data-name="Trazado 1030990" d="M60.435,17.618c0,7.4-3.98,16.183-14.114,13.277l-8.455-3.846a3.339,3.339,0,0,1-.22-4.938l.853-.235.59-.587a3.528,3.528,0,0,1,.707-6.052.311.311,0,0,0,.182-.362,3.349,3.349,0,0,1-.094-.788,3.26,3.26,0,0,1,3.224-3.294,3.227,3.227,0,0,1,.627.063,1.53,1.53,0,0,1,.244-.247,1.3,1.3,0,0,0,.541-1.136,3.633,3.633,0,0,1,5.09-.359.307.307,0,0,0,.46-.074,3.19,3.19,0,0,1,5.459,0,.307.307,0,0,0,.461.073,3.621,3.621,0,0,1,.724-.481C60.435,9.76,60.435,14.949,60.435,17.618Z" transform="translate(-33.688 -7.5)" fill="#73788c"/>
        <path id="Trazado_1030991" data-name="Trazado 1030991" d="M153.259,30.94a3.314,3.314,0,0,1-1.206,2.568l-9.67,5.255h-8.645l-3.1-1.409a15.19,15.19,0,0,0,10.393-22.263,3.6,3.6,0,0,1,1.637-.392,3.648,3.648,0,0,1,2.729,1.233l.17.83.615.553a3.225,3.225,0,0,1,.626-.063,3.26,3.26,0,0,1,3.225,3.294,3.367,3.367,0,0,1-.17,1.054,3.524,3.524,0,0,1,.965,6.149A3.283,3.283,0,0,1,153.259,30.94Z" transform="translate(-118.007 -13.96)" fill="#5e6577"/>
        <path id="Trazado_1030992" data-name="Trazado 1030992" d="M68.208,200.253a5.628,5.628,0,0,0,4.287-5.466h0a2.238,2.238,0,0,0-2.238-2.238h-2.05l-22.545,0h-2.05a2.238,2.238,0,0,0-2.238,2.238h0a5.628,5.628,0,0,0,4.287,5.466Z" transform="translate(-37.918 -173.526)" fill="#ca6e59"/>
        <path id="Trazado_1030993" data-name="Trazado 1030993" d="M100.024,130.952a2.227,2.227,0,0,1,2.908.958,8.942,8.942,0,0,0,.746,1.133l.486.647c.206.6.664,3.4,1.3,3.4v8.539a7.123,7.123,0,0,1-2.433,5.361l-4.423,3.871a4.748,4.748,0,0,1-3.126,1.174H92.857a4.748,4.748,0,0,1-3.126-1.174l-4.423-3.871a7.123,7.123,0,0,1-2.433-5.361v-8.539a1.512,1.512,0,0,0,1.405-1.033l.974-3.8a2.226,2.226,0,0,1,3.067-1.287l.142.068,1.146.439a12.688,12.688,0,0,0,9.079,0l1.146-.439Z" transform="translate(-75.152 -118.07)" fill="#d78878"/>
        <path id="Trazado_1030994" data-name="Trazado 1030994" d="M170.674,300.119c-2.439,0-2.547-2.251-2.506-3.068a.308.308,0,0,1,.308-.292h4.39a.307.307,0,0,1,.308.3C173.194,297.882,173.033,300.119,170.674,300.119Z" transform="translate(-151.672 -267.024)" fill="#eaf6ff"/>
        <path id="Trazado_1030995" data-name="Trazado 1030995" d="M14.511,439.761l-6.453-.015a.308.308,0,0,1-.308-.308v-5.729a.309.309,0,0,1,.166-.275,9.972,9.972,0,0,1,2.688-.925l.743-.149,6.557,2.432Z" transform="translate(-7.75 -388.684)" fill="#9be69d"/>
        <path id="Trazado_1030996" data-name="Trazado 1030996" d="M297.962,435.254l-2.489,4.062-8.592.006-3.109-5.444c.034-.035,6.285-2,6.285-2l.425.081a9.976,9.976,0,0,1,2.81.989Z" transform="translate(-255.397 -388.253)" fill="#9be69d"/>
        <path id="Trazado_1030997" data-name="Trazado 1030997" d="M122.276,418.39l.939,4.717-3.394,4.109-10.305.012-3.909-4.309,1.458-4.5A10.555,10.555,0,0,0,122.276,418.39Z" transform="translate(-95.547 -376.15)" fill="#eaf6ff"/>
        <path id="Trazado_1030998" data-name="Trazado 1030998" d="M49.268,409.044l-2.807-10.094a1.13,1.13,0,0,0-1.417-.778l-6.24,1.9a.489.489,0,0,0-.306.667l1.316,2.981a.309.309,0,0,0,.213.176l3.207.736a.308.308,0,0,1,.184.477l-1.74,2.494a.308.308,0,0,0-.037.281l.419,1.159Z" transform="translate(-35.299 -357.967)" fill="#bbf49b"/>
        <path id="Trazado_1030999" data-name="Trazado 1030999" d="M243.879,408.827l2.811-10.105a1.129,1.129,0,0,1,1.417-.778l6.24,1.9a.49.49,0,0,1,.306.667l-1.316,2.981a.308.308,0,0,1-.213.176l-3.207.736a.308.308,0,0,0-.184.477l1.741,2.495a.308.308,0,0,1,.037.281l-.421,1.173Z" transform="translate(-219.605 -357.762)" fill="#bbf49b"/>
        <g id="Grupo_1173873" data-name="Grupo 1173873" transform="translate(38.055 27.887)">
          <path id="Trazado_1031000" data-name="Trazado 1031000" d="M390.148,387.922v3.953a12.038,12.038,0,0,1-.271,2.4,8.42,8.42,0,0,1-.974,1.752c-.623,1.049-.35,2.128-.346,3.347l-.79.505h-7.791v-1.692a4.251,4.251,0,0,0-1.118-2.873,3.519,3.519,0,0,1-.924-2.375v-1.7a2.085,2.085,0,0,1,.89-1.709Z" transform="translate(-377.933 -376.701)" fill="#d78878"/>
          <g id="Grupo_1173872" data-name="Grupo 1173872" transform="translate(9.508 6.638)">
            <path id="Trazado_1031001" data-name="Trazado 1031001" d="M473.132,344.013v3.92a.822.822,0,0,1-.33.736c-.247.247-1.114-.13-1.49-.127l-.67-.716-.217-2.548.711-.549a1.378,1.378,0,0,1,1.343-1.377C472.932,343.518,473.132,343.751,473.132,344.013Z" transform="translate(-470.425 -343.35)" fill="#d78878"/>
            <path id="Trazado_1031002" data-name="Trazado 1031002" d="M481.637,344.718v3.1a1.38,1.38,0,0,1-2.495.81l-.088-.094a1.379,1.379,0,0,0,1.367-1.38v-3.094a1.371,1.371,0,0,0-.2-.717h.037A1.379,1.379,0,0,1,481.637,344.718Z" transform="translate(-478.167 -343.34)" fill="#ca6e59"/>
          </g>
          <path id="Trazado_1031003" data-name="Trazado 1031003" d="M476.7,386.87v4.123a6.723,6.723,0,0,1-.946,3.439,6.725,6.725,0,0,0-.945,3.464l0,.727a.308.308,0,0,1-.308.31h-.949l0-1.036a6.736,6.736,0,0,1,.946-3.464,6.723,6.723,0,0,0,.946-3.439v-3.945Z" transform="translate(-463.724 -375.757)" fill="#ca6e59"/>
          <path id="Trazado_1031004" data-name="Trazado 1031004" d="M391.421,281.354v11.135c0,.8-1.309,1.454-2.108,1.454l.68-1.816-.94-.894v-9.879a1.455,1.455,0,0,1,.857-1.324A1.344,1.344,0,0,1,391.421,281.354Z" transform="translate(-387.909 -279.901)" fill="#d78878"/>
          <path id="Trazado_1031005" data-name="Trazado 1031005" d="M417.689,332.175v3.654c0,.589-.957,1.1-1.462,1.326a1.457,1.457,0,0,1-.86-1.326l-.355-.079V332.3l.355-.126a1.457,1.457,0,0,1,.86-1.325C417.446,331.006,417.689,331.587,417.689,332.175Z" transform="translate(-411.199 -325.496)" fill="#d78878"/>
          <path id="Trazado_1031006" data-name="Trazado 1031006" d="M447.29,332.175v3.875c0,.588-1.064,1.1-1.569,1.325a1.456,1.456,0,0,1-.86-1.325l-.346-.221v-3.5l.346-.157a1.457,1.457,0,0,1,.86-1.325C447.1,331.037,447.29,331.587,447.29,332.175Z" transform="translate(-437.669 -325.496)" fill="#d78878"/>
          <path id="Trazado_1031007" data-name="Trazado 1031007" d="M399.56,280.224v10.543a.657.657,0,0,1-1.31,0V280.224a1.457,1.457,0,0,0-.856-1.324,1.432,1.432,0,0,1,.6-.13h.116A1.457,1.457,0,0,1,399.56,280.224Z" transform="translate(-395.393 -278.77)" fill="#ca6e59"/>
          <path id="Trazado_1031008" data-name="Trazado 1031008" d="M429,331.054v3.654a1.458,1.458,0,0,1-1.454,1.455h-.117a1.419,1.419,0,0,1-.593-.129,1.457,1.457,0,0,0,.86-1.326v-3.654a1.457,1.457,0,0,0-.86-1.325,1.419,1.419,0,0,1,.593-.129h.117A1.458,1.458,0,0,1,429,331.054Z" transform="translate(-421.807 -324.375)" fill="#ca6e59"/>
          <path id="Trazado_1031009" data-name="Trazado 1031009" d="M458.418,331.054v3.875a1.458,1.458,0,0,1-1.455,1.454h-.116a1.417,1.417,0,0,1-.593-.129,1.456,1.456,0,0,0,.859-1.325v-3.875a1.457,1.457,0,0,0-.859-1.325,1.417,1.417,0,0,1,.593-.129h.116A1.459,1.459,0,0,1,458.418,331.054Z" transform="translate(-448.203 -324.375)" fill="#ca6e59"/>
          <path id="Trazado_1031010" data-name="Trazado 1031010" d="M399.258,367.07a3.127,3.127,0,0,1-.066.64c-.27,1.293-2.194,1.453-3.557,1.6a4.349,4.349,0,0,0-2.577-.351c-.815.252-1.327,1.561-1.339,1.552l-2.669-1.4V367.8l2.577-1.853a2.887,2.887,0,0,1,1.65-.537l4.278-.04A1.706,1.706,0,0,1,399.258,367.07Z" transform="translate(-387.907 -356.464)" fill="#ca6e59"/>
          <path id="Trazado_1031011" data-name="Trazado 1031011" d="M390.514,380.947l1.217-1.638a.308.308,0,0,1,.21-.122l2.63-.319a2.087,2.087,0,0,0,1.439-2,.7.7,0,0,0-.707-.687h-3.87a2.613,2.613,0,0,0-1.5.472l-3.34,2.338Z" transform="translate(-385.704 -366.165)" fill="#d78878"/>
        </g>
        <g id="Grupo_1173875" data-name="Grupo 1173875" transform="translate(28.246 1.453)">
          <path id="Trazado_1031012" data-name="Trazado 1031012" d="M303.136,29.872a11.975,11.975,0,0,1-11.891,12.16c-2.169,0-6.932-1.592-7.551-3.321l.117-.473a.305.305,0,0,0-.027-.215,11.225,11.225,0,0,1,17.382-13.589A10.655,10.655,0,0,1,303.136,29.872Z" transform="translate(-282.516 -21.635)" fill="#eaf6ff"/>
          <path id="Trazado_1031013" data-name="Trazado 1031013" d="M305.939,59.662a11.242,11.242,0,0,1-16.849,7.179.307.307,0,0,0-.218-.04l-4.629.882a.309.309,0,0,1-.358-.377l1.029-4.163a12.105,12.105,0,0,0,17.472-14.277A11.2,11.2,0,0,1,305.939,59.662Z" transform="translate(-283.737 -46.066)" fill="#d8ecfe"/>
          <g id="Grupo_1173874" data-name="Grupo 1173874" transform="translate(5.432 2.796)">
            <path id="Trazado_1031014" data-name="Trazado 1031014" d="M345.62,55.29c0,3.008-3.159,5.917-6.229,5.917-.466,0-.969.316-1.782-.885a6.539,6.539,0,0,0-.8-1.415,5.572,5.572,0,0,1,3.144-9.226C344.166,49.682,345.62,52.614,345.62,55.29Z" transform="translate(-335.361 -49.595)" fill="#ffe177"/>
            <path id="Trazado_1031015" data-name="Trazado 1031015" d="M364.634,54.409a5.552,5.552,0,0,1-1.418,3.712,6.727,6.727,0,0,0-1.349,4.011v.348l-5.609.018v-.308a9.417,9.417,0,0,0-.69-3.065,5.641,5.641,0,0,0,1.35.162c3.07,0,5.728-2,5.728-5.006a5.478,5.478,0,0,0-4.568-5.358,5.576,5.576,0,0,1,6.556,5.485Z" transform="translate(-353.491 -48.837)" fill="#ffd15b"/>
            <path id="Trazado_1031016" data-name="Trazado 1031016" d="M366.733,179.51l.872,1.7c0,.924-.554,1.7-2.544,1.7h-.437a1.673,1.673,0,0,1-1.673-1.673V179.51h3.782Z" transform="translate(-360.115 -166.077)" fill="#5e6577"/>
            <path id="Trazado_1031017" data-name="Trazado 1031017" d="M386.835,179.511v1.733a1.673,1.673,0,0,1-1.673,1.673h-1.688a1.672,1.672,0,0,0,1.672-1.673v-1.733Z" transform="translate(-378.528 -166.078)" fill="#4d5263"/>
            <path id="Trazado_1031018" data-name="Trazado 1031018" d="M354.1,160.558c0,.37.224.79,0,1.033a6.737,6.737,0,0,1-2.236.531h-4.115a1.294,1.294,0,0,1-1.242-1.341,1.4,1.4,0,0,1,.363-.949,1.2,1.2,0,0,1,.879-.393h4.115C352.547,159.439,354.1,159.817,354.1,160.558Z" transform="translate(-345.358 -148.069)" fill="#73788c"/>
            <path id="Trazado_1031019" data-name="Trazado 1031019" d="M402.106,160.781a1.4,1.4,0,0,1-.363.948,1.2,1.2,0,0,1-.879.393h-2.253a1.2,1.2,0,0,0,.879-.393,1.4,1.4,0,0,0,.363-.948,1.3,1.3,0,0,0-1.242-1.342h2.253A1.3,1.3,0,0,1,402.106,160.781Z" transform="translate(-392.109 -148.069)" fill="#5e6577"/>
          </g>
        </g>
      </g>
      <g id="Grupo_1173885" data-name="Grupo 1173885">
        <g id="Grupo_1173877" data-name="Grupo 1173877" transform="translate(3.457 19.026)">
          <path id="Trazado_1031020" data-name="Trazado 1031020" d="M45.612,200.268a5.628,5.628,0,0,1-4.236-5.453h0a2.238,2.238,0,0,1,2.238-2.238h2.05" transform="translate(-41.376 -192.577)" fill="none" stroke="#000" stroke-linecap="round" stroke-linejoin="round" stroke-miterlimit="10" stroke-width="1"/>
          <path id="Trazado_1031021" data-name="Trazado 1031021" d="M306.975,232.041a5.638,5.638,0,0,1-3.918,3.627" transform="translate(-276.156 -227.984)" fill="none" stroke="#000" stroke-linecap="round" stroke-linejoin="round" stroke-miterlimit="10" stroke-width="1"/>
        </g>
        <path id="Trazado_1031022" data-name="Trazado 1031022" d="M209.872,132.195a12.686,12.686,0,0,0,2.758-.714l1.146-.439.19-.089a2.226,2.226,0,0,1,3.054,1.293" transform="translate(-189.094 -118.07)" fill="none" stroke="#000" stroke-linecap="round" stroke-linejoin="round" stroke-miterlimit="10" stroke-width="1"/>
        <path id="Trazado_1031023" data-name="Trazado 1031023" d="M105.463,141.375v4.39a7.123,7.123,0,0,1-2.433,5.361L98.607,155a4.748,4.748,0,0,1-3.126,1.174H92.857A4.748,4.748,0,0,1,89.731,155l-4.423-3.871a7.123,7.123,0,0,1-2.433-5.361v-8.539a1.512,1.512,0,0,0,1.405-1.033l.974-3.8a2.226,2.226,0,0,1,3.067-1.287l.142.068,1.146.439a12.68,12.68,0,0,0,2.741.712" transform="translate(-75.152 -118.203)" fill="none" stroke="#000" stroke-linecap="round" stroke-linejoin="round" stroke-miterlimit="10" stroke-width="1"/>
        <g id="Grupo_1173879" data-name="Grupo 1173879" transform="translate(12.492 18.049)">
          <g id="Grupo_1173878" data-name="Grupo 1173878" transform="translate(0)">
            <path id="Trazado_1031024" data-name="Trazado 1031024" d="M184.25,262.089a2.383,2.383,0,0,1-2.161,0" transform="translate(-176.659 -253.966)" fill="none" stroke="#000" stroke-linecap="round" stroke-linejoin="round" stroke-miterlimit="10" stroke-width="1"/>
            <path id="Trazado_1031025" data-name="Trazado 1031025" d="M133.219,183.579a4.112,4.112,0,0,0-3.953,0" transform="translate(-129.266 -183.073)" fill="none" stroke="#000" stroke-linecap="round" stroke-linejoin="round" stroke-miterlimit="10" stroke-width="1"/>
            <path id="Trazado_1031026" data-name="Trazado 1031026" d="M221.439,183.579a4.111,4.111,0,0,0-3.953,0" transform="translate(-208.417 -183.073)" fill="none" stroke="#000" stroke-linecap="round" stroke-linejoin="round" stroke-miterlimit="10" stroke-width="1"/>
            <line id="Línea_822" data-name="Línea 822" y1="1.751" transform="translate(11.045 2.968)" fill="none" stroke="#000" stroke-linecap="round" stroke-linejoin="round" stroke-miterlimit="10" stroke-width="1"/>
            <line id="Línea_823" data-name="Línea 823" y1="1.751" transform="translate(1.976 2.968)" fill="none" stroke="#000" stroke-linecap="round" stroke-linejoin="round" stroke-miterlimit="10" stroke-width="1"/>
          </g>
          <path id="Trazado_1031027" data-name="Trazado 1031027" d="M170.675,300.119c-2.979,0-2.481-3.359-2.481-3.359h4.962S173.565,300.119,170.675,300.119Z" transform="translate(-164.164 -285.073)" fill="none" stroke="#000" stroke-linecap="round" stroke-linejoin="round" stroke-miterlimit="10" stroke-width="1"/>
        </g>
        <path id="Trazado_1031028" data-name="Trazado 1031028" d="M64.945,11.946a3.179,3.179,0,0,0-3.078-1.09A3.7,3.7,0,0,0,58.354,8.24a3.641,3.641,0,0,0-2.639,1.136,3.2,3.2,0,0,0-5.823,0A3.641,3.641,0,0,0,47.253,8.24a3.7,3.7,0,0,0-3.513,2.616,3.177,3.177,0,0,0-.627-.063,3.259,3.259,0,0,0-3.224,3.293,3.352,3.352,0,0,0,.17,1.054,3.525,3.525,0,0,0-.965,6.149,3.322,3.322,0,0,0-1.223,5.76" transform="translate(-33.692 -7.5)" fill="none" stroke="#000" stroke-linecap="round" stroke-linejoin="round" stroke-miterlimit="10" stroke-width="1"/>
        <path id="Trazado_1031029" data-name="Trazado 1031029" d="M61.782,142.231a3.227,3.227,0,0,1-1.455-.59" transform="translate(-54.922 -127.851)" fill="none" stroke="#000" stroke-linecap="round" stroke-linejoin="round" stroke-miterlimit="10" stroke-width="1"/>
        <path id="Trazado_1031030" data-name="Trazado 1031030" d="M105.6,40.2a3.06,3.06,0,0,1,1.939,1.288" transform="translate(-95.541 -36.838)" fill="none" stroke="#000" stroke-linecap="round" stroke-linejoin="round" stroke-miterlimit="10" stroke-width="1"/>
        <path id="Trazado_1031031" data-name="Trazado 1031031" d="M268.1,40.183a3.064,3.064,0,0,0-1.558,1.187" transform="translate(-239.942 -36.823)" fill="none" stroke="#000" stroke-linecap="round" stroke-linejoin="round" stroke-miterlimit="10" stroke-width="1"/>
        <path id="Trazado_1031032" data-name="Trazado 1031032" d="M302.275,33.185q-.052.326-.123.652a11.573,11.573,0,0,1-17.45,7.326l-5.372,1.024,1.326-5.37A11.543,11.543,0,0,1,288.916,20" transform="translate(-251.38 -18.717)" fill="none" stroke="#000" stroke-linecap="round" stroke-linejoin="round" stroke-miterlimit="10" stroke-width="1"/>
        <path id="Trazado_1031033" data-name="Trazado 1031033" d="M407.545,19.544q.415.059.831.149a11.556,11.556,0,0,1,8.968,9.483" transform="translate(-366.446 -18.306)" fill="none" stroke="#000" stroke-linecap="round" stroke-linejoin="round" stroke-miterlimit="10" stroke-width="1"/>
        <g id="Grupo_1173880" data-name="Grupo 1173880" transform="translate(33.678 4.252)">
          <path id="Trazado_1031034" data-name="Trazado 1031034" d="M337.777,60.041a6.572,6.572,0,0,0-.98-1.887,5.566,5.566,0,1,1,8.274-.028,6.864,6.864,0,0,0-1,1.892" transform="translate(-335.355 -48.863)" fill="none" stroke="#000" stroke-linecap="round" stroke-linejoin="round" stroke-miterlimit="10" stroke-width="1"/>
          <line id="Línea_824" data-name="Línea 824" y1="4.092" transform="translate(5.566 7.064)" fill="none" stroke="#000" stroke-linecap="round" stroke-linejoin="round" stroke-miterlimit="10" stroke-width="1"/>
          <path id="Trazado_1031035" data-name="Trazado 1031035" d="M368.382,186.134v.633a2.056,2.056,0,0,1-2.056,2.056h-1.352a2.056,2.056,0,0,1-2.056-2.056v-.633" transform="translate(-360.084 -172.022)" fill="none" stroke="#000" stroke-linecap="round" stroke-linejoin="round" stroke-miterlimit="10" stroke-width="1"/>
          <path id="Trazado_1031036" data-name="Trazado 1031036" d="M355.813,160.492h-5.539a1.407,1.407,0,0,1-1.407-1.407V159a1.407,1.407,0,0,1,1.407-1.407h5.539A1.407,1.407,0,0,1,357.22,159v.083A1.407,1.407,0,0,1,355.813,160.492Z" transform="translate(-347.478 -146.417)" fill="none" stroke="#000" stroke-linecap="round" stroke-linejoin="round" stroke-miterlimit="10" stroke-width="1"/>
          <line id="Línea_825" data-name="Línea 825" x2="3.563" transform="translate(3.858 7.055)" fill="none" stroke="#000" stroke-linecap="round" stroke-linejoin="round" stroke-miterlimit="10" stroke-width="1"/>
        </g>
        <path id="Trazado_1031037" data-name="Trazado 1031037" d="M346.53,432.195l.258.049a9.958,9.958,0,0,1,2.809.989" transform="translate(-311.703 -388.536)" fill="none" stroke="#000" stroke-linecap="round" stroke-linejoin="round" stroke-miterlimit="10" stroke-width="1"/>
        <path id="Trazado_1031038" data-name="Trazado 1031038" d="M250.768,358.351v3.833a2.273,2.273,0,0,0,1.847,2.233" transform="translate(-225.786 -322.283)" fill="none" stroke="#000" stroke-linecap="round" stroke-linejoin="round" stroke-miterlimit="10" stroke-width="1"/>
        <path id="Trazado_1031039" data-name="Trazado 1031039" d="M118.589,417.362h0a10.558,10.558,0,0,0,15.436,0h0" transform="translate(-107.195 -375.228)" fill="none" stroke="#000" stroke-linecap="round" stroke-linejoin="round" stroke-miterlimit="10" stroke-width="1"/>
        <path id="Trazado_1031040" data-name="Trazado 1031040" d="M11.008,366.027l-.4.081a9.955,9.955,0,0,0-2.854,1.013m13.242-8.77v3.833a2.273,2.273,0,0,1-1.847,2.233l-.118.023" transform="translate(-7.75 -322.283)" fill="none" stroke="#000" stroke-linecap="round" stroke-linejoin="round" stroke-miterlimit="10" stroke-width="1"/>
        <g id="Grupo_1173881" data-name="Grupo 1173881" transform="translate(2.874 40.156)">
          <path id="Trazado_1031041" data-name="Trazado 1031041" d="M45.322,404.751l-1.613-5.8a1.13,1.13,0,0,0-1.417-.778l-6.24,1.9a.489.489,0,0,0-.306.667l1.379,3.122,3.8.873-2.093,3,.474,1.323" transform="translate(-35.703 -398.124)" fill="none" stroke="#000" stroke-linecap="round" stroke-linejoin="round" stroke-miterlimit="10" stroke-width="1"/>
          <line id="Línea_826" data-name="Línea 826" x1="0.234" y1="0.842" transform="translate(10.582 10.094)" fill="none" stroke="#000" stroke-linecap="round" stroke-linejoin="round" stroke-miterlimit="10" stroke-width="1"/>
          <path id="Trazado_1031042" data-name="Trazado 1031042" d="M244.868,409.06l2.812-10.108a1.129,1.129,0,0,1,1.417-.778l6.24,1.9a.49.49,0,0,1,.306.667l-1.379,3.122-3.8.872,2.093,3-.475,1.323" transform="translate(-223.366 -398.125)" fill="none" stroke="#000" stroke-linecap="round" stroke-linejoin="round" stroke-miterlimit="10" stroke-width="1"/>
        </g>
        <g id="Grupo_1173884" data-name="Grupo 1173884" transform="translate(38.062 27.916)">
          <g id="Grupo_1173882" data-name="Grupo 1173882" transform="translate(10.22 6.638)">
            <path id="Trazado_1031043" data-name="Trazado 1031043" d="M480.171,345a1.378,1.378,0,0,0-1.378-1.378h0a1.379,1.379,0,0,0-1.379,1.379V348.1a1.379,1.379,0,0,0,1.379,1.379h0a1.379,1.379,0,0,0,1.38-1.379Z" transform="translate(-477.412 -343.626)" fill="none" stroke="#000" stroke-linecap="round" stroke-linejoin="round" stroke-miterlimit="10" stroke-width="1"/>
            <path id="Trazado_1031044" data-name="Trazado 1031044" d="M490.831,400.563" transform="translate(-489.452 -394.71)" fill="none" stroke="#000" stroke-linecap="round" stroke-linejoin="round" stroke-miterlimit="10" stroke-width="1"/>
          </g>
          <g id="Grupo_1173883" data-name="Grupo 1173883" transform="translate(11.088 11.151)">
            <path id="Trazado_1031045" data-name="Trazado 1031045" d="M487.748,387.53v4.123a6.7,6.7,0,0,1-.945,3.4h0a6.729,6.729,0,0,0-.945,3.464l0,1.036" transform="translate(-485.857 -387.53)" fill="none" stroke="#000" stroke-linecap="round" stroke-linejoin="round" stroke-miterlimit="10" stroke-width="1"/>
          </g>
          <path id="Trazado_1031046" data-name="Trazado 1031046" d="M433.859,414.75a5.64,5.64,0,0,1,1.2,5.157l-.043.165" transform="translate(-428.117 -400.801)" fill="none" stroke="#000" stroke-linecap="round" stroke-linejoin="round" stroke-miterlimit="10" stroke-width="1"/>
          <path id="Trazado_1031047" data-name="Trazado 1031047" d="M389.115,291.639V280.511a1.458,1.458,0,0,1,1.454-1.454h.117a1.458,1.458,0,0,1,1.454,1.454v9.042" transform="translate(-387.972 -279.057)" fill="none" stroke="#000" stroke-linecap="round" stroke-linejoin="round" stroke-miterlimit="10" stroke-width="1"/>
          <path id="Trazado_1031048" data-name="Trazado 1031048" d="M418.532,331.347a1.458,1.458,0,0,1,1.454-1.454h.117a1.458,1.458,0,0,1,1.454,1.454v3.309" transform="translate(-414.365 -324.667)" fill="none" stroke="#000" stroke-linecap="round" stroke-linejoin="round" stroke-miterlimit="10" stroke-width="1"/>
          <path id="Trazado_1031049" data-name="Trazado 1031049" d="M447.947,334.62v-3.274a1.458,1.458,0,0,1,1.454-1.454h.117a1.458,1.458,0,0,1,1.454,1.454v1.388" transform="translate(-440.756 -324.667)" fill="none" stroke="#000" stroke-linecap="round" stroke-linejoin="round" stroke-miterlimit="10" stroke-width="1"/>
          <path id="Trazado_1031050" data-name="Trazado 1031050" d="M382.808,381.236l1.3-1.744,2.6-.335a2.087,2.087,0,0,0,1.439-1.983.707.707,0,0,0-.707-.706h-3.706a2.613,2.613,0,0,0-1.5.472l-3.34,2.338a2.087,2.087,0,0,0-.89,1.709v1.7a3.516,3.516,0,0,0,.924,2.375,4.253,4.253,0,0,1,1.118,2.874v1.692" transform="translate(-377.999 -366.454)" fill="none" stroke="#000" stroke-linecap="round" stroke-linejoin="round" stroke-miterlimit="10" stroke-width="1"/>
        </g>
      </g>
    </g>
  </g>
</svg>
