<svg xmlns="http://www.w3.org/2000/svg" xmlns:xlink="http://www.w3.org/1999/xlink" width="108.914" height="108.914" viewBox="0 0 108.914 108.914">
  <defs>
    <filter id="Trazado_874925" x="0" y="0" width="108.914" height="108.914" filterUnits="userSpaceOnUse">
      <feOffset dy="3" input="SourceAlpha"/>
      <feGaussianBlur stdDeviation="3" result="blur"/>
      <feFlood flood-opacity="0.161"/>
      <feComposite operator="in" in2="blur"/>
      <feComposite in="SourceGraphic"/>
    </filter>
  </defs>
  <g id="Grupo_1176596" data-name="Grupo 1176596" transform="translate(-3371 9773.867)">
    <g id="Grupo_1176444" data-name="Grupo 1176444" transform="translate(2571.5 -12285.024)">
      <g id="Grupo_1111316" data-name="Grupo 1111316" transform="translate(0 564.946)">
        <g id="Grupo_1109835" data-name="Grupo 1109835">
          <g id="Grupo_1107913" data-name="Grupo 1107913" transform="translate(808.5 1952.211)">
            <g transform="matrix(1, 0, 0, 1, -9, -6)" filter="url(#Trazado_874925)">
              <g id="Trazado_874925-2" data-name="Trazado 874925" transform="translate(9 6)" fill="#fd9826" opacity="0.859">
                <path d="M 45.45676803588867 89.41407012939453 C 39.52198028564453 89.41407012939453 33.76551818847656 88.25206756591797 28.34726715087891 85.96034240722656 C 23.11311721801758 83.74648284912109 18.41204261779785 80.57682800292969 14.37464332580566 76.5394287109375 C 10.33724308013916 72.50202941894531 7.167593002319336 67.80095672607422 4.953730583190918 62.56679534912109 C 2.662005424499512 57.14855575561523 1.500005483627319 51.39208221435547 1.500005483627319 45.45729446411133 C 1.500005483627319 39.52198028564453 2.662005424499512 33.76551818847656 4.953730583190918 28.34726905822754 C 7.167593002319336 23.11310577392578 10.33724308013916 18.41203117370605 14.37464332580566 14.37464332580566 C 18.41204261779785 10.33724403381348 23.11311721801758 7.167593955993652 28.34726715087891 4.953731060028076 C 33.76551818847656 2.662006139755249 39.52198028564453 1.500006198883057 45.45676803588867 1.500006198883057 C 51.39155578613281 1.500006198883057 57.14802932739258 2.662006139755249 62.56626892089844 4.953731060028076 C 67.80043029785156 7.167593955993652 72.50150299072266 10.33724403381348 76.53890228271484 14.37464332580566 C 80.57630920410156 18.41203117370605 83.74595642089844 23.11310577392578 85.95981597900391 28.34726905822754 C 88.25154113769531 33.76551818847656 89.41354370117188 39.52198028564453 89.41354370117188 45.45676803588867 C 89.41354370117188 51.39208221435547 88.25154113769531 57.14855575561523 85.95981597900391 62.56679534912109 C 83.74595642089844 67.80095672607422 80.57630920410156 72.50202941894531 76.53890228271484 76.5394287109375 C 72.50150299072266 80.57682800292969 67.80043029785156 83.74648284912109 62.56626892089844 85.96034240722656 C 57.14802932739258 88.25206756591797 51.39155578613281 89.41407012939453 45.45676803588867 89.41407012939453 Z" stroke="none"/>
                <path d="M 45.45676803588867 3 C 39.72381210327148 3 34.1639404296875 4.12213134765625 28.93159484863281 6.335227966308594 C 23.87622833251953 8.473472595214844 19.33542633056641 11.53517150878906 15.43529510498047 15.435302734375 C 11.53517150878906 19.33543395996094 8.473464965820312 23.87622833251953 6.335227966308594 28.93160247802734 C 4.122123718261719 34.16394424438477 3 39.72381591796875 3 45.4572868347168 C 3 51.19024658203125 4.122123718261719 56.75011825561523 6.335227966308594 61.98246002197266 C 8.473464965820312 67.03782653808594 11.53517150878906 71.57862854003906 15.43529510498047 75.478759765625 C 19.33542633056641 79.37889099121094 23.87622833251953 82.44058990478516 28.93159484863281 84.57883453369141 C 34.1639404296875 86.79193115234375 39.72381210327148 87.9140625 45.45676803588867 87.9140625 C 51.18972396850586 87.9140625 56.74959564208984 86.79193115234375 61.98194122314453 84.57883453369141 C 67.03730773925781 82.44058990478516 71.57810974121094 79.37889099121094 75.47824096679688 75.478759765625 C 79.37837219238281 71.57862854003906 82.44007110595703 67.03782653808594 84.57830810546875 61.98246002197266 C 86.79141235351562 56.75011825561523 87.91353607177734 51.19024658203125 87.91353607177734 45.4567756652832 C 87.91353607177734 39.72381591796875 86.79141235351562 34.16394424438477 84.57830810546875 28.93160247802734 C 82.44007110595703 23.87622833251953 79.37837219238281 19.33543395996094 75.47824096679688 15.435302734375 C 71.57810974121094 11.53517150878906 67.03730773925781 8.473472595214844 61.98194122314453 6.335227966308594 C 56.74959564208984 4.12213134765625 51.18972396850586 3 45.45676803588867 3 M 45.45676803588867 0 C 70.56185150146484 0 90.91353607177734 20.35169219970703 90.91353607177734 45.4567756652832 L 90.91353607177734 45.4572868347168 C 90.91353607177734 70.5623779296875 70.56185150146484 90.9140625 45.45676803588867 90.9140625 C 20.3516845703125 90.9140625 0 70.5623779296875 0 45.4572868347168 L 0 45.4567756652832 C 0 20.35169219970703 20.3516845703125 0 45.45676803588867 0 Z" stroke="none" fill="#fff"/>
              </g>
            </g>
            <g id="Trazado_874923" data-name="Trazado 874923" transform="translate(0 0)" fill="none">
              <path d="M45.457,0A45.457,45.457,0,0,1,90.914,45.457h0A45.457,45.457,0,0,1,0,45.457H0A45.457,45.457,0,0,1,45.457,0Z" stroke="none"/>
              <path d="M 45.45676803588867 3 C 39.72381210327148 3 34.1639404296875 4.12213134765625 28.93159484863281 6.335227966308594 C 23.87622833251953 8.473472595214844 19.33542633056641 11.53517150878906 15.43529510498047 15.435302734375 C 11.53517150878906 19.33543395996094 8.473464965820312 23.87622833251953 6.335227966308594 28.93160247802734 C 4.122123718261719 34.16394424438477 3 39.72381591796875 3 45.4572868347168 C 3 51.19024658203125 4.122123718261719 56.75011825561523 6.335227966308594 61.98246002197266 C 8.473464965820312 67.03782653808594 11.53517150878906 71.57862854003906 15.43529510498047 75.478759765625 C 19.33542633056641 79.37889099121094 23.87622833251953 82.44058990478516 28.93159484863281 84.57883453369141 C 34.1639404296875 86.79193115234375 39.72381210327148 87.9140625 45.45676803588867 87.9140625 C 51.18972396850586 87.9140625 56.74959564208984 86.79193115234375 61.98194122314453 84.57883453369141 C 67.03730773925781 82.44058990478516 71.57810974121094 79.37889099121094 75.47824096679688 75.478759765625 C 79.37837219238281 71.57862854003906 82.44007110595703 67.03782653808594 84.57830810546875 61.98246002197266 C 86.79141235351562 56.75011825561523 87.91353607177734 51.19024658203125 87.91353607177734 45.4567756652832 C 87.91353607177734 39.72381591796875 86.79141235351562 34.16394424438477 84.57830810546875 28.93160247802734 C 82.44007110595703 23.87622833251953 79.37837219238281 19.33543395996094 75.47824096679688 15.435302734375 C 71.57810974121094 11.53517150878906 67.03730773925781 8.473472595214844 61.98194122314453 6.335227966308594 C 56.74959564208984 4.12213134765625 51.18972396850586 3 45.45676803588867 3 M 45.45676803588867 0 C 70.56185150146484 0 90.91353607177734 20.35169219970703 90.91353607177734 45.4567756652832 L 90.91353607177734 45.4572868347168 C 90.91353607177734 70.5623779296875 70.56185150146484 90.9140625 45.45676803588867 90.9140625 C 20.3516845703125 90.9140625 0 70.5623779296875 0 45.4572868347168 L 0 45.4567756652832 C 0 20.35169219970703 20.3516845703125 0 45.45676803588867 0 Z" stroke="none" fill="#fff"/>
            </g>
          </g>
        </g>
      </g>
    </g>
    <g id="income_18467423" transform="translate(3388.481 -9752.404)">
      <g id="Grupo_1176595" data-name="Grupo 1176595" transform="translate(7.695 6.541)">
        <g id="Grupo_1176588" data-name="Grupo 1176588" transform="translate(17.319 0)">
          <path id="Trazado_1031520" data-name="Trazado 1031520" d="M215.488,13.5h25.34a.808.808,0,0,1,.586.242l4.641,4.641a.808.808,0,0,1,.242.586V53.673a.829.829,0,0,1-.828.825H215.488a.828.828,0,0,1-.825-.825V14.325a.829.829,0,0,1,.825-.828Z" transform="translate(-209.701 -13.497)" fill="#d1d1d6" fill-rule="evenodd"/>
          <path id="Trazado_1031521" data-name="Trazado 1031521" d="M449.974,14.148a.8.8,0,0,1,.244.168l4.641,4.641a.792.792,0,0,1,.168.242h-4.639a.415.415,0,0,1-.415-.413Z" transform="translate(-418.505 -14.075)" fill="#b1b1b5" fill-rule="evenodd"/>
          <path id="Trazado_1031522" data-name="Trazado 1031522" d="M171.445,57.543h25.34a.787.787,0,0,1,.584.242l4.641,4.641a.8.8,0,0,1,.242.584V97.716a.827.827,0,0,1-.825.825H171.445a.827.827,0,0,1-.828-.825V58.368A.827.827,0,0,1,171.445,57.543Z" transform="translate(-170.617 -52.581)" fill="#eceff1" fill-rule="evenodd"/>
          <path id="Trazado_1031523" data-name="Trazado 1031523" d="M171.445,57.543h1.935v41h-1.935a.827.827,0,0,1-.828-.825V58.368A.827.827,0,0,1,171.445,57.543Z" transform="translate(-170.617 -52.581)" fill="#d1d1d6" fill-rule="evenodd"/>
          <path id="Trazado_1031524" data-name="Trazado 1031524" d="M405.953,58.169a.856.856,0,0,1,.242.171l4.641,4.641a.855.855,0,0,1,.171.242h-4.641a.414.414,0,0,1-.413-.413Z" transform="translate(-379.443 -53.137)" fill="#b1b1b5" fill-rule="evenodd"/>
        </g>
        <g id="Grupo_1176589" data-name="Grupo 1176589" transform="translate(0 36.674)">
          <path id="Trazado_1031525" data-name="Trazado 1031525" d="M41.013,344.938l8.121-4.7c1.525-.884,3.074-1.51,4.751-.967a56.837,56.837,0,0,0,8.028,2.467,2.256,2.256,0,0,1,1.562,2.7,2.187,2.187,0,0,1-2.7,1.562l1.089.174a5.049,5.049,0,0,0,3.481-.607l7.808-4.548c6.07-3.534,6.961,1.9,4.944,3.148l-14.172,8.726a5.2,5.2,0,0,1-4.208.592l-10.278-2.754-3.809,2.2a1.538,1.538,0,0,1-2.1-.563l-3.079-5.331A1.54,1.54,0,0,1,41.013,344.938Z" transform="translate(-37.616 -339.064)" fill="#f6dccd" fill-rule="evenodd"/>
          <path id="Trazado_1031526" data-name="Trazado 1031526" d="M180.26,375.813a2.228,2.228,0,0,1-2.519,1.075c-1.681-.446-3.366-.9-5.047-1.351a.845.845,0,1,1,.438-1.633Z" transform="translate(-154.586 -369.954)" fill="#f1cbbc" fill-rule="evenodd"/>
          <path id="Trazado_1031527" data-name="Trazado 1031527" d="M41.013,344.938l8.121-4.7c1.525-.884,3.074-1.51,4.751-.967,1,.323,2.338.847,3.84,1.349L41.992,349.7l-1.54-2.668A1.54,1.54,0,0,1,41.013,344.938Z" transform="translate(-37.616 -339.064)" fill="#f1cbbc" fill-rule="evenodd"/>
          <path id="Trazado_1031528" data-name="Trazado 1031528" d="M21.214,365.84l6.442,11.382a1.154,1.154,0,0,1-.433,1.566l-2.193,1.241a1.154,1.154,0,0,1-1.567-.436l-6.44-11.382a1.15,1.15,0,0,1,.433-1.567l2.191-1.241A1.153,1.153,0,0,1,21.214,365.84Z" transform="translate(-16.875 -362.306)" fill="#d1d1d6" fill-rule="evenodd"/>
          <path id="Trazado_1031529" data-name="Trazado 1031529" d="M48.244,373.66l1.138,2.014,1.128,1.992a1.152,1.152,0,0,1-.431,1.564l.783-.443a1.154,1.154,0,0,0,.433-1.566l-1.131-2-2.271-4.014-2.274-4.017-.766-1.351a1.154,1.154,0,0,0-1.339-.534l1.324,2.34,2.272,4.014,1.131,2Z" transform="translate(-40.514 -362.306)" fill="#b1b1b5" fill-rule="evenodd"/>
        </g>
        <g id="Grupo_1176593" data-name="Grupo 1176593" transform="translate(24.283 16.708)">
          <g id="Grupo_1176590" data-name="Grupo 1176590" transform="translate(0 6.525)">
            <path id="Trazado_1031530" data-name="Trazado 1031530" d="M233,226.7a.563.563,0,0,1-.563-.563v-5.828a.563.563,0,0,1,.563-.563h2.833a.563.563,0,0,1,.563.563v5.828a.563.563,0,0,1-.563.563Z" transform="translate(-232.439 -219.743)" fill="#fe646f" fill-rule="evenodd"/>
            <path id="Trazado_1031531" data-name="Trazado 1031531" d="M253.633,219.743h1.009a.563.563,0,0,1,.563.563v5.828a.563.563,0,0,1-.563.563h-1.009a.563.563,0,0,0,.563-.563v-5.828A.563.563,0,0,0,253.633,219.743Z" transform="translate(-251.246 -219.743)" fill="#fd4755" fill-rule="evenodd"/>
          </g>
          <g id="Grupo_1176591" data-name="Grupo 1176591" transform="translate(6.753 3.261)">
            <path id="Trazado_1031532" data-name="Trazado 1031532" d="M292.952,200.992a.563.563,0,0,1-.563-.563v-9.091a.563.563,0,0,1,.563-.563h2.833a.563.563,0,0,1,.563.563v9.091a.563.563,0,0,1-.563.563Z" transform="translate(-292.389 -190.774)" fill="#ffe177" fill-rule="evenodd"/>
            <path id="Trazado_1031533" data-name="Trazado 1031533" d="M313.583,190.774h1.009a.563.563,0,0,1,.563.563v9.091a.563.563,0,0,1-.563.563h-1.009a.563.563,0,0,0,.563-.563v-9.091a.563.563,0,0,0-.563-.563Z" transform="translate(-311.196 -190.774)" fill="#ffd064" fill-rule="evenodd"/>
          </g>
          <g id="Grupo_1176592" data-name="Grupo 1176592" transform="translate(13.507)">
            <path id="Trazado_1031534" data-name="Trazado 1031534" d="M352.9,175.3a.563.563,0,0,1-.563-.563V162.384a.563.563,0,0,1,.563-.563h2.835a.563.563,0,0,1,.563.563v12.353a.563.563,0,0,1-.563.563Z" transform="translate(-352.34 -161.821)" fill="#6cf5c2" fill-rule="evenodd"/>
            <path id="Trazado_1031535" data-name="Trazado 1031535" d="M373.549,161.821h1.009a.563.563,0,0,1,.563.563v12.353a.563.563,0,0,1-.563.563h-1.009a.563.563,0,0,0,.563-.563V162.384A.563.563,0,0,0,373.549,161.821Z" transform="translate(-371.16 -161.821)" fill="#00e499" fill-rule="evenodd"/>
          </g>
        </g>
        <g id="Grupo_1176594" data-name="Grupo 1176594" transform="translate(10.548 19.752)">
          <path id="Trazado_1031536" data-name="Trazado 1031536" d="M117.945,203.711a7.435,7.435,0,1,1,7.436-7.435A7.449,7.449,0,0,1,117.945,203.711Z" transform="translate(-110.51 -188.842)" fill="#ffc338" fill-rule="evenodd"/>
          <path id="Trazado_1031537" data-name="Trazado 1031537" d="M179.571,196.277a7.435,7.435,0,0,0-6.991-7.422c.146-.008.294-.013.443-.013a7.435,7.435,0,1,1,0,14.869c-.148,0-.3,0-.443-.013A7.435,7.435,0,0,0,179.571,196.277Z" transform="translate(-165.588 -188.842)" fill="#f5b829" fill-rule="evenodd"/>
        </g>
      </g>
      <path id="Trazado_1031538" data-name="Trazado 1031538" d="M18.466,56.525l.565,1v0a2.062,2.062,0,0,1-.778,2.8l-2.2,1.245,0,0a2.062,2.062,0,0,1-2.8-.778L6.8,49.376a2.059,2.059,0,0,1,.774-2.8l2.2-1.245h0a2.064,2.064,0,0,1,2.8.775v0l.447.79,5.647-3.269c1.761-1.018,3.562-1.675,5.5-1.047A56.489,56.489,0,0,0,32.1,45.026a.894.894,0,0,1,.117.029,3.159,3.159,0,0,1,2.157,3.8,3.709,3.709,0,0,1-.15.445,4.218,4.218,0,0,0,.7-.327l7.835-4.563c2.893-1.685,4.823-1.483,5.915-.75a3.373,3.373,0,0,1-.031,5.453L34.422,57.869a6.086,6.086,0,0,1-4.926.7h0L19.543,55.9ZM13.9,48.465l3.674,6.492,1.387-.8a.9.9,0,0,1,.684-.09l10.312,2.764a4.342,4.342,0,0,0,3.515-.493h0l14.217-8.753a1.377,1.377,0,0,0,.545-1.159c.036-1.372-1.344-2.335-4.577-.451l-7.834,4.563a5.952,5.952,0,0,1-4.089.721h0l-.971-.158h0l-.036-.007h0c-1.77-.363-3.412-.9-5.234-1.388a.9.9,0,0,1,.468-1.741c1.773.476,3.371,1,5.092,1.355a1.32,1.32,0,0,0,1.579-.925h0a1.36,1.36,0,0,0-.921-1.6,59.179,59.179,0,0,1-8.1-2.493h0c-1.429-.464-2.736.14-4.037.893ZM11,47v0a.255.255,0,0,0-.345-.1l-2.2,1.245h0a.252.252,0,0,0-.093.343h0L14.826,59.9h0a.254.254,0,0,0,.345.094l2.195-1.244h0a.254.254,0,0,0,.094-.345Zm-.718,1.14a.912.912,0,1,1-.772,1.033.912.912,0,0,1,.772-1.033ZM50.562,12.451H25.7V23.935a.9.9,0,1,1-1.8,0V11.55a.9.9,0,0,1,.9-.9h4.09V6.559a.9.9,0,0,1,.9-.9H56.454a.9.9,0,0,1,.637.264l5.154,5.158a.9.9,0,0,1,.264.637V47.8a.9.9,0,0,1-.9.9h-4.09v4.085a.9.9,0,0,1-.9.9H45.7a.9.9,0,1,1,0-1.8H55.716V17.6H51.463a.9.9,0,0,1-.9-.9Zm-19.868-1.8H51.463a.9.9,0,0,1,.637.264l5.154,5.154a.9.9,0,0,1,.264.637V46.9h3.188V12.618H56.454a.9.9,0,0,1-.9-.9V7.46H30.694ZM54.441,15.8l-2.077-2.077V15.8Zm4.992-4.987-2.078-2.08v2.08ZM33.322,30.693a8.269,8.269,0,1,1-1-1.8h3.616a.9.9,0,0,1,.9.9v6.955a.9.9,0,0,1-1.8,0V30.693Zm-7.646,9.485a6.432,6.432,0,1,0-6.432-6.432A6.446,6.446,0,0,0,25.676,40.178Zm-.9-10.814V29.1a.9.9,0,1,1,1.8,0v.25a3.062,3.062,0,0,1,2.088,1.814.9.9,0,1,1-1.661.7,1.455,1.455,0,0,0-1.913-.712.857.857,0,0,0-.623.822.7.7,0,0,0,.467.6,3.264,3.264,0,0,0,.893.258c1.382.226,2.882.879,3.082,2.522h0a2.612,2.612,0,0,1-2.334,2.8v.233a.9.9,0,1,1-1.8,0v-.246a3.036,3.036,0,0,1-2.325-2.2A.9.9,0,0,1,24.2,35.5a1.439,1.439,0,0,0,1.552.947,2.28,2.28,0,0,0,.929-.211.651.651,0,0,0,.443-.666.881.881,0,0,0-.6-.691,3.974,3.974,0,0,0-.989-.27h0c-1.359-.224-2.789-.929-2.868-2.545h0a2.6,2.6,0,0,1,1.763-2.586,3.289,3.289,0,0,1,.344-.114Zm21.431-9.926a44.275,44.275,0,0,1-13.7,7.586.9.9,0,1,1-.593-1.7A42.543,42.543,0,0,0,44.877,18.2l-.388.021a.9.9,0,0,1-.1-1.8l3.01-.166a.9.9,0,0,1,.941,1.029l-.434,2.986a.9.9,0,0,1-1.784-.259ZM34.833,41.858a.9.9,0,1,1,0-1.8H50.128a.9.9,0,1,1,0,1.8Zm0,3.539a.9.9,0,1,1,0-1.8h4.175a.9.9,0,0,1,0,1.8Zm11.55-8.65a.9.9,0,0,1-1.8,0V23.267a.9.9,0,0,1,.9-.9h3.961a.9.9,0,0,1,.9.9V36.747a.9.9,0,0,1-1.8,0V24.169H46.383Zm-6.753,0a.9.9,0,0,1-1.8,0V26.529a.9.9,0,0,1,.9-.9h3.959a.9.9,0,0,1,.9.9V36.747a.9.9,0,0,1-1.8,0V27.43H39.63Z" transform="translate(0)" fill-rule="evenodd"/>
    </g>
  </g>
</svg>
