<svg xmlns="http://www.w3.org/2000/svg" xmlns:xlink="http://www.w3.org/1999/xlink" width="108.914" height="108.914" viewBox="0 0 108.914 108.914">
  <defs>
    <filter id="Trazado_874925" x="0" y="0" width="108.914" height="108.914" filterUnits="userSpaceOnUse">
      <feOffset dy="3" input="SourceAlpha"/>
      <feGaussianBlur stdDeviation="3" result="blur"/>
      <feFlood flood-opacity="0.161"/>
      <feComposite operator="in" in2="blur"/>
      <feComposite in="SourceGraphic"/>
    </filter>
  </defs>
  <g id="Grupo_1176628" data-name="Grupo 1176628" transform="translate(-3685.5 9415.867)">
    <g id="Grupo_1176446" data-name="Grupo 1176446" transform="translate(2886 -11927.024)">
      <g id="Grupo_1111316" data-name="Grupo 1111316" transform="translate(0 564.946)">
        <g id="Grupo_1109835" data-name="Grupo 1109835">
          <g id="Grupo_1107913" data-name="Grupo 1107913" transform="translate(808.5 1952.211)">
            <g transform="matrix(1, 0, 0, 1, -9, -6)" filter="url(#Trazado_874925)">
              <g id="Trazado_874925-2" data-name="Trazado 874925" transform="translate(9 6)" fill="#fd9826" opacity="0.859">
                <path d="M 45.45676803588867 89.41407012939453 C 39.52198028564453 89.41407012939453 33.76551818847656 88.25206756591797 28.34726715087891 85.96034240722656 C 23.11311721801758 83.74648284912109 18.41204261779785 80.57682800292969 14.37464332580566 76.5394287109375 C 10.33724308013916 72.50202941894531 7.167593002319336 67.80095672607422 4.953730583190918 62.56679534912109 C 2.662005424499512 57.14855575561523 1.500005483627319 51.39208221435547 1.500005483627319 45.45729446411133 C 1.500005483627319 39.52198028564453 2.662005424499512 33.76551818847656 4.953730583190918 28.34726905822754 C 7.167593002319336 23.11310577392578 10.33724308013916 18.41203117370605 14.37464332580566 14.37464332580566 C 18.41204261779785 10.33724403381348 23.11311721801758 7.167593955993652 28.34726715087891 4.953731060028076 C 33.76551818847656 2.662006139755249 39.52198028564453 1.500006198883057 45.45676803588867 1.500006198883057 C 51.39155578613281 1.500006198883057 57.14802932739258 2.662006139755249 62.56626892089844 4.953731060028076 C 67.80043029785156 7.167593955993652 72.50150299072266 10.33724403381348 76.53890228271484 14.37464332580566 C 80.57630920410156 18.41203117370605 83.74595642089844 23.11310577392578 85.95981597900391 28.34726905822754 C 88.25154113769531 33.76551818847656 89.41354370117188 39.52198028564453 89.41354370117188 45.45676803588867 C 89.41354370117188 51.39208221435547 88.25154113769531 57.14855575561523 85.95981597900391 62.56679534912109 C 83.74595642089844 67.80095672607422 80.57630920410156 72.50202941894531 76.53890228271484 76.5394287109375 C 72.50150299072266 80.57682800292969 67.80043029785156 83.74648284912109 62.56626892089844 85.96034240722656 C 57.14802932739258 88.25206756591797 51.39155578613281 89.41407012939453 45.45676803588867 89.41407012939453 Z" stroke="none"/>
                <path d="M 45.45676803588867 3 C 39.72381210327148 3 34.1639404296875 4.12213134765625 28.93159484863281 6.335227966308594 C 23.87622833251953 8.473472595214844 19.33542633056641 11.53517150878906 15.43529510498047 15.435302734375 C 11.53517150878906 19.33543395996094 8.473464965820312 23.87622833251953 6.335227966308594 28.93160247802734 C 4.122123718261719 34.16394424438477 3 39.72381591796875 3 45.4572868347168 C 3 51.19024658203125 4.122123718261719 56.75011825561523 6.335227966308594 61.98246002197266 C 8.473464965820312 67.03782653808594 11.53517150878906 71.57862854003906 15.43529510498047 75.478759765625 C 19.33542633056641 79.37889099121094 23.87622833251953 82.44058990478516 28.93159484863281 84.57883453369141 C 34.1639404296875 86.79193115234375 39.72381210327148 87.9140625 45.45676803588867 87.9140625 C 51.18972396850586 87.9140625 56.74959564208984 86.79193115234375 61.98194122314453 84.57883453369141 C 67.03730773925781 82.44058990478516 71.57810974121094 79.37889099121094 75.47824096679688 75.478759765625 C 79.37837219238281 71.57862854003906 82.44007110595703 67.03782653808594 84.57830810546875 61.98246002197266 C 86.79141235351562 56.75011825561523 87.91353607177734 51.19024658203125 87.91353607177734 45.4567756652832 C 87.91353607177734 39.72381591796875 86.79141235351562 34.16394424438477 84.57830810546875 28.93160247802734 C 82.44007110595703 23.87622833251953 79.37837219238281 19.33543395996094 75.47824096679688 15.435302734375 C 71.57810974121094 11.53517150878906 67.03730773925781 8.473472595214844 61.98194122314453 6.335227966308594 C 56.74959564208984 4.12213134765625 51.18972396850586 3 45.45676803588867 3 M 45.45676803588867 0 C 70.56185150146484 0 90.91353607177734 20.35169219970703 90.91353607177734 45.4567756652832 L 90.91353607177734 45.4572868347168 C 90.91353607177734 70.5623779296875 70.56185150146484 90.9140625 45.45676803588867 90.9140625 C 20.3516845703125 90.9140625 0 70.5623779296875 0 45.4572868347168 L 0 45.4567756652832 C 0 20.35169219970703 20.3516845703125 0 45.45676803588867 0 Z" stroke="none" fill="#fff"/>
              </g>
            </g>
            <g id="Trazado_874923" data-name="Trazado 874923" transform="translate(0 0)" fill="none">
              <path d="M45.457,0A45.457,45.457,0,0,1,90.914,45.457h0A45.457,45.457,0,0,1,0,45.457H0A45.457,45.457,0,0,1,45.457,0Z" stroke="none"/>
              <path d="M 45.45676803588867 3 C 39.72381210327148 3 34.1639404296875 4.12213134765625 28.93159484863281 6.335227966308594 C 23.87622833251953 8.473472595214844 19.33542633056641 11.53517150878906 15.43529510498047 15.435302734375 C 11.53517150878906 19.33543395996094 8.473464965820312 23.87622833251953 6.335227966308594 28.93160247802734 C 4.122123718261719 34.16394424438477 3 39.72381591796875 3 45.4572868347168 C 3 51.19024658203125 4.122123718261719 56.75011825561523 6.335227966308594 61.98246002197266 C 8.473464965820312 67.03782653808594 11.53517150878906 71.57862854003906 15.43529510498047 75.478759765625 C 19.33542633056641 79.37889099121094 23.87622833251953 82.44058990478516 28.93159484863281 84.57883453369141 C 34.1639404296875 86.79193115234375 39.72381210327148 87.9140625 45.45676803588867 87.9140625 C 51.18972396850586 87.9140625 56.74959564208984 86.79193115234375 61.98194122314453 84.57883453369141 C 67.03730773925781 82.44058990478516 71.57810974121094 79.37889099121094 75.47824096679688 75.478759765625 C 79.37837219238281 71.57862854003906 82.44007110595703 67.03782653808594 84.57830810546875 61.98246002197266 C 86.79141235351562 56.75011825561523 87.91353607177734 51.19024658203125 87.91353607177734 45.4567756652832 C 87.91353607177734 39.72381591796875 86.79141235351562 34.16394424438477 84.57830810546875 28.93160247802734 C 82.44007110595703 23.87622833251953 79.37837219238281 19.33543395996094 75.47824096679688 15.435302734375 C 71.57810974121094 11.53517150878906 67.03730773925781 8.473472595214844 61.98194122314453 6.335227966308594 C 56.74959564208984 4.12213134765625 51.18972396850586 3 45.45676803588867 3 M 45.45676803588867 0 C 70.56185150146484 0 90.91353607177734 20.35169219970703 90.91353607177734 45.4567756652832 L 90.91353607177734 45.4572868347168 C 90.91353607177734 70.5623779296875 70.56185150146484 90.9140625 45.45676803588867 90.9140625 C 20.3516845703125 90.9140625 0 70.5623779296875 0 45.4572868347168 L 0 45.4567756652832 C 0 20.35169219970703 20.3516845703125 0 45.45676803588867 0 Z" stroke="none" fill="#fff"/>
            </g>
          </g>
        </g>
      </g>
    </g>
    <g id="secretary_1556245" transform="translate(3713.813 -9389.182)">
      <path id="Trazado_1031587" data-name="Trazado 1031587" d="M344,325.4V313.893l3.454,2.876,3.454-6.909.086-.259L356,311.268a5.182,5.182,0,0,1,3.541,4.914V325.4Zm0,0" transform="translate(-306.867 -276.181)" fill="#cf9e76"/>
      <path id="Trazado_1031588" data-name="Trazado 1031588" d="M188.525,311.268l5.009-1.666.086.259,3.454,6.909,3.454-2.876V325.4H187.039l1.667-1.667-1.2-2.021c.138-.3.268-.6.38-.915l2.28-.579v-5.181l-2.28-.579c-.112-.311-.242-.613-.38-.915l1.2-2.021-.233-.233v-.009a.12.12,0,0,0,.052-.017Zm0,0" transform="translate(-166.849 -276.181)" fill="#cf9e76"/>
      <path id="Trazado_1031589" data-name="Trazado 1031589" d="M315.454,337.442v11.511H312V337.442L313.727,336Zm0,0" transform="translate(-278.321 -299.73)" fill="#e6e9ed"/>
      <path id="Trazado_1031590" data-name="Trazado 1031590" d="M336.722,297.469l-.086.259-3.454,6.909-3.454-2.876L328,300.318,332.318,296Zm0,0" transform="translate(-292.594 -264.049)" fill="#b27946"/>
      <path id="Trazado_1031591" data-name="Trazado 1031591" d="M255.921,300.318l-1.727,1.442-3.454,2.876-3.454-6.909-.086-.259L251.6,296Zm0,0" transform="translate(-220.515 -264.048)" fill="#b27946"/>
      <path id="Trazado_1031592" data-name="Trazado 1031592" d="M13.181,8v5.181H8V33.907H27V8Zm0,0" transform="translate(-7.137 -7.137)" fill="#e6e9ed"/>
      <path id="Trazado_1031593" data-name="Trazado 1031593" d="M13.181,8v5.181H8Zm0,0" transform="translate(-7.137 -7.137)" fill="#fcd770"/>
      <path id="Trazado_1031594" data-name="Trazado 1031594" d="M40,136H52.09v8.636H40Zm0,0" transform="translate(-35.683 -121.32)" fill="#48cfad"/>
      <path id="Trazado_1031595" data-name="Trazado 1031595" d="M28.76,284.888l.233.233-1.2,2.021c.138.3.268.6.38.915l2.28.579v5.181l-2.28.578c-.112.311-.242.613-.38.915l1.2,2.021-3.662,3.662-2.021-1.2c-.3.138-.6.268-.915.38l-.579,2.28H16.635l-.579-2.28c-.311-.112-.613-.242-.915-.38l-2.021,1.2-3.662-3.662,1.2-2.021c-.138-.3-.268-.6-.38-.915L8,293.817v-5.181l2.28-.579c.112-.311.242-.613.38-.915l-1.2-2.021,3.662-3.662,2.021,1.2c.3-.138.6-.268.915-.38l.579-2.28h5.181l.579,2.28c.311.112.613.242.915.38l2.021-1.2Zm-3.489,6.339a6.045,6.045,0,1,0-6.045,6.045A6.04,6.04,0,0,0,25.271,291.226Zm0,0" transform="translate(-7.136 -249.775)" fill="#fcd770"/>
      <path id="Trazado_1031596" data-name="Trazado 1031596" d="M62.045,328A6.045,6.045,0,1,1,56,334.045,6.04,6.04,0,0,1,62.045,328Zm2.591,6.045a2.591,2.591,0,1,0-2.591,2.591A2.587,2.587,0,0,0,64.636,334.045Zm0,0" transform="translate(-49.955 -292.594)" fill="#ffeaa7"/>
      <path id="Trazado_1031597" data-name="Trazado 1031597" d="M369.788,191.919a7.9,7.9,0,0,0,2.453-4.482l.078.017A3.453,3.453,0,0,0,375.772,184v6.65a3.716,3.716,0,0,1-3.713,3.713H368v-1.131Zm0,0" transform="translate(-328.277 -164.138)" fill="#fcd770"/>
      <path id="Trazado_1031598" data-name="Trazado 1031598" d="M223.772,194.363h-4.059A3.716,3.716,0,0,1,216,190.65V184a3.453,3.453,0,0,0,3.454,3.454l.164-.026a8.647,8.647,0,0,0,4.154,5.777Zm0,0" transform="translate(-192.684 -164.138)" fill="#fcd770"/>
      <path id="Trazado_1031599" data-name="Trazado 1031599" d="M240.18,20.09V27a3.453,3.453,0,0,0-3.454-3.454v-.864a8.348,8.348,0,0,1-5.9-2.444l-.147-.147v2.591a8.371,8.371,0,0,1-5.9-2.444l-.147-.147v2.591h-.725a3.781,3.781,0,0,1-3.593-2.591h-.864v3.454A3.453,3.453,0,0,0,216,27V20.09a12.09,12.09,0,1,1,24.18,0Zm0,0" transform="translate(-192.684 -7.137)" fill="#fcd770"/>
      <g id="Grupo_1176627" data-name="Grupo 1176627" transform="translate(23.316 12.953)">
        <path id="Trazado_1031600" data-name="Trazado 1031600" d="M288,270.438v-1.157a8.586,8.586,0,0,0,4.318,1.157,8.862,8.862,0,0,0,4.318-1.131v2.858l-4.318,4.318L288,272.165Zm0,0" transform="translate(-280.228 -253.167)" fill="#f0d0b4"/>
        <path id="Trazado_1031601" data-name="Trazado 1031601" d="M410.813,155.454a3.453,3.453,0,0,1-3.454,3.454l-.078-.017a6.327,6.327,0,0,0,.078-.993V152A3.453,3.453,0,0,1,410.813,155.454Zm0,0" transform="translate(-386.633 -148.546)" fill="#f0d0b4"/>
        <path id="Trazado_1031602" data-name="Trazado 1031602" d="M265.271,123.454v5.9a6.319,6.319,0,0,1-.078.993,7.9,7.9,0,0,1-2.453,4.482l-1.787,1.313a8.862,8.862,0,0,1-4.318,1.131,8.645,8.645,0,0,1-8.472-6.934,9.087,9.087,0,0,1-.164-1.7V120h.864a3.781,3.781,0,0,0,3.593,2.591h.725V120l.147.147a8.37,8.37,0,0,0,5.9,2.444V120l.147.147a8.348,8.348,0,0,0,5.9,2.444Zm0,0" transform="translate(-244.546 -120)" fill="#f0d0b4"/>
        <path id="Trazado_1031603" data-name="Trazado 1031603" d="M219.454,157.181a9.089,9.089,0,0,0,.164,1.7l-.164.026a3.454,3.454,0,1,1,0-6.909Zm0,0" transform="translate(-216 -148.546)" fill="#f0d0b4"/>
      </g>
      <path id="Trazado_1031604" data-name="Trazado 1031604" d="M281.727,160.864a.864.864,0,1,1-.864-.864A.864.864,0,0,1,281.727,160.864Zm0,0" transform="translate(-249.776 -142.729)"/>
      <path id="Trazado_1031605" data-name="Trazado 1031605" d="M361.727,160.864a.864.864,0,1,1-.864-.864A.864.864,0,0,1,361.727,160.864Zm0,0" transform="translate(-321.14 -142.729)"/>
      <path id="Trazado_1031606" data-name="Trazado 1031606" d="M299.454,217.727A1.729,1.729,0,0,1,297.727,216H296a3.454,3.454,0,1,0,6.909,0h-1.727A1.729,1.729,0,0,1,299.454,217.727Zm0,0" transform="translate(-264.048 -192.684)"/>
      <path id="Trazado_1031607" data-name="Trazado 1031607" d="M49.408,34.271l-8.82-2.942v-.241H43.78a4.581,4.581,0,0,0,4.58-4.58V12.953a12.954,12.954,0,1,0-25.907,0V26.508a4.58,4.58,0,0,0,4.58,4.58h3.192v.241l-8.368,2.789L18.334,30.6,16.117,31.91l-.126-.053-.64-2.5H8.828l-.638,2.5-.126.053L5.847,30.6,1.235,35.208,2.55,37.425l-.053.126L0,38.19v6.522l2.5.638c.017.042.035.084.053.126L1.235,47.694l4.612,4.612,2.217-1.315.126.053.639,2.5h6.522l.638-2.5.126-.053,2.217,1.315,2.22-2.218H53.541V40a6.036,6.036,0,0,0-4.133-5.733Zm-6.46-.334L40.3,39.226l-3.617-3.014,3.272-3.272ZM35.4,29.361a7.781,7.781,0,0,1-7.772-7.772V14.711a4.647,4.647,0,0,0,3.594,1.7h1.587V14.813a9.139,9.139,0,0,0,5.181,1.594h.864V14.813a9.1,9.1,0,0,0,4.318,1.555l0,5.94c0,3.757-3.636,7.053-7.775,7.053Zm-3.452,1.068a9.435,9.435,0,0,0,3.452.659,9.6,9.6,0,0,0,3.457-.657v1.163l-3.454,3.454-3.454-3.454Zm13.41-1.548a2.831,2.831,0,0,1-1.582.479H40.893a9.124,9.124,0,0,0,3.785-5.246,4.27,4.27,0,0,0,1.954-.821v3.215a2.843,2.843,0,0,1-1.27,2.373ZM44.9,17.43a2.575,2.575,0,0,1,0,4.863Zm-9.5-15.7A11.239,11.239,0,0,1,46.633,12.953V16.43a4.282,4.282,0,0,0-1.73-.8V14.68h-.864a7.426,7.426,0,0,1-5.286-2.189l-1.623-1.623v3.763a7.415,7.415,0,0,1-4.422-2.141l-1.623-1.623v3.808a2.924,2.924,0,0,1-2.636-2l-.2-.59H25.9v3.542a4.276,4.276,0,0,0-1.725.8V12.953A11.239,11.239,0,0,1,35.406,1.727ZM25.941,22.3a2.575,2.575,0,0,1-.036-4.873v4.158c0,.241.018.479.036.715Zm-.49,6.578a2.843,2.843,0,0,1-1.27-2.373V23.294a4.268,4.268,0,0,0,2.08.834,9.525,9.525,0,0,0,3.7,5.233H27.031a2.83,2.83,0,0,1-1.581-.479Zm5.4,4.058,3.272,3.272-3.617,3.014-2.645-5.29Zm-12.8,17.2-1.846-1.1-.415.2a8.641,8.641,0,0,1-.823.341l-.435.154-.53,2.079H10.17l-.53-2.079L9.2,49.581a8.143,8.143,0,0,1-.823-.341l-.415-.2-1.846,1.1L3.406,47.421l1.1-1.846-.2-.415a8.64,8.64,0,0,1-.341-.823L3.807,43.9l-2.08-.53V39.531L3.806,39l.154-.435a8.141,8.141,0,0,1,.341-.823l.2-.415L3.4,35.482,6.12,32.767l1.846,1.1.415-.2a8.64,8.64,0,0,1,.823-.341l.435-.154.53-2.08H14.01l.53,2.079.435.154a8.141,8.141,0,0,1,.823.341l.415.2,1.846-1.1,2.715,2.715-1.1,1.846.2.415a8.64,8.64,0,0,1,.341.823l.154.435,2.08.53v3.841l-2.079.53-.154.435a8.14,8.14,0,0,1-.341.823l-.2.415,1.1,1.846Zm4.22-1.776.666-.666-1.315-2.217.053-.126,2.5-.639V38.189l-2.5-.638c-.017-.042-.035-.084-.053-.126l1.043-1.757,3.537-1.179,3.73,7.461,2.877-2.4V48.36Zm12.263,0V38.113l.864-.719.864.719V48.36Zm17.271,0H46.633V40.587H44.906V48.36H38V39.552l2.876,2.4,3.73-7.461,4.259,1.42A4.313,4.313,0,0,1,51.814,40Zm0,0" transform="translate(0)"/>
      <path id="Trazado_1031608" data-name="Trazado 1031608" d="M54.909,320a6.909,6.909,0,1,0,6.909,6.909A6.916,6.916,0,0,0,54.909,320Zm0,12.09a5.181,5.181,0,1,1,5.181-5.181A5.187,5.187,0,0,1,54.909,332.09Zm0,0" transform="translate(-42.819 -285.457)"/>
      <path id="Trazado_1031609" data-name="Trazado 1031609" d="M83.454,352a3.454,3.454,0,1,0,3.454,3.454A3.458,3.458,0,0,0,83.454,352Zm0,5.181a1.727,1.727,0,1,1,1.727-1.727A1.729,1.729,0,0,1,83.454,357.181Zm0,0" transform="translate(-71.365 -314.003)"/>
      <path id="Trazado_1031610" data-name="Trazado 1031610" d="M368,400h3.454v1.727H368Zm0,0" transform="translate(-328.276 -356.822)"/>
      <path id="Trazado_1031611" data-name="Trazado 1031611" d="M20.725,0H5.687L0,5.687V27.634H20.725ZM5.181,2.948V5.181H2.948ZM19,25.907H1.727v-19H6.908V1.727H19Zm0,0" transform="translate(0 0)"/>
      <path id="Trazado_1031612" data-name="Trazado 1031612" d="M80,32h8.636v1.727H80Zm0,0" transform="translate(-71.365 -28.546)"/>
      <path id="Trazado_1031613" data-name="Trazado 1031613" d="M80,64h8.636v1.727H80Zm0,0" transform="translate(-71.365 -57.092)"/>
      <path id="Trazado_1031614" data-name="Trazado 1031614" d="M32,96H45.817v1.727H32Zm0,0" transform="translate(-28.546 -85.637)"/>
      <path id="Trazado_1031615" data-name="Trazado 1031615" d="M32,138.363H45.817V128H32Zm1.727-8.636H44.09v6.909H33.727Zm0,0" transform="translate(-28.546 -114.183)"/>
    </g>
  </g>
</svg>
