<svg id="coin_1_" data-name="coin (1)" xmlns="http://www.w3.org/2000/svg" width="16" height="16" viewBox="0 0 16 16">
  <path id="Trazado_900364" data-name="Trazado 900364" d="M5.5,9.511c.076.954.83,1.7,2.182,1.785V12h.6v-.709c1.4-.1,2.218-.846,2.218-1.932,0-.987-.626-1.5-1.745-1.76l-.473-.112V5.57a1.122,1.122,0,0,1,1.074.85h1.052A2.025,2.025,0,0,0,8.282,4.7V4h-.6v.719a1.962,1.962,0,0,0-2.01,1.853c0,.9.606,1.472,1.613,1.707l.4.1v2.034a1.209,1.209,0,0,1-1.114-.9ZM7.677,7.345c-.59-.137-.91-.416-.91-.836a.971.971,0,0,1,.915-.925v1.76H7.677Zm.692,1.193c.717.166,1.048.435,1.048.91,0,.542-.412.914-1.135.982V8.518Z" fill="#412976"/>
  <path id="Trazado_900365" data-name="Trazado 900365" d="M8,15a7,7,0,1,1,7-7,7,7,0,0,1-7,7m0,1A8,8,0,1,0,0,8a8,8,0,0,0,8,8" fill="#412976"/>
  <path id="Trazado_900366" data-name="Trazado 900366" d="M8,13.5A5.5,5.5,0,1,1,13.5,8,5.5,5.5,0,0,1,8,13.5M8,14A6,6,0,1,0,2,8a6,6,0,0,0,6,6" transform="translate(0)" fill="#412976"/>
</svg>
