<svg xmlns="http://www.w3.org/2000/svg" xmlns:xlink="http://www.w3.org/1999/xlink" width="113" height="113" viewBox="0 0 113 113">
  <defs>
    <filter id="Trazado_896985" x="0" y="0" width="113" height="113" filterUnits="userSpaceOnUse">
      <feOffset dy="3" input="SourceAlpha"/>
      <feGaussianBlur stdDeviation="3" result="blur"/>
      <feFlood flood-opacity="0.161"/>
      <feComposite operator="in" in2="blur"/>
      <feComposite in="SourceGraphic"/>
    </filter>
  </defs>
  <g id="Grupo_1176567" data-name="Grupo 1176567" transform="translate(-586 -5606.645)">
    <g id="Grupo_1111466" data-name="Grupo 1111466" transform="translate(260.109 1760.645)">
      <g id="Grupo_1111318" data-name="Grupo 1111318" transform="translate(-5.891)">
        <g id="Grupo_1109826" data-name="Grupo 1109826" transform="translate(340.781 3852)">
          <g id="Grupo_1098742" data-name="Grupo 1098742">
            <g transform="matrix(1, 0, 0, 1, -9, -6)" filter="url(#Trazado_896985)">
              <g id="Trazado_896985-2" data-name="Trazado 896985" transform="translate(9 6)" fill="#fd9826" opacity="0.859">
                <path d="M 47.49993515014648 93.5 C 41.28932189941406 93.5 35.26528167724609 92.28397369384766 29.59514808654785 89.88571929931641 C 24.1176815032959 87.56894683837891 19.1981086730957 84.25197601318359 14.97306823730469 80.02693176269531 C 10.74802875518799 75.80189514160156 7.431055068969727 70.88231658935547 5.11428165435791 65.40485382080078 C 2.716028451919556 59.73471832275391 1.500001788139343 53.71067810058594 1.500001788139343 47.50006484985352 C 1.500001788139343 41.28932189941406 2.716028451919556 35.26528167724609 5.11428165435791 29.59514617919922 C 7.431055068969727 24.11767959594727 10.74802875518799 19.19810676574707 14.97306823730469 14.97306632995605 C 19.1981086730957 10.74802684783936 24.1176815032959 7.431053161621094 29.59514808654785 5.114280223846436 C 35.26528167724609 2.716026782989502 41.28932189941406 1.5 47.49993515014648 1.5 C 53.71054840087891 1.5 59.73458862304688 2.716026782989502 65.40472412109375 5.114280223846436 C 70.88218688964844 7.431053161621094 75.80176544189453 10.74802684783936 80.02680206298828 14.97306632995605 C 84.25183868408203 19.19810676574707 87.56881713867188 24.11767959594727 89.88558959960938 29.59514617919922 C 92.28384399414062 35.26528167724609 93.49987030029297 41.28932189941406 93.49987030029297 47.49993515014648 C 93.49987030029297 53.71067810058594 92.28384399414062 59.73471832275391 89.88558959960938 65.40485382080078 C 87.56881713867188 70.88231658935547 84.25183868408203 75.80189514160156 80.02680206298828 80.02693176269531 C 75.80176544189453 84.25197601318359 70.88218688964844 87.56894683837891 65.40472412109375 89.88571929931641 C 59.73458862304688 92.28397369384766 53.71054840087891 93.5 47.49993515014648 93.5 Z" stroke="none"/>
                <path d="M 47.49993515014648 3 C 41.49116516113281 3 35.66371917724609 4.176155090332031 30.17947387695312 6.495796203613281 C 24.88081359863281 8.7369384765625 20.12149047851562 11.94596862792969 16.03372192382812 16.03372192382812 C 11.94596862792969 20.12149047851562 8.7369384765625 24.88081359863281 6.495796203613281 30.17947387695312 C 4.1761474609375 35.66372299194336 3 41.49116897583008 3 47.50006103515625 C 3 53.50883102416992 4.1761474609375 59.33627700805664 6.495796203613281 64.82052612304688 C 8.7369384765625 70.11918640136719 11.94596862792969 74.87850952148438 16.03372192382812 78.96627807617188 C 20.12149047851562 83.05403137207031 24.88081359863281 86.2630615234375 30.17947387695312 88.50419616699219 C 35.66371917724609 90.82384490966797 41.49116516113281 92 47.49993515014648 92 C 53.50870513916016 92 59.33615112304688 90.82384490966797 64.82039642333984 88.50419616699219 C 70.11905670166016 86.2630615234375 74.87837982177734 83.05403137207031 78.96614837646484 78.96627807617188 C 83.05390167236328 74.87850952148438 86.26293182373047 70.11918640136719 88.50407409667969 64.82052612304688 C 90.82372283935547 59.33627700805664 91.99987030029297 53.50883102416992 91.99987030029297 47.49993896484375 C 91.99987030029297 41.49116897583008 90.82372283935547 35.66372299194336 88.50407409667969 30.17947387695312 C 86.26293182373047 24.88081359863281 83.05390167236328 20.12149047851562 78.96614837646484 16.03372192382812 C 74.87837982177734 11.94596862792969 70.11905670166016 8.7369384765625 64.82039642333984 6.495796203613281 C 59.33615112304688 4.176155090332031 53.50870513916016 3 47.49993515014648 3 M 47.49993515014648 0 C 73.73342895507812 0 94.99987030029297 21.26644897460938 94.99987030029297 47.49993896484375 L 94.99987030029297 47.50006103515625 C 94.99987030029297 73.73355102539062 73.73342895507812 95 47.49993515014648 95 C 21.26644134521484 95 0 73.73355102539062 0 47.50006103515625 L 0 47.49993896484375 C 0 21.26644897460938 21.26644134521484 0 47.49993515014648 0 Z" stroke="none" fill="#fff"/>
              </g>
            </g>
            <g id="Rectángulo_400907" data-name="Rectángulo 400907" transform="translate(0 0)" fill="none" stroke="#fff" stroke-width="3">
              <rect width="95" height="95" rx="47.5" stroke="none"/>
              <rect x="1.5" y="1.5" width="92" height="92" rx="46" fill="none"/>
            </g>
          </g>
        </g>
      </g>
    </g>
    <g id="profit_14462894" transform="translate(600.425 5624.689)">
      <g id="Grupo_1176566" data-name="Grupo 1176566" transform="translate(23.862 16.235)">
        <path id="Trazado_1031285" data-name="Trazado 1031285" d="M155.968,136.136h2.887a1.344,1.344,0,0,1,1.342,1.342v9.249a1.348,1.348,0,0,1-1.342,1.342h-2.887a1.346,1.346,0,0,1-1.342-1.342v-9.249A1.35,1.35,0,0,1,155.968,136.136Z" transform="translate(-147.475 -129.178)" fill="#00e499" fill-rule="evenodd"/>
        <path id="Trazado_1031286" data-name="Trazado 1031286" d="M220.32,118.132a1.344,1.344,0,0,1-1.342,1.342H216.09a1.346,1.346,0,0,1-1.342-1.342V105.021a1.35,1.35,0,0,1,1.342-1.342h2.887a1.342,1.342,0,0,1,1.342,1.342Z" transform="translate(-200.444 -100.583)" fill="#ffe177" fill-rule="evenodd"/>
        <path id="Trazado_1031287" data-name="Trazado 1031287" d="M95.873,165.39h2.887a1.344,1.344,0,0,1,1.342,1.342V172.5a1.35,1.35,0,0,1-1.342,1.342H95.873a1.344,1.344,0,0,1-1.342-1.342v-5.768A1.35,1.35,0,0,1,95.873,165.39Z" transform="translate(-94.531 -154.951)" fill="#fd7a6e" fill-rule="evenodd"/>
        <path id="Trazado_1031288" data-name="Trazado 1031288" d="M276.213,77.658H279.1A1.347,1.347,0,0,1,280.443,79v16.21A1.35,1.35,0,0,1,279.1,96.55h-2.887a1.346,1.346,0,0,1-1.342-1.342V79A1.347,1.347,0,0,1,276.213,77.658Z" transform="translate(-253.413 -77.658)" fill="#60b7ff" fill-rule="evenodd"/>
      </g>
      <path id="Trazado_1031289" data-name="Trazado 1031289" d="M93.566,24.514a.83.83,0,1,1-.118-1.656,29.8,29.8,0,0,0,13.019-4.526c3.265-2.1,6.017-4.9,7.2-8.388a.831.831,0,1,1,1.575.533c-1.326,3.882-4.331,6.972-7.879,9.255a31.536,31.536,0,0,1-13.8,4.783Z" transform="translate(-69.032 -1.267)" fill="#837683"/>
      <path id="Trazado_1031290" data-name="Trazado 1031290" d="M253,10.359a.832.832,0,1,1-.573-1.562l2.2-.806a.826.826,0,0,1,1.049.452l.877,2.03a.832.832,0,1,1-1.528.658l-.563-1.309L253,10.359Z" transform="translate(-209.293 0)" fill="#837683"/>
      <path id="Trazado_1031291" data-name="Trazado 1031291" d="M136.635,314.591l1.467.388c.762.2,1.12.121,2.466-.654L153.6,306.8a3.289,3.289,0,0,1,3.288,5.7l-17.768,10.26a4.241,4.241,0,0,1-3.218.428l-12.19-3.268a2.549,2.549,0,0,0-2.219.216l-1.909,1.1-5.694-9.856,9.195-5.309a3.583,3.583,0,0,1,2.769-.277l12.227,3.275a2.894,2.894,0,0,1,2.041,3.535,2.814,2.814,0,0,1-3.488,1.987Z" transform="translate(-87.725 -262.273)" fill="#ffddcf" fill-rule="evenodd"/>
      <path id="Trazado_1031292" data-name="Trazado 1031292" d="M235.6,351.55a.83.83,0,0,1,.422-1.606l10.254,2.725a2.844,2.844,0,0,1-2.951.934Z" transform="translate(-194.405 -301.286)" fill="#ffcbbe"/>
      <path id="Trazado_1031293" data-name="Trazado 1031293" d="M34.441,350.226l4.459-2.574a1.617,1.617,0,0,0,.59-2.2l-7.933-13.738a1.614,1.614,0,0,0-2.2-.59l-6.773,3.909a1.537,1.537,0,0,0-.59,2.2l10.247,12.4a1.731,1.731,0,0,0,2.2.59Z" transform="translate(-6.524 -284.537)" fill="#a79ba7" fill-rule="evenodd"/>
      <path id="Trazado_1031294" data-name="Trazado 1031294" d="M66.35,367.653a.832.832,0,1,1-1.44.833l-1.423-2.462a.832.832,0,1,1,1.44-.833Z" transform="translate(-43.22 -314.376)" fill="#ccc4cc"/>
      <path id="Trazado_1031295" data-name="Trazado 1031295" d="M268.012,131.264l.172,1.764a9.614,9.614,0,0,1,2.874,1.194l1.369-1.126a11.389,11.389,0,0,1,2.9,2.9l-1.123,1.366a9.667,9.667,0,0,1,1.194,2.877l1.761.172a11.461,11.461,0,0,1,0,4.1l-1.761.172a9.667,9.667,0,0,1-1.194,2.877l1.123,1.366a11.386,11.386,0,0,1-2.9,2.9l-1.369-1.123a9.6,9.6,0,0,1-2.874,1.191l-.172,1.764a11.481,11.481,0,0,1-4.1,0l-.172-1.764a9.605,9.605,0,0,1-2.874-1.191l-1.369,1.123a11.39,11.39,0,0,1-2.9-2.9l1.123-1.366a9.572,9.572,0,0,1-1.191-2.877l-1.764-.172a11.464,11.464,0,0,1,0-4.1l1.764-.172a9.577,9.577,0,0,1,1.191-2.877L256.6,136a11.386,11.386,0,0,1,2.9-2.9l1.369,1.126a9.611,9.611,0,0,1,2.874-1.194l.172-1.764A11.558,11.558,0,0,1,268.012,131.264Z" transform="translate(-211.676 -108.489)" fill="#7b849b" fill-rule="evenodd"/>
      <path id="Trazado_1031296" data-name="Trazado 1031296" d="M308.186,190.353a5.678,5.678,0,1,0-5.677-5.677A5.69,5.69,0,0,0,308.186,190.353Z" transform="translate(-253.9 -150.703)" fill="#b3b3b3" fill-rule="evenodd"/>
      <path id="Trazado_1031297" data-name="Trazado 1031297" d="M333.683,198.359a.831.831,0,0,1-1.316,1.015.737.737,0,0,0-.293-.219,1.2,1.2,0,0,0-.489-.094,1.086,1.086,0,0,0-.675.206.4.4,0,0,0-.175.29c0,.324.5.418,1,.509,1.184.223,2.364.445,2.364,2.145a2.023,2.023,0,0,1-.813,1.592,2.767,2.767,0,0,1-1.7.57,2.837,2.837,0,0,1-1.052-.2,2.493,2.493,0,0,1-.894-.59.831.831,0,0,1,1.2-1.147.775.775,0,0,0,.293.189,1.181,1.181,0,0,0,.449.081,1.086,1.086,0,0,0,.675-.206.4.4,0,0,0,.175-.29c0-.32-.5-.415-1-.509-1.184-.223-2.364-.445-2.364-2.145a2.023,2.023,0,0,1,.813-1.592,2.767,2.767,0,0,1,1.7-.57,2.828,2.828,0,0,1,1.16.246,2.424,2.424,0,0,1,.938.718Z" transform="translate(-277.299 -166.912)"/>
      <path id="Trazado_1031298" data-name="Trazado 1031298" d="M343.215,189.638a.833.833,0,0,1,1.666,0v1.022a.833.833,0,0,1-1.666,0Zm0,6.334a.833.833,0,0,1,1.666,0v1.022a.833.833,0,0,1-1.666,0Z" transform="translate(-289.762 -159.345)"/>
      <path id="Trazado_1031299" data-name="Trazado 1031299" d="M306.363,188.8a5.921,5.921,0,1,0-5.923-5.919A5.932,5.932,0,0,0,306.363,188.8Z" transform="translate(-252.077 -148.905)" fill="#e8ecf9" fill-rule="evenodd"/>
      <path id="Trazado_1031300" data-name="Trazado 1031300" d="M32.428,23.277a1.464,1.464,0,0,0-1.462,1.462v9.249a1.464,1.464,0,0,0,1.462,1.462h2.887a1.464,1.464,0,0,0,1.462-1.462V24.739a1.464,1.464,0,0,0-1.462-1.462Zm2.444,10.267h-2V25.183h2Zm-9.6-6.786a1.464,1.464,0,0,0-1.462,1.462v5.768a1.464,1.464,0,0,0,1.462,1.462h2.887a1.464,1.464,0,0,0,1.462-1.462V28.22a1.464,1.464,0,0,0-1.462-1.462Zm2.444,6.786h-2V28.663h2ZM23.595,22.694a.953.953,0,0,1,.881-1.019c5.986-.436,15.681-4.2,19.312-10.986a.952.952,0,0,1-.626-1.8l2.2-.809a.953.953,0,0,1,1.2.518l.874,2.03a.953.953,0,1,1-1.751.753l-.052-.121c-2.036,4.045-5.751,6.781-8.693,8.427a31.413,31.413,0,0,1-12.332,3.888l-.07,0a.953.953,0,0,1-.949-.884ZM21.2,39.727H44.511l-.255.31a.953.953,0,0,0-.046,1.149,12.4,12.4,0,0,0,3.142,3.137.953.953,0,0,0,1.147-.048l.858-.705a10.592,10.592,0,0,0,1.9.784l.108,1.109a.953.953,0,0,0,.778.845,12.362,12.362,0,0,0,4.443,0,.953.953,0,0,0,.778-.845l.108-1.109a10.534,10.534,0,0,0,1.894-.784l.86.706a.953.953,0,0,0,1.147.047,12.373,12.373,0,0,0,3.138-3.138.953.953,0,0,0-.047-1.147l-.706-.861a10.605,10.605,0,0,0,.785-1.895l1.11-.11a.953.953,0,0,0,.843-.778,12.353,12.353,0,0,0,0-4.439.953.953,0,0,0-.845-.778l-1.108-.108a10.591,10.591,0,0,0-.785-1.9l.705-.858a.953.953,0,0,0,.048-1.147,12.336,12.336,0,0,0-3.139-3.143.953.953,0,0,0-1.148.047l-.86.707a10.53,10.53,0,0,0-1.894-.787l-.108-1.106a.953.953,0,0,0-.778-.845,12.361,12.361,0,0,0-4.443,0,.953.953,0,0,0-.778.845l-.108,1.106c-.056.017-.111.037-.166.055V17.781a1.464,1.464,0,0,0-1.462-1.462H46.736a1.464,1.464,0,0,0-1.462,1.462v8.056a12.479,12.479,0,0,0-1.065,1.331.953.953,0,0,0,.048,1.149l.707.857a10.593,10.593,0,0,0-.787,1.9l-.246.024V20.877a1.464,1.464,0,0,0-1.462-1.462H39.582a1.464,1.464,0,0,0-1.462,1.462V33.988a1.464,1.464,0,0,0,1.462,1.462h2.511c.033.314.076.63.134.945a.953.953,0,0,0,.843.778l1.108.11c.055.181.117.361.182.539H21.2a.2.2,0,0,1-.2-.2V8.974a.953.953,0,1,0-1.906,0v28.65a2.105,2.105,0,0,0,2.1,2.1Zm27.977-21.5v6.412l-.681-.561a.953.953,0,0,0-1.149-.048c-.058.04-.113.083-.17.124V18.224h2Zm-7.154,15.32h-2V21.321h2ZM44,35.349a10.209,10.209,0,0,1-.066-1.048.969.969,0,0,0-.012-.135,1.457,1.457,0,0,0,.012-.179v-.98l1.086-.106a.953.953,0,0,0,.835-.73,8.708,8.708,0,0,1,1.077-2.594.953.953,0,0,0-.075-1.108l-.652-.79a10.5,10.5,0,0,1,1.66-1.66l.79.652a.953.953,0,0,0,1.108.075,8.7,8.7,0,0,1,2.594-1.077.953.953,0,0,0,.73-.835l.1-1.02a10.44,10.44,0,0,1,2.35,0l.1,1.02a.953.953,0,0,0,.73.835,8.645,8.645,0,0,1,2.589,1.076.953.953,0,0,0,1.108-.073l.794-.653a10.414,10.414,0,0,1,1.659,1.661l-.651.792a.953.953,0,0,0-.074,1.107,8.7,8.7,0,0,1,1.073,2.594.953.953,0,0,0,.835.73l1.023.1a10.426,10.426,0,0,1,0,2.347l-1.025.1a.953.953,0,0,0-.833.729,8.719,8.719,0,0,1-1.073,2.591.953.953,0,0,0,.073,1.106l.652.794a10.457,10.457,0,0,1-1.66,1.66l-.794-.652a.953.953,0,0,0-1.107-.073,8.642,8.642,0,0,1-2.589,1.072.953.953,0,0,0-.73.835l-.1,1.023a10.437,10.437,0,0,1-2.349,0l-.1-1.023a.953.953,0,0,0-.73-.835,8.7,8.7,0,0,1-2.594-1.073.953.953,0,0,0-1.107.074l-.791.651a10.48,10.48,0,0,1-1.66-1.66l.653-.793a.953.953,0,0,0,.074-1.107,8.72,8.72,0,0,1-1.077-2.591.952.952,0,0,0-.833-.729L44,35.349ZM24.844,8.974a.953.953,0,0,1,.953-.953h6.21a.953.953,0,0,1,0,1.906H25.8a.953.953,0,0,1-.953-.953Zm0,2.766a.953.953,0,0,1,.953-.953h6.21a.953.953,0,0,1,0,1.906H25.8a.953.953,0,0,1-.953-.953Zm0,2.766a.953.953,0,0,1,.953-.953h6.21a.953.953,0,0,1,0,1.906H25.8a.953.953,0,0,1-.953-.953Zm0,2.766a.953.953,0,0,1,.953-.953h6.21a.953.953,0,0,1,0,1.906H25.8a.953.953,0,0,1-.953-.953ZM71.265,45.458a4.254,4.254,0,0,0-5.794-1.553L53.356,50.9q.017-.058.033-.118a3.847,3.847,0,0,0-2.714-4.7l-12.2-3.268a4.549,4.549,0,0,0-3.521.365l-8.379,4.84L25.931,46.9a2.568,2.568,0,0,0-3.505-.941l-6.774,3.91a2.707,2.707,0,0,0-1.3,1.841,2.168,2.168,0,0,0,.448,1.8l10.244,12.4a2.905,2.905,0,0,0,2.211,1.135,2.394,2.394,0,0,0,1.207-.327l4.458-2.573a2.571,2.571,0,0,0,.939-3.5l-.643-1.114,1.1-.634c.52-.3.709-.3,1.511-.118L48,62.037a5.169,5.169,0,0,0,3.939-.524l17.768-10.26a4.25,4.25,0,0,0,1.553-5.795ZM31.972,62.493l-4.459,2.573h0c-.451.261-.94-.307-.994-.373L16.274,52.3a.292.292,0,0,1-.042-.245.812.812,0,0,1,.374-.528l6.775-3.911a.64.64,0,0,1,.323-.087.673.673,0,0,1,.174.023.652.652,0,0,1,.4.307l7.932,13.736a.67.67,0,0,1-.24.9Zm37.873-14.31A2.315,2.315,0,0,1,68.76,49.6L50.991,59.863A3.272,3.272,0,0,1,48.5,60.2L36.3,56.927l-.04-.01a3.443,3.443,0,0,0-2.9.324l-1.1.633-4.74-8.208L35.9,44.828a2.631,2.631,0,0,1,2-.2l.055.017,12.227,3.275a1.941,1.941,0,0,1,1.367,2.369,1.866,1.866,0,0,1-2.284,1.32l-.006,0-9.225-2.442a.953.953,0,1,0-.488,1.842L48.7,53.43l.04.013,1.464.388c1.115.295,1.744.083,3.189-.75l13.033-7.525a2.333,2.333,0,0,1,3.421,2.628ZM23.306,53.422a.953.953,0,1,1-1.65.953l-1.423-2.466a.953.953,0,0,1,1.65-.953ZM54.358,41.16a6.985,6.985,0,1,0-6.987-6.984A6.991,6.991,0,0,0,54.358,41.16Zm0-12.065a5.08,5.08,0,1,1-5.081,5.081A5.085,5.085,0,0,1,54.358,29.1Zm-2.514,3.85a2.213,2.213,0,0,1,1.562-2.023v-.159a.953.953,0,1,1,1.906,0v.158a2.481,2.481,0,0,1,1.134.8.953.953,0,1,1-1.5,1.173.763.763,0,0,0-.585-.227c-.393,0-.609.211-.609.282a.431.431,0,0,0,.007.084,2.99,2.99,0,0,0,.777.209c.76.142,2.34.438,2.34,2.169a2.211,2.211,0,0,1-1.562,2.02v.159a.953.953,0,0,1-1.906,0v-.159a2.51,2.51,0,0,1-.984-.623A.953.953,0,0,1,53.8,35.488a.784.784,0,0,0,.559.2c.386,0,.609-.211.609-.278a.437.437,0,0,0-.007-.086,2.975,2.975,0,0,0-.778-.21c-.759-.142-2.338-.438-2.338-2.166Z" transform="translate(0 -0.072)"/>
    </g>
  </g>
</svg>
