<svg xmlns="http://www.w3.org/2000/svg" xmlns:xlink="http://www.w3.org/1999/xlink" width="108.914" height="108.914" viewBox="0 0 108.914 108.914">
  <defs>
    <filter id="Trazado_874925" x="0" y="0" width="108.914" height="108.914" filterUnits="userSpaceOnUse">
      <feOffset dy="3" input="SourceAlpha"/>
      <feGaussianBlur stdDeviation="3" result="blur"/>
      <feFlood flood-opacity="0.161"/>
      <feComposite operator="in" in2="blur"/>
      <feComposite in="SourceGraphic"/>
    </filter>
  </defs>
  <g id="Grupo_1176535" data-name="Grupo 1176535" transform="translate(-798.051 -1965.728)">
    <g id="Grupo_1111376" data-name="Grupo 1111376" transform="translate(-1.449 -545.43)">
      <g id="Grupo_1111316" data-name="Grupo 1111316" transform="translate(0 564.946)">
        <g id="Grupo_1109835" data-name="Grupo 1109835">
          <g id="Grupo_1107913" data-name="Grupo 1107913" transform="translate(808.5 1952.211)">
            <g transform="matrix(1, 0, 0, 1, -9, -6)" filter="url(#Trazado_874925)">
              <g id="Trazado_874925-2" data-name="Trazado 874925" transform="translate(9 6)" fill="#fd9826" opacity="0.859">
                <path d="M 45.45676803588867 89.41407012939453 C 39.52198028564453 89.41407012939453 33.76551818847656 88.25206756591797 28.34726715087891 85.96034240722656 C 23.11311721801758 83.74648284912109 18.41204261779785 80.57682800292969 14.37464332580566 76.5394287109375 C 10.33724308013916 72.50202941894531 7.167593002319336 67.80095672607422 4.953730583190918 62.56679534912109 C 2.662005424499512 57.14855575561523 1.500005483627319 51.39208221435547 1.500005483627319 45.45729446411133 C 1.500005483627319 39.52198028564453 2.662005424499512 33.76551818847656 4.953730583190918 28.34726905822754 C 7.167593002319336 23.11310577392578 10.33724308013916 18.41203117370605 14.37464332580566 14.37464332580566 C 18.41204261779785 10.33724403381348 23.11311721801758 7.167593955993652 28.34726715087891 4.953731060028076 C 33.76551818847656 2.662006139755249 39.52198028564453 1.500006198883057 45.45676803588867 1.500006198883057 C 51.39155578613281 1.500006198883057 57.14802932739258 2.662006139755249 62.56626892089844 4.953731060028076 C 67.80043029785156 7.167593955993652 72.50150299072266 10.33724403381348 76.53890228271484 14.37464332580566 C 80.57630920410156 18.41203117370605 83.74595642089844 23.11310577392578 85.95981597900391 28.34726905822754 C 88.25154113769531 33.76551818847656 89.41354370117188 39.52198028564453 89.41354370117188 45.45676803588867 C 89.41354370117188 51.39208221435547 88.25154113769531 57.14855575561523 85.95981597900391 62.56679534912109 C 83.74595642089844 67.80095672607422 80.57630920410156 72.50202941894531 76.53890228271484 76.5394287109375 C 72.50150299072266 80.57682800292969 67.80043029785156 83.74648284912109 62.56626892089844 85.96034240722656 C 57.14802932739258 88.25206756591797 51.39155578613281 89.41407012939453 45.45676803588867 89.41407012939453 Z" stroke="none"/>
                <path d="M 45.45676803588867 3 C 39.72381210327148 3 34.1639404296875 4.12213134765625 28.93159484863281 6.335227966308594 C 23.87622833251953 8.473472595214844 19.33542633056641 11.53517150878906 15.43529510498047 15.435302734375 C 11.53517150878906 19.33543395996094 8.473464965820312 23.87622833251953 6.335227966308594 28.93160247802734 C 4.122123718261719 34.16394424438477 3 39.72381591796875 3 45.4572868347168 C 3 51.19024658203125 4.122123718261719 56.75011825561523 6.335227966308594 61.98246002197266 C 8.473464965820312 67.03782653808594 11.53517150878906 71.57862854003906 15.43529510498047 75.478759765625 C 19.33542633056641 79.37889099121094 23.87622833251953 82.44058990478516 28.93159484863281 84.57883453369141 C 34.1639404296875 86.79193115234375 39.72381210327148 87.9140625 45.45676803588867 87.9140625 C 51.18972396850586 87.9140625 56.74959564208984 86.79193115234375 61.98194122314453 84.57883453369141 C 67.03730773925781 82.44058990478516 71.57810974121094 79.37889099121094 75.47824096679688 75.478759765625 C 79.37837219238281 71.57862854003906 82.44007110595703 67.03782653808594 84.57830810546875 61.98246002197266 C 86.79141235351562 56.75011825561523 87.91353607177734 51.19024658203125 87.91353607177734 45.4567756652832 C 87.91353607177734 39.72381591796875 86.79141235351562 34.16394424438477 84.57830810546875 28.93160247802734 C 82.44007110595703 23.87622833251953 79.37837219238281 19.33543395996094 75.47824096679688 15.435302734375 C 71.57810974121094 11.53517150878906 67.03730773925781 8.473472595214844 61.98194122314453 6.335227966308594 C 56.74959564208984 4.12213134765625 51.18972396850586 3 45.45676803588867 3 M 45.45676803588867 0 C 70.56185150146484 0 90.91353607177734 20.35169219970703 90.91353607177734 45.4567756652832 L 90.91353607177734 45.4572868347168 C 90.91353607177734 70.5623779296875 70.56185150146484 90.9140625 45.45676803588867 90.9140625 C 20.3516845703125 90.9140625 0 70.5623779296875 0 45.4572868347168 L 0 45.4567756652832 C 0 20.35169219970703 20.3516845703125 0 45.45676803588867 0 Z" stroke="none" fill="#fff"/>
              </g>
            </g>
            <g id="Trazado_874923" data-name="Trazado 874923" transform="translate(0 0)" fill="none">
              <path d="M45.457,0A45.457,45.457,0,0,1,90.914,45.457h0A45.457,45.457,0,0,1,0,45.457H0A45.457,45.457,0,0,1,45.457,0Z" stroke="none"/>
              <path d="M 45.45676803588867 3 C 39.72381210327148 3 34.1639404296875 4.12213134765625 28.93159484863281 6.335227966308594 C 23.87622833251953 8.473472595214844 19.33542633056641 11.53517150878906 15.43529510498047 15.435302734375 C 11.53517150878906 19.33543395996094 8.473464965820312 23.87622833251953 6.335227966308594 28.93160247802734 C 4.122123718261719 34.16394424438477 3 39.72381591796875 3 45.4572868347168 C 3 51.19024658203125 4.122123718261719 56.75011825561523 6.335227966308594 61.98246002197266 C 8.473464965820312 67.03782653808594 11.53517150878906 71.57862854003906 15.43529510498047 75.478759765625 C 19.33542633056641 79.37889099121094 23.87622833251953 82.44058990478516 28.93159484863281 84.57883453369141 C 34.1639404296875 86.79193115234375 39.72381210327148 87.9140625 45.45676803588867 87.9140625 C 51.18972396850586 87.9140625 56.74959564208984 86.79193115234375 61.98194122314453 84.57883453369141 C 67.03730773925781 82.44058990478516 71.57810974121094 79.37889099121094 75.47824096679688 75.478759765625 C 79.37837219238281 71.57862854003906 82.44007110595703 67.03782653808594 84.57830810546875 61.98246002197266 C 86.79141235351562 56.75011825561523 87.91353607177734 51.19024658203125 87.91353607177734 45.4567756652832 C 87.91353607177734 39.72381591796875 86.79141235351562 34.16394424438477 84.57830810546875 28.93160247802734 C 82.44007110595703 23.87622833251953 79.37837219238281 19.33543395996094 75.47824096679688 15.435302734375 C 71.57810974121094 11.53517150878906 67.03730773925781 8.473472595214844 61.98194122314453 6.335227966308594 C 56.74959564208984 4.12213134765625 51.18972396850586 3 45.45676803588867 3 M 45.45676803588867 0 C 70.56185150146484 0 90.91353607177734 20.35169219970703 90.91353607177734 45.4567756652832 L 90.91353607177734 45.4572868347168 C 90.91353607177734 70.5623779296875 70.56185150146484 90.9140625 45.45676803588867 90.9140625 C 20.3516845703125 90.9140625 0 70.5623779296875 0 45.4572868347168 L 0 45.4567756652832 C 0 20.35169219970703 20.3516845703125 0 45.45676803588867 0 Z" stroke="none" fill="#fff"/>
            </g>
          </g>
        </g>
      </g>
    </g>
    <g id="order_8728986" transform="translate(825.455 1990.394)">
      <path id="Trazado_1031163" data-name="Trazado 1031163" d="M50.776,59.64H3.252a.831.831,0,0,1-.782-1.114L6.228,48H47.8l3.758,10.526a.831.831,0,0,1-.782,1.114Z" transform="translate(-0.168 -7.918)" fill="#556a8c"/>
      <path id="Trazado_1031164" data-name="Trazado 1031164" d="M7,15H48.572V42.437H7Z" transform="translate(-0.94 -2.355)" fill="#ffd799"/>
      <path id="Trazado_1031165" data-name="Trazado 1031165" d="M43.663,11.146V6.989H42L45.326,2l3.326,4.989H46.989v4.157Z" transform="translate(-6.84 -0.164)" fill="#36b385"/>
      <path id="Trazado_1031166" data-name="Trazado 1031166" d="M29.663,11.146V6.989H28L31.326,2l3.326,4.989H32.989v4.157Z" transform="translate(-4.48 -0.164)" fill="#36b385"/>
      <path id="Trazado_1031167" data-name="Trazado 1031167" d="M15.663,11.146V6.989H14L17.326,2l3.326,4.989H18.989v4.157Z" transform="translate(-2.12 -0.164)" fill="#36b385"/>
      <circle id="Elipse_12977" data-name="Elipse 12977" cx="6.651" cy="6.651" r="6.651" transform="translate(9.385 15.97)" fill="#f2f2f2"/>
      <circle id="Elipse_12978" data-name="Elipse 12978" cx="2.079" cy="2.079" r="2.079" transform="translate(13.958 19.246)" fill="#eeceb2"/>
      <path id="Trazado_1031168" data-name="Trazado 1031168" d="M21.651,33.077a6.61,6.61,0,0,1-6.651,0V30.583a1.663,1.663,0,0,1,1.663-1.663h3.326a1.663,1.663,0,0,1,1.663,1.663Z" transform="translate(-2.289 -4.702)" fill="#2c96de"/>
      <path id="Trazado_1031169" data-name="Trazado 1031169" d="M33,32h8.314v8.314H33Z" transform="translate(-5.323 -5.221)" fill="#ffb866"/>
      <path id="Trazado_1031170" data-name="Trazado 1031170" d="M43,32h8.314v8.314H43Z" transform="translate(-7.009 -5.221)" fill="#ffb866"/>
      <path id="Trazado_1031171" data-name="Trazado 1031171" d="M43,22h8.314v8.314H43Z" transform="translate(-7.009 -3.535)" fill="#ffb866"/>
      <path id="Trazado_1031172" data-name="Trazado 1031172" d="M33,22h8.314v8.314H33Z" transform="translate(-5.323 -3.535)" fill="#ffb866"/>
      <g id="Grupo_1176534" data-name="Grupo 1176534" transform="translate(30.171 18.465)">
        <path id="Trazado_1031173" data-name="Trazado 1031173" d="M36,32h3.326v3.326H36Z" transform="translate(-36 -23.686)" fill="#ffd799"/>
        <path id="Trazado_1031174" data-name="Trazado 1031174" d="M46,32h3.326v3.326H46Z" transform="translate(-37.686 -23.686)" fill="#ffd799"/>
        <path id="Trazado_1031175" data-name="Trazado 1031175" d="M46,22h3.326v3.326H46Z" transform="translate(-37.686 -22)" fill="#ffd799"/>
        <path id="Trazado_1031176" data-name="Trazado 1031176" d="M36,22h3.326v3.326H36Z" transform="translate(-36 -22)" fill="#ffd799"/>
      </g>
      <path id="Trazado_1031177" data-name="Trazado 1031177" d="M48.463,42.127V15.663A1.663,1.663,0,0,0,46.8,14H11.88a.831.831,0,0,0,0,1.663H46.8V41.437H6.891V15.663H8.554a.831.831,0,0,0,0-1.663H6.891a1.663,1.663,0,0,0-1.663,1.663V42.127L1.52,52.52a1.655,1.655,0,0,0,1.563,2.22H45.137a.831.831,0,1,0,0-1.663H3.083L6.642,43.1H47.049l3.559,9.977H48.463a.831.831,0,0,0,0,1.663h2.145a1.655,1.655,0,0,0,1.563-2.22Z" transform="translate(0 -2.187)"/>
      <path id="Trazado_1031178" data-name="Trazado 1031178" d="M24.831,57a.831.831,0,1,0,0,1.663h11.64a.831.831,0,0,0,0-1.663Z" transform="translate(-3.806 -9.435)"/>
      <path id="Trazado_1031179" data-name="Trazado 1031179" d="M45.99,6.825V10.15a.831.831,0,1,0,1.663,0V7.656h.831a.821.821,0,0,0,.69-1.272L45.849,1.4a.831.831,0,0,0-1.38,0L41.143,6.384a.821.821,0,0,0,.69,1.272h.831V10.15a.831.831,0,1,0,1.663,0V6.825a.831.831,0,0,0-.831-.831h-.108l1.771-2.661L46.93,5.993h-.108A.831.831,0,0,0,45.99,6.825Z" transform="translate(-6.673)"/>
      <path id="Trazado_1031180" data-name="Trazado 1031180" d="M31.99,6.825V10.15a.831.831,0,1,0,1.663,0V7.656h.831a.821.821,0,0,0,.69-1.272L31.849,1.4a.831.831,0,0,0-1.38,0L27.143,6.384a.821.821,0,0,0,.69,1.272h.831V10.15a.831.831,0,1,0,1.663,0V6.825a.831.831,0,0,0-.831-.831h-.108l1.771-2.661L32.93,5.993h-.108A.831.831,0,0,0,31.99,6.825Z" transform="translate(-4.313)"/>
      <path id="Trazado_1031181" data-name="Trazado 1031181" d="M17.99,6.825V10.15a.831.831,0,0,0,1.663,0V7.656h.831a.821.821,0,0,0,.69-1.272L17.849,1.4a.831.831,0,0,0-1.38,0L13.143,6.384a.821.821,0,0,0,.69,1.272h.831V10.15a.831.831,0,0,0,1.663,0V6.825a.831.831,0,0,0-.831-.831h-.108l1.771-2.661L18.93,5.993h-.108a.831.831,0,0,0-.831.831Z" transform="translate(-1.953)"/>
      <path id="Trazado_1031182" data-name="Trazado 1031182" d="M17.483,18a7.483,7.483,0,1,0,7.483,7.483A7.483,7.483,0,0,0,17.483,18ZM14.989,30.729v-1.97a.831.831,0,0,1,.831-.831h3.326a.831.831,0,0,1,.831.831v1.97A5.712,5.712,0,0,1,14.989,30.729Zm1.247-6.543a1.247,1.247,0,1,1,1.247,1.247A1.247,1.247,0,0,1,16.236,24.186Zm5.4,5.363v-.79a2.494,2.494,0,0,0-2.17-2.494,2.91,2.91,0,1,0-3.974,0,2.494,2.494,0,0,0-2.17,2.494v.79a5.82,5.82,0,1,1,8.314,0Z" transform="translate(-1.446 -2.861)"/>
      <path id="Trazado_1031183" data-name="Trazado 1031183" d="M49.46,39.292a.831.831,0,0,0,.831-.831V21.831A.831.831,0,0,0,49.46,21H32.831a.831.831,0,0,0-.831.831V38.46a.831.831,0,0,0,.831.831Zm-15.8-8.314h.831v2.494a.831.831,0,0,0,.831.831h3.326a.831.831,0,0,0,.831-.831V30.977h.831v6.651H33.663Zm2.494,0H37.82V32.64H36.157Zm12.472,6.651H41.977V30.977h.831v2.494a.831.831,0,0,0,.831.831h3.326a.831.831,0,0,0,.831-.831V30.977h.831Zm-4.157-6.651h1.663V32.64H44.472Zm4.157-1.663H41.977V22.663h.831v2.494a.831.831,0,0,0,.831.831h3.326a.831.831,0,0,0,.831-.831V22.663h.831Zm-4.157-6.651h1.663v1.663H44.472Zm-8.314,0H37.82v1.663H36.157Zm-2.494,0h.831v2.494a.831.831,0,0,0,.831.831h3.326a.831.831,0,0,0,.831-.831V22.663h.831v6.651H33.663Z" transform="translate(-5.154 -3.367)"/>
      <path id="Trazado_1031184" data-name="Trazado 1031184" d="M22.809,38H12.831a.831.831,0,1,0,0,1.663h9.977a.831.831,0,1,0,0-1.663Z" transform="translate(-1.783 -6.232)"/>
      <path id="Trazado_1031185" data-name="Trazado 1031185" d="M22.809,42H12.831a.831.831,0,1,0,0,1.663h9.977a.831.831,0,1,0,0-1.663Z" transform="translate(-1.783 -6.907)"/>
    </g>
  </g>
</svg>
