<svg xmlns="http://www.w3.org/2000/svg" xmlns:xlink="http://www.w3.org/1999/xlink" width="108.914" height="108.914" viewBox="0 0 108.914 108.914">
  <defs>
    <filter id="Trazado_874925" x="0" y="0" width="108.914" height="108.914" filterUnits="userSpaceOnUse">
      <feOffset dy="3" input="SourceAlpha"/>
      <feGaussianBlur stdDeviation="3" result="blur"/>
      <feFlood flood-opacity="0.161"/>
      <feComposite operator="in" in2="blur"/>
      <feComposite in="SourceGraphic"/>
    </filter>
  </defs>
  <g id="Grupo_1176552" data-name="Grupo 1176552" transform="translate(6852 9891.179)">
    <g id="Grupo_1111378" data-name="Grupo 1111378" transform="translate(-7651.5 -12402.336)">
      <g id="Grupo_1111316" data-name="Grupo 1111316" transform="translate(0 564.946)">
        <g id="Grupo_1109835" data-name="Grupo 1109835">
          <g id="Grupo_1107913" data-name="Grupo 1107913" transform="translate(808.5 1952.211)">
            <g transform="matrix(1, 0, 0, 1, -9, -6)" filter="url(#Trazado_874925)">
              <g id="Trazado_874925-2" data-name="Trazado 874925" transform="translate(9 6)" fill="#fd9826" opacity="0.859">
                <path d="M 45.45676803588867 89.41407012939453 C 39.52198028564453 89.41407012939453 33.76551818847656 88.25206756591797 28.34726715087891 85.96034240722656 C 23.11311721801758 83.74648284912109 18.41204261779785 80.57682800292969 14.37464332580566 76.5394287109375 C 10.33724308013916 72.50202941894531 7.167593002319336 67.80095672607422 4.953730583190918 62.56679534912109 C 2.662005424499512 57.14855575561523 1.500005483627319 51.39208221435547 1.500005483627319 45.45729446411133 C 1.500005483627319 39.52198028564453 2.662005424499512 33.76551818847656 4.953730583190918 28.34726905822754 C 7.167593002319336 23.11310577392578 10.33724308013916 18.41203117370605 14.37464332580566 14.37464332580566 C 18.41204261779785 10.33724403381348 23.11311721801758 7.167593955993652 28.34726715087891 4.953731060028076 C 33.76551818847656 2.662006139755249 39.52198028564453 1.500006198883057 45.45676803588867 1.500006198883057 C 51.39155578613281 1.500006198883057 57.14802932739258 2.662006139755249 62.56626892089844 4.953731060028076 C 67.80043029785156 7.167593955993652 72.50150299072266 10.33724403381348 76.53890228271484 14.37464332580566 C 80.57630920410156 18.41203117370605 83.74595642089844 23.11310577392578 85.95981597900391 28.34726905822754 C 88.25154113769531 33.76551818847656 89.41354370117188 39.52198028564453 89.41354370117188 45.45676803588867 C 89.41354370117188 51.39208221435547 88.25154113769531 57.14855575561523 85.95981597900391 62.56679534912109 C 83.74595642089844 67.80095672607422 80.57630920410156 72.50202941894531 76.53890228271484 76.5394287109375 C 72.50150299072266 80.57682800292969 67.80043029785156 83.74648284912109 62.56626892089844 85.96034240722656 C 57.14802932739258 88.25206756591797 51.39155578613281 89.41407012939453 45.45676803588867 89.41407012939453 Z" stroke="none"/>
                <path d="M 45.45676803588867 3 C 39.72381210327148 3 34.1639404296875 4.12213134765625 28.93159484863281 6.335227966308594 C 23.87622833251953 8.473472595214844 19.33542633056641 11.53517150878906 15.43529510498047 15.435302734375 C 11.53517150878906 19.33543395996094 8.473464965820312 23.87622833251953 6.335227966308594 28.93160247802734 C 4.122123718261719 34.16394424438477 3 39.72381591796875 3 45.4572868347168 C 3 51.19024658203125 4.122123718261719 56.75011825561523 6.335227966308594 61.98246002197266 C 8.473464965820312 67.03782653808594 11.53517150878906 71.57862854003906 15.43529510498047 75.478759765625 C 19.33542633056641 79.37889099121094 23.87622833251953 82.44058990478516 28.93159484863281 84.57883453369141 C 34.1639404296875 86.79193115234375 39.72381210327148 87.9140625 45.45676803588867 87.9140625 C 51.18972396850586 87.9140625 56.74959564208984 86.79193115234375 61.98194122314453 84.57883453369141 C 67.03730773925781 82.44058990478516 71.57810974121094 79.37889099121094 75.47824096679688 75.478759765625 C 79.37837219238281 71.57862854003906 82.44007110595703 67.03782653808594 84.57830810546875 61.98246002197266 C 86.79141235351562 56.75011825561523 87.91353607177734 51.19024658203125 87.91353607177734 45.4567756652832 C 87.91353607177734 39.72381591796875 86.79141235351562 34.16394424438477 84.57830810546875 28.93160247802734 C 82.44007110595703 23.87622833251953 79.37837219238281 19.33543395996094 75.47824096679688 15.435302734375 C 71.57810974121094 11.53517150878906 67.03730773925781 8.473472595214844 61.98194122314453 6.335227966308594 C 56.74959564208984 4.12213134765625 51.18972396850586 3 45.45676803588867 3 M 45.45676803588867 0 C 70.56185150146484 0 90.91353607177734 20.35169219970703 90.91353607177734 45.4567756652832 L 90.91353607177734 45.4572868347168 C 90.91353607177734 70.5623779296875 70.56185150146484 90.9140625 45.45676803588867 90.9140625 C 20.3516845703125 90.9140625 0 70.5623779296875 0 45.4572868347168 L 0 45.4567756652832 C 0 20.35169219970703 20.3516845703125 0 45.45676803588867 0 Z" stroke="none" fill="#fff"/>
              </g>
            </g>
            <g id="Trazado_874923" data-name="Trazado 874923" transform="translate(0 0)" fill="none">
              <path d="M45.457,0A45.457,45.457,0,0,1,90.914,45.457h0A45.457,45.457,0,0,1,0,45.457H0A45.457,45.457,0,0,1,45.457,0Z" stroke="none"/>
              <path d="M 45.45676803588867 3 C 39.72381210327148 3 34.1639404296875 4.12213134765625 28.93159484863281 6.335227966308594 C 23.87622833251953 8.473472595214844 19.33542633056641 11.53517150878906 15.43529510498047 15.435302734375 C 11.53517150878906 19.33543395996094 8.473464965820312 23.87622833251953 6.335227966308594 28.93160247802734 C 4.122123718261719 34.16394424438477 3 39.72381591796875 3 45.4572868347168 C 3 51.19024658203125 4.122123718261719 56.75011825561523 6.335227966308594 61.98246002197266 C 8.473464965820312 67.03782653808594 11.53517150878906 71.57862854003906 15.43529510498047 75.478759765625 C 19.33542633056641 79.37889099121094 23.87622833251953 82.44058990478516 28.93159484863281 84.57883453369141 C 34.1639404296875 86.79193115234375 39.72381210327148 87.9140625 45.45676803588867 87.9140625 C 51.18972396850586 87.9140625 56.74959564208984 86.79193115234375 61.98194122314453 84.57883453369141 C 67.03730773925781 82.44058990478516 71.57810974121094 79.37889099121094 75.47824096679688 75.478759765625 C 79.37837219238281 71.57862854003906 82.44007110595703 67.03782653808594 84.57830810546875 61.98246002197266 C 86.79141235351562 56.75011825561523 87.91353607177734 51.19024658203125 87.91353607177734 45.4567756652832 C 87.91353607177734 39.72381591796875 86.79141235351562 34.16394424438477 84.57830810546875 28.93160247802734 C 82.44007110595703 23.87622833251953 79.37837219238281 19.33543395996094 75.47824096679688 15.435302734375 C 71.57810974121094 11.53517150878906 67.03730773925781 8.473472595214844 61.98194122314453 6.335227966308594 C 56.74959564208984 4.12213134765625 51.18972396850586 3 45.45676803588867 3 M 45.45676803588867 0 C 70.56185150146484 0 90.91353607177734 20.35169219970703 90.91353607177734 45.4567756652832 L 90.91353607177734 45.4572868347168 C 90.91353607177734 70.5623779296875 70.56185150146484 90.9140625 45.45676803588867 90.9140625 C 20.3516845703125 90.9140625 0 70.5623779296875 0 45.4572868347168 L 0 45.4567756652832 C 0 20.35169219970703 20.3516845703125 0 45.45676803588867 0 Z" stroke="none" fill="#fff"/>
            </g>
          </g>
        </g>
      </g>
    </g>
    <g id="annuities_2329181" transform="translate(-6827.358 -9869.358)">
      <g id="Grupo_1176550" data-name="Grupo 1176550" transform="translate(1.915 1.915)">
        <g id="Grupo_1176537" data-name="Grupo 1176537" transform="translate(0 20.125)">
          <path id="Trazado_1031186" data-name="Trazado 1031186" d="M33.853,27.659H5.659V49.614H27.614v1.83a1.835,1.835,0,0,0,1.83,1.83H3.83A1.835,1.835,0,0,1,2,51.444V24H31.026A13.478,13.478,0,0,0,33.853,27.659Z" transform="translate(-2 -24)" fill="#aab2bd"/>
        </g>
        <g id="Grupo_1176538" data-name="Grupo 1176538" transform="translate(45.739 24.699)">
          <path id="Trazado_1031187" data-name="Trazado 1031187" d="M55.659,29V42.722H52V30.958A13.807,13.807,0,0,0,55.659,29Z" transform="translate(-52 -29)" fill="#aab2bd"/>
        </g>
        <g id="Grupo_1176539" data-name="Grupo 1176539" transform="translate(3.659 23.784)">
          <path id="Trazado_1031188" data-name="Trazado 1031188" d="M43.506,31.659A13.6,13.6,0,0,1,34.194,28H6V49.955H27.955a1.831,1.831,0,0,1,1.29-1.747,1.711,1.711,0,0,1,.54-.082H40.762a1.835,1.835,0,0,1,1.83,1.83,1.835,1.835,0,0,1,1.83-1.83,1.835,1.835,0,0,1-1.83-1.83v-1.83a1.835,1.835,0,0,1,1.83-1.83H48.08V30.872A13.574,13.574,0,0,1,43.506,31.659Z" transform="translate(-6 -28)" fill="#e6e9ed"/>
        </g>
        <g id="Grupo_1176540" data-name="Grupo 1176540" transform="translate(40.251 49.399)">
          <path id="Trazado_1031189" data-name="Trazado 1031189" d="M49.659,56h9.148a1.835,1.835,0,0,1,1.83,1.83v1.83a1.835,1.835,0,0,1-1.83,1.83H47.83A1.835,1.835,0,0,1,46,59.659V57.83A1.835,1.835,0,0,1,47.83,56Z" transform="translate(-46 -56)" fill="#fcd770"/>
        </g>
        <g id="Grupo_1176541" data-name="Grupo 1176541" transform="translate(40.251 43.91)">
          <path id="Trazado_1031190" data-name="Trazado 1031190" d="M49.659,50h9.148a1.835,1.835,0,0,1,1.83,1.83v1.83a1.835,1.835,0,0,1-1.83,1.83H47.83A1.835,1.835,0,0,1,46,53.659V51.83A1.835,1.835,0,0,1,47.83,50Z" transform="translate(-46 -50)" fill="#ffeaa7"/>
        </g>
        <g id="Grupo_1176542" data-name="Grupo 1176542" transform="translate(40.251 38.421)">
          <path id="Trazado_1031191" data-name="Trazado 1031191" d="M49.659,44h9.148a1.835,1.835,0,0,1,1.83,1.83v1.83a1.835,1.835,0,0,1-1.83,1.83H47.83A1.835,1.835,0,0,1,46,47.659V45.83A1.835,1.835,0,0,1,47.83,44Z" transform="translate(-46 -44)" fill="#fcd770"/>
        </g>
        <g id="Grupo_1176543" data-name="Grupo 1176543" transform="translate(27.444)">
          <path id="Trazado_1031192" data-name="Trazado 1031192" d="M53.955,26.7A13.807,13.807,0,0,1,50.3,28.657,13.715,13.715,0,0,1,32,15.722c0-.311.009-.613.037-.915A13.719,13.719,0,1,1,53.955,26.7Z" transform="translate(-32 -2)" fill="#ff826e"/>
        </g>
        <g id="Grupo_1176544" data-name="Grupo 1176544" transform="translate(31.103 3.659)">
          <path id="Trazado_1031193" data-name="Trazado 1031193" d="M46.063,6a10.057,10.057,0,1,1-7.117,2.946A10.031,10.031,0,0,1,46.063,6Z" transform="translate(-36 -6)" fill="#69d6f4"/>
        </g>
        <g id="Grupo_1176545" data-name="Grupo 1176545" transform="translate(25.614 49.399)">
          <path id="Trazado_1031194" data-name="Trazado 1031194" d="M40.977,56h1.83a1.835,1.835,0,0,1,1.83,1.83v1.83a1.835,1.835,0,0,1-1.83,1.83H31.83A1.835,1.835,0,0,1,30,59.659V57.83A1.835,1.835,0,0,1,31.83,56h9.148Z" transform="translate(-30 -56)" fill="#ffeaa7"/>
        </g>
        <g id="Grupo_1176546" data-name="Grupo 1176546" transform="translate(25.614 43.91)">
          <path id="Trazado_1031195" data-name="Trazado 1031195" d="M40.977,50h1.83a1.835,1.835,0,0,1,1.83,1.83v1.83a1.835,1.835,0,0,1-1.83,1.83H31.83A1.835,1.835,0,0,1,30,53.659V51.83a1.831,1.831,0,0,1,1.29-1.747A1.711,1.711,0,0,1,31.83,50h9.148Z" transform="translate(-30 -50)" fill="#fcd770"/>
        </g>
        <g id="Grupo_1176547" data-name="Grupo 1176547" transform="translate(0 12.807)">
          <path id="Trazado_1031196" data-name="Trazado 1031196" d="M31.026,23.318H2V17.83A1.835,1.835,0,0,1,3.83,16H7.489v1.83a1.835,1.835,0,0,0,1.83,1.83h1.83a1.835,1.835,0,0,0,1.83-1.83V16h5.489v1.83a1.835,1.835,0,0,0,1.83,1.83h1.83a1.835,1.835,0,0,0,1.83-1.83V16H29.48c-.027.3-.037.6-.037.915A13.708,13.708,0,0,0,31.026,23.318Z" transform="translate(-2 -16)" fill="#b4dd7f"/>
        </g>
        <g id="Grupo_1176548" data-name="Grupo 1176548" transform="translate(16.466 9.148)">
          <path id="Trazado_1031197" data-name="Trazado 1031197" d="M25.489,15.659v1.83a1.835,1.835,0,0,1-1.83,1.83H21.83A1.835,1.835,0,0,1,20,17.489V13.83A1.835,1.835,0,0,1,21.83,12h1.83a1.835,1.835,0,0,1,1.83,1.83Z" transform="translate(-20 -12)" fill="#aab2bd"/>
        </g>
        <g id="Grupo_1176549" data-name="Grupo 1176549" transform="translate(5.489 9.148)">
          <path id="Trazado_1031198" data-name="Trazado 1031198" d="M13.489,15.659v1.83a1.835,1.835,0,0,1-1.83,1.83H9.83A1.835,1.835,0,0,1,8,17.489V13.83A1.835,1.835,0,0,1,9.83,12h1.83a1.835,1.835,0,0,1,1.83,1.83Z" transform="translate(-8 -12)" fill="#aab2bd"/>
        </g>
      </g>
      <g id="Grupo_1176551" data-name="Grupo 1176551" transform="translate(1 1)">
        <path id="Trazado_1031199" data-name="Trazado 1031199" d="M54.972,39.421H52.228V27.044A14.627,14.627,0,1,0,28.571,13.807H24.784v-.915a2.748,2.748,0,0,0-2.744-2.744h-1.83a2.748,2.748,0,0,0-2.744,2.744v.915H13.807v-.915a2.748,2.748,0,0,0-2.744-2.744H9.233a2.748,2.748,0,0,0-2.744,2.744v.915H3.744A2.748,2.748,0,0,0,1,16.551V49.484a2.748,2.748,0,0,0,2.744,2.744H26.782a2.714,2.714,0,0,0-.168.915v1.83a2.748,2.748,0,0,0,2.744,2.744H40.336A2.727,2.727,0,0,0,42.165,57a2.722,2.722,0,0,0,1.83.714H54.972a2.748,2.748,0,0,0,2.744-2.744v-1.83A2.727,2.727,0,0,0,57,51.313a2.722,2.722,0,0,0,.714-1.83v-1.83A2.727,2.727,0,0,0,57,45.825a2.722,2.722,0,0,0,.714-1.83v-1.83A2.748,2.748,0,0,0,54.972,39.421Zm.915,2.744v1.83a.916.916,0,0,1-.915.915H43.995a.916.916,0,0,1-.915-.915v-1.83a.916.916,0,0,1,.915-.915h.915v1.83h1.83v-1.83h1.83v1.83H50.4v-1.83h1.83v1.83h1.83v-1.83h.915A.916.916,0,0,1,55.887,42.165Zm0,5.489v1.83a.916.916,0,0,1-.915.915H43.995a.916.916,0,0,1-.915-.915v-1.83a.916.916,0,0,1,.915-.915h.915v1.83h1.83v-1.83h1.83v1.83H50.4v-1.83h1.83v1.83h1.83v-1.83h.915A.916.916,0,0,1,55.887,47.654ZM29.358,50.4a.916.916,0,0,1-.915-.915v-1.83a.916.916,0,0,1,.915-.915h.915v1.83H32.1v-1.83h1.83v1.83h1.83v-1.83h1.83v1.83h1.83v-1.83h.915a.916.916,0,0,1,.915.915v1.83a.916.916,0,0,1-.915.915Zm4.074-23.784a14.441,14.441,0,0,0,13.307,3.177v9.63H43.995a2.748,2.748,0,0,0-2.744,2.744v1.83a2.708,2.708,0,0,0,.292,1.207,2.708,2.708,0,0,0-1.207-.292H29.358a2.741,2.741,0,0,0-2.576,1.83H6.489V26.614ZM50.4,39.421h-1.83V29.2a14.642,14.642,0,0,0,1.83-.9ZM43.08,2.83A12.807,12.807,0,1,1,30.273,15.637,12.821,12.821,0,0,1,43.08,2.83ZM19.3,12.892a.916.916,0,0,1,.915-.915h1.83a.916.916,0,0,1,.915.915v3.659a.916.916,0,0,1-.915.915h-1.83a.916.916,0,0,1-.915-.915Zm-10.977,0a.916.916,0,0,1,.915-.915h1.83a.916.916,0,0,1,.915.915v3.659a.916.916,0,0,1-.915.915H9.233a.916.916,0,0,1-.915-.915ZM3.744,15.637H6.489v.915A2.748,2.748,0,0,0,9.233,19.3h1.83a2.748,2.748,0,0,0,2.744-2.744v-.915h3.659v.915A2.748,2.748,0,0,0,20.211,19.3h1.83a2.748,2.748,0,0,0,2.744-2.744v-.915h3.659a14.54,14.54,0,0,0,1.078,5.489H2.83V16.551a.916.916,0,0,1,.915-.915ZM2.83,49.484V22.955H30.424a14.732,14.732,0,0,0,1.249,1.83H4.659V48.569H26.614v.915a2.714,2.714,0,0,0,.168.915H3.744a.916.916,0,0,1-.915-.915Zm37.506,6.4H29.358a.916.916,0,0,1-.915-.915v-1.83a.916.916,0,0,1,.915-.915h.915v1.83H32.1v-1.83h1.83v1.83h1.83v-1.83h1.83v1.83h1.83v-1.83h.915a.916.916,0,0,1,.915.915v1.83A.916.916,0,0,1,40.336,55.887Zm15.551-.915a.916.916,0,0,1-.915.915H43.995a.916.916,0,0,1-.915-.915v-1.83a.916.916,0,0,1,.915-.915h.915v1.83h1.83v-1.83h1.83v1.83H50.4v-1.83h1.83v1.83h1.83v-1.83h.915a.916.916,0,0,1,.915.915Z" transform="translate(-1 -1)"/>
        <path id="Trazado_1031200" data-name="Trazado 1031200" d="M33.148,45.637V41.977a3.663,3.663,0,0,0-3.659-3.659h-1.83a1.831,1.831,0,0,1-1.83-1.83v-1.83h3.659a1.831,1.831,0,0,1,1.83,1.83h1.83a3.647,3.647,0,0,0-1.83-3.151V31h-1.83v1.83h-1.83V31H25.83v1.83H24v3.659a3.663,3.663,0,0,0,3.659,3.659h1.83a1.831,1.831,0,0,1,1.83,1.83v1.83H27.659a1.831,1.831,0,0,1-1.83-1.83H24a3.647,3.647,0,0,0,1.83,3.151v2.338h1.83v-1.83h1.83v1.83h1.83v-1.83Z" transform="translate(-2.96 -3.556)"/>
        <path id="Trazado_1031201" data-name="Trazado 1031201" d="M45.977,26.955A10.977,10.977,0,1,0,35,15.977,10.99,10.99,0,0,0,45.977,26.955Zm-9.1-11.892a9.1,9.1,0,0,1,2.023-4.87l1.258,1.258,1.294-1.294L40.192,8.9a9.1,9.1,0,0,1,4.87-2.023V8.659h1.83V6.876A9.1,9.1,0,0,1,51.763,8.9L50.5,10.157,51.8,11.45l1.258-1.258a9.1,9.1,0,0,1,2.023,4.87H53.3v1.83h1.783a9.1,9.1,0,0,1-2.023,4.87L51.8,20.5,50.5,21.8l1.258,1.258a9.1,9.1,0,0,1-4.87,2.023V23.3h-1.83v1.783a9.1,9.1,0,0,1-4.87-2.023L41.45,21.8,40.157,20.5,38.9,21.763a9.1,9.1,0,0,1-2.023-4.87h1.783v-1.83Z" transform="translate(-3.897 -1.341)"/>
        <path id="Trazado_1031202" data-name="Trazado 1031202" d="M50.258,17.514v-1.83h-3.28l-3.391-3.391-1.294,1.294,3.927,3.927Z" transform="translate(-4.519 -1.962)"/>
        <path id="Trazado_1031203" data-name="Trazado 1031203" d="M9,31H20.892v1.83H9Z" transform="translate(-1.682 -3.556)"/>
        <path id="Trazado_1031204" data-name="Trazado 1031204" d="M9,35H20.892v1.83H9Z" transform="translate(-1.682 -3.897)"/>
        <path id="Trazado_1031205" data-name="Trazado 1031205" d="M9,39H20.892v1.83H9Z" transform="translate(-1.682 -4.238)"/>
        <path id="Trazado_1031206" data-name="Trazado 1031206" d="M9,43H20.892v1.83H9Z" transform="translate(-1.682 -4.579)"/>
        <path id="Trazado_1031207" data-name="Trazado 1031207" d="M16,47h1.83v1.83H16Z" transform="translate(-2.278 -4.92)"/>
        <path id="Trazado_1031208" data-name="Trazado 1031208" d="M12,47h1.83v1.83H12Z" transform="translate(-1.937 -4.92)"/>
        <path id="Trazado_1031209" data-name="Trazado 1031209" d="M20,47h1.83v1.83H20Z" transform="translate(-2.619 -4.92)"/>
        <path id="Trazado_1031210" data-name="Trazado 1031210" d="M47,35h1.83v1.83H47Z" transform="translate(-4.92 -3.897)"/>
        <path id="Trazado_1031211" data-name="Trazado 1031211" d="M47,39h1.83v1.83H47Z" transform="translate(-4.92 -4.238)"/>
      </g>
    </g>
  </g>
</svg>
