<svg xmlns="http://www.w3.org/2000/svg" xmlns:xlink="http://www.w3.org/1999/xlink" width="108.914" height="108.914" viewBox="0 0 108.914 108.914">
  <defs>
    <filter id="Trazado_874925" x="0" y="0" width="108.914" height="108.914" filterUnits="userSpaceOnUse">
      <feOffset dy="3" input="SourceAlpha"/>
      <feGaussianBlur stdDeviation="3" result="blur"/>
      <feFlood flood-opacity="0.161"/>
      <feComposite operator="in" in2="blur"/>
      <feComposite in="SourceGraphic"/>
    </filter>
  </defs>
  <g id="Grupo_1176554" data-name="Grupo 1176554" transform="translate(6541 9891.179)">
    <g id="Grupo_1111377" data-name="Grupo 1111377" transform="translate(-7655.324 -12402.336)">
      <g id="Grupo_1111317" data-name="Grupo 1111317" transform="translate(314.824 564.946)">
        <g id="Grupo_1109835" data-name="Grupo 1109835">
          <g id="Grupo_1107913" data-name="Grupo 1107913" transform="translate(808.5 1952.211)">
            <g transform="matrix(1, 0, 0, 1, -9, -6)" filter="url(#Trazado_874925)">
              <g id="Trazado_874925-2" data-name="Trazado 874925" transform="translate(9 6)" fill="#fd9826" opacity="0.859">
                <path d="M 45.45676803588867 89.41407012939453 C 39.52198028564453 89.41407012939453 33.76551818847656 88.25206756591797 28.34726715087891 85.96034240722656 C 23.11311721801758 83.74648284912109 18.41204261779785 80.57682800292969 14.37464332580566 76.5394287109375 C 10.33724308013916 72.50202941894531 7.167593002319336 67.80095672607422 4.953730583190918 62.56679534912109 C 2.662005424499512 57.14855575561523 1.500005483627319 51.39208221435547 1.500005483627319 45.45729446411133 C 1.500005483627319 39.52198028564453 2.662005424499512 33.76551818847656 4.953730583190918 28.34726905822754 C 7.167593002319336 23.11310577392578 10.33724308013916 18.41203117370605 14.37464332580566 14.37464332580566 C 18.41204261779785 10.33724403381348 23.11311721801758 7.167593955993652 28.34726715087891 4.953731060028076 C 33.76551818847656 2.662006139755249 39.52198028564453 1.500006198883057 45.45676803588867 1.500006198883057 C 51.39155578613281 1.500006198883057 57.14802932739258 2.662006139755249 62.56626892089844 4.953731060028076 C 67.80043029785156 7.167593955993652 72.50150299072266 10.33724403381348 76.53890228271484 14.37464332580566 C 80.57630920410156 18.41203117370605 83.74595642089844 23.11310577392578 85.95981597900391 28.34726905822754 C 88.25154113769531 33.76551818847656 89.41354370117188 39.52198028564453 89.41354370117188 45.45676803588867 C 89.41354370117188 51.39208221435547 88.25154113769531 57.14855575561523 85.95981597900391 62.56679534912109 C 83.74595642089844 67.80095672607422 80.57630920410156 72.50202941894531 76.53890228271484 76.5394287109375 C 72.50150299072266 80.57682800292969 67.80043029785156 83.74648284912109 62.56626892089844 85.96034240722656 C 57.14802932739258 88.25206756591797 51.39155578613281 89.41407012939453 45.45676803588867 89.41407012939453 Z" stroke="none"/>
                <path d="M 45.45676803588867 3 C 39.72381210327148 3 34.1639404296875 4.12213134765625 28.93159484863281 6.335227966308594 C 23.87622833251953 8.473472595214844 19.33542633056641 11.53517150878906 15.43529510498047 15.435302734375 C 11.53517150878906 19.33543395996094 8.473464965820312 23.87622833251953 6.335227966308594 28.93160247802734 C 4.122123718261719 34.16394424438477 3 39.72381591796875 3 45.4572868347168 C 3 51.19024658203125 4.122123718261719 56.75011825561523 6.335227966308594 61.98246002197266 C 8.473464965820312 67.03782653808594 11.53517150878906 71.57862854003906 15.43529510498047 75.478759765625 C 19.33542633056641 79.37889099121094 23.87622833251953 82.44058990478516 28.93159484863281 84.57883453369141 C 34.1639404296875 86.79193115234375 39.72381210327148 87.9140625 45.45676803588867 87.9140625 C 51.18972396850586 87.9140625 56.74959564208984 86.79193115234375 61.98194122314453 84.57883453369141 C 67.03730773925781 82.44058990478516 71.57810974121094 79.37889099121094 75.47824096679688 75.478759765625 C 79.37837219238281 71.57862854003906 82.44007110595703 67.03782653808594 84.57830810546875 61.98246002197266 C 86.79141235351562 56.75011825561523 87.91353607177734 51.19024658203125 87.91353607177734 45.4567756652832 C 87.91353607177734 39.72381591796875 86.79141235351562 34.16394424438477 84.57830810546875 28.93160247802734 C 82.44007110595703 23.87622833251953 79.37837219238281 19.33543395996094 75.47824096679688 15.435302734375 C 71.57810974121094 11.53517150878906 67.03730773925781 8.473472595214844 61.98194122314453 6.335227966308594 C 56.74959564208984 4.12213134765625 51.18972396850586 3 45.45676803588867 3 M 45.45676803588867 0 C 70.56185150146484 0 90.91353607177734 20.35169219970703 90.91353607177734 45.4567756652832 L 90.91353607177734 45.4572868347168 C 90.91353607177734 70.5623779296875 70.56185150146484 90.9140625 45.45676803588867 90.9140625 C 20.3516845703125 90.9140625 0 70.5623779296875 0 45.4572868347168 L 0 45.4567756652832 C 0 20.35169219970703 20.3516845703125 0 45.45676803588867 0 Z" stroke="none" fill="#fff"/>
              </g>
            </g>
            <g id="Trazado_874923" data-name="Trazado 874923" transform="translate(0 0)" fill="none">
              <path d="M45.457,0A45.457,45.457,0,0,1,90.914,45.457h0A45.457,45.457,0,0,1,0,45.457H0A45.457,45.457,0,0,1,45.457,0Z" stroke="none"/>
              <path d="M 45.45676803588867 3 C 39.72381210327148 3 34.1639404296875 4.12213134765625 28.93159484863281 6.335227966308594 C 23.87622833251953 8.473472595214844 19.33542633056641 11.53517150878906 15.43529510498047 15.435302734375 C 11.53517150878906 19.33543395996094 8.473464965820312 23.87622833251953 6.335227966308594 28.93160247802734 C 4.122123718261719 34.16394424438477 3 39.72381591796875 3 45.4572868347168 C 3 51.19024658203125 4.122123718261719 56.75011825561523 6.335227966308594 61.98246002197266 C 8.473464965820312 67.03782653808594 11.53517150878906 71.57862854003906 15.43529510498047 75.478759765625 C 19.33542633056641 79.37889099121094 23.87622833251953 82.44058990478516 28.93159484863281 84.57883453369141 C 34.1639404296875 86.79193115234375 39.72381210327148 87.9140625 45.45676803588867 87.9140625 C 51.18972396850586 87.9140625 56.74959564208984 86.79193115234375 61.98194122314453 84.57883453369141 C 67.03730773925781 82.44058990478516 71.57810974121094 79.37889099121094 75.47824096679688 75.478759765625 C 79.37837219238281 71.57862854003906 82.44007110595703 67.03782653808594 84.57830810546875 61.98246002197266 C 86.79141235351562 56.75011825561523 87.91353607177734 51.19024658203125 87.91353607177734 45.4567756652832 C 87.91353607177734 39.72381591796875 86.79141235351562 34.16394424438477 84.57830810546875 28.93160247802734 C 82.44007110595703 23.87622833251953 79.37837219238281 19.33543395996094 75.47824096679688 15.435302734375 C 71.57810974121094 11.53517150878906 67.03730773925781 8.473472595214844 61.98194122314453 6.335227966308594 C 56.74959564208984 4.12213134765625 51.18972396850586 3 45.45676803588867 3 M 45.45676803588867 0 C 70.56185150146484 0 90.91353607177734 20.35169219970703 90.91353607177734 45.4567756652832 L 90.91353607177734 45.4572868347168 C 90.91353607177734 70.5623779296875 70.56185150146484 90.9140625 45.45676803588867 90.9140625 C 20.3516845703125 90.9140625 0 70.5623779296875 0 45.4572868347168 L 0 45.4567756652832 C 0 20.35169219970703 20.3516845703125 0 45.45676803588867 0 Z" stroke="none" fill="#fff"/>
            </g>
          </g>
        </g>
      </g>
    </g>
    <g id="law_16848841" transform="translate(-6545.766 -9892.055)">
      <g id="Grupo_1176553" data-name="Grupo 1176553" transform="translate(34.422 25.975)">
        <path id="Trazado_1031212" data-name="Trazado 1031212" d="M43.748,221.645q1.833,1.151,3.666,2.308a2,2,0,0,0,2.66-1l15.3-26.091-4.954-3.122L43.5,218.812a2,2,0,0,0,.248,2.833Z" transform="translate(-43.043 -174.809)" fill="#6c3329" fill-rule="evenodd"/>
        <path id="Trazado_1031213" data-name="Trazado 1031213" d="M63.352,233.957l.05.033.007,0,.053.033,0,0,.053.033,0,0,.053.033.007,0,.049.033h.007l.053.033,0,0,.053.033,0,0,.053.033,0,0,.053.033.007,0,.053.033,0,0,.053.033,0,0,.053.033h0l.053.033.007,0,.053.033,0,0,.053.033,0,0,.053.033,0,0,.053.033.007,0,.053.033,0,0,.053.033h0l.053.033,0,0,.053.033.007,0,.053.033,0,0,.053.033,0,0,.053.033a2,2,0,0,0,2.66-1l15.3-26.091-2.66-1.674L63.1,231.125a2,2,0,0,0,.25,2.833Z" transform="translate(-60.349 -185.677)" fill="#883f30" fill-rule="evenodd"/>
        <path id="Trazado_1031214" data-name="Trazado 1031214" d="M0,0H11.638V22.894H0Z" transform="translate(10.171 14.398) rotate(-57.788)" fill="#fcc16c" fill-rule="evenodd"/>
        <path id="Trazado_1031215" data-name="Trazado 1031215" d="M92.378,34.218,89.39,32.335a1.294,1.294,0,0,0-1.777.405l-7.07,11.224a1.294,1.294,0,0,0,.4,1.777l2.992,1.883a1.292,1.292,0,0,0,1.777-.405L92.78,36A1.291,1.291,0,0,0,92.378,34.218Z" transform="translate(-75.975 -32.14)" fill="#883f30" fill-rule="evenodd"/>
        <path id="Trazado_1031216" data-name="Trazado 1031216" d="M90.874,33.278l-1.495-.943a1.294,1.294,0,0,0-1.777.405l-7.07,11.224a1.294,1.294,0,0,0,.4,1.777l1.5.94Z" transform="translate(-75.966 -32.14)" fill="#6c3329" fill-rule="evenodd"/>
        <path id="Trazado_1031217" data-name="Trazado 1031217" d="M0,0H5.82V22.894H0Z" transform="translate(10.17 14.398) rotate(-57.788)" fill="#faa630" fill-rule="evenodd"/>
        <path id="Trazado_1031218" data-name="Trazado 1031218" d="M136.053,70.94l3.347,2.109L133.2,82.9l-3.35-2.109Z" transform="translate(-119.681 -66.395)" fill="#a35042" fill-rule="evenodd"/>
        <path id="Trazado_1031219" data-name="Trazado 1031219" d="M272.85,157.09l3.35,2.109-6.2,9.846-3.347-2.109Z" transform="translate(-240.455 -142.452)" fill="#a35042" fill-rule="evenodd"/>
        <path id="Trazado_1031220" data-name="Trazado 1031220" d="M217,138.7a3.141,3.141,0,1,1-4.333.983A3.141,3.141,0,0,1,217,138.7Z" transform="translate(-192.371 -125.785)" fill="#a35042" fill-rule="evenodd"/>
        <path id="Trazado_1031221" data-name="Trazado 1031221" d="M301.871,166.166l-2.988-1.883a1.292,1.292,0,0,0-1.777.405l-7.07,11.219a1.294,1.294,0,0,0,.405,1.777l2.988,1.883a1.293,1.293,0,0,0,1.777-.4l7.07-11.224A1.29,1.29,0,0,0,301.871,166.166Z" transform="translate(-260.928 -148.629)" fill="#883f30" fill-rule="evenodd"/>
        <path id="Trazado_1031222" data-name="Trazado 1031222" d="M300.376,165.217l-1.495-.943a1.292,1.292,0,0,0-1.777.405L290.035,175.9a1.294,1.294,0,0,0,.405,1.777l1.495.943Z" transform="translate(-260.928 -148.62)" fill="#6c3329" fill-rule="evenodd"/>
      </g>
      <path id="Trazado_1031223" data-name="Trazado 1031223" d="M187.759,321.732a1.617,1.617,0,1,1,0,3.233H162.3a10.427,10.427,0,0,1,0-20.855h25.46a1.617,1.617,0,0,1,0,3.233H162.3a7.193,7.193,0,0,0,0,14.386h25.461Z" transform="translate(-104.699 -246.274)" fill="#5277bb"/>
      <path id="Trazado_1031224" data-name="Trazado 1031224" d="M186.673,346.116h24.491c-1.866-3.231-1.866-11.155,0-14.386H186.673a7.193,7.193,0,0,0,0,14.386Z" transform="translate(-129.075 -270.658)" fill="#c7c5e3" fill-rule="evenodd"/>
      <path id="Trazado_1031225" data-name="Trazado 1031225" d="M237.429,341.862c-.455-3.584-.047-7.937,1.218-10.132H214.156a7.13,7.13,0,0,0-3.208.76,7.191,7.191,0,0,0,6.854,9.372Z" transform="translate(-156.558 -270.659)" fill="#dfdcee" fill-rule="evenodd"/>
      <path id="Trazado_1031226" data-name="Trazado 1031226" d="M77.211,69.852a.82.82,0,0,1,0,1.64H66.917a.82.82,0,0,1,0-1.64Zm-16.607,0a.82.82,0,0,1,0,1.64H58.655a.82.82,0,0,1,0-1.64Zm-5.088-3.178a.82.82,0,0,1,0-1.64h8.033a.82.82,0,0,1,0,1.64Zm13.957,0a.82.82,0,0,1,0-1.64h4.6a.82.82,0,0,1,0,1.64Zm11.018,7.964a21.813,21.813,0,0,1,0-12.745H57.27a6.373,6.373,0,0,0,0,12.746H80.491Zm1.761-12.746c-1.432,3.065-1.432,9.68,0,12.745h.478a2.437,2.437,0,1,1,0,4.875H57.27a11.273,11.273,0,0,1-11.208-12.2L41.829,74.53a2.8,2.8,0,0,1-3.8,1.278L34.364,73.5a2.779,2.779,0,0,1-.554-3.882l.063-.1L50.321,45.147l-5.8-3.653a2.11,2.11,0,0,1-2.9.654l-2.988-1.883a2.11,2.11,0,0,1-.661-2.9l7.07-11.224a2.107,2.107,0,0,1,2.9-.661l2.936,1.85a2.117,2.117,0,0,1,.72,2.936L69.581,41.592a2.11,2.11,0,0,1,2.9-.654l2.988,1.883a2.106,2.106,0,0,1,.661,2.9L69.1,56.894l-.083.123H82.73a2.437,2.437,0,1,1,0,4.875Zm-31.3-2.925a11.2,11.2,0,0,1,6.313-1.949h7.953l-2.056-1.292a2.112,2.112,0,0,1-.661-2.9l-5.8-3.656ZM83.291,76.513a.781.781,0,0,0-.561-.235H57.27a8.013,8.013,0,0,1,0-16.026H82.73a.8.8,0,0,0,0-1.593H57.27a9.607,9.607,0,0,0,0,19.215H82.73A.8.8,0,0,0,83.291,76.513ZM74.6,44.2l-2.988-1.883a.477.477,0,0,0-.651.15L63.891,53.69a.476.476,0,0,0,.15.651l2.988,1.883a.477.477,0,0,0,.651-.146l7.066-11.224A.477.477,0,0,0,74.6,44.2ZM65.28,48.423l3.43-5.446-1.966-1.238L61.414,50.2l1.962,1.235ZM59.16,38.191a3.96,3.96,0,1,1-2.986-.512A3.962,3.962,0,0,1,59.16,38.191Zm.156,2.836a2.324,2.324,0,1,0-.3,1.753A2.322,2.322,0,0,0,59.316,41.027Zm.713,8.3,5.33-8.462L54.068,33.755l-5.33,8.464ZM47.353,41.346l5.33-8.462-1.962-1.238-5.33,8.464Zm2.7-12.6-2.988-1.883a.472.472,0,0,0-.648.146l-7.07,11.224a.472.472,0,0,0,.146.648l2.992,1.883a.472.472,0,0,0,.648-.146L50.207,29.4a.473.473,0,0,0-.15-.648ZM55.321,48.3l-3.613-2.275L35.23,70.436c-.371.552-.478,1.378,0,1.68L38.9,74.424c.489.309,1.182-.163,1.521-.717Z"/>
    </g>
  </g>
</svg>
