<svg xmlns="http://www.w3.org/2000/svg" width="90" height="90" viewBox="0 0 90 90">
  <g id="Grupo_70461" data-name="Grupo 70461" transform="translate(-280 -7297)">
    <circle id="Elipse_4373" data-name="Elipse 4373" cx="45" cy="45" r="45" transform="translate(280 7297)" fill="#fd9826"/>
    <g id="Grupo_70384" data-name="Grupo 70384" transform="translate(298.273 7312.258)">
      <g id="Grupo_70373" data-name="Grupo 70373" transform="translate(31.787 29.833)">
        <g id="Grupo_70372" data-name="Grupo 70372">
          <path id="Trazado_108327" data-name="Trazado 108327" d="M304.4,263.848a2.039,2.039,0,1,1,2.331-2.018,1.06,1.06,0,1,0,2.119,0,4.216,4.216,0,0,0-3.391-4.018v-.551a1.06,1.06,0,0,0-2.119,0v.551a4.217,4.217,0,0,0-3.391,4.018,4.308,4.308,0,0,0,4.451,4.137,2.039,2.039,0,1,1-2.331,2.018,1.06,1.06,0,1,0-2.119,0A4.217,4.217,0,0,0,303.345,272v.458a1.06,1.06,0,0,0,2.119,0V272a4.217,4.217,0,0,0,3.391-4.018A4.308,4.308,0,0,0,304.4,263.848Z" transform="translate(-299.954 -256.201)" fill="#12263f"/>
        </g>
      </g>
      <g id="Grupo_70375" data-name="Grupo 70375" transform="translate(40.686 26.08)">
        <g id="Grupo_70374" data-name="Grupo 70374">
          <path id="Trazado_108328" data-name="Trazado 108328" d="M391.084,225.881a13.808,13.808,0,0,0-5.64-4.991,1.06,1.06,0,1,0-.918,1.91,11.667,11.667,0,0,1,5.255,15.98,1.06,1.06,0,1,0,1.871,1,13.792,13.792,0,0,0-.567-13.894Z" transform="translate(-383.924 -220.785)" fill="#12263f"/>
        </g>
      </g>
      <g id="Grupo_70377" data-name="Grupo 70377" transform="translate(36.773 24.831)">
        <g id="Grupo_70376" data-name="Grupo 70376">
          <path id="Trazado_108329" data-name="Trazado 108329" d="M348.131,209h-.071a1.06,1.06,0,1,0,0,2.119h.066a1.06,1.06,0,0,0,0-2.119Z" transform="translate(-347 -209.001)" fill="#12263f"/>
        </g>
      </g>
      <g id="Grupo_70379" data-name="Grupo 70379" transform="translate(22.467 31.582)">
        <g id="Grupo_70378" data-name="Grupo 70378">
          <path id="Trazado_108330" data-name="Trazado 108330" d="M220.735,290.249a11.667,11.667,0,0,1-5.255-15.98,1.06,1.06,0,0,0-1.871-1,13.783,13.783,0,0,0,6.207,18.886,1.06,1.06,0,1,0,.918-1.91Z" transform="translate(-212.002 -272.711)" fill="#12263f"/>
        </g>
      </g>
      <g id="Grupo_70381" data-name="Grupo 70381" transform="translate(33.528 50.264)">
        <g id="Grupo_70380" data-name="Grupo 70380">
          <path id="Trazado_108331" data-name="Trazado 108331" d="M317.5,449h-.061a1.06,1.06,0,0,0-.01,2.119h.071a1.06,1.06,0,0,0,0-2.119Z" transform="translate(-316.378 -448.999)" fill="#12263f"/>
        </g>
      </g>
      <g id="Grupo_70383" data-name="Grupo 70383" transform="translate(0 3)">
        <g id="Grupo_70382" data-name="Grupo 70382" transform="translate(0 0)">
          <path id="Trazado_108332" data-name="Trazado 108332" d="M41.055,21.245a4.864,4.864,0,0,0-.471-.866h2.759a4.875,4.875,0,1,0,0-9.75H34.857A4.872,4.872,0,0,0,30.838,3H4.875a4.875,4.875,0,1,0,0,9.75h8.486a4.861,4.861,0,0,0,0,5.511H10.6a4.872,4.872,0,0,0-3.029,8.69,4.866,4.866,0,0,0,0,7.63,4.866,4.866,0,0,0,0,7.63A4.872,4.872,0,0,0,10.6,50.9H23.086A18.012,18.012,0,1,0,41.055,21.245Zm2.288-8.5a2.755,2.755,0,0,1,0,5.511H17.38a2.755,2.755,0,0,1,0-5.511ZM4.875,10.63a2.755,2.755,0,1,1,0-5.511H30.838a2.755,2.755,0,1,1,0,5.511ZM10.6,20.38H36.561a2.754,2.754,0,0,1,1.2.277c-.5-.042-1.008-.065-1.52-.065a17.96,17.96,0,0,0-12.749,5.3H10.6a2.755,2.755,0,1,1,0-5.511Zm0,7.63H21.684A17.964,17.964,0,0,0,18.96,33.52H10.6a2.755,2.755,0,1,1,0-5.511Zm0,7.63h7.876a18.03,18.03,0,0,0-.065,5.511H10.6a2.755,2.755,0,0,1,0-5.511Zm0,13.141a2.755,2.755,0,0,1,0-5.511h8.243a17.945,17.945,0,0,0,2.543,5.511ZM36.243,54.5a15.9,15.9,0,1,1,15.9-15.9A15.914,15.914,0,0,1,36.243,54.5Z" transform="translate(0 -3)" fill="#12263f"/>
        </g>
      </g>
    </g>
  </g>
</svg>
