<svg xmlns="http://www.w3.org/2000/svg" width="90" height="90" viewBox="0 0 90 90">
  <g id="Grupo_1176648" data-name="Grupo 1176648" transform="translate(-385 -3657.093)">
    <circle id="Elipse_4370" data-name="Elipse 4370" cx="45" cy="45" r="45" transform="translate(385 3657.093)" fill="#fd9826"/>
    <g id="Grupo_70365" data-name="Grupo 70365" transform="translate(588.384 2688.185)">
      <g id="Grupo_70364" data-name="Grupo 70364" transform="translate(-189.825 994.068)">
        <path id="Trazado_108319" data-name="Trazado 108319" d="M-135.775,1011.528a7.138,7.138,0,0,0,3.042-5.837,7.13,7.13,0,0,0-7.135-7.135,7.13,7.13,0,0,0-7.135,7.135,7.106,7.106,0,0,0,3.042,5.837,12.365,12.365,0,0,0-4.217,2.473,16,16,0,0,0-5.787-3.153,9.059,9.059,0,0,0,4.365-7.741,9.035,9.035,0,0,0-9.039-9.039,9.043,9.043,0,0,0-9.039,9.039,9.032,9.032,0,0,0,4.365,7.741,16.129,16.129,0,0,0-5.725,3.116,12.462,12.462,0,0,0-4.167-2.424,7.138,7.138,0,0,0,3.042-5.837,7.13,7.13,0,0,0-7.135-7.135,7.13,7.13,0,0,0-7.135,7.135,7.106,7.106,0,0,0,3.042,5.837,12.524,12.524,0,0,0-8.433,11.834v.816a.053.053,0,0,0,.049.05h15.123a16.634,16.634,0,0,0-.136,2.09v.841a6.576,6.576,0,0,0,6.579,6.578h19.167a6.576,6.576,0,0,0,6.579-6.578v-.841a16.631,16.631,0,0,0-.136-2.09h15.222a.053.053,0,0,0,.049-.05v-.816A12.572,12.572,0,0,0-135.775,1011.528Zm-9.249-5.849a5.161,5.161,0,0,1,5.156-5.156,5.161,5.161,0,0,1,5.156,5.156,5.173,5.173,0,0,1-5.058,5.156h-.2A5.149,5.149,0,0,1-145.024,1005.679Zm-20.7-2.572a7.066,7.066,0,0,1,7.061-7.061,7.066,7.066,0,0,1,7.061,7.061,7.071,7.071,0,0,1-6.653,7.048h-.816A7.071,7.071,0,0,1-165.724,1003.107Zm-16.768,2.572a5.161,5.161,0,0,1,5.156-5.156,5.161,5.161,0,0,1,5.156,5.156,5.173,5.173,0,0,1-5.058,5.156h-.2A5.157,5.157,0,0,1-182.492,1005.679Zm8.186,16.57h-13.516a10.566,10.566,0,0,1,10.412-9.435h.148a10.456,10.456,0,0,1,6.739,2.51A16.236,16.236,0,0,0-174.306,1022.249Zm29.838,4.922a4.607,4.607,0,0,1-4.6,4.6h-19.167a4.607,4.607,0,0,1-4.6-4.6v-.841a14.2,14.2,0,0,1,13.763-14.183c.136.012.284.012.42.012s.284,0,.42-.012a14.2,14.2,0,0,1,13.763,14.183Zm1.471-4.922a16.193,16.193,0,0,0-3.747-6.875,10.507,10.507,0,0,1,6.8-2.56h.148a10.566,10.566,0,0,1,10.412,9.435Z" transform="translate(189.825 -994.068)" fill="#12263f"/>
      </g>
    </g>
  </g>
</svg>
