<svg xmlns="http://www.w3.org/2000/svg" width="90" height="90" viewBox="0 0 90 90">
  <g id="Grupo_70462" data-name="Grupo 70462" transform="translate(-280 -7450)">
    <circle id="Elipse_4374" data-name="Elipse 4374" cx="45" cy="45" r="45" transform="translate(280 7450)" fill="#fd9826"/>
    <g id="Grupo_70385" data-name="Grupo 70385" transform="translate(321.337 6029.585)">
      <path id="Trazado_108333" data-name="Trazado 108333" d="M16.317,1441.113l-30.9-2.067a1.832,1.832,0,0,0-1.948,1.7l-.242,3.614h-4.107a1.833,1.833,0,0,0-1.83,1.83v44.5a1.832,1.832,0,0,0,1.83,1.83H2.773a.793.793,0,0,0,.553-.229l3.57-3.554a.794.794,0,0,0,.111.017l6.1.407a1.876,1.876,0,0,0,1.948-1.7l2.969-44.4a1.846,1.846,0,0,0-1.7-1.948Zm-12.76,48.726v-5.449a.262.262,0,0,1,.261-.261H9.247Zm9.929-2.485a.261.261,0,0,1-.278.243l-4.84-.324,3.321-3.306a.785.785,0,0,0,.231-.556v-37.217a1.832,1.832,0,0,0-1.83-1.83H1.933a.785.785,0,0,0,0,1.568H10.09a.262.262,0,0,1,.261.262v36.365H3.819a1.833,1.833,0,0,0-1.83,1.83v6.563H-20.878a.262.262,0,0,1-.261-.261v-44.5a.262.262,0,0,1,.261-.262H-2.244a.785.785,0,0,0,0-1.568H-15.2l.235-3.51a.262.262,0,0,1,.278-.244l30.9,2.067a.262.262,0,0,1,.243.279Z" transform="translate(0 0)" fill="#12263f"/>
      <path id="Trazado_108334" data-name="Trazado 108334" d="M55.243,1675.767H33.85a.784.784,0,1,0,0,1.569H55.243a.784.784,0,1,0,0-1.569Z" transform="translate(-49.941 -211.967)" fill="#12263f"/>
      <path id="Trazado_108335" data-name="Trazado 108335" d="M55.243,1728.052H33.85a.784.784,0,1,0,0,1.569H55.243a.784.784,0,1,0,0-1.569Z" transform="translate(-49.941 -258.784)" fill="#12263f"/>
      <path id="Trazado_108336" data-name="Trazado 108336" d="M33.066,1624.266a.784.784,0,0,0,.784.784H55.243a.784.784,0,1,0,0-1.569H33.85A.784.784,0,0,0,33.066,1624.266Z" transform="translate(-49.941 -165.151)" fill="#12263f"/>
      <path id="Trazado_108337" data-name="Trazado 108337" d="M69.1,1571.981a.784.784,0,0,0,.784.784H83.739a.784.784,0,0,0,0-1.569H69.883A.784.784,0,0,0,69.1,1571.981Z" transform="translate(-82.205 -118.334)" fill="#12263f"/>
      <path id="Trazado_108338" data-name="Trazado 108338" d="M45.44,1831.02l-4.232.009-1.422,0c-.859,0-1.438-.172-1.63-1.117-.163-.8-1.293-.692-1.513,0-.543,1.709-1.441,1.039-1.943-.11a16.09,16.09,0,0,1-.849-3.65c-.161-.9-1.517-.645-1.541.208a14.615,14.615,0,0,1-.422,3.321,26.669,26.669,0,0,1-1.174,3.282c-.382.937,1.137,1.34,1.513.417a30.283,30.283,0,0,0,1.066-2.9c.538,1.293,1.65,2.755,3.234,1.893a3.16,3.16,0,0,0,.812-.654c.824.952,2.051.877,3.2.876q2.451,0,4.9-.01a.785.785,0,0,0,0-1.569Z" transform="translate(-47.78 -346.122)" fill="#12263f"/>
      <path id="Trazado_108339" data-name="Trazado 108339" d="M387.978,1620.781a2.256,2.256,0,0,0-1.537-.629l-.593,0v-1.121a2.171,2.171,0,0,0-.987-1.763v-1.579c0-3.249-5.059-3.235-5.059.015v1.579a2.073,2.073,0,0,0-.989,1.762v1.149a2.166,2.166,0,0,0,0,4.312c.017,3.511.016,6.965,0,10.536a.785.785,0,0,0,1.569.008c.019-3.573.02-7.03,0-10.545l3.892-.019s-.005,11.593-.005,16.815a1.946,1.946,0,0,1-3.893-.026v-1.43a.785.785,0,0,0-1.566-.094v1.342a3.853,3.853,0,0,0,1.045,2.81,6.559,6.559,0,0,0,1.921,4.388.832.832,0,0,0,1.124-.019,6.469,6.469,0,0,0,1.9-4.436,3.237,3.237,0,0,0,1.036-2.813v-7.148a2.2,2.2,0,0,0,2.771-2.086v-9.483a2.14,2.14,0,0,0-.635-1.527Zm-7.6-.6v-1.134a.5.5,0,0,1,.374-.485l3.14-.016a.495.495,0,0,1,.383.486v1.129Zm1.953-5.438a1.021,1.021,0,0,1,.958.948v1.272l-1.921.01v-1.267a.968.968,0,0,1,.964-.963Zm0,31.783a5.006,5.006,0,0,1-.776-1.716,3.41,3.41,0,0,0,1.555-.02A4.892,4.892,0,0,1,382.334,1646.526Zm4.709-14.736a.6.6,0,0,1-1.2.014s0-7.423,0-8.1a.791.791,0,0,0-.79-.785l-6.107.031a.6.6,0,0,1,.008-1.189l7.49-.037a.588.588,0,0,1,.595.588v9.483Z" transform="translate(-357.773 -155.999)" fill="#12263f"/>
    </g>
  </g>
</svg>
