<svg xmlns="http://www.w3.org/2000/svg" xmlns:xlink="http://www.w3.org/1999/xlink" width="95" height="100.277" viewBox="0 0 95 100.277">
  <defs>
    <clipPath id="clip-path">
      <rect id="Rectángulo_25631" data-name="Rectángulo 25631" width="58.463" height="82.122" fill="none"/>
    </clipPath>
  </defs>
  <g id="Grupo_1111680" data-name="Grupo 1111680" transform="translate(1884 9860)">
    <rect id="Rectángulo_404637" data-name="Rectángulo 404637" width="95" height="100.278" transform="translate(-1884 -9860)" fill="none"/>
    <g id="Grupo_58892" data-name="Grupo 58892" transform="translate(-1865.732 -9850.923)">
      <g id="Grupo_24959" data-name="Grupo 24959" clip-path="url(#clip-path)">
        <path id="Trazado_64775" data-name="Trazado 64775" d="M38.1,47.258a4.9,4.9,0,1,0,9.791,0c0-2.7-2.006-3.953-4.9-4.9-2.57-.839-4.9-2.191-4.9-4.9a4.9,4.9,0,0,1,9.791,0" transform="translate(-13.766 -11.768)" fill="none" stroke="#344154" stroke-linecap="round" stroke-linejoin="round" stroke-width="3"/>
        <line id="Línea_168" data-name="Línea 168" y2="2.762" transform="translate(29.232 18.075)" fill="none" stroke="#344154" stroke-linecap="round" stroke-linejoin="round" stroke-width="3"/>
        <line id="Línea_169" data-name="Línea 169" y2="2.762" transform="translate(29.232 40.386)" fill="none" stroke="#344154" stroke-linecap="round" stroke-linejoin="round" stroke-width="3"/>
        <path id="Trazado_64776" data-name="Trazado 64776" d="M12.8,1.5V18.617l4.25-2.6,4.311,2.6V1.5" transform="translate(-4.623 -0.542)" fill="none" stroke="#344154" stroke-linecap="round" stroke-linejoin="round" stroke-width="3"/>
        <path id="Trazado_64777" data-name="Trazado 64777" d="M6.481,1.5A4.98,4.98,0,0,0,1.5,6.481V77.091A4.981,4.981,0,0,1,6.481,72.11H58.046V1.5Z" transform="translate(-0.542 -0.542)" fill="none" stroke="#344154" stroke-linecap="round" stroke-linejoin="round" stroke-width="3"/>
        <path id="Trazado_64778" data-name="Trazado 64778" d="M1.5,117.034h0a4.614,4.614,0,0,0,4.615,4.615H53.982v-9.6" transform="translate(-0.542 -40.484)" fill="none" stroke="#344154" stroke-linecap="round" stroke-linejoin="round" stroke-width="3"/>
        <line id="Línea_170" data-name="Línea 170" x2="21.716" transform="translate(18.374 52.119)" fill="none" stroke="#344154" stroke-linecap="round" stroke-linejoin="round" stroke-width="3"/>
        <line id="Línea_171" data-name="Línea 171" x2="21.716" transform="translate(18.374 60.103)" fill="none" stroke="#344154" stroke-linecap="round" stroke-linejoin="round" stroke-width="3"/>
        <path id="Trazado_64779" data-name="Trazado 64779" d="M73.054,42.636V7.5H53.643A35.616,35.616,0,0,1,69.206,28.431Z" transform="translate(-19.381 -2.71)" fill="#ac8585"/>
      </g>
    </g>
  </g>
</svg>
