<svg xmlns="http://www.w3.org/2000/svg" width="90" height="90" viewBox="0 0 90 90">
  <g id="Grupo_70459" data-name="Grupo 70459" transform="translate(-280 -7002)">
    <circle id="Elipse_4371" data-name="Elipse 4371" cx="45" cy="45" r="45" transform="translate(280 7002)" fill="#fd9826"/>
    <g id="Grupo_70366" data-name="Grupo 70366" transform="translate(-80.523 6148.884)">
      <path id="Trazado_108320" data-name="Trazado 108320" d="M433.154,982.021l-9.47-12.3a1.11,1.11,0,0,0-1.475-.259l-6.114,3.888h-7.974a1.1,1.1,0,0,0-.305.051l-6.183,1.78-6.415-1.755-6.234-3.964a1.109,1.109,0,0,0-1.459.239l-10.474,12.974a1.109,1.109,0,0,0,.14,1.538l5.49,4.725,4.925,6.637a9,9,0,0,1,2.419,7.18,3.921,3.921,0,0,0,3.921,3.921h.042c0,.027,0,.053,0,.08a3.921,3.921,0,0,0,3.921,3.921,4.01,4.01,0,0,0,.612-.048,3.921,3.921,0,0,0,6.672,2.387l.6-.6.252.2a207.934,207.934,0,0,1,9.478-4.025,3.918,3.918,0,0,1,3.979-3.98,3.915,3.915,0,0,1,3.98-3.98,3.927,3.927,0,0,0,.515-4.908l3.6-7.532L433,983.538A1.109,1.109,0,0,0,433.154,982.021ZM388.63,971.864l4.482,2.85-9.751,11.879-3.907-3.363Zm.632,25.187,1.353-1.353c.041-.041.084-.08.128-.116a1.7,1.7,0,0,1,.924-.375h.029c.048,0,.1-.006.145-.006a1.692,1.692,0,0,1,1.214.533,1.744,1.744,0,0,1-.075,2.414l-1.312,1.312a1.7,1.7,0,0,1-2.407-2.407Zm3.48,6.9a1.7,1.7,0,0,1,0-2.406l2.623-2.623a1.72,1.72,0,0,1,1.935-.334,1.7,1.7,0,0,1,.938,1.757,1.8,1.8,0,0,1-.507,1.025l-2.582,2.581a1.7,1.7,0,0,1-2.407,0Zm3.961,4a1.7,1.7,0,0,1,0-2.407l2.623-2.623a1.721,1.721,0,0,1,2.057-.27,1.693,1.693,0,0,1,.812,1.72,1.8,1.8,0,0,1-.5,1l-2.581,2.581a1.7,1.7,0,0,1-2.407,0Zm4.512,3.488a1.7,1.7,0,0,1,0-2.406l1.353-1.353c.041-.041.084-.079.128-.116l0,0a1.7,1.7,0,0,1,.755-.35l.019,0c.047-.009.1-.015.144-.02l.059,0c.04,0,.079,0,.119,0a1.691,1.691,0,0,1,1.214.533,1.578,1.578,0,0,1,.11.129,1.756,1.756,0,0,1-.192,2.291l-1.3,1.3A1.7,1.7,0,0,1,401.215,1011.443Zm20.7-12.381a1.7,1.7,0,0,1-2.407,0,1,1,0,0,0-.076-.068l-7.134-7.209a1.11,1.11,0,0,0-1.577,1.561l7.211,7.286,0,0a1.7,1.7,0,1,1-2.407,2.407l-4.824-4.874a1.109,1.109,0,1,0-1.577,1.561l4.75,4.8a1.045,1.045,0,0,0,.078.087,1.7,1.7,0,1,1-2.407,2.407l-2.633-2.66a1.109,1.109,0,0,0-1.577,1.56l2.559,2.586a1.017,1.017,0,0,0,.078.087,1.7,1.7,0,1,1-2.407,2.407,2.439,2.439,0,0,0-.252-.2c-.073-.055-.092-.094-.055-.182s.092-.17.128-.26.073-.2.105-.307a4,4,0,0,0,.144-1.707,3.88,3.88,0,0,0-3.307-3.34,3.957,3.957,0,0,0-.95-3.57,3.892,3.892,0,0,0-2.795-1.226h-.117a3.883,3.883,0,0,0-3.844-4,3.989,3.989,0,0,0-.947.1,3.907,3.907,0,0,0-6.483-2.322l-4.289-5.779,10.26-12.5,3.27.894-4.27,7.535a3.922,3.922,0,0,0,1.478,5.344c.057.032.114.063.173.092l.013.007a3.958,3.958,0,0,0,.47.2,3.921,3.921,0,0,0,4.687-1.774l2.775-4.9,4.955.351,13.195,13.194A1.7,1.7,0,0,1,421.911,999.061Zm.46-5.085L409.993,981.6a.942.942,0,0,0-.073-.067,1.11,1.11,0,0,0-.632-.255l-6.067-.43a1.128,1.128,0,0,0-1.044.56l-3.12,5.506a1.7,1.7,0,0,1-2.961-1.678l4.165-7.351,1.688-.486.033-.011,6.3-1.819h7.611l9.5,12.079Zm4.476-8.071-8.787-11.176,4.485-2.852,8.211,10.665Z" transform="translate(0 -87.978)" fill="#12263f"/>
      <path id="Trazado_108321" data-name="Trazado 108321" d="M677.474,908.468a1.107,1.107,0,0,0,.785-.325l7.578-7.578A1.109,1.109,0,0,0,684.268,899l-7.578,7.578a1.11,1.11,0,0,0,.784,1.894Z" transform="translate(-266.391 -25.18)" fill="#12263f"/>
      <path id="Trazado_108322" data-name="Trazado 108322" d="M507.665,908.143a1.11,1.11,0,1,0,1.569-1.569L501.656,899a1.109,1.109,0,0,0-1.569,1.569Z" transform="translate(-109.342 -25.18)" fill="#12263f"/>
      <path id="Trazado_108323" data-name="Trazado 108323" d="M623.4,918.966a1.11,1.11,0,0,0,1.109-1.109v-6.272a1.109,1.109,0,0,0-2.219,0v6.272A1.11,1.11,0,0,0,623.4,918.966Z" transform="translate(-218.301 -35.679)" fill="#12263f"/>
      <path id="Trazado_108324" data-name="Trazado 108324" d="M622.4,871.886a1.109,1.109,0,1,0,.408-1.347A1.116,1.116,0,0,0,622.4,871.886Z" transform="translate(-218.324)" fill="#12263f"/>
    </g>
  </g>
</svg>
