<svg xmlns="http://www.w3.org/2000/svg" xmlns:xlink="http://www.w3.org/1999/xlink" width="113" height="113" viewBox="0 0 113 113">
  <defs>
    <filter id="Trazado_896985" x="0" y="0" width="113" height="113" filterUnits="userSpaceOnUse">
      <feOffset dy="3" input="SourceAlpha"/>
      <feGaussianBlur stdDeviation="3" result="blur"/>
      <feFlood flood-opacity="0.161"/>
      <feComposite operator="in" in2="blur"/>
      <feComposite in="SourceGraphic"/>
    </filter>
  </defs>
  <g id="Grupo_1176569" data-name="Grupo 1176569" transform="translate(-901 -5606.645)">
    <g id="Grupo_1111467" data-name="Grupo 1111467" transform="translate(575.109 1760.645)">
      <g id="Grupo_1111318" data-name="Grupo 1111318" transform="translate(-5.891)">
        <g id="Grupo_1109826" data-name="Grupo 1109826" transform="translate(340.781 3852)">
          <g id="Grupo_1098742" data-name="Grupo 1098742">
            <g transform="matrix(1, 0, 0, 1, -9, -6)" filter="url(#Trazado_896985)">
              <g id="Trazado_896985-2" data-name="Trazado 896985" transform="translate(9 6)" fill="#fd9826" opacity="0.859">
                <path d="M 47.49993515014648 93.5 C 41.28932189941406 93.5 35.26528167724609 92.28397369384766 29.59514808654785 89.88571929931641 C 24.1176815032959 87.56894683837891 19.1981086730957 84.25197601318359 14.97306823730469 80.02693176269531 C 10.74802875518799 75.80189514160156 7.431055068969727 70.88231658935547 5.11428165435791 65.40485382080078 C 2.716028451919556 59.73471832275391 1.500001788139343 53.71067810058594 1.500001788139343 47.50006484985352 C 1.500001788139343 41.28932189941406 2.716028451919556 35.26528167724609 5.11428165435791 29.59514617919922 C 7.431055068969727 24.11767959594727 10.74802875518799 19.19810676574707 14.97306823730469 14.97306632995605 C 19.1981086730957 10.74802684783936 24.1176815032959 7.431053161621094 29.59514808654785 5.114280223846436 C 35.26528167724609 2.716026782989502 41.28932189941406 1.5 47.49993515014648 1.5 C 53.71054840087891 1.5 59.73458862304688 2.716026782989502 65.40472412109375 5.114280223846436 C 70.88218688964844 7.431053161621094 75.80176544189453 10.74802684783936 80.02680206298828 14.97306632995605 C 84.25183868408203 19.19810676574707 87.56881713867188 24.11767959594727 89.88558959960938 29.59514617919922 C 92.28384399414062 35.26528167724609 93.49987030029297 41.28932189941406 93.49987030029297 47.49993515014648 C 93.49987030029297 53.71067810058594 92.28384399414062 59.73471832275391 89.88558959960938 65.40485382080078 C 87.56881713867188 70.88231658935547 84.25183868408203 75.80189514160156 80.02680206298828 80.02693176269531 C 75.80176544189453 84.25197601318359 70.88218688964844 87.56894683837891 65.40472412109375 89.88571929931641 C 59.73458862304688 92.28397369384766 53.71054840087891 93.5 47.49993515014648 93.5 Z" stroke="none"/>
                <path d="M 47.49993515014648 3 C 41.49116516113281 3 35.66371917724609 4.176155090332031 30.17947387695312 6.495796203613281 C 24.88081359863281 8.7369384765625 20.12149047851562 11.94596862792969 16.03372192382812 16.03372192382812 C 11.94596862792969 20.12149047851562 8.7369384765625 24.88081359863281 6.495796203613281 30.17947387695312 C 4.1761474609375 35.66372299194336 3 41.49116897583008 3 47.50006103515625 C 3 53.50883102416992 4.1761474609375 59.33627700805664 6.495796203613281 64.82052612304688 C 8.7369384765625 70.11918640136719 11.94596862792969 74.87850952148438 16.03372192382812 78.96627807617188 C 20.12149047851562 83.05403137207031 24.88081359863281 86.2630615234375 30.17947387695312 88.50419616699219 C 35.66371917724609 90.82384490966797 41.49116516113281 92 47.49993515014648 92 C 53.50870513916016 92 59.33615112304688 90.82384490966797 64.82039642333984 88.50419616699219 C 70.11905670166016 86.2630615234375 74.87837982177734 83.05403137207031 78.96614837646484 78.96627807617188 C 83.05390167236328 74.87850952148438 86.26293182373047 70.11918640136719 88.50407409667969 64.82052612304688 C 90.82372283935547 59.33627700805664 91.99987030029297 53.50883102416992 91.99987030029297 47.49993896484375 C 91.99987030029297 41.49116897583008 90.82372283935547 35.66372299194336 88.50407409667969 30.17947387695312 C 86.26293182373047 24.88081359863281 83.05390167236328 20.12149047851562 78.96614837646484 16.03372192382812 C 74.87837982177734 11.94596862792969 70.11905670166016 8.7369384765625 64.82039642333984 6.495796203613281 C 59.33615112304688 4.176155090332031 53.50870513916016 3 47.49993515014648 3 M 47.49993515014648 0 C 73.73342895507812 0 94.99987030029297 21.26644897460938 94.99987030029297 47.49993896484375 L 94.99987030029297 47.50006103515625 C 94.99987030029297 73.73355102539062 73.73342895507812 95 47.49993515014648 95 C 21.26644134521484 95 0 73.73355102539062 0 47.50006103515625 L 0 47.49993896484375 C 0 21.26644897460938 21.26644134521484 0 47.49993515014648 0 Z" stroke="none" fill="#fff"/>
              </g>
            </g>
            <g id="Rectángulo_400907" data-name="Rectángulo 400907" transform="translate(0 0)" fill="none" stroke="#fff" stroke-width="3">
              <rect width="95" height="95" rx="47.5" stroke="none"/>
              <rect x="1.5" y="1.5" width="92" height="92" rx="46" fill="none"/>
            </g>
          </g>
        </g>
      </g>
    </g>
    <g id="good_10897164" transform="translate(927.495 5627.145)">
      <path id="Trazado_1031301" data-name="Trazado 1031301" d="M47,2A14.986,14.986,0,0,0,34.83,25.75L31,32l8.06-2.29A14.994,14.994,0,1,0,47,2Z" fill="#e6f1ff"/>
      <path id="Trazado_1031302" data-name="Trazado 1031302" d="M38,12.7h5v10H38Z" fill="#8ea0b3"/>
      <path id="Trazado_1031303" data-name="Trazado 1031303" d="M43,21.7h1.49l1.51,1h8.21a2,2,0,0,0,1.99-1.78l.56-5a2.005,2.005,0,0,0-1.99-2.22H51.8l1.08-4.31a1.684,1.684,0,0,0-1.05-2.02,1.654,1.654,0,0,0-2.02.98l-1.28,3.4a3.007,3.007,0,0,1-2.81,1.95H43Z" fill="#ffd199"/>
      <path id="Trazado_1031304" data-name="Trazado 1031304" d="M2,25H24V62H2Z" transform="translate(26 87) rotate(180)" fill="#ffbd64"/>
      <path id="Trazado_1031305" data-name="Trazado 1031305" d="M16,46H38V62H16Z" transform="translate(54 108) rotate(180)" fill="#b3d4ff"/>
      <path id="Trazado_1031306" data-name="Trazado 1031306" d="M17,43V39H37v4a3,3,0,1,1-2.5,4.65,2.99,2.99,0,0,1-5,0,2.99,2.99,0,0,1-5,0,2.99,2.99,0,0,1-5,0A3,3,0,1,1,17,43Z" fill="#67cc6d"/>
      <g id="Grupo_1176568" data-name="Grupo 1176568">
        <path id="Trazado_1031307" data-name="Trazado 1031307" d="M22,53H32v5H22Z" transform="translate(54 111) rotate(180)" fill="#f2f2f2"/>
        <path id="Trazado_1031308" data-name="Trazado 1031308" d="M16,30h4v4H16Z" transform="translate(36 64) rotate(180)" fill="#f2f2f2"/>
        <path id="Trazado_1031309" data-name="Trazado 1031309" d="M6,30h4v4H6Z" transform="translate(16 64) rotate(180)" fill="#f2f2f2"/>
        <path id="Trazado_1031310" data-name="Trazado 1031310" d="M6,41.5h4v4H6Z" transform="translate(16 87) rotate(180)" fill="#f2f2f2"/>
        <path id="Trazado_1031311" data-name="Trazado 1031311" d="M6,53h4v4H6Z" transform="translate(16 110) rotate(180)" fill="#f2f2f2"/>
      </g>
      <path id="Trazado_1031312" data-name="Trazado 1031312" d="M53.08,12.7l.77-3.07A2.622,2.622,0,0,0,48.87,8l-1.28,3.4a2,2,0,0,1-1.87,1.3H44a1,1,0,0,0-1-1H38a1,1,0,0,0-1,1v10a1,1,0,0,0,1,1h5a1,1,0,0,0,1-1h.18l1.27.83a.967.967,0,0,0,.55.17h8.21a3,3,0,0,0,2.98-2.67l.56-5a3.006,3.006,0,0,0-2.99-3.33ZM42,21.7H39v-8h3Zm13.76-5.89-.56,5a1,1,0,0,1-.99.89H46.3l-1.26-.83a.967.967,0,0,0-.55-.17H44v-6h1.72a4.024,4.024,0,0,0,3.75-2.6l1.28-3.4a.624.624,0,0,1,.79-.37.683.683,0,0,1,.38.82l-1.08,4.31a.992.992,0,0,0,.97,1.24h2.97a1.022,1.022,0,0,1,.75.33,1,1,0,0,1,.25.78Z"/>
      <path id="Trazado_1031313" data-name="Trazado 1031313" d="M2,63H38a1,1,0,0,0,1-1V49.44a3.98,3.98,0,0,0-1-7.31V39a1,1,0,0,0-1-1H25V25a1,1,0,0,0-1-1H2a1,1,0,0,0-1,1V62A1,1,0,0,0,2,63Zm35-2H17V50a4.007,4.007,0,0,0,2.5-.88,4.14,4.14,0,0,0,5,0,4.14,4.14,0,0,0,5,0,4.14,4.14,0,0,0,5,0A4.007,4.007,0,0,0,37,50ZM36,40v3a1,1,0,0,0,1,1,2,2,0,1,1-1.67,3.1,1.008,1.008,0,0,0-.83-.45,1,1,0,0,0-.83.45,2,2,0,0,1-3.34,0,1.04,1.04,0,0,0-1.67,0,2,2,0,0,1-3.34,0,1.04,1.04,0,0,0-1.67,0,2,2,0,0,1-3.34,0,1.04,1.04,0,0,0-1.67,0A2,2,0,1,1,16.97,44a1,1,0,0,0,1-1V40h18ZM3,26H23V38H17a1,1,0,0,0-1,1v3.13a3.98,3.98,0,0,0-1,7.31V61H3Z"/>
      <path id="Trazado_1031314" data-name="Trazado 1031314" d="M32,52H22a1,1,0,0,0-1,1v5a1,1,0,0,0,1,1H32a1,1,0,0,0,1-1V53A1,1,0,0,0,32,52Zm-1,5H23V54h8Z"/>
      <path id="Trazado_1031315" data-name="Trazado 1031315" d="M16,35h4a1,1,0,0,0,1-1V30a1,1,0,0,0-1-1H16a1,1,0,0,0-1,1v4A1,1,0,0,0,16,35Zm1-4h2v2H17Z"/>
      <path id="Trazado_1031316" data-name="Trazado 1031316" d="M10,29H6a1,1,0,0,0-1,1v4a1,1,0,0,0,1,1h4a1,1,0,0,0,1-1V30A1,1,0,0,0,10,29ZM9,33H7V31H9Z"/>
      <path id="Trazado_1031317" data-name="Trazado 1031317" d="M10,40.5H6a1,1,0,0,0-1,1v4a1,1,0,0,0,1,1h4a1,1,0,0,0,1-1v-4A1,1,0,0,0,10,40.5Zm-1,4H7v-2H9Z"/>
      <path id="Trazado_1031318" data-name="Trazado 1031318" d="M10,52H6a1,1,0,0,0-1,1v4a1,1,0,0,0,1,1h4a1,1,0,0,0,1-1V53A1,1,0,0,0,10,52ZM9,56H7V54H9Z"/>
      <path id="Trazado_1031319" data-name="Trazado 1031319" d="M47,1A16.021,16.021,0,0,0,31,17a15.849,15.849,0,0,0,2.64,8.78l-3.49,5.7a1,1,0,0,0,.06,1.13,1.014,1.014,0,0,0,.8.4.842.842,0,0,0,.27-.04l7.64-2.17A16,16,0,1,0,47,1Zm0,30a13.943,13.943,0,0,1-7.41-2.14,1.014,1.014,0,0,0-.53-.15.842.842,0,0,0-.27.04L33.2,30.34l2.49-4.06a1.017,1.017,0,0,0-.04-1.11A13.994,13.994,0,1,1,47.01,31Z"/>
    </g>
  </g>
</svg>
