<svg xmlns="http://www.w3.org/2000/svg" xmlns:xlink="http://www.w3.org/1999/xlink" width="79.249" height="79.697" viewBox="0 0 79.249 79.697">
  <defs>
    <clipPath id="clip-path">
      <rect id="Rectángulo_25621" data-name="Rectángulo 25621" width="79.249" height="79.697" fill="none"/>
    </clipPath>
  </defs>
  <g id="Grupo_24942" data-name="Grupo 24942" clip-path="url(#clip-path)">
    <path id="Trazado_64706" data-name="Trazado 64706" d="M9.62,24.1C3.858,30.593,1.5,38.144,1.5,46.74A35.613,35.613,0,1,0,37.113,11.127a33.669,33.669,0,0,0-22.35,7.894" transform="translate(5.516 -3.661)" fill="none" stroke="#344154" stroke-linecap="round" stroke-linejoin="round" stroke-width="3"/>
    <path id="Trazado_64707" data-name="Trazado 64707" d="M28.135,42.729c-2.1,2.037-3.65,7.348-3.65,11.573A20.191,20.191,0,1,0,44.676,34.111c-4.059,0-8.469,1.154-11.4,3.531" transform="translate(-2.047 -11.224)" fill="none" stroke="#344154" stroke-linecap="round" stroke-linejoin="round" stroke-width="3"/>
    <line id="Línea_138" data-name="Línea 138" y1="7.036" transform="translate(11.592 4.524)" fill="none" stroke="#344154" stroke-linecap="round" stroke-linejoin="round" stroke-width="3"/>
    <line id="Línea_139" data-name="Línea 139" y1="7.036" transform="translate(15.179 7.867)" fill="none" stroke="#344154" stroke-linecap="round" stroke-linejoin="round" stroke-width="3"/>
    <line id="Línea_140" data-name="Línea 140" y1="7.036" transform="translate(7.95 1.006)" fill="none" stroke="#344154" stroke-linecap="round" stroke-linejoin="round" stroke-width="3"/>
    <line id="Línea_141" data-name="Línea 141" x1="7.036" transform="translate(4.524 11.592)" fill="none" stroke="#344154" stroke-linecap="round" stroke-linejoin="round" stroke-width="3"/>
    <line id="Línea_142" data-name="Línea 142" x1="7.035" transform="translate(7.868 15.178)" fill="none" stroke="#344154" stroke-linecap="round" stroke-linejoin="round" stroke-width="3"/>
    <line id="Línea_143" data-name="Línea 143" x1="7.036" transform="translate(1.007 7.95)" fill="none" stroke="#344154" stroke-linecap="round" stroke-linejoin="round" stroke-width="3"/>
    <path id="Trazado_64708" data-name="Trazado 64708" d="M72.578,47.021a6.7,6.7,0,1,0,6.7-6.7l-.335.009.335,6.688L44.6,11.985" transform="translate(-36.646 -3.944)" fill="none" stroke="#344154" stroke-linecap="round" stroke-linejoin="round" stroke-width="3"/>
    <path id="Trazado_64709" data-name="Trazado 64709" d="M69.953,48.713A31.585,31.585,0,0,1,7.5,55.41h7.6A24.215,24.215,0,1,0,38.365,24.5v-7.37A31.623,31.623,0,0,1,69.953,48.713" transform="translate(4.264 -5.635)" fill="#f9a44a"/>
  </g>
</svg>
