<svg xmlns="http://www.w3.org/2000/svg" xmlns:xlink="http://www.w3.org/1999/xlink" width="113" height="113" viewBox="0 0 113 113">
  <defs>
    <filter id="Trazado_896985" x="0" y="0" width="113" height="113" filterUnits="userSpaceOnUse">
      <feOffset dy="3" input="SourceAlpha"/>
      <feGaussianBlur stdDeviation="3" result="blur"/>
      <feFlood flood-opacity="0.161"/>
      <feComposite operator="in" in2="blur"/>
      <feComposite in="SourceGraphic"/>
    </filter>
  </defs>
  <g id="Grupo_1176565" data-name="Grupo 1176565" transform="translate(-271.051 -5606.645)">
    <g id="Grupo_1111465" data-name="Grupo 1111465" transform="translate(-54.84 1760.645)">
      <g id="Grupo_1111318" data-name="Grupo 1111318" transform="translate(-5.891)">
        <g id="Grupo_1109826" data-name="Grupo 1109826" transform="translate(340.781 3852)">
          <g id="Grupo_1098742" data-name="Grupo 1098742">
            <g transform="matrix(1, 0, 0, 1, -9, -6)" filter="url(#Trazado_896985)">
              <g id="Trazado_896985-2" data-name="Trazado 896985" transform="translate(9 6)" fill="#fd9826" opacity="0.859">
                <path d="M 47.49993515014648 93.5 C 41.28932189941406 93.5 35.26528167724609 92.28397369384766 29.59514808654785 89.88571929931641 C 24.1176815032959 87.56894683837891 19.1981086730957 84.25197601318359 14.97306823730469 80.02693176269531 C 10.74802875518799 75.80189514160156 7.431055068969727 70.88231658935547 5.11428165435791 65.40485382080078 C 2.716028451919556 59.73471832275391 1.500001788139343 53.71067810058594 1.500001788139343 47.50006484985352 C 1.500001788139343 41.28932189941406 2.716028451919556 35.26528167724609 5.11428165435791 29.59514617919922 C 7.431055068969727 24.11767959594727 10.74802875518799 19.19810676574707 14.97306823730469 14.97306632995605 C 19.1981086730957 10.74802684783936 24.1176815032959 7.431053161621094 29.59514808654785 5.114280223846436 C 35.26528167724609 2.716026782989502 41.28932189941406 1.5 47.49993515014648 1.5 C 53.71054840087891 1.5 59.73458862304688 2.716026782989502 65.40472412109375 5.114280223846436 C 70.88218688964844 7.431053161621094 75.80176544189453 10.74802684783936 80.02680206298828 14.97306632995605 C 84.25183868408203 19.19810676574707 87.56881713867188 24.11767959594727 89.88558959960938 29.59514617919922 C 92.28384399414062 35.26528167724609 93.49987030029297 41.28932189941406 93.49987030029297 47.49993515014648 C 93.49987030029297 53.71067810058594 92.28384399414062 59.73471832275391 89.88558959960938 65.40485382080078 C 87.56881713867188 70.88231658935547 84.25183868408203 75.80189514160156 80.02680206298828 80.02693176269531 C 75.80176544189453 84.25197601318359 70.88218688964844 87.56894683837891 65.40472412109375 89.88571929931641 C 59.73458862304688 92.28397369384766 53.71054840087891 93.5 47.49993515014648 93.5 Z" stroke="none"/>
                <path d="M 47.49993515014648 3 C 41.49116516113281 3 35.66371917724609 4.176155090332031 30.17947387695312 6.495796203613281 C 24.88081359863281 8.7369384765625 20.12149047851562 11.94596862792969 16.03372192382812 16.03372192382812 C 11.94596862792969 20.12149047851562 8.7369384765625 24.88081359863281 6.495796203613281 30.17947387695312 C 4.1761474609375 35.66372299194336 3 41.49116897583008 3 47.50006103515625 C 3 53.50883102416992 4.1761474609375 59.33627700805664 6.495796203613281 64.82052612304688 C 8.7369384765625 70.11918640136719 11.94596862792969 74.87850952148438 16.03372192382812 78.96627807617188 C 20.12149047851562 83.05403137207031 24.88081359863281 86.2630615234375 30.17947387695312 88.50419616699219 C 35.66371917724609 90.82384490966797 41.49116516113281 92 47.49993515014648 92 C 53.50870513916016 92 59.33615112304688 90.82384490966797 64.82039642333984 88.50419616699219 C 70.11905670166016 86.2630615234375 74.87837982177734 83.05403137207031 78.96614837646484 78.96627807617188 C 83.05390167236328 74.87850952148438 86.26293182373047 70.11918640136719 88.50407409667969 64.82052612304688 C 90.82372283935547 59.33627700805664 91.99987030029297 53.50883102416992 91.99987030029297 47.49993896484375 C 91.99987030029297 41.49116897583008 90.82372283935547 35.66372299194336 88.50407409667969 30.17947387695312 C 86.26293182373047 24.88081359863281 83.05390167236328 20.12149047851562 78.96614837646484 16.03372192382812 C 74.87837982177734 11.94596862792969 70.11905670166016 8.7369384765625 64.82039642333984 6.495796203613281 C 59.33615112304688 4.176155090332031 53.50870513916016 3 47.49993515014648 3 M 47.49993515014648 0 C 73.73342895507812 0 94.99987030029297 21.26644897460938 94.99987030029297 47.49993896484375 L 94.99987030029297 47.50006103515625 C 94.99987030029297 73.73355102539062 73.73342895507812 95 47.49993515014648 95 C 21.26644134521484 95 0 73.73355102539062 0 47.50006103515625 L 0 47.49993896484375 C 0 21.26644897460938 21.26644134521484 0 47.49993515014648 0 Z" stroke="none" fill="#fff"/>
              </g>
            </g>
            <g id="Rectángulo_400907" data-name="Rectángulo 400907" transform="translate(0 0)" fill="none" stroke="#fff" stroke-width="3">
              <rect width="95" height="95" rx="47.5" stroke="none"/>
              <rect x="1.5" y="1.5" width="92" height="92" rx="46" fill="none"/>
            </g>
          </g>
        </g>
      </g>
    </g>
    <g id="Layer_3" transform="translate(277.885 5629.749)">
      <g id="Grupo_1176563" data-name="Grupo 1176563" transform="translate(23.759 0.861)">
        <path id="Trazado_1031269" data-name="Trazado 1031269" d="M174.377,201.442h32.636V225.77H174.377Z" transform="translate(-157.844 -179.172)" fill="#deddf5"/>
        <path id="Trazado_1031270" data-name="Trazado 1031270" d="M203.279,345.736h26v3.491h-26Z" transform="translate(-183.427 -306.896)" fill="#827cd2"/>
        <path id="Trazado_1031271" data-name="Trazado 1031271" d="M30.4,336.311h8.85v17.56H30.4Z" transform="translate(-30.399 -298.554)" fill="#00c755"/>
        <path id="Trazado_1031272" data-name="Trazado 1031272" d="M111.237,351.859h-3.749a.015.015,0,0,1-.015-.015V336.326a.015.015,0,0,1,.015-.015h3.749a.015.015,0,0,1,.015.015v15.517A.015.015,0,0,1,111.237,351.859Z" transform="translate(-98.623 -298.554)" fill="#827cd2"/>
        <path id="Trazado_1031273" data-name="Trazado 1031273" d="M179.57,357.565l-27.012,6.4-5.624-4.268h-6.546V345.736H150.5l6.392,6.814v.716h19.6a3.069,3.069,0,0,1,3.081,3.056v1.242Z" transform="translate(-127.759 -306.896)" fill="#ffbd86"/>
        <g id="Grupo_1176558" data-name="Grupo 1176558" transform="translate(21.154 46.054)">
          <path id="Trazado_1031274" data-name="Trazado 1031274" d="M222.58,412.367h-4.656a.861.861,0,0,1-.558-.205l-2.443-2.079a.861.861,0,0,1,1.116-1.312l2.2,1.873h4.339a.861.861,0,1,1,0,1.722Z" transform="translate(-214.62 -408.566)" fill="#fed2a4"/>
        </g>
        <path id="Trazado_1031275" data-name="Trazado 1031275" d="M215.188,306.089h4.3v4.553h-4.3Z" transform="translate(-193.969 -271.802)" fill="#f9475e"/>
        <path id="Trazado_1031276" data-name="Trazado 1031276" d="M290.121,281.885h4.3v7.322h-4.3Z" transform="translate(-260.297 -250.377)" fill="#00c755"/>
        <path id="Trazado_1031277" data-name="Trazado 1031277" d="M365.054,231.708h4.3v13.084h-4.3Z" transform="translate(-326.626 -205.962)" fill="#f9475e"/>
        <path id="Trazado_1031278" data-name="Trazado 1031278" d="M160.509,119.538h27.206a3.58,3.58,0,0,1,3.423,2.533c.017.054.03.109.041.164l1.4,6.708H155.643l1.4-6.708c.012-.055.025-.11.041-.164A3.579,3.579,0,0,1,160.509,119.538Z" transform="translate(-141.261 -106.673)" fill="#827cd2"/>
        <path id="Trazado_1031279" data-name="Trazado 1031279" d="M57.622,54.162l-5.688-4.6v2.351l-3.984.007a5.169,5.169,0,0,0-5.189,5.148V70.327h5.1V57.708a1.243,1.243,0,0,1,1.195-1.237l2.876-.122v2.413Z" transform="translate(-41.341 -44.732)" fill="#827cd2"/>
        <ellipse id="Elipse_12982" data-name="Elipse 12982" cx="8.846" cy="8.776" rx="8.846" ry="8.776" transform="translate(24.004)" fill="#00c755"/>
        <g id="Grupo_1176562" data-name="Grupo 1176562" transform="translate(29.121 1.479)">
          <g id="Grupo_1176559" data-name="Grupo 1176559" transform="translate(2.801)">
            <path id="Trazado_1031280" data-name="Trazado 1031280" d="M309.257,34.975a.861.861,0,0,1-.861-.861V21.241a.861.861,0,1,1,1.722,0V34.113A.861.861,0,0,1,309.257,34.975Z" transform="translate(-308.396 -20.38)" fill="#deddf5"/>
          </g>
          <g id="Grupo_1176561" data-name="Grupo 1176561" transform="translate(0 1.353)">
            <g id="Grupo_1176560" data-name="Grupo 1176560">
              <path id="Trazado_1031281" data-name="Trazado 1031281" d="M287.52,43.939a4.989,4.989,0,0,1-3.108-.841.861.861,0,1,1,.906-1.465,3.439,3.439,0,0,0,2.343.584,2.008,2.008,0,0,0,2.059-1.648,1.479,1.479,0,0,0-1.162-1.7,11.616,11.616,0,0,1-3.244-1.469,2.63,2.63,0,0,1-.948-2.625,3.076,3.076,0,0,1,2.191-2.429,4.255,4.255,0,0,1,3.851.7l-1.132,1.3.008.007A2.54,2.54,0,0,0,287.027,34a1.368,1.368,0,0,0-.968,1.081.945.945,0,0,0,.279.933A11.087,11.087,0,0,0,289.1,37.23a3.193,3.193,0,0,1,2.318,3.61,3.749,3.749,0,0,1-3.749,3.1Z" transform="translate(-284.003 -32.16)" fill="#deddf5"/>
            </g>
          </g>
        </g>
      </g>
      <g id="Grupo_1176564" data-name="Grupo 1176564" transform="translate(22.898 0)">
        <path id="Trazado_1031282" data-name="Trazado 1031282" d="M73.79,46.589V33.2a.861.861,0,1,0-1.722,0V46.37H53.741a.862.862,0,0,0-.221-.445l-1.757-1.873H69.609a.861.861,0,0,0,.861-.861V39.7a.861.861,0,0,0-.861-.861H67.351V26.607a.861.861,0,0,0-.861-.861h-4.3a.861.861,0,0,0-.861.861V38.84h-2.58V32.369a.861.861,0,0,0-.861-.861h-4.3a.861.861,0,0,0-.861.861V38.84h-2.58V35.148a.861.861,0,0,0-.861-.861h-4.3a.861.861,0,0,0-.861.861V38.84H41.154V23.993H72.067v5.184a.861.861,0,0,0,1.722,0V23.993h1.29a.861.861,0,0,0,.843-1.037l-1.4-6.7a2.372,2.372,0,0,0-.061-.244,4.416,4.416,0,0,0-4.247-3.142H65.756a9.529,9.529,0,0,0,.562-3.228,9.708,9.708,0,0,0-19.416,0,9.529,9.529,0,0,0,.562,3.228H43.007a4.417,4.417,0,0,0-4.248,3.147c-.023.078-.043.158-.059.235l-1.4,6.707a.861.861,0,0,0,.843,1.037h1.291V38.84H37.251v-.206a.877.877,0,0,0-.876-.876H23.759a.861.861,0,0,0-.861.861v9.208a.861.861,0,0,0,1.722,0V39.48h7.128V55.318H24.62V51.846a.861.861,0,1,0-1.722,0v4.333a.861.861,0,0,0,.861.861h8.85a.861.861,0,0,0,.861-.861V55.028h2.9a.877.877,0,0,0,.792-.5h5.479l5.393,4.093a.861.861,0,0,0,.719.152l27.012-6.4a.861.861,0,0,0,.663-.838V50.287a3.925,3.925,0,0,0-2.642-3.7ZM63.049,27.468h2.58V38.83h-2.58Zm-8.6,5.762h2.58v5.6h-2.58ZM56.61,1.722a7.915,7.915,0,1,1-7.985,7.915A7.959,7.959,0,0,1,56.61,1.722ZM40.387,16.6c.006-.031.014-.062.021-.086a2.7,2.7,0,0,1,2.6-1.922h5.278a9.737,9.737,0,0,0,16.651,0h5.277a2.706,2.706,0,0,1,2.6,1.932c.007.022.015.063.019.08l1.185,5.67H39.2ZM68.747,42.33h-18.6l-1.658-1.767H68.747ZM45.84,36.009h2.58v2.83H45.84ZM33.471,39.48h2.057V53.305H33.471ZM74.71,50.849,48.756,57l-5.3-4.022a.861.861,0,0,0-.521-.175H37.251V40.562h8.876l5.9,6.293v2.139h-3.5l-2.2-1.873a.861.861,0,0,0-1.116,1.312l2.443,2.079a.861.861,0,0,0,.558.205H52.66a.859.859,0,0,0,1.092-.829V48.32H72.928a.856.856,0,0,0,.359-.079,2.2,2.2,0,0,1,1.422,2.046v.561Z" transform="translate(-22.898 0)"/>
        <path id="Trazado_1031283" data-name="Trazado 1031283" d="M36.121,64.549h5.1a.861.861,0,0,0,.861-.861V51.069a.381.381,0,0,1,.37-.377l1.979-.084v1.515a.861.861,0,0,0,1.4.67l5.688-4.6a.861.861,0,0,0,0-1.339l-5.688-4.6a.861.861,0,0,0-1.4.67v1.491l-3.123.006a6.037,6.037,0,0,0-6.051,6.009V63.688A.861.861,0,0,0,36.121,64.549Zm.861-14.12a4.313,4.313,0,0,1,4.33-4.287l3.984-.007a.861.861,0,0,0,.86-.861v-.546l3.457,2.8-3.457,2.8V49.71a.861.861,0,0,0-.9-.86l-2.876.122a2.1,2.1,0,0,0-2.02,2.1V62.826h-3.38Z" transform="translate(-33.84 -37.232)"/>
        <path id="Trazado_1031284" data-name="Trazado 1031284" d="M284.411,32.671a4.754,4.754,0,0,0,2.392.821v.622a.861.861,0,1,0,1.722,0v-.7a3.726,3.726,0,0,0,2.893-3.005A3.193,3.193,0,0,0,289.1,26.8c-.189-.063-.382-.129-.575-.2V23.552a2.207,2.207,0,0,1,.757.365l-.008-.007,1.132-1.3a4.06,4.06,0,0,0-1.88-.82v-.55a.861.861,0,1,0-1.722,0v.609c-.082.019-.165.039-.249.063a3.076,3.076,0,0,0-2.191,2.429,2.63,2.63,0,0,0,.948,2.625,7.274,7.274,0,0,0,1.492.817v3.979a3.1,3.1,0,0,1-1.487-.559.861.861,0,1,0-.905,1.465Zm1.926-7.087a.945.945,0,0,1-.279-.933,1.383,1.383,0,0,1,.745-1v2.221A4.076,4.076,0,0,1,286.337,25.584Zm2.218,2.852a1.479,1.479,0,0,1,1.162,1.7,1.957,1.957,0,0,1-1.192,1.48V28.426Z" transform="translate(-254.02 -18.04)"/>
      </g>
    </g>
  </g>
</svg>
