<svg xmlns="http://www.w3.org/2000/svg" xmlns:xlink="http://www.w3.org/1999/xlink" width="113" height="113" viewBox="0 0 113 113">
  <defs>
    <filter id="Trazado_896985" x="0" y="0" width="113" height="113" filterUnits="userSpaceOnUse">
      <feOffset dy="3" input="SourceAlpha"/>
      <feGaussianBlur stdDeviation="3" result="blur"/>
      <feFlood flood-opacity="0.161"/>
      <feComposite operator="in" in2="blur"/>
      <feComposite in="SourceGraphic"/>
    </filter>
  </defs>
  <g id="Grupo_1176578" data-name="Grupo 1176578" transform="translate(-1216 -5606.645)">
    <g id="Grupo_1111468" data-name="Grupo 1111468" transform="translate(890.109 1760.645)">
      <g id="Grupo_1111318" data-name="Grupo 1111318" transform="translate(-5.891)">
        <g id="Grupo_1109826" data-name="Grupo 1109826" transform="translate(340.781 3852)">
          <g id="Grupo_1098742" data-name="Grupo 1098742">
            <g transform="matrix(1, 0, 0, 1, -9, -6)" filter="url(#Trazado_896985)">
              <g id="Trazado_896985-2" data-name="Trazado 896985" transform="translate(9 6)" fill="#fd9826" opacity="0.859">
                <path d="M 47.49993515014648 93.5 C 41.28932189941406 93.5 35.26528167724609 92.28397369384766 29.59514808654785 89.88571929931641 C 24.1176815032959 87.56894683837891 19.1981086730957 84.25197601318359 14.97306823730469 80.02693176269531 C 10.74802875518799 75.80189514160156 7.431055068969727 70.88231658935547 5.11428165435791 65.40485382080078 C 2.716028451919556 59.73471832275391 1.500001788139343 53.71067810058594 1.500001788139343 47.50006484985352 C 1.500001788139343 41.28932189941406 2.716028451919556 35.26528167724609 5.11428165435791 29.59514617919922 C 7.431055068969727 24.11767959594727 10.74802875518799 19.19810676574707 14.97306823730469 14.97306632995605 C 19.1981086730957 10.74802684783936 24.1176815032959 7.431053161621094 29.59514808654785 5.114280223846436 C 35.26528167724609 2.716026782989502 41.28932189941406 1.5 47.49993515014648 1.5 C 53.71054840087891 1.5 59.73458862304688 2.716026782989502 65.40472412109375 5.114280223846436 C 70.88218688964844 7.431053161621094 75.80176544189453 10.74802684783936 80.02680206298828 14.97306632995605 C 84.25183868408203 19.19810676574707 87.56881713867188 24.11767959594727 89.88558959960938 29.59514617919922 C 92.28384399414062 35.26528167724609 93.49987030029297 41.28932189941406 93.49987030029297 47.49993515014648 C 93.49987030029297 53.71067810058594 92.28384399414062 59.73471832275391 89.88558959960938 65.40485382080078 C 87.56881713867188 70.88231658935547 84.25183868408203 75.80189514160156 80.02680206298828 80.02693176269531 C 75.80176544189453 84.25197601318359 70.88218688964844 87.56894683837891 65.40472412109375 89.88571929931641 C 59.73458862304688 92.28397369384766 53.71054840087891 93.5 47.49993515014648 93.5 Z" stroke="none"/>
                <path d="M 47.49993515014648 3 C 41.49116516113281 3 35.66371917724609 4.176155090332031 30.17947387695312 6.495796203613281 C 24.88081359863281 8.7369384765625 20.12149047851562 11.94596862792969 16.03372192382812 16.03372192382812 C 11.94596862792969 20.12149047851562 8.7369384765625 24.88081359863281 6.495796203613281 30.17947387695312 C 4.1761474609375 35.66372299194336 3 41.49116897583008 3 47.50006103515625 C 3 53.50883102416992 4.1761474609375 59.33627700805664 6.495796203613281 64.82052612304688 C 8.7369384765625 70.11918640136719 11.94596862792969 74.87850952148438 16.03372192382812 78.96627807617188 C 20.12149047851562 83.05403137207031 24.88081359863281 86.2630615234375 30.17947387695312 88.50419616699219 C 35.66371917724609 90.82384490966797 41.49116516113281 92 47.49993515014648 92 C 53.50870513916016 92 59.33615112304688 90.82384490966797 64.82039642333984 88.50419616699219 C 70.11905670166016 86.2630615234375 74.87837982177734 83.05403137207031 78.96614837646484 78.96627807617188 C 83.05390167236328 74.87850952148438 86.26293182373047 70.11918640136719 88.50407409667969 64.82052612304688 C 90.82372283935547 59.33627700805664 91.99987030029297 53.50883102416992 91.99987030029297 47.49993896484375 C 91.99987030029297 41.49116897583008 90.82372283935547 35.66372299194336 88.50407409667969 30.17947387695312 C 86.26293182373047 24.88081359863281 83.05390167236328 20.12149047851562 78.96614837646484 16.03372192382812 C 74.87837982177734 11.94596862792969 70.11905670166016 8.7369384765625 64.82039642333984 6.495796203613281 C 59.33615112304688 4.176155090332031 53.50870513916016 3 47.49993515014648 3 M 47.49993515014648 0 C 73.73342895507812 0 94.99987030029297 21.26644897460938 94.99987030029297 47.49993896484375 L 94.99987030029297 47.50006103515625 C 94.99987030029297 73.73355102539062 73.73342895507812 95 47.49993515014648 95 C 21.26644134521484 95 0 73.73355102539062 0 47.50006103515625 L 0 47.49993896484375 C 0 21.26644897460938 21.26644134521484 0 47.49993515014648 0 Z" stroke="none" fill="#fff"/>
              </g>
            </g>
            <g id="Rectángulo_400907" data-name="Rectángulo 400907" transform="translate(0 0)" fill="none" stroke="#fff" stroke-width="3">
              <rect width="95" height="95" rx="47.5" stroke="none"/>
              <rect x="1.5" y="1.5" width="92" height="92" rx="46" fill="none"/>
            </g>
          </g>
        </g>
      </g>
    </g>
    <g id="factory_924635" transform="translate(1245.195 5618.546)">
      <path id="Trazado_1031320" data-name="Trazado 1031320" d="M97.129,313.5v18.665H75.574L74.46,313.5Z" transform="translate(-66.518 -265.769)" fill="#eae5d0"/>
      <path id="Trazado_1031321" data-name="Trazado 1031321" d="M80.036,317.631l-.246-4.131H74.46l1.114,18.665H97.129v-4.373H90.822A10.805,10.805,0,0,1,80.036,317.631Z" transform="translate(-66.518 -265.769)" fill="#e1d9be"/>
      <path id="Trazado_1031322" data-name="Trazado 1031322" d="M131.652,205.826v1.387h-2.666v-1.387a4.16,4.16,0,0,0-8.319,0v1.387H118v-1.387a6.826,6.826,0,0,1,13.652,0Z" transform="translate(-105.414 -163.481)" fill="#6a7988"/>
      <path id="Trazado_1031323" data-name="Trazado 1031323" d="M14.19,113.131,16.23,152.6H8.166a.444.444,0,0,1-.444-.467l2.016-39.005a.665.665,0,0,1,.664-.631h3.123A.665.665,0,0,1,14.19,113.131Z" transform="translate(-6.897 -86.207)" fill="#e1e5e9"/>
      <path id="Trazado_1031324" data-name="Trazado 1031324" d="M12.262,113.328a.678.678,0,0,1,.624-.7l.946-.057a.663.663,0,0,0-.306-.074H10.4a.665.665,0,0,0-.664.631L7.722,152.137a.444.444,0,0,0,.444.467h4.522Z" transform="translate(-6.897 -86.207)" fill="#c1cdd5"/>
      <path id="Trazado_1031325" data-name="Trazado 1031325" d="M26.432,164.5l.331,6.4H21.14l.331-6.4Z" transform="translate(-18.885 -132.661)" fill="#c75556"/>
      <path id="Trazado_1031326" data-name="Trazado 1031326" d="M21.147,170.9h3.229l-.069-6.4H21.478Z" transform="translate(-18.891 -132.661)" fill="#bd232a"/>
      <path id="Trazado_1031327" data-name="Trazado 1031327" d="M21.76,279.5l.331,6.4H15.2l.331-6.4Z" transform="translate(-13.578 -235.395)" fill="#c75556"/>
      <path id="Trazado_1031328" data-name="Trazado 1031328" d="M15.2,285.9h4l-.069-6.4h-3.6Z" transform="translate(-13.58 -235.395)" fill="#bd232a"/>
      <path id="Trazado_1031329" data-name="Trazado 1031329" d="M17.574,382.5l.331,6.4H9.88l.331-6.4Z" transform="translate(-8.826 -327.409)" fill="#c75556"/>
      <path id="Trazado_1031330" data-name="Trazado 1031330" d="M14.493,382.5H10.211l-.331,6.4h4.682Z" transform="translate(-8.826 -327.409)" fill="#bd232a"/>
      <g id="Grupo_1176570" data-name="Grupo 1176570" transform="translate(11.146 43.411)">
        <path id="Trazado_1031331" data-name="Trazado 1031331" d="M109.44,273.742l.606,3.577H104.5l.606-3.577a.889.889,0,0,1,.878-.742h2.579A.889.889,0,0,1,109.44,273.742Z" transform="translate(-104.5 -273)" fill="#c3c1c9"/>
        <path id="Trazado_1031332" data-name="Trazado 1031332" d="M212.44,273.742l.606,3.577H207.5l.606-3.577a.889.889,0,0,1,.878-.742h2.579A.889.889,0,0,1,212.44,273.742Z" transform="translate(-196.514 -273)" fill="#c3c1c9"/>
      </g>
      <g id="Grupo_1176571" data-name="Grupo 1176571" transform="translate(11.146 43.411)">
        <path id="Trazado_1031333" data-name="Trazado 1031333" d="M108.4,273h-2.413a.889.889,0,0,0-.878.742l-.606,3.577h2.413l.606-3.577A.889.889,0,0,1,108.4,273Z" transform="translate(-104.5 -273)" fill="#a1a0a6"/>
        <path id="Trazado_1031334" data-name="Trazado 1031334" d="M211.41,273H209a.889.889,0,0,0-.878.742l-.606,3.577h2.411l.606-3.577A.889.889,0,0,1,211.41,273Z" transform="translate(-196.527 -273)" fill="#a1a0a6"/>
      </g>
      <g id="Grupo_1176572" data-name="Grupo 1176572" transform="translate(30.345 37.018)">
        <path id="Trazado_1031335" data-name="Trazado 1031335" d="M292.073,218.115v24.318H284.5V213.556a.5.5,0,0,1,.8-.4Z" transform="translate(-284.5 -213.055)" fill="#e1e5e9"/>
        <path id="Trazado_1031336" data-name="Trazado 1031336" d="M363.073,218.115v24.318H355.5V213.556a.5.5,0,0,1,.8-.4Z" transform="translate(-347.927 -213.055)" fill="#e1e5e9"/>
        <path id="Trazado_1031337" data-name="Trazado 1031337" d="M434.073,218.115v24.318H426.5V213.556a.5.5,0,0,1,.8-.4Z" transform="translate(-411.354 -213.055)" fill="#e1e5e9"/>
      </g>
      <g id="Grupo_1176573" data-name="Grupo 1176573" transform="translate(30.345 37.018)">
        <path id="Trazado_1031338" data-name="Trazado 1031338" d="M285.3,213.152a.5.5,0,0,0-.8.4v28.877h3.866V215.4Z" transform="translate(-284.5 -213.055)" fill="#c1cdd5"/>
        <path id="Trazado_1031339" data-name="Trazado 1031339" d="M356.3,213.152a.5.5,0,0,0-.8.4v28.877h3.866V215.4Z" transform="translate(-347.927 -213.055)" fill="#c1cdd5"/>
        <path id="Trazado_1031340" data-name="Trazado 1031340" d="M427.3,213.152a.5.5,0,0,0-.8.4v28.877h3.866V215.4Z" transform="translate(-411.354 -213.055)" fill="#c1cdd5"/>
      </g>
      <g id="Grupo_1176574" data-name="Grupo 1176574" transform="translate(32.798 50.824)">
        <path id="Trazado_1031341" data-name="Trazado 1031341" d="M310.272,342.932v12.363a.431.431,0,0,1-.431.432h-1.91a.432.432,0,0,1-.432-.432V342.932a.432.432,0,0,1,.432-.432h1.91A.431.431,0,0,1,310.272,342.932Z" transform="translate(-307.499 -342.5)" fill="#c3c1c9"/>
        <path id="Trazado_1031342" data-name="Trazado 1031342" d="M381.272,342.932v12.363a.432.432,0,0,1-.432.432h-1.91a.431.431,0,0,1-.432-.432V342.932a.432.432,0,0,1,.432-.432h1.91A.431.431,0,0,1,381.272,342.932Z" transform="translate(-370.926 -342.5)" fill="#c3c1c9"/>
        <path id="Trazado_1031343" data-name="Trazado 1031343" d="M452.272,342.932v12.363a.432.432,0,0,1-.432.432h-1.91a.431.431,0,0,1-.432-.432V342.932a.432.432,0,0,1,.432-.432h1.91A.431.431,0,0,1,452.272,342.932Z" transform="translate(-434.353 -342.5)" fill="#c3c1c9"/>
      </g>
      <g id="Grupo_1176575" data-name="Grupo 1176575" transform="translate(12.533 51.678)">
        <path id="Trazado_1031344" data-name="Trazado 1031344" d="M120.486,350.9v2.188a.4.4,0,0,1-.4.4H117.9a.4.4,0,0,1-.4-.4V350.9a.4.4,0,0,1,.4-.4h2.188A.4.4,0,0,1,120.486,350.9Z" transform="translate(-117.5 -350.5)" fill="#5990b7"/>
        <path id="Trazado_1031345" data-name="Trazado 1031345" d="M174.486,350.9v2.188a.4.4,0,0,1-.4.4H171.9a.4.4,0,0,1-.4-.4V350.9a.4.4,0,0,1,.4-.4h2.188A.4.4,0,0,1,174.486,350.9Z" transform="translate(-165.74 -350.5)" fill="#5990b7"/>
        <path id="Trazado_1031346" data-name="Trazado 1031346" d="M228.486,350.9v2.188a.4.4,0,0,1-.4.4H225.9a.4.4,0,0,1-.4-.4V350.9a.4.4,0,0,1,.4-.4h2.188A.4.4,0,0,1,228.486,350.9Z" transform="translate(-213.981 -350.5)" fill="#5990b7"/>
        <path id="Trazado_1031347" data-name="Trazado 1031347" d="M120.486,403.9v2.188a.4.4,0,0,1-.4.4H117.9a.4.4,0,0,1-.4-.4V403.9a.4.4,0,0,1,.4-.4h2.188A.4.4,0,0,1,120.486,403.9Z" transform="translate(-117.5 -397.847)" fill="#5990b7"/>
        <path id="Trazado_1031348" data-name="Trazado 1031348" d="M174.486,403.9v2.188a.4.4,0,0,1-.4.4H171.9a.4.4,0,0,1-.4-.4V403.9a.4.4,0,0,1,.4-.4h2.188A.4.4,0,0,1,174.486,403.9Z" transform="translate(-165.74 -397.847)" fill="#5990b7"/>
        <path id="Trazado_1031349" data-name="Trazado 1031349" d="M228.486,403.9v2.188a.4.4,0,0,1-.4.4H225.9a.4.4,0,0,1-.4-.4V403.9a.4.4,0,0,1,.4-.4h2.188A.4.4,0,0,1,228.486,403.9Z" transform="translate(-213.981 -397.847)" fill="#5990b7"/>
      </g>
      <g id="Grupo_1176576" data-name="Grupo 1176576" transform="translate(1.654 16.8)">
        <path id="Trazado_1031350" data-name="Trazado 1031350" d="M27.84,30.172a2.286,2.286,0,0,1,.672,1.654,2.327,2.327,0,0,1-2.345,2.261H20.818l-.994,1.831a.14.14,0,0,1-.257-.029l-.506-1.8H17.793A2.294,2.294,0,0,1,15.5,31.761,2.327,2.327,0,0,1,17.845,29.5h8.374A2.285,2.285,0,0,1,27.84,30.172Z" transform="translate(-15.5 -28.86)" fill="#eae5d0"/>
        <path id="Trazado_1031351" data-name="Trazado 1031351" d="M144.686,89.5a1.92,1.92,0,1,1,0,3.84H140.42a1.92,1.92,0,1,1,0-3.84Z" transform="translate(-125.381 -82.46)" fill="#eae5d0"/>
        <path id="Trazado_1031352" data-name="Trazado 1031352" d="M222.02,23.5a1.6,1.6,0,0,1,0,3.2H220.1a1.6,1.6,0,0,1,0-3.2Z" transform="translate(-196.848 -23.5)" fill="#eae5d0"/>
      </g>
      <g id="Grupo_1176577" data-name="Grupo 1176577" transform="translate(0 16)">
        <path id="Trazado_1031353" data-name="Trazado 1031353" d="M54.283,120.94l-6.776-4.963a1.3,1.3,0,0,0-2.069,1.049v2.981l-5.5-4.031a1.3,1.3,0,0,0-2.069,1.049v2.981l-5.5-4.031a1.3,1.3,0,0,0-2.069,1.05v9.412H29.1l-.493-2.911a1.685,1.685,0,0,0-.823-1.184v-.491a7.626,7.626,0,1,0-15.252,0v.491a1.686,1.686,0,0,0-.823,1.184l-.493,2.911H9.95L8.839,106.39h0A1.465,1.465,0,0,0,7.375,105H4.252a1.465,1.465,0,0,0-1.463,1.381h0L0,145.848a.8.8,0,0,0,.8.856H53.81a.8.8,0,0,0,.8-.8V121.586A.8.8,0,0,0,54.283,120.94Zm-36.168,5.5-.493-2.911a1.685,1.685,0,0,0-.823-1.184v-.491a3.36,3.36,0,0,1,6.72,0v.491a1.686,1.686,0,0,0-.823,1.184l-.493,2.911Zm6.158-2.644a.09.09,0,0,1,.089-.075h2.58a.09.09,0,0,1,.089.075l.447,2.644H23.826Zm-10.14-1.942a6.026,6.026,0,0,1,12.053,0v.267H25.119v-.267a4.96,4.96,0,0,0-9.919,0v.267H14.133Zm-.846,1.942a.09.09,0,0,1,.089-.075h2.58a.09.09,0,0,1,.089.075l.447,2.644H12.84ZM2.344,135.4h6.5l.266,4.8H2.005Zm.113-1.6.211-2.986H8.591l.166,2.986Zm5.365-16.852H3.647l.339-4.8h3.57Zm.089,1.6.237,4.266H3.233l.3-4.266ZM3.12,124.412H8.236l.266,4.8H2.781ZM4.377,106.6H7.248l.219,3.946H4.1ZM1.659,145.1l.233-3.306H9.2l.183,3.306Zm29.433-10.239a.8.8,0,0,0-.8.8V145.1H10.986l-.946-17.066H30.292v4.426a.8.8,0,0,0,1.6,0V117.617h0l5.973,4.375V145.1H31.892v-9.439A.8.8,0,0,0,31.092,134.865Zm8.373-17.248h0l5.973,4.375V145.1H39.464ZM53.01,145.1H47.037V117.617h0l5.973,4.375Z" transform="translate(0 -95.507)" fill="#000100"/>
        <path id="Trazado_1031354" data-name="Trazado 1031354" d="M308.106,349.826h2.161a1.107,1.107,0,0,0,1.106-1.106V336.106A1.107,1.107,0,0,0,310.267,335h-2.161A1.107,1.107,0,0,0,307,336.106V348.72A1.107,1.107,0,0,0,308.106,349.826ZM308.6,336.6h1.173v11.626H308.6Z" transform="translate(-274.256 -300.976)" fill="#000100"/>
        <path id="Trazado_1031355" data-name="Trazado 1031355" d="M381.267,335h-2.161A1.107,1.107,0,0,0,378,336.106V348.72a1.107,1.107,0,0,0,1.106,1.106h2.161a1.107,1.107,0,0,0,1.106-1.106V336.106A1.107,1.107,0,0,0,381.267,335Zm-.494,13.226H379.6V336.6h1.173Z" transform="translate(-337.683 -300.976)" fill="#000100"/>
        <path id="Trazado_1031356" data-name="Trazado 1031356" d="M450.106,349.826h2.161a1.107,1.107,0,0,0,1.106-1.106V336.106A1.107,1.107,0,0,0,452.267,335h-2.161A1.107,1.107,0,0,0,449,336.106V348.72A1.107,1.107,0,0,0,450.106,349.826ZM450.6,336.6h1.173v11.626H450.6Z" transform="translate(-401.11 -300.976)" fill="#000100"/>
        <path id="Trazado_1031357" data-name="Trazado 1031357" d="M307.8,304.667a.8.8,0,0,0,.8-.8V302.8a.8.8,0,1,0-1.6,0v1.067A.8.8,0,0,0,307.8,304.667Z" transform="translate(-274.256 -271.495)" fill="#000100"/>
        <path id="Trazado_1031358" data-name="Trazado 1031358" d="M333.8,304.667a.8.8,0,0,0,.8-.8V302.8a.8.8,0,1,0-1.6,0v1.067A.8.8,0,0,0,333.8,304.667Z" transform="translate(-297.482 -271.495)" fill="#000100"/>
        <path id="Trazado_1031359" data-name="Trazado 1031359" d="M307.8,273.667a.8.8,0,0,0,.8-.8V271.8a.8.8,0,1,0-1.6,0v1.067A.8.8,0,0,0,307.8,273.667Z" transform="translate(-274.256 -243.802)" fill="#000100"/>
        <path id="Trazado_1031360" data-name="Trazado 1031360" d="M333.8,273.667a.8.8,0,0,0,.8-.8V271.8a.8.8,0,1,0-1.6,0v1.067A.8.8,0,0,0,333.8,273.667Z" transform="translate(-297.482 -243.802)" fill="#000100"/>
        <path id="Trazado_1031361" data-name="Trazado 1031361" d="M376.8,304.667a.8.8,0,0,0,.8-.8V302.8a.8.8,0,1,0-1.6,0v1.067A.8.8,0,0,0,376.8,304.667Z" transform="translate(-335.896 -271.495)" fill="#000100"/>
        <path id="Trazado_1031362" data-name="Trazado 1031362" d="M402.8,304.667a.8.8,0,0,0,.8-.8V302.8a.8.8,0,1,0-1.6,0v1.067A.8.8,0,0,0,402.8,304.667Z" transform="translate(-359.123 -271.495)" fill="#000100"/>
        <path id="Trazado_1031363" data-name="Trazado 1031363" d="M376.8,273.667a.8.8,0,0,0,.8-.8V271.8a.8.8,0,1,0-1.6,0v1.067A.8.8,0,0,0,376.8,273.667Z" transform="translate(-335.896 -243.802)" fill="#000100"/>
        <path id="Trazado_1031364" data-name="Trazado 1031364" d="M402.8,273.667a.8.8,0,0,0,.8-.8V271.8a.8.8,0,1,0-1.6,0v1.067A.8.8,0,0,0,402.8,273.667Z" transform="translate(-359.123 -243.802)" fill="#000100"/>
        <path id="Trazado_1031365" data-name="Trazado 1031365" d="M449.8,304.667a.8.8,0,0,0,.8-.8V302.8a.8.8,0,1,0-1.6,0v1.067A.8.8,0,0,0,449.8,304.667Z" transform="translate(-401.11 -271.495)" fill="#000100"/>
        <path id="Trazado_1031366" data-name="Trazado 1031366" d="M475.8,304.667a.8.8,0,0,0,.8-.8V302.8a.8.8,0,1,0-1.6,0v1.067A.8.8,0,0,0,475.8,304.667Z" transform="translate(-424.337 -271.495)" fill="#000100"/>
        <path id="Trazado_1031367" data-name="Trazado 1031367" d="M449.8,273.667a.8.8,0,0,0,.8-.8V271.8a.8.8,0,1,0-1.6,0v1.067A.8.8,0,0,0,449.8,273.667Z" transform="translate(-401.11 -243.802)" fill="#000100"/>
        <path id="Trazado_1031368" data-name="Trazado 1031368" d="M475.8,273.667a.8.8,0,0,0,.8-.8V271.8a.8.8,0,1,0-1.6,0v1.067A.8.8,0,0,0,475.8,273.667Z" transform="translate(-424.337 -243.802)" fill="#000100"/>
        <path id="Trazado_1031369" data-name="Trazado 1031369" d="M120.407,343H118.18a1.181,1.181,0,0,0-1.18,1.18v2.227a1.181,1.181,0,0,0,1.18,1.18h2.227a1.181,1.181,0,0,0,1.18-1.18V344.18A1.181,1.181,0,0,0,120.407,343Zm-.42,2.986H118.6V344.6h1.387Z" transform="translate(-104.521 -308.122)" fill="#000100"/>
        <path id="Trazado_1031370" data-name="Trazado 1031370" d="M174.407,343H172.18a1.181,1.181,0,0,0-1.18,1.18v2.227a1.181,1.181,0,0,0,1.18,1.18h2.227a1.181,1.181,0,0,0,1.18-1.18V344.18A1.181,1.181,0,0,0,174.407,343Zm-.42,2.986H172.6V344.6h1.387Z" transform="translate(-152.761 -308.122)" fill="#000100"/>
        <path id="Trazado_1031371" data-name="Trazado 1031371" d="M228.407,343H226.18a1.181,1.181,0,0,0-1.18,1.18v2.227a1.181,1.181,0,0,0,1.18,1.18h2.227a1.181,1.181,0,0,0,1.18-1.18V344.18A1.181,1.181,0,0,0,228.407,343Zm-.42,2.986H226.6V344.6h1.387Z" transform="translate(-201.002 -308.122)" fill="#000100"/>
        <path id="Trazado_1031372" data-name="Trazado 1031372" d="M120.407,396H118.18a1.181,1.181,0,0,0-1.18,1.18v2.227a1.181,1.181,0,0,0,1.18,1.18h2.227a1.181,1.181,0,0,0,1.18-1.18V397.18A1.181,1.181,0,0,0,120.407,396Zm-.42,2.987H118.6V397.6h1.387Z" transform="translate(-104.521 -355.469)" fill="#000100"/>
        <path id="Trazado_1031373" data-name="Trazado 1031373" d="M174.407,396H172.18a1.181,1.181,0,0,0-1.18,1.18v2.227a1.181,1.181,0,0,0,1.18,1.18h2.227a1.181,1.181,0,0,0,1.18-1.18V397.18A1.181,1.181,0,0,0,174.407,396Zm-.42,2.987H172.6V397.6h1.387Z" transform="translate(-152.761 -355.469)" fill="#000100"/>
        <path id="Trazado_1031374" data-name="Trazado 1031374" d="M228.407,396H226.18a1.181,1.181,0,0,0-1.18,1.18v2.227a1.181,1.181,0,0,0,1.18,1.18h2.227a1.181,1.181,0,0,0,1.18-1.18V397.18A1.181,1.181,0,0,0,228.407,396Zm-.42,2.987H226.6V397.6h1.387Z" transform="translate(-201.002 -355.469)" fill="#000100"/>
        <path id="Trazado_1031375" data-name="Trazado 1031375" d="M18.093,28.186h.661l.436,1.55a.8.8,0,0,0,.681.578.812.812,0,0,0,.089.005.8.8,0,0,0,.7-.418l.931-1.715h4.926a3.093,3.093,0,1,0,0-6.186H18.093a3.093,3.093,0,1,0,0,6.186Zm0-4.586h8.426a1.493,1.493,0,0,1,0,2.986h-5.4a.8.8,0,0,0-.7.418l-.218.4-.067-.237a.8.8,0,0,0-.77-.583H18.093a1.493,1.493,0,1,1,0-2.986Z" transform="translate(-13.4 -21.36)" fill="#000100"/>
        <path id="Trazado_1031376" data-name="Trazado 1031376" d="M138,84.72a2.723,2.723,0,0,0,2.72,2.72h4.266a2.72,2.72,0,0,0,0-5.44H140.72A2.723,2.723,0,0,0,138,84.72Zm2.72-1.12h4.266a1.12,1.12,0,0,1,0,2.24H140.72a1.12,1.12,0,0,1,0-2.24Z" transform="translate(-123.281 -74.96)" fill="#000100"/>
        <path id="Trazado_1031377" data-name="Trazado 1031377" d="M220.4,20.8h1.92a2.4,2.4,0,1,0,0-4.8H220.4a2.4,2.4,0,1,0,0,4.8Zm0-3.2h1.92a.8.8,0,0,1,0,1.6H220.4a.8.8,0,1,1,0-1.6Z" transform="translate(-194.748 -16)" fill="#000100"/>
      </g>
    </g>
  </g>
</svg>
