<svg xmlns="http://www.w3.org/2000/svg" width="60" height="60" viewBox="0 0 60 60">
  <g id="Grupo_1176674" data-name="Grupo 1176674" transform="translate(-824.75 -6589.329)">
    <circle id="Elipse_12892" data-name="Elipse 12892" cx="30" cy="30" r="30" transform="translate(824.75 6589.329)" fill="#fd9826"/>
    <g id="Grupo_1176673" data-name="Grupo 1176673">
      <path id="Trazado_1031761" data-name="Trazado 1031761" d="M.981,26.287a5.293,5.293,0,0,1,.981-3.252,6.992,6.992,0,0,1,2.886-2.153,5.93,5.93,0,0,1-2.4-2.065,5.036,5.036,0,0,1-.806-2.769A4.417,4.417,0,0,1,2.6,13.3a6.278,6.278,0,0,1,2.666-1.956,9.811,9.811,0,0,1,3.772-.7,10.2,10.2,0,0,1,3.867.7,6.087,6.087,0,0,1,2.651,1.941,4.514,4.514,0,0,1,.938,2.783,4.879,4.879,0,0,1-.864,2.769,6.112,6.112,0,0,1-2.52,2.08,6.712,6.712,0,0,1,2.959,2.219,5.372,5.372,0,0,1,.908,3.113,5.264,5.264,0,0,1-1.018,3.164A6.488,6.488,0,0,1,13.1,31.575a10.68,10.68,0,0,1-4.124.762,9.253,9.253,0,0,1-5.771-1.7A5.244,5.244,0,0,1,.981,26.287Zm5.669-.513a2.4,2.4,0,0,0,.645,1.772,2.3,2.3,0,0,0,1.7.645,2.237,2.237,0,0,0,1.714-.688,2.625,2.625,0,0,0-.029-3.479,2.248,2.248,0,0,0-1.685-.7,2.255,2.255,0,0,0-1.67.681A2.4,2.4,0,0,0,6.65,25.774Zm.527-9.009a2.31,2.31,0,0,0,.549,1.523,1.737,1.737,0,0,0,2.725,0A2.31,2.31,0,0,0,11,16.766a2.281,2.281,0,0,0-.557-1.567,1.75,1.75,0,0,0-1.362-.63,1.722,1.722,0,0,0-1.362.63A2.318,2.318,0,0,0,7.178,16.766Z" transform="translate(845.75 6599.329)" fill="#12263f"/>
    </g>
  </g>
</svg>
