<svg xmlns="http://www.w3.org/2000/svg" width="95" height="100.277" viewBox="0 0 95 100.277">
  <g id="Grupo_1111678" data-name="Grupo 1111678" transform="translate(1884 9285)">
    <rect id="Rectángulo_404636" data-name="Rectángulo 404636" width="95" height="100.278" transform="translate(-1884 -9285)" fill="none"/>
    <g id="Grupo_58888" data-name="Grupo 58888" transform="translate(-1874.37 -9276.126)">
      <g id="Grupo_1111679" data-name="Grupo 1111679">
        <path id="Trazado_64715" data-name="Trazado 64715" d="M83.922,61.682c4.725-3.524,6.057-8.536,6.067-13.042a24.075,24.075,0,0,0-4.879-14.361L74.646,17.352H57.1L46.415,34.279A24.083,24.083,0,0,0,41.536,48.64c.012,4.983,1.639,10.586,7.685,14.109" transform="translate(-15.526 -6.486)" fill="none" stroke="#344154" stroke-linecap="round" stroke-linejoin="round" stroke-width="3"/>
        <path id="Trazado_64716" data-name="Trazado 64716" d="M80.064,11.427l6.487-6.288L84.224,2.809a4.47,4.47,0,0,0-6.322,0l-1.88,1.88L75.2,3.863a5.522,5.522,0,0,0-7.809,0l-.826.827-1.88-1.88a4.47,4.47,0,0,0-6.322,0L56.03,5.138l6.487,6.288" transform="translate(-20.944 -0.561)" fill="none" stroke="#344154" stroke-linecap="round" stroke-linejoin="round" stroke-width="3"/>
        <path id="Trazado_64717" data-name="Trazado 64717" d="M54.872,99.842h3.381a16.118,16.118,0,0,0,9.053-2.782l2.472-1.677a.912.912,0,0,0,.275-1.244,4.243,4.243,0,0,0-1.415-1.318,4.181,4.181,0,0,0-3.946-.03,10.747,10.747,0,0,1-8.658.349,27.957,27.957,0,0,0-4.245-2.2A17.855,17.855,0,0,0,34.7,93.029" transform="translate(-12.97 -33.51)" fill="none" stroke="#344154" stroke-linecap="round" stroke-linejoin="round" stroke-width="3"/>
        <path id="Trazado_64718" data-name="Trazado 64718" d="M34.7,104.153s7.646-1.485,21.019-.723a19.456,19.456,0,0,0,10.172-2.239L86.224,90.464a.8.8,0,0,0,.252-1.2c-.728-.932-2.384-2.223-5.7-1.349a7.973,7.973,0,0,0-1.1.393L69.447,92.667" transform="translate(-12.97 -32.752)" fill="none" stroke="#344154" stroke-linecap="round" stroke-linejoin="round" stroke-width="3"/>
        <path id="Trazado_64719" data-name="Trazado 64719" d="M22.358,110.259H29.88V90.851H22.358" transform="translate(-8.357 -33.96)" fill="none" stroke="#344154" stroke-linecap="round" stroke-linejoin="round" stroke-width="3"/>
        <path id="Trazado_64720" data-name="Trazado 64720" d="M1.5,112.02H14.561V81.79H1.5" transform="translate(-0.561 -30.573)" fill="none" stroke="#344154" stroke-linecap="round" stroke-linejoin="round" stroke-width="3"/>
        <path id="Trazado_64721" data-name="Trazado 64721" d="M72.607,59.795a4.88,4.88,0,0,0,9.761,0c0-2.7-2-3.941-4.88-4.88-2.562-.837-4.881-2.185-4.881-4.881a4.88,4.88,0,0,1,9.761,0" transform="translate(-27.14 -16.878)" fill="none" stroke="#344154" stroke-linecap="round" stroke-linejoin="round" stroke-width="3"/>
        <line id="Línea_146" data-name="Línea 146" y2="2.753" transform="translate(50.347 25.555)" fill="none" stroke="#344154" stroke-linecap="round" stroke-linejoin="round" stroke-width="3"/>
        <line id="Línea_147" data-name="Línea 147" y2="2.753" transform="translate(50.347 47.796)" fill="none" stroke="#344154" stroke-linecap="round" stroke-linejoin="round" stroke-width="3"/>
        <path id="Trazado_64722" data-name="Trazado 64722" d="M71.913,23.352H65.321L57.989,34.969l5.449-2.753a19.8,19.8,0,0,1,17.3-.27l4.6,2.147L78.7,23.352Z" transform="translate(-21.676 -8.729)" fill="#8d85ac"/>
      </g>
    </g>
  </g>
</svg>
