<svg xmlns="http://www.w3.org/2000/svg" xmlns:xlink="http://www.w3.org/1999/xlink" width="108.914" height="108.914" viewBox="0 0 108.914 108.914">
  <defs>
    <filter id="Trazado_874925" x="0" y="0" width="108.914" height="108.914" filterUnits="userSpaceOnUse">
      <feOffset dy="3" input="SourceAlpha"/>
      <feGaussianBlur stdDeviation="3" result="blur"/>
      <feFlood flood-opacity="0.161"/>
      <feComposite operator="in" in2="blur"/>
      <feComposite in="SourceGraphic"/>
    </filter>
    <clipPath id="clip-path">
      <path id="path3627" d="M0-682.665H53.242v53.242H0Z" transform="translate(0 682.665)"/>
    </clipPath>
  </defs>
  <g id="Grupo_1176536" data-name="Grupo 1176536" transform="translate(-1114.325 -1965.728)">
    <g id="Grupo_1111375" data-name="Grupo 1111375" transform="translate(0 -545.43)">
      <g id="Grupo_1111317" data-name="Grupo 1111317" transform="translate(314.824 564.946)">
        <g id="Grupo_1109835" data-name="Grupo 1109835">
          <g id="Grupo_1107913" data-name="Grupo 1107913" transform="translate(808.5 1952.211)">
            <g transform="matrix(1, 0, 0, 1, -9, -6)" filter="url(#Trazado_874925)">
              <g id="Trazado_874925-2" data-name="Trazado 874925" transform="translate(9 6)" fill="#fd9826" opacity="0.859">
                <path d="M 45.45676803588867 89.41407012939453 C 39.52198028564453 89.41407012939453 33.76551818847656 88.25206756591797 28.34726715087891 85.96034240722656 C 23.11311721801758 83.74648284912109 18.41204261779785 80.57682800292969 14.37464332580566 76.5394287109375 C 10.33724308013916 72.50202941894531 7.167593002319336 67.80095672607422 4.953730583190918 62.56679534912109 C 2.662005424499512 57.14855575561523 1.500005483627319 51.39208221435547 1.500005483627319 45.45729446411133 C 1.500005483627319 39.52198028564453 2.662005424499512 33.76551818847656 4.953730583190918 28.34726905822754 C 7.167593002319336 23.11310577392578 10.33724308013916 18.41203117370605 14.37464332580566 14.37464332580566 C 18.41204261779785 10.33724403381348 23.11311721801758 7.167593955993652 28.34726715087891 4.953731060028076 C 33.76551818847656 2.662006139755249 39.52198028564453 1.500006198883057 45.45676803588867 1.500006198883057 C 51.39155578613281 1.500006198883057 57.14802932739258 2.662006139755249 62.56626892089844 4.953731060028076 C 67.80043029785156 7.167593955993652 72.50150299072266 10.33724403381348 76.53890228271484 14.37464332580566 C 80.57630920410156 18.41203117370605 83.74595642089844 23.11310577392578 85.95981597900391 28.34726905822754 C 88.25154113769531 33.76551818847656 89.41354370117188 39.52198028564453 89.41354370117188 45.45676803588867 C 89.41354370117188 51.39208221435547 88.25154113769531 57.14855575561523 85.95981597900391 62.56679534912109 C 83.74595642089844 67.80095672607422 80.57630920410156 72.50202941894531 76.53890228271484 76.5394287109375 C 72.50150299072266 80.57682800292969 67.80043029785156 83.74648284912109 62.56626892089844 85.96034240722656 C 57.14802932739258 88.25206756591797 51.39155578613281 89.41407012939453 45.45676803588867 89.41407012939453 Z" stroke="none"/>
                <path d="M 45.45676803588867 3 C 39.72381210327148 3 34.1639404296875 4.12213134765625 28.93159484863281 6.335227966308594 C 23.87622833251953 8.473472595214844 19.33542633056641 11.53517150878906 15.43529510498047 15.435302734375 C 11.53517150878906 19.33543395996094 8.473464965820312 23.87622833251953 6.335227966308594 28.93160247802734 C 4.122123718261719 34.16394424438477 3 39.72381591796875 3 45.4572868347168 C 3 51.19024658203125 4.122123718261719 56.75011825561523 6.335227966308594 61.98246002197266 C 8.473464965820312 67.03782653808594 11.53517150878906 71.57862854003906 15.43529510498047 75.478759765625 C 19.33542633056641 79.37889099121094 23.87622833251953 82.44058990478516 28.93159484863281 84.57883453369141 C 34.1639404296875 86.79193115234375 39.72381210327148 87.9140625 45.45676803588867 87.9140625 C 51.18972396850586 87.9140625 56.74959564208984 86.79193115234375 61.98194122314453 84.57883453369141 C 67.03730773925781 82.44058990478516 71.57810974121094 79.37889099121094 75.47824096679688 75.478759765625 C 79.37837219238281 71.57862854003906 82.44007110595703 67.03782653808594 84.57830810546875 61.98246002197266 C 86.79141235351562 56.75011825561523 87.91353607177734 51.19024658203125 87.91353607177734 45.4567756652832 C 87.91353607177734 39.72381591796875 86.79141235351562 34.16394424438477 84.57830810546875 28.93160247802734 C 82.44007110595703 23.87622833251953 79.37837219238281 19.33543395996094 75.47824096679688 15.435302734375 C 71.57810974121094 11.53517150878906 67.03730773925781 8.473472595214844 61.98194122314453 6.335227966308594 C 56.74959564208984 4.12213134765625 51.18972396850586 3 45.45676803588867 3 M 45.45676803588867 0 C 70.56185150146484 0 90.91353607177734 20.35169219970703 90.91353607177734 45.4567756652832 L 90.91353607177734 45.4572868347168 C 90.91353607177734 70.5623779296875 70.56185150146484 90.9140625 45.45676803588867 90.9140625 C 20.3516845703125 90.9140625 0 70.5623779296875 0 45.4572868347168 L 0 45.4567756652832 C 0 20.35169219970703 20.3516845703125 0 45.45676803588867 0 Z" stroke="none" fill="#fff"/>
              </g>
            </g>
            <g id="Trazado_874923" data-name="Trazado 874923" transform="translate(0 0)" fill="none">
              <path d="M45.457,0A45.457,45.457,0,0,1,90.914,45.457h0A45.457,45.457,0,0,1,0,45.457H0A45.457,45.457,0,0,1,45.457,0Z" stroke="none"/>
              <path d="M 45.45676803588867 3 C 39.72381210327148 3 34.1639404296875 4.12213134765625 28.93159484863281 6.335227966308594 C 23.87622833251953 8.473472595214844 19.33542633056641 11.53517150878906 15.43529510498047 15.435302734375 C 11.53517150878906 19.33543395996094 8.473464965820312 23.87622833251953 6.335227966308594 28.93160247802734 C 4.122123718261719 34.16394424438477 3 39.72381591796875 3 45.4572868347168 C 3 51.19024658203125 4.122123718261719 56.75011825561523 6.335227966308594 61.98246002197266 C 8.473464965820312 67.03782653808594 11.53517150878906 71.57862854003906 15.43529510498047 75.478759765625 C 19.33542633056641 79.37889099121094 23.87622833251953 82.44058990478516 28.93159484863281 84.57883453369141 C 34.1639404296875 86.79193115234375 39.72381210327148 87.9140625 45.45676803588867 87.9140625 C 51.18972396850586 87.9140625 56.74959564208984 86.79193115234375 61.98194122314453 84.57883453369141 C 67.03730773925781 82.44058990478516 71.57810974121094 79.37889099121094 75.47824096679688 75.478759765625 C 79.37837219238281 71.57862854003906 82.44007110595703 67.03782653808594 84.57830810546875 61.98246002197266 C 86.79141235351562 56.75011825561523 87.91353607177734 51.19024658203125 87.91353607177734 45.4567756652832 C 87.91353607177734 39.72381591796875 86.79141235351562 34.16394424438477 84.57830810546875 28.93160247802734 C 82.44007110595703 23.87622833251953 79.37837219238281 19.33543395996094 75.47824096679688 15.435302734375 C 71.57810974121094 11.53517150878906 67.03730773925781 8.473472595214844 61.98194122314453 6.335227966308594 C 56.74959564208984 4.12213134765625 51.18972396850586 3 45.45676803588867 3 M 45.45676803588867 0 C 70.56185150146484 0 90.91353607177734 20.35169219970703 90.91353607177734 45.4567756652832 L 90.91353607177734 45.4572868347168 C 90.91353607177734 70.5623779296875 70.56185150146484 90.9140625 45.45676803588867 90.9140625 C 20.3516845703125 90.9140625 0 70.5623779296875 0 45.4572868347168 L 0 45.4567756652832 C 0 20.35169219970703 20.3516845703125 0 45.45676803588867 0 Z" stroke="none" fill="#fff"/>
            </g>
          </g>
        </g>
      </g>
    </g>
    <g id="g3621" transform="translate(1146.013 2673.228)">
      <g id="g3623" transform="translate(0 -682.665)">
        <g id="g3625" clip-path="url(#clip-path)">
          <g id="g3631" transform="translate(0.78 0.779)">
            <path id="path3633" d="M-438.756-611.009h-36.1a1.015,1.015,0,0,1-1.015-1.015v-49.653a1.016,1.016,0,0,1,1.015-1.016h36.1a1.016,1.016,0,0,1,1.015,1.016v49.653a1.016,1.016,0,0,1-1.015,1.015" transform="translate(475.869 662.693)" fill="#faf7f8"/>
          </g>
          <g id="g3635" transform="translate(35.622 0.779)">
            <path id="path3637" d="M-26.85,0h-2.271a1.015,1.015,0,0,1,1.015,1.015V50.669a1.016,1.016,0,0,1-1.015,1.015h2.271a1.016,1.016,0,0,0,1.015-1.015V1.015A1.015,1.015,0,0,0-26.85,0" transform="translate(29.121 0)" fill="#e4dfe3"/>
          </g>
          <g id="g3639" transform="translate(0.78 0.779)">
            <path id="path3641" d="M-73.524-611.009H-42.63a1.015,1.015,0,0,0,1.015-1.015v-49.653a1.016,1.016,0,0,0-1.015-1.016h-36.1a1.016,1.016,0,0,0-1.016,1.016v49.653a1.015,1.015,0,0,0,1.016,1.015h2.188" transform="translate(79.744 662.693)" fill="none" stroke="#000" stroke-linecap="round" stroke-linejoin="round" stroke-miterlimit="10" stroke-width="1.5"/>
          </g>
          <g id="g3643" transform="translate(35.289 19.807)">
            <path id="path3645" d="M-33.047-302.826l-2.418,1.167-.348-2.662a3.488,3.488,0,0,1,.39-2.111l11.263-20.839a2.232,2.232,0,0,1,3.025-.9,2.232,2.232,0,0,1,.9,3.025l-11.263,20.839a3.488,3.488,0,0,1-1.552,1.483" transform="translate(35.842 328.441)" fill="#6c5e69"/>
          </g>
          <g id="g3647" transform="translate(48.093 23.904)">
            <path id="path3649" d="M-28.049,0l.987.533a1.923,1.923,0,0,1,.778,2.606l-4.137,7.654" transform="translate(30.421)" fill="none" stroke="#000" stroke-linecap="round" stroke-linejoin="round" stroke-miterlimit="10" stroke-width="1.5"/>
          </g>
          <g id="g3651" transform="translate(35.111 46.59)">
            <path id="path3653" d="M-6.565,0-7.12,1.027" transform="translate(7.12)" fill="none" stroke="#000" stroke-linecap="round" stroke-linejoin="round" stroke-miterlimit="10" stroke-width="1.5"/>
          </g>
          <g id="g3655" transform="translate(19.256 44.826)">
            <path id="path3657" d="M0-53.291S1.282-57.766,3.022-57.8c2.281-.043.83,3.578,2.479,3.761s1.108-2.739,2.238-2.753c1.741-.022-.406,4.053,6.434,3.274" transform="translate(0 57.799)" fill="none" stroke="#000" stroke-linecap="round" stroke-linejoin="round" stroke-miterlimit="10" stroke-width="1.5"/>
          </g>
          <g id="g3659" transform="translate(35.289 19.807)">
            <path id="path3661" d="M-107.667-70.18l-8.688,16.074a3.489,3.489,0,0,0-.39,2.111l.348,2.662,2.418-1.167a3.489,3.489,0,0,0,1.552-1.483l11.263-20.839a2.232,2.232,0,0,0-.9-3.025,2.232,2.232,0,0,0-3.025.9l-1.126,2.084" transform="translate(116.774 76.117)" fill="none" stroke="#000" stroke-linecap="round" stroke-linejoin="round" stroke-miterlimit="10" stroke-width="1.5"/>
          </g>
          <path id="path3663" d="M97.671-576.925H86.238v-10.339H97.671Z" transform="translate(-79.513 594.704)" fill="#ffab56"/>
          <g id="g3665" transform="translate(6.726 7.44)">
            <path id="path3667" d="M-135.159-122.231h-11.433V-132.57h11.433v10.339Z" transform="translate(146.592 132.57)" fill="none" stroke="#000" stroke-linecap="round" stroke-linejoin="round" stroke-miterlimit="10" stroke-width="1.5"/>
          </g>
          <g id="g3669" transform="translate(5.185 4.408)">
            <path id="path3671" d="M-21.45-66.4h0a1.814,1.814,0,0,1-1.814-1.814v-3.007a.8.8,0,0,1,.8-.8h2.833v3.8A1.814,1.814,0,0,1-21.45-66.4" transform="translate(23.264 72.021)" fill="#ffe270"/>
          </g>
          <g id="g3673" transform="translate(8.814 4.408)">
            <path id="path3675" d="M-21.45-66.4h0a1.814,1.814,0,0,1-1.814-1.814v-3.8h3.629v3.8A1.814,1.814,0,0,1-21.45-66.4" transform="translate(23.264 72.021)" fill="#ff7383"/>
          </g>
          <g id="g3677" transform="translate(12.442 4.408)">
            <path id="path3679" d="M-21.45-66.4h0a1.814,1.814,0,0,1-1.814-1.814v-3.8h3.629v3.8A1.814,1.814,0,0,1-21.45-66.4" transform="translate(23.264 72.021)" fill="#ffe270"/>
          </g>
          <g id="g3681" transform="translate(16.071 4.408)">
            <path id="path3683" d="M-21.448-66.4h0a1.814,1.814,0,0,1-1.814-1.814v-3.8h2.833a.8.8,0,0,1,.8.8v3.007A1.814,1.814,0,0,1-21.448-66.4" transform="translate(23.263 72.021)" fill="#ff7383"/>
          </g>
          <g id="g3685" transform="translate(5.185 4.408)">
            <path id="path3687" d="M-21.45-66.4h0a1.814,1.814,0,0,1-1.814-1.814v-3.007a.8.8,0,0,1,.8-.8h2.833v3.8A1.814,1.814,0,0,1-21.45-66.4Z" transform="translate(23.264 72.021)" fill="none" stroke="#000" stroke-linecap="round" stroke-linejoin="round" stroke-miterlimit="10" stroke-width="1.5"/>
          </g>
          <g id="g3689" transform="translate(8.814 4.408)">
            <path id="path3691" d="M-21.45-66.4h0a1.814,1.814,0,0,1-1.814-1.814v-3.8h3.629v3.8A1.814,1.814,0,0,1-21.45-66.4Z" transform="translate(23.264 72.021)" fill="none" stroke="#000" stroke-linecap="round" stroke-linejoin="round" stroke-miterlimit="10" stroke-width="1.5"/>
          </g>
          <g id="g3693" transform="translate(12.442 4.408)">
            <path id="path3695" d="M-21.45-66.4h0a1.814,1.814,0,0,1-1.814-1.814v-3.8h3.629v3.8A1.814,1.814,0,0,1-21.45-66.4Z" transform="translate(23.264 72.021)" fill="none" stroke="#000" stroke-linecap="round" stroke-linejoin="round" stroke-miterlimit="10" stroke-width="1.5"/>
          </g>
          <g id="g3697" transform="translate(16.071 4.408)">
            <path id="path3699" d="M-21.448-66.4h0a1.814,1.814,0,0,1-1.814-1.814v-3.8h2.833a.8.8,0,0,1,.8.8v3.007A1.814,1.814,0,0,1-21.448-66.4Z" transform="translate(23.263 72.021)" fill="none" stroke="#000" stroke-linecap="round" stroke-linejoin="round" stroke-miterlimit="10" stroke-width="1.5"/>
          </g>
          <g id="g3701" transform="translate(10.056 13.555)">
            <path id="path3703" d="M-56.416-49.951h-4.772v-3.688a.538.538,0,0,1,.538-.538h3.7a.538.538,0,0,1,.538.538Z" transform="translate(61.188 54.176)" fill="#68e7fd"/>
          </g>
          <g id="g3705" transform="translate(10.056 13.555)">
            <path id="path3707" d="M-56.416-49.951h-4.772v-3.688a.538.538,0,0,1,.538-.538h3.7a.538.538,0,0,1,.538.538Z" transform="translate(61.188 54.176)" fill="none" stroke="#000" stroke-linecap="round" stroke-linejoin="round" stroke-miterlimit="10" stroke-width="1.5"/>
          </g>
          <g id="g3709" transform="translate(5.135 17.78)">
            <path id="path3711" d="M0,0H14.614" fill="none" stroke="#000" stroke-linecap="round" stroke-linejoin="round" stroke-miterlimit="10" stroke-width="1.5"/>
          </g>
          <g id="g3713" transform="translate(22.817 8.94)">
            <path id="path3715" d="M-132.719-55.488h-10.716a.511.511,0,0,1-.511-.511V-59.67a.511.511,0,0,1,.511-.511h10.716a.511.511,0,0,1,.511.511V-56a.511.511,0,0,1-.511.511" transform="translate(143.945 60.181)" fill="#6c5e69"/>
          </g>
          <g id="g3717" transform="translate(32.166 8.94)">
            <path id="path3719" d="M-22.193,0h-1.877a.511.511,0,0,1,.511.511V4.183a.511.511,0,0,1-.511.511h1.877a.511.511,0,0,0,.511-.511V.511A.511.511,0,0,0-22.193,0" transform="translate(24.071)" fill="#574d56"/>
          </g>
          <g id="g3721" transform="translate(7.161 28.828)">
            <path id="path3723" d="M-296.757-47.242h-24.464a.638.638,0,0,1-.638-.638V-50.6a.638.638,0,0,1,.638-.638h24.464a.638.638,0,0,1,.638.638v2.72a.638.638,0,0,1-.638.638" transform="translate(321.859 51.239)" fill="#9ff497"/>
          </g>
          <g id="g3725" transform="translate(30.115 28.828)">
            <path id="path3727" d="M-25.4,0h-2.149a.638.638,0,0,1,.638.638v2.72A.638.638,0,0,1-27.548,4H-25.4a.638.638,0,0,0,.638-.638V.638A.638.638,0,0,0-25.4,0" transform="translate(27.548)" fill="#6ce79a"/>
          </g>
          <g id="g3729" transform="translate(7.161 28.828)">
            <path id="path3731" d="M-296.757-47.242h-24.464a.638.638,0,0,1-.638-.638V-50.6a.638.638,0,0,1,.638-.638h24.464a.638.638,0,0,1,.638.638v2.72A.638.638,0,0,1-296.757-47.242Z" transform="translate(321.859 51.239)" fill="none" stroke="#000" stroke-linecap="round" stroke-linejoin="round" stroke-miterlimit="10" stroke-width="1.5"/>
          </g>
          <g id="g3733" transform="translate(23.389 16.725)">
            <path id="path3735" d="M0,0H10.578" fill="none" stroke="#000" stroke-linecap="round" stroke-linejoin="round" stroke-miterlimit="10" stroke-width="1.5"/>
          </g>
          <g id="g3737" transform="translate(5.185 21.441)">
            <path id="path3739" d="M0,0H28.782" fill="none" stroke="#000" stroke-linecap="round" stroke-linejoin="round" stroke-miterlimit="10" stroke-width="1.5"/>
          </g>
          <g id="g3741" transform="translate(5.185 26.158)">
            <path id="path3743" d="M0,0H28.782" fill="none" stroke="#000" stroke-linecap="round" stroke-linejoin="round" stroke-miterlimit="10" stroke-width="1.5"/>
          </g>
          <g id="g3745" transform="translate(5.185 35.591)">
            <path id="path3747" d="M0,0H28.782" fill="none" stroke="#000" stroke-linecap="round" stroke-linejoin="round" stroke-miterlimit="10" stroke-width="1.5"/>
          </g>
          <g id="g3749" transform="translate(5.185 40.308)">
            <path id="path3751" d="M0,0H28.782" fill="none" stroke="#000" stroke-linecap="round" stroke-linejoin="round" stroke-miterlimit="10" stroke-width="1.5"/>
          </g>
          <g id="g3753" transform="translate(22.817 8.94)">
            <path id="path3755" d="M-32.4,0h-2.23a.511.511,0,0,0-.511.511V4.183a.511.511,0,0,0,.511.511h10.716a.511.511,0,0,0,.511-.511V.511A.511.511,0,0,0-23.915,0h-5.47" transform="translate(35.141)" fill="none" stroke="#000" stroke-linecap="round" stroke-linejoin="round" stroke-miterlimit="10" stroke-width="1.5"/>
          </g>
        </g>
      </g>
    </g>
  </g>
</svg>
