<svg xmlns="http://www.w3.org/2000/svg" xmlns:xlink="http://www.w3.org/1999/xlink" width="108.914" height="108.914" viewBox="0 0 108.914 108.914">
  <defs>
    <filter id="Trazado_874925" x="0" y="0" width="108.914" height="108.914" filterUnits="userSpaceOnUse">
      <feOffset dy="3" input="SourceAlpha"/>
      <feGaussianBlur stdDeviation="3" result="blur"/>
      <feFlood flood-opacity="0.161"/>
      <feComposite operator="in" in2="blur"/>
      <feComposite in="SourceGraphic"/>
    </filter>
  </defs>
  <g id="Grupo_1176585" data-name="Grupo 1176585" transform="translate(-799 -1860)">
    <g id="Grupo_1111376" data-name="Grupo 1111376" transform="translate(-0.5 -651.157)">
      <g id="Grupo_1111316" data-name="Grupo 1111316" transform="translate(0 564.946)">
        <g id="Grupo_1109835" data-name="Grupo 1109835">
          <g id="Grupo_1107913" data-name="Grupo 1107913" transform="translate(808.5 1952.211)">
            <g transform="matrix(1, 0, 0, 1, -9, -6)" filter="url(#Trazado_874925)">
              <g id="Trazado_874925-2" data-name="Trazado 874925" transform="translate(9 6)" fill="#fd9826" opacity="0.859">
                <path d="M 45.45676803588867 89.41407012939453 C 39.52198028564453 89.41407012939453 33.76551818847656 88.25206756591797 28.34726715087891 85.96034240722656 C 23.11311721801758 83.74648284912109 18.41204261779785 80.57682800292969 14.37464332580566 76.5394287109375 C 10.33724308013916 72.50202941894531 7.167593002319336 67.80095672607422 4.953730583190918 62.56679534912109 C 2.662005424499512 57.14855575561523 1.500005483627319 51.39208221435547 1.500005483627319 45.45729446411133 C 1.500005483627319 39.52198028564453 2.662005424499512 33.76551818847656 4.953730583190918 28.34726905822754 C 7.167593002319336 23.11310577392578 10.33724308013916 18.41203117370605 14.37464332580566 14.37464332580566 C 18.41204261779785 10.33724403381348 23.11311721801758 7.167593955993652 28.34726715087891 4.953731060028076 C 33.76551818847656 2.662006139755249 39.52198028564453 1.500006198883057 45.45676803588867 1.500006198883057 C 51.39155578613281 1.500006198883057 57.14802932739258 2.662006139755249 62.56626892089844 4.953731060028076 C 67.80043029785156 7.167593955993652 72.50150299072266 10.33724403381348 76.53890228271484 14.37464332580566 C 80.57630920410156 18.41203117370605 83.74595642089844 23.11310577392578 85.95981597900391 28.34726905822754 C 88.25154113769531 33.76551818847656 89.41354370117188 39.52198028564453 89.41354370117188 45.45676803588867 C 89.41354370117188 51.39208221435547 88.25154113769531 57.14855575561523 85.95981597900391 62.56679534912109 C 83.74595642089844 67.80095672607422 80.57630920410156 72.50202941894531 76.53890228271484 76.5394287109375 C 72.50150299072266 80.57682800292969 67.80043029785156 83.74648284912109 62.56626892089844 85.96034240722656 C 57.14802932739258 88.25206756591797 51.39155578613281 89.41407012939453 45.45676803588867 89.41407012939453 Z" stroke="none"/>
                <path d="M 45.45676803588867 3 C 39.72381210327148 3 34.1639404296875 4.12213134765625 28.93159484863281 6.335227966308594 C 23.87622833251953 8.473472595214844 19.33542633056641 11.53517150878906 15.43529510498047 15.435302734375 C 11.53517150878906 19.33543395996094 8.473464965820312 23.87622833251953 6.335227966308594 28.93160247802734 C 4.122123718261719 34.16394424438477 3 39.72381591796875 3 45.4572868347168 C 3 51.19024658203125 4.122123718261719 56.75011825561523 6.335227966308594 61.98246002197266 C 8.473464965820312 67.03782653808594 11.53517150878906 71.57862854003906 15.43529510498047 75.478759765625 C 19.33542633056641 79.37889099121094 23.87622833251953 82.44058990478516 28.93159484863281 84.57883453369141 C 34.1639404296875 86.79193115234375 39.72381210327148 87.9140625 45.45676803588867 87.9140625 C 51.18972396850586 87.9140625 56.74959564208984 86.79193115234375 61.98194122314453 84.57883453369141 C 67.03730773925781 82.44058990478516 71.57810974121094 79.37889099121094 75.47824096679688 75.478759765625 C 79.37837219238281 71.57862854003906 82.44007110595703 67.03782653808594 84.57830810546875 61.98246002197266 C 86.79141235351562 56.75011825561523 87.91353607177734 51.19024658203125 87.91353607177734 45.4567756652832 C 87.91353607177734 39.72381591796875 86.79141235351562 34.16394424438477 84.57830810546875 28.93160247802734 C 82.44007110595703 23.87622833251953 79.37837219238281 19.33543395996094 75.47824096679688 15.435302734375 C 71.57810974121094 11.53517150878906 67.03730773925781 8.473472595214844 61.98194122314453 6.335227966308594 C 56.74959564208984 4.12213134765625 51.18972396850586 3 45.45676803588867 3 M 45.45676803588867 0 C 70.56185150146484 0 90.91353607177734 20.35169219970703 90.91353607177734 45.4567756652832 L 90.91353607177734 45.4572868347168 C 90.91353607177734 70.5623779296875 70.56185150146484 90.9140625 45.45676803588867 90.9140625 C 20.3516845703125 90.9140625 0 70.5623779296875 0 45.4572868347168 L 0 45.4567756652832 C 0 20.35169219970703 20.3516845703125 0 45.45676803588867 0 Z" stroke="none" fill="#fff"/>
              </g>
            </g>
            <g id="Trazado_874923" data-name="Trazado 874923" transform="translate(0 0)" fill="none">
              <path d="M45.457,0A45.457,45.457,0,0,1,90.914,45.457h0A45.457,45.457,0,0,1,0,45.457H0A45.457,45.457,0,0,1,45.457,0Z" stroke="none"/>
              <path d="M 45.45676803588867 3 C 39.72381210327148 3 34.1639404296875 4.12213134765625 28.93159484863281 6.335227966308594 C 23.87622833251953 8.473472595214844 19.33542633056641 11.53517150878906 15.43529510498047 15.435302734375 C 11.53517150878906 19.33543395996094 8.473464965820312 23.87622833251953 6.335227966308594 28.93160247802734 C 4.122123718261719 34.16394424438477 3 39.72381591796875 3 45.4572868347168 C 3 51.19024658203125 4.122123718261719 56.75011825561523 6.335227966308594 61.98246002197266 C 8.473464965820312 67.03782653808594 11.53517150878906 71.57862854003906 15.43529510498047 75.478759765625 C 19.33542633056641 79.37889099121094 23.87622833251953 82.44058990478516 28.93159484863281 84.57883453369141 C 34.1639404296875 86.79193115234375 39.72381210327148 87.9140625 45.45676803588867 87.9140625 C 51.18972396850586 87.9140625 56.74959564208984 86.79193115234375 61.98194122314453 84.57883453369141 C 67.03730773925781 82.44058990478516 71.57810974121094 79.37889099121094 75.47824096679688 75.478759765625 C 79.37837219238281 71.57862854003906 82.44007110595703 67.03782653808594 84.57830810546875 61.98246002197266 C 86.79141235351562 56.75011825561523 87.91353607177734 51.19024658203125 87.91353607177734 45.4567756652832 C 87.91353607177734 39.72381591796875 86.79141235351562 34.16394424438477 84.57830810546875 28.93160247802734 C 82.44007110595703 23.87622833251953 79.37837219238281 19.33543395996094 75.47824096679688 15.435302734375 C 71.57810974121094 11.53517150878906 67.03730773925781 8.473472595214844 61.98194122314453 6.335227966308594 C 56.74959564208984 4.12213134765625 51.18972396850586 3 45.45676803588867 3 M 45.45676803588867 0 C 70.56185150146484 0 90.91353607177734 20.35169219970703 90.91353607177734 45.4567756652832 L 90.91353607177734 45.4572868347168 C 90.91353607177734 70.5623779296875 70.56185150146484 90.9140625 45.45676803588867 90.9140625 C 20.3516845703125 90.9140625 0 70.5623779296875 0 45.4572868347168 L 0 45.4567756652832 C 0 20.35169219970703 20.3516845703125 0 45.45676803588867 0 Z" stroke="none" fill="#fff"/>
            </g>
          </g>
        </g>
      </g>
    </g>
    <g id="Fill_Outline" data-name="Fill Outline" transform="translate(824.397 1881.604)">
      <path id="Trazado_1031470" data-name="Trazado 1031470" d="M8,9H18.923V23.564H8Z" transform="translate(-0.538 -0.538)" fill="#a1d51c"/>
      <path id="Trazado_1031471" data-name="Trazado 1031471" d="M8,9h9.1V21.744H8Z" transform="translate(-0.538 -0.538)" fill="#7ab92d"/>
      <path id="Trazado_1031472" data-name="Trazado 1031472" d="M55.233,45.923a8.255,8.255,0,0,0-.143-1.495l2.775-1.6-2.731-4.733-2.775,1.6a8.182,8.182,0,0,0-2.588-1.492V35H44.31v3.207A8.172,8.172,0,0,0,41.722,39.7l-2.776-1.6L36.215,42.83l2.775,1.6a7.937,7.937,0,0,0,0,2.989l-2.775,1.6,2.731,4.733,2.776-1.6a8.172,8.172,0,0,0,2.588,1.492v3.205h5.462V53.639a8.182,8.182,0,0,0,2.588-1.492l2.775,1.6,2.731-4.733-2.775-1.6a8.255,8.255,0,0,0,.143-1.493Zm-8.192,2.731a2.731,2.731,0,1,1,2.731-2.731A2.731,2.731,0,0,1,47.041,48.654Z" transform="translate(-3.071 -2.872)" fill="#d0d8da"/>
      <path id="Trazado_1031473" data-name="Trazado 1031473" d="M49.153,47.633a2.725,2.725,0,1,1-2.113-4.441c.071,0,.137.015.208.021A12.594,12.594,0,0,1,48.185,35H44.31v3.207A8.172,8.172,0,0,0,41.722,39.7l-2.776-1.6L36.215,42.83l2.775,1.6a7.937,7.937,0,0,0,0,2.989l-2.775,1.6,2.731,4.733,2.776-1.6a8.172,8.172,0,0,0,2.588,1.492v3.205h5.462V53.639a8.182,8.182,0,0,0,2.588-1.492l2.775,1.6L55.8,52.6a12.769,12.769,0,0,1-6.647-4.965Z" transform="translate(-3.071 -2.872)" fill="#93999a"/>
      <path id="Trazado_1031474" data-name="Trazado 1031474" d="M3,45H19.385V55.923H3Z" transform="translate(-0.09 -3.769)" fill="#4891d3"/>
      <path id="Trazado_1031475" data-name="Trazado 1031475" d="M19.923,45V55.923L9,45Z" transform="translate(-0.628 -3.769)" fill="#57b7eb"/>
      <rect id="Rectángulo_404749" data-name="Rectángulo 404749" width="6" height="7" rx="1" transform="translate(17.353 48.353)" fill="#4891d3"/>
      <path id="Trazado_1031476" data-name="Trazado 1031476" d="M4,5H14.923V19.564H4Z" transform="translate(-0.179 -0.179)" fill="#c4f236"/>
      <circle id="Elipse_12983" data-name="Elipse 12983" cx="14" cy="14" r="14" transform="translate(15.353 15.353)" fill="#57b7eb"/>
      <path id="Trazado_1031477" data-name="Trazado 1031477" d="M34.295,40.056a13.633,13.633,0,0,1-12.22-19.718,13.647,13.647,0,1,0,20.8,16.68,13.591,13.591,0,0,1-8.579,3.038Z" transform="translate(-1.346 -1.556)" fill="#4891d3"/>
      <circle id="Elipse_12984" data-name="Elipse 12984" cx="11" cy="11" r="11" transform="translate(18.353 18.353)" fill="#4891d3"/>
      <path id="Trazado_1031478" data-name="Trazado 1031478" d="M31.155,20a10.893,10.893,0,0,0-8.574,4.17A10.912,10.912,0,0,1,37.908,39.5,10.915,10.915,0,0,0,31.155,20Z" transform="translate(-1.847 -1.526)" fill="#2d72bc"/>
      <path id="Trazado_1031479" data-name="Trazado 1031479" d="M34.564,40.671A13.648,13.648,0,0,1,20.919,27.194a10.91,10.91,0,0,0,16.435,13.19,13.669,13.669,0,0,1-2.79.288Z" transform="translate(-1.615 -2.171)" fill="#2d72bc"/>
      <path id="Trazado_1031480" data-name="Trazado 1031480" d="M20.821,54.821V53h-.91a.91.91,0,0,0-.91.91v5.462a.91.91,0,0,0,.91.91h3.641a.91.91,0,0,0,.91-.91v-.91A3.641,3.641,0,0,1,20.821,54.821Z" transform="translate(-1.526 -4.487)" fill="#2d72bc"/>
      <path id="Trazado_1031481" data-name="Trazado 1031481" d="M48.821,4h9.1V20.385h-9.1A1.821,1.821,0,0,1,47,18.564V5.821A1.821,1.821,0,0,1,48.821,4Z" transform="translate(-4.038 -0.09)" fill="#c4f236"/>
      <path id="Trazado_1031482" data-name="Trazado 1031482" d="M57.923,7.641V4h-9.1A1.821,1.821,0,0,0,47,5.821V18.564a1.821,1.821,0,0,0,1.821,1.821h9.1V18.564H54.282A5.462,5.462,0,0,1,48.821,13.1V7.641Z" transform="translate(-4.038 -0.09)" fill="#a1d51c"/>
      <path id="Trazado_1031483" data-name="Trazado 1031483" d="M48.821,4h9.1V7.641h-9.1a1.821,1.821,0,1,1,0-3.641Z" transform="translate(-4.038 -0.09)" fill="#d0d8da"/>
      <path id="Trazado_1031484" data-name="Trazado 1031484" d="M48.91,5h9.1V6.821h-9.1A.91.91,0,0,1,48.91,5Z" transform="translate(-4.128 -0.179)" fill="#93999a"/>
      <path id="Trazado_1031485" data-name="Trazado 1031485" d="M6.731,11.372V5H4V19.564H14.923V16.833H12.192A5.462,5.462,0,0,1,6.731,11.372Z" transform="translate(-0.179 -0.179)" fill="#a1d51c"/>
      <g id="Grupo_1176584" data-name="Grupo 1176584" transform="translate(2 3)">
        <path id="Trazado_1031486" data-name="Trazado 1031486" d="M16,30.564a14.564,14.564,0,1,0,29.128,0A14.33,14.33,0,0,0,45,28.708a.91.91,0,0,0-1.806.231c.033.256.055.487.073.715H41.487a.91.91,0,0,0,0,1.821h1.774a12.61,12.61,0,0,1-1.248,4.649l-1.534-.886a.91.91,0,1,0-.91,1.577l1.547.891a12.824,12.824,0,0,1-3.407,3.407l-.891-1.547a.91.91,0,1,0-1.577.91l.886,1.534a12.61,12.61,0,0,1-4.653,1.253V41.487a.91.91,0,0,0-1.821,0v1.774a12.61,12.61,0,0,1-4.649-1.248l.886-1.534a.91.91,0,1,0-1.577-.91l-.891,1.547a12.824,12.824,0,0,1-3.407-3.407l1.547-.891a.91.91,0,1,0-.91-1.577l-1.534.886a12.61,12.61,0,0,1-1.253-4.653h1.774a.91.91,0,0,0,0-1.821H17.867A12.61,12.61,0,0,1,19.115,25l1.534.886a.91.91,0,1,0,.91-1.577l-1.547-.891a12.824,12.824,0,0,1,3.407-3.407l.891,1.547a.91.91,0,1,0,1.577-.91L25,19.119a12.61,12.61,0,0,1,4.653-1.253v1.774a.91.91,0,1,0,1.821,0V17.854A12.729,12.729,0,0,1,36.132,19.1l-.895,1.547a.91.91,0,1,0,1.577.91l.9-1.547a12.7,12.7,0,0,1,3.4,3.414l-1.547.891a.91.91,0,1,0,.91,1.577L42.022,25c.1.216.208.431.3.654a.911.911,0,1,0,1.68-.7,14.564,14.564,0,0,0-28,5.611Z" transform="translate(-3.256 -4.166)" fill="#323232"/>
        <path id="Trazado_1031487" data-name="Trazado 1031487" d="M37.1,26.576,31.876,30.23l-2.088-2.982A.91.91,0,1,0,28.3,28.292l2.612,3.727a.91.91,0,0,0,.587.374.847.847,0,0,0,.158.015.9.9,0,0,0,.522-.165l5.965-4.177A.91.91,0,1,0,37.1,26.576Z" transform="translate(-4.345 -5.101)" fill="#323232"/>
        <path id="Trazado_1031488" data-name="Trazado 1031488" d="M48.731,21.205h9.1a.91.91,0,0,0,.91-.91V7.551a.91.91,0,0,0-.91-.91h-9.1a.91.91,0,0,1,0-1.821h9.1a.91.91,0,1,0,0-1.821h-9.1A2.731,2.731,0,0,0,46,5.731V18.474A2.731,2.731,0,0,0,48.731,21.205Zm-.91-12.9a2.731,2.731,0,0,0,.91.156h8.192V19.385H48.731a.91.91,0,0,1-.91-.91Z" transform="translate(-5.949 -3)" fill="#323232"/>
        <path id="Trazado_1031489" data-name="Trazado 1031489" d="M50.91,13.821h3.641a.91.91,0,0,0,0-1.821H50.91a.91.91,0,1,0,0,1.821Z" transform="translate(-6.308 -3.808)" fill="#323232"/>
        <path id="Trazado_1031490" data-name="Trazado 1031490" d="M50.91,17.821h3.641a.91.91,0,0,0,0-1.821H50.91a.91.91,0,1,0,0,1.821Z" transform="translate(-6.308 -4.167)" fill="#323232"/>
        <path id="Trazado_1031491" data-name="Trazado 1031491" d="M22.026,51.282H20.205V48.551a.91.91,0,1,0-1.821,0v2.731A1.821,1.821,0,0,0,16.564,53.1v1.821H3.821v-9.1H7.995L14.1,51.926a.91.91,0,1,0,1.287-1.287l-4.818-4.818h5.085a.91.91,0,0,0,0-1.821H2.91a.91.91,0,0,0-.91.91V55.833a.91.91,0,0,0,.91.91h4.9L6.9,58.564H4.731a.91.91,0,0,0,0,1.821H22.026a1.821,1.821,0,0,0,1.821-1.821V53.1A1.821,1.821,0,0,0,22.026,51.282ZM8.934,58.564l.91-1.821h2.516l.91,1.821Zm6.372,0-.91-1.821h2.168v1.821Zm3.078,0V55.877c0-.015.009-.028.009-.044s-.009-.028-.009-.044V53.1h3.641v5.462Z" transform="translate(-2 -6.68)" fill="#323232"/>
        <path id="Trazado_1031492" data-name="Trazado 1031492" d="M58.231,48.142l-2.238-1.293a8.618,8.618,0,0,0,0-2.032l2.238-1.293a.91.91,0,0,0,.333-1.243l-2.731-4.733a.91.91,0,0,0-1.243-.333l-2.24,1.293A9.059,9.059,0,0,0,50.591,37.5V34.91a.91.91,0,0,0-1.821,0v3.207a.91.91,0,0,0,.606.858,7.237,7.237,0,0,1,2.3,1.325.91.91,0,0,0,1.047.1l1.988-1.146L56.532,42.4,54.545,43.55a.91.91,0,0,0-.44.954,7.043,7.043,0,0,1,0,2.658.91.91,0,0,0,.44.954l1.987,1.148-1.821,3.151-1.988-1.146a.91.91,0,0,0-1.047.1,7.237,7.237,0,0,1-2.3,1.325.91.91,0,0,0-.606.858v2.3H45.129v-2.3a.91.91,0,0,0-.606-.858,7.243,7.243,0,0,1-2.3-1.325.91.91,0,0,0-1.047-.1l-1.988,1.146-2.276-3.94a.91.91,0,1,0-1.577.91l2.731,4.733a.91.91,0,0,0,1.243.333l2.24-1.293a9.052,9.052,0,0,0,1.758,1.012v2.585a.91.91,0,0,0,.91.91h5.462a.91.91,0,0,0,.91-.91V54.168a9.059,9.059,0,0,0,1.759-1.012l2.24,1.293a.91.91,0,0,0,1.243-.333l2.731-4.733a.91.91,0,0,0-.333-1.24Z" transform="translate(-4.981 -5.782)" fill="#323232"/>
        <path id="Trazado_1031493" data-name="Trazado 1031493" d="M44.107,46.641A3.641,3.641,0,1,0,47.748,43,3.641,3.641,0,0,0,44.107,46.641Zm3.641-1.821a1.821,1.821,0,1,1-1.821,1.821A1.821,1.821,0,0,1,47.748,44.821Z" transform="translate(-5.779 -6.59)" fill="#323232"/>
        <path id="Trazado_1031494" data-name="Trazado 1031494" d="M3.91,20.385H6.641v2.731a.91.91,0,0,0,.91.91h5.223a.91.91,0,0,0,0-1.821H8.462V20.385h6.372a.91.91,0,0,0,.91-.91V9.462h1.821v6.4a.91.91,0,1,0,1.821,0V8.551a.91.91,0,0,0-.91-.91H15.744V4.91a.91.91,0,0,0-.91-.91H3.91A.91.91,0,0,0,3,4.91V19.474A.91.91,0,0,0,3.91,20.385Zm.91-14.564h9.1V18.564h-9.1Z" transform="translate(-2.09 -3.09)" fill="#323232"/>
        <path id="Trazado_1031495" data-name="Trazado 1031495" d="M9.91,9.821h1.821a.91.91,0,0,0,0-1.821H9.91a.91.91,0,0,0,0,1.821Z" transform="translate(-2.628 -3.449)" fill="#323232"/>
        <path id="Trazado_1031496" data-name="Trazado 1031496" d="M7.91,13.821h3.641a.91.91,0,1,0,0-1.821H7.91a.91.91,0,1,0,0,1.821Z" transform="translate(-2.449 -3.808)" fill="#323232"/>
        <path id="Trazado_1031497" data-name="Trazado 1031497" d="M11.551,17.821a.91.91,0,1,0,0-1.821H7.91a.91.91,0,0,0,0,1.821Z" transform="translate(-2.449 -4.167)" fill="#323232"/>
        <path id="Trazado_1031498" data-name="Trazado 1031498" d="M34.256,55.823a21.209,21.209,0,0,1-5.107.012.91.91,0,1,0-.215,1.808,23.041,23.041,0,0,0,5.545-.013.91.91,0,0,0-.224-1.807Z" transform="translate(-4.345 -7.74)" fill="#323232"/>
        <path id="Trazado_1031499" data-name="Trazado 1031499" d="M54.416,24.508a.91.91,0,0,0-.578,1.15,20.921,20.921,0,0,1,1.053,6.576.91.91,0,0,0,1.821,0,22.722,22.722,0,0,0-1.146-7.148.91.91,0,0,0-1.15-.577Z" transform="translate(-6.648 -4.926)" fill="#323232"/>
        <path id="Trazado_1031500" data-name="Trazado 1031500" d="M26.2,10.466a21.177,21.177,0,0,1,11.722.4.91.91,0,1,0,.569-1.729A23.009,23.009,0,0,0,25.745,8.7a.911.911,0,0,0,.455,1.764Z" transform="translate(-4.07 -3.449)" fill="#323232"/>
        <path id="Trazado_1031501" data-name="Trazado 1031501" d="M8.169,29.162a.91.91,0,0,0-1.01.8A23.107,23.107,0,0,0,7,32.655a22.809,22.809,0,0,0,.845,6.164.91.91,0,0,0,.876.664.93.93,0,0,0,.247-.034A.91.91,0,0,0,9.6,38.327a20.969,20.969,0,0,1-.777-5.672,21.253,21.253,0,0,1,.145-2.48.91.91,0,0,0-.8-1.012Z" transform="translate(-2.449 -5.347)" fill="#323232"/>
      </g>
    </g>
  </g>
</svg>
