<svg xmlns="http://www.w3.org/2000/svg" xmlns:xlink="http://www.w3.org/1999/xlink" width="95" height="100.277" viewBox="0 0 95 100.277">
  <defs>
    <clipPath id="clip-path">
      <rect id="Rectángulo_25627" data-name="Rectángulo 25627" width="77.856" height="72.493" fill="none"/>
    </clipPath>
  </defs>
  <g id="Grupo_1111677" data-name="Grupo 1111677" transform="translate(1884 8754.977)">
    <rect id="Rectángulo_404626" data-name="Rectángulo 404626" width="95" height="100.278" transform="translate(-1884 -8754.977)" fill="none"/>
    <g id="Grupo_58894" data-name="Grupo 58894" transform="translate(-1875.428 -8741.084)">
      <g id="Grupo_24951" data-name="Grupo 24951" transform="translate(0 0)" clip-path="url(#clip-path)">
        <path id="Trazado_64730" data-name="Trazado 64730" d="M104.334,12.168A10.668,10.668,0,1,0,93.666,22.836,10.668,10.668,0,0,0,104.334,12.168Z" transform="translate(-33.825 -0.611)" fill="none" stroke="#344154" stroke-linecap="round" stroke-linejoin="round" stroke-width="3"/>
        <path id="Trazado_64731" data-name="Trazado 64731" d="M96.112,18.934A7.121,7.121,0,0,1,89.6,14.68a7.113,7.113,0,1,0,13.017,0,7.12,7.12,0,0,1-6.508,4.254" transform="translate(-36.27 -5.983)" fill="#f37e5f"/>
        <path id="Trazado_64732" data-name="Trazado 64732" d="M106.885,32.2l6.832,6.832V32.22h6.809l-6.832-6.832" transform="translate(-43.56 -10.346)" fill="none" stroke="#344154" stroke-linecap="round" stroke-linejoin="round" stroke-width="3"/>
        <path id="Trazado_64733" data-name="Trazado 64733" d="M85.74,32.2l-6.832,6.832V32.22H72.1l6.832-6.832" transform="translate(-29.383 -10.346)" fill="none" stroke="#344154" stroke-linecap="round" stroke-linejoin="round" stroke-width="3"/>
        <line id="Línea_154" data-name="Línea 154" x2="21.315" transform="translate(37.287 50.268)" fill="none" stroke="#344154" stroke-linecap="round" stroke-linejoin="round" stroke-width="3"/>
        <line id="Línea_155" data-name="Línea 155" y2="18.5" transform="translate(66.137 32.909)" fill="none" stroke="#344154" stroke-linecap="round" stroke-linejoin="round" stroke-width="3"/>
        <line id="Línea_156" data-name="Línea 156" x2="29.163" transform="translate(16.713 4.707)" fill="none" stroke="#344154" stroke-linecap="round" stroke-linejoin="round" stroke-width="3"/>
        <line id="Línea_157" data-name="Línea 157" y1="20.446" transform="translate(16.713 9.851)" fill="none" stroke="#344154" stroke-linecap="round" stroke-linejoin="round" stroke-width="3"/>
        <path id="Trazado_64734" data-name="Trazado 64734" d="M84.987,120.859H46.255" transform="translate(-18.851 -49.254)" fill="none" stroke="#344154" stroke-linecap="round" stroke-linejoin="round" stroke-width="3"/>
        <path id="Trazado_64735" data-name="Trazado 64735" d="M93.567,110.562a8.786,8.786,0,0,0,6.241-14.969h-32.5" transform="translate(-27.431 -38.957)" fill="none" stroke="#344154" stroke-linecap="round" stroke-linejoin="round" stroke-width="3"/>
        <path id="Trazado_64736" data-name="Trazado 64736" d="M21.392,21.977H11.481S12.1,7.945,21.392,7.945" transform="translate(-4.679 -3.238)" fill="none" stroke="#344154" stroke-linecap="round" stroke-linejoin="round" stroke-width="3"/>
        <path id="Trazado_64737" data-name="Trazado 64737" d="M24.326,103.54c1.662.192,6.223.28,8.847-1.546a1.959,1.959,0,0,0-2.1-3.3,7.384,7.384,0,0,1-5.95.24c-5.551-3.483-10.744-2.866-14.66-.076" transform="translate(-4.264 -39.344)" fill="none" stroke="#344154" stroke-linecap="round" stroke-linejoin="round" stroke-width="3"/>
        <path id="Trazado_64738" data-name="Trazado 64738" d="M10.464,107.321s6.333.447,15.523.97c5.6.319,9.386-2.735,14.838-8.018a1.747,1.747,0,0,0-1.988-2.821l-4.85,3.5" transform="translate(-4.264 -39.642)" fill="none" stroke="#344154" stroke-linecap="round" stroke-linejoin="round" stroke-width="3"/>
        <path id="Trazado_64739" data-name="Trazado 64739" d="M1.5,109.518H4.813a1.856,1.856,0,0,0,1.856-1.856V94.888a1.856,1.856,0,0,0-1.856-1.856H1.5" transform="translate(-0.611 -37.914)" fill="none" stroke="#344154" stroke-linecap="round" stroke-linejoin="round" stroke-width="3"/>
        <path id="Trazado_64740" data-name="Trazado 64740" d="M36.665,70.869a2.953,2.953,0,1,0,5.906,0c0-1.63-1.21-2.384-2.953-2.953-1.55-.506-2.953-1.322-2.953-2.953a2.953,2.953,0,0,1,5.906,0" transform="translate(-14.942 -25.272)" fill="none" stroke="#344154" stroke-linecap="round" stroke-linejoin="round" stroke-width="3"/>
        <line id="Línea_158" data-name="Línea 158" y2="1.667" transform="translate(24.675 35.093)" fill="none" stroke="#344154" stroke-linecap="round" stroke-linejoin="round" stroke-width="3"/>
        <line id="Línea_159" data-name="Línea 159" y2="1.666" transform="translate(24.675 48.551)" fill="none" stroke="#344154" stroke-linecap="round" stroke-linejoin="round" stroke-width="3"/>
        <ellipse id="Elipse_59" data-name="Elipse 59" cx="11.155" cy="11.155" rx="11.155" ry="11.155" transform="translate(13.521 31.5)" fill="none" stroke="#344154" stroke-linecap="round" stroke-linejoin="round" stroke-width="3"/>
      </g>
    </g>
  </g>
</svg>
