<svg xmlns="http://www.w3.org/2000/svg" xmlns:xlink="http://www.w3.org/1999/xlink" width="108.914" height="108.914" viewBox="0 0 108.914 108.914">
  <defs>
    <filter id="Trazado_874925" x="0" y="0" width="108.914" height="108.914" filterUnits="userSpaceOnUse">
      <feOffset dy="3" input="SourceAlpha"/>
      <feGaussianBlur stdDeviation="3" result="blur"/>
      <feFlood flood-opacity="0.161"/>
      <feComposite operator="in" in2="blur"/>
      <feComposite in="SourceGraphic"/>
    </filter>
  </defs>
  <g id="Grupo_1176587" data-name="Grupo 1176587" transform="translate(-1115.274 -1860)">
    <g id="Grupo_1111375" data-name="Grupo 1111375" transform="translate(0.949 -651.157)">
      <g id="Grupo_1111317" data-name="Grupo 1111317" transform="translate(314.824 564.946)">
        <g id="Grupo_1109835" data-name="Grupo 1109835">
          <g id="Grupo_1107913" data-name="Grupo 1107913" transform="translate(808.5 1952.211)">
            <g transform="matrix(1, 0, 0, 1, -9, -6)" filter="url(#Trazado_874925)">
              <g id="Trazado_874925-2" data-name="Trazado 874925" transform="translate(9 6)" fill="#fd9826" opacity="0.859">
                <path d="M 45.45676803588867 89.41407012939453 C 39.52198028564453 89.41407012939453 33.76551818847656 88.25206756591797 28.34726715087891 85.96034240722656 C 23.11311721801758 83.74648284912109 18.41204261779785 80.57682800292969 14.37464332580566 76.5394287109375 C 10.33724308013916 72.50202941894531 7.167593002319336 67.80095672607422 4.953730583190918 62.56679534912109 C 2.662005424499512 57.14855575561523 1.500005483627319 51.39208221435547 1.500005483627319 45.45729446411133 C 1.500005483627319 39.52198028564453 2.662005424499512 33.76551818847656 4.953730583190918 28.34726905822754 C 7.167593002319336 23.11310577392578 10.33724308013916 18.41203117370605 14.37464332580566 14.37464332580566 C 18.41204261779785 10.33724403381348 23.11311721801758 7.167593955993652 28.34726715087891 4.953731060028076 C 33.76551818847656 2.662006139755249 39.52198028564453 1.500006198883057 45.45676803588867 1.500006198883057 C 51.39155578613281 1.500006198883057 57.14802932739258 2.662006139755249 62.56626892089844 4.953731060028076 C 67.80043029785156 7.167593955993652 72.50150299072266 10.33724403381348 76.53890228271484 14.37464332580566 C 80.57630920410156 18.41203117370605 83.74595642089844 23.11310577392578 85.95981597900391 28.34726905822754 C 88.25154113769531 33.76551818847656 89.41354370117188 39.52198028564453 89.41354370117188 45.45676803588867 C 89.41354370117188 51.39208221435547 88.25154113769531 57.14855575561523 85.95981597900391 62.56679534912109 C 83.74595642089844 67.80095672607422 80.57630920410156 72.50202941894531 76.53890228271484 76.5394287109375 C 72.50150299072266 80.57682800292969 67.80043029785156 83.74648284912109 62.56626892089844 85.96034240722656 C 57.14802932739258 88.25206756591797 51.39155578613281 89.41407012939453 45.45676803588867 89.41407012939453 Z" stroke="none"/>
                <path d="M 45.45676803588867 3 C 39.72381210327148 3 34.1639404296875 4.12213134765625 28.93159484863281 6.335227966308594 C 23.87622833251953 8.473472595214844 19.33542633056641 11.53517150878906 15.43529510498047 15.435302734375 C 11.53517150878906 19.33543395996094 8.473464965820312 23.87622833251953 6.335227966308594 28.93160247802734 C 4.122123718261719 34.16394424438477 3 39.72381591796875 3 45.4572868347168 C 3 51.19024658203125 4.122123718261719 56.75011825561523 6.335227966308594 61.98246002197266 C 8.473464965820312 67.03782653808594 11.53517150878906 71.57862854003906 15.43529510498047 75.478759765625 C 19.33542633056641 79.37889099121094 23.87622833251953 82.44058990478516 28.93159484863281 84.57883453369141 C 34.1639404296875 86.79193115234375 39.72381210327148 87.9140625 45.45676803588867 87.9140625 C 51.18972396850586 87.9140625 56.74959564208984 86.79193115234375 61.98194122314453 84.57883453369141 C 67.03730773925781 82.44058990478516 71.57810974121094 79.37889099121094 75.47824096679688 75.478759765625 C 79.37837219238281 71.57862854003906 82.44007110595703 67.03782653808594 84.57830810546875 61.98246002197266 C 86.79141235351562 56.75011825561523 87.91353607177734 51.19024658203125 87.91353607177734 45.4567756652832 C 87.91353607177734 39.72381591796875 86.79141235351562 34.16394424438477 84.57830810546875 28.93160247802734 C 82.44007110595703 23.87622833251953 79.37837219238281 19.33543395996094 75.47824096679688 15.435302734375 C 71.57810974121094 11.53517150878906 67.03730773925781 8.473472595214844 61.98194122314453 6.335227966308594 C 56.74959564208984 4.12213134765625 51.18972396850586 3 45.45676803588867 3 M 45.45676803588867 0 C 70.56185150146484 0 90.91353607177734 20.35169219970703 90.91353607177734 45.4567756652832 L 90.91353607177734 45.4572868347168 C 90.91353607177734 70.5623779296875 70.56185150146484 90.9140625 45.45676803588867 90.9140625 C 20.3516845703125 90.9140625 0 70.5623779296875 0 45.4572868347168 L 0 45.4567756652832 C 0 20.35169219970703 20.3516845703125 0 45.45676803588867 0 Z" stroke="none" fill="#fff"/>
              </g>
            </g>
            <g id="Trazado_874923" data-name="Trazado 874923" transform="translate(0 0)" fill="none">
              <path d="M45.457,0A45.457,45.457,0,0,1,90.914,45.457h0A45.457,45.457,0,0,1,0,45.457H0A45.457,45.457,0,0,1,45.457,0Z" stroke="none"/>
              <path d="M 45.45676803588867 3 C 39.72381210327148 3 34.1639404296875 4.12213134765625 28.93159484863281 6.335227966308594 C 23.87622833251953 8.473472595214844 19.33542633056641 11.53517150878906 15.43529510498047 15.435302734375 C 11.53517150878906 19.33543395996094 8.473464965820312 23.87622833251953 6.335227966308594 28.93160247802734 C 4.122123718261719 34.16394424438477 3 39.72381591796875 3 45.4572868347168 C 3 51.19024658203125 4.122123718261719 56.75011825561523 6.335227966308594 61.98246002197266 C 8.473464965820312 67.03782653808594 11.53517150878906 71.57862854003906 15.43529510498047 75.478759765625 C 19.33542633056641 79.37889099121094 23.87622833251953 82.44058990478516 28.93159484863281 84.57883453369141 C 34.1639404296875 86.79193115234375 39.72381210327148 87.9140625 45.45676803588867 87.9140625 C 51.18972396850586 87.9140625 56.74959564208984 86.79193115234375 61.98194122314453 84.57883453369141 C 67.03730773925781 82.44058990478516 71.57810974121094 79.37889099121094 75.47824096679688 75.478759765625 C 79.37837219238281 71.57862854003906 82.44007110595703 67.03782653808594 84.57830810546875 61.98246002197266 C 86.79141235351562 56.75011825561523 87.91353607177734 51.19024658203125 87.91353607177734 45.4567756652832 C 87.91353607177734 39.72381591796875 86.79141235351562 34.16394424438477 84.57830810546875 28.93160247802734 C 82.44007110595703 23.87622833251953 79.37837219238281 19.33543395996094 75.47824096679688 15.435302734375 C 71.57810974121094 11.53517150878906 67.03730773925781 8.473472595214844 61.98194122314453 6.335227966308594 C 56.74959564208984 4.12213134765625 51.18972396850586 3 45.45676803588867 3 M 45.45676803588867 0 C 70.56185150146484 0 90.91353607177734 20.35169219970703 90.91353607177734 45.4567756652832 L 90.91353607177734 45.4572868347168 C 90.91353607177734 70.5623779296875 70.56185150146484 90.9140625 45.45676803588867 90.9140625 C 20.3516845703125 90.9140625 0 70.5623779296875 0 45.4572868347168 L 0 45.4567756652832 C 0 20.35169219970703 20.3516845703125 0 45.45676803588867 0 Z" stroke="none" fill="#fff"/>
            </g>
          </g>
        </g>
      </g>
    </g>
    <g id="real-estate_6077884" transform="translate(1141.649 1883.387)">
      <circle id="Elipse_12985" data-name="Elipse 12985" cx="14.851" cy="14.851" r="14.851" transform="translate(13.23 1.871)" fill="#e2e7f6"/>
      <path id="Trazado_1031502" data-name="Trazado 1031502" d="M42.08,15.978A14.846,14.846,0,0,0,33.238,2.4a14.841,14.841,0,0,0-9.4,28.021A14.806,14.806,0,0,0,42.08,15.978Z" transform="translate(-1.769 -0.13)" fill="#f2f2f2"/>
      <path id="Trazado_1031503" data-name="Trazado 1031503" d="M22.969,27.977V20.433L30.831,14l7.862,6.433v7.544Z" transform="translate(-2.777 -1.646)" fill="#c8cded"/>
      <path id="Trazado_1031504" data-name="Trazado 1031504" d="M30.831,14l-7.862,6.433v5.8H35.2a.874.874,0,0,0,.874-.874V18.288Z" transform="translate(-2.777 -1.646)" fill="#e2e7f6"/>
      <path id="Trazado_1031505" data-name="Trazado 1031505" d="M19.051,30a14.827,14.827,0,0,0,22.626,0Z" transform="translate(-2.282 -3.668)" fill="#686868"/>
      <path id="Trazado_1031506" data-name="Trazado 1031506" d="M42.429,18.483,30.2,8,17.969,18.483,20.59,21.1,30.2,13.242,39.809,21.1Z" transform="translate(-2.145 -0.887)" fill="#3b5892"/>
      <path id="Trazado_1031507" data-name="Trazado 1031507" d="M27.969,28.989V25.494a3.494,3.494,0,1,1,6.989,0v3.494" transform="translate(-3.409 -2.657)" fill="#5e87ca"/>
      <path id="Trazado_1031508" data-name="Trazado 1031508" d="M40.463,14.865V9H36.969v2.871" transform="translate(-4.547 -1.014)" fill="#5e87ca"/>
      <path id="Trazado_1031509" data-name="Trazado 1031509" d="M31.463,25.494V22a3.494,3.494,0,0,0-3.494,3.494v1.747h1.747A1.747,1.747,0,0,0,31.463,25.494Z" transform="translate(-3.409 -2.657)" fill="#78a0d4"/>
      <path id="Trazado_1031510" data-name="Trazado 1031510" d="M2,34H8.989V52.345H2Z" transform="translate(-0.126 -4.174)" fill="#5e87ca"/>
      <path id="Trazado_1031511" data-name="Trazado 1031511" d="M2,34V48.851h.874A2.621,2.621,0,0,0,5.494,46.23V34Z" transform="translate(-0.126 -4.174)" fill="#78a0d4"/>
      <path id="Trazado_1031512" data-name="Trazado 1031512" d="M49.955,36H28.115l-5.392,5.392a2.471,2.471,0,0,0,3.495,3.494l4.518-4.518H34.23l8.886,8.886a2.474,2.474,0,0,1,.723,1.6h6.115Z" transform="translate(-2.655 -4.427)" fill="#ffcea9"/>
      <path id="Trazado_1031513" data-name="Trazado 1031513" d="M10,50.851h5.242L22.38,57.99A2.471,2.471,0,0,0,25.874,54.5l1.748,1.748a2.471,2.471,0,0,0,3.494-3.495L32.864,54.5A2.471,2.471,0,0,0,36.358,51l1.748,1.748A2.471,2.471,0,0,0,41.6,49.254l-8.886-8.886H29.219L24.7,44.886a2.471,2.471,0,0,1-3.494-3.495L26.6,36H10Z" transform="translate(-1.138 -4.427)" fill="#fbe1ca"/>
      <g id="Grupo_1176586" data-name="Grupo 1176586" transform="translate(20.468 40.565)">
        <path id="Trazado_1031514" data-name="Trazado 1031514" d="M0,0H1.747V7.625H0Z" transform="translate(8.735 1.235) rotate(-45)" fill="#ffcea9"/>
        <path id="Trazado_1031515" data-name="Trazado 1031515" d="M0,0H1.747V5.154H0Z" transform="translate(0 6.475) rotate(-45)" fill="#ffcea9"/>
        <path id="Trazado_1031516" data-name="Trazado 1031516" d="M0,0H1.747V6.389H0Z" transform="translate(4.367 3.855) rotate(-45)" fill="#ffcea9"/>
      </g>
      <path id="Trazado_1031517" data-name="Trazado 1031517" d="M54,34h6.989V52.345H54Z" transform="translate(-6.7 -4.174)" fill="#5e87ca"/>
      <path id="Trazado_1031518" data-name="Trazado 1031518" d="M54,34V48.851h.874a2.621,2.621,0,0,0,2.621-2.621V34Z" transform="translate(-6.7 -4.174)" fill="#78a0d4"/>
      <path id="Trazado_1031519" data-name="Trazado 1031519" d="M54.289,28.952H47.3a.874.874,0,0,0-.874.874V30.7H35.252a15.725,15.725,0,1,0-14.341,0H9.736v-.874a.874.874,0,0,0-.874-.874H1.874A.874.874,0,0,0,1,29.826V48.171a.874.874,0,0,0,.874.874H8.862a.874.874,0,0,0,.874-.874V47.3h4.006l6.883,6.883A3.332,3.332,0,0,0,26.2,52.706a3.31,3.31,0,0,0,5.242-1.747,3.31,3.31,0,0,0,5.242-1.747,3.31,3.31,0,0,0,2.033.707A3.347,3.347,0,0,0,41.971,47.3h4.455v.874a.874.874,0,0,0,.874.874h6.989a.874.874,0,0,0,.874-.874V29.826A.874.874,0,0,0,54.289,28.952ZM7.989,47.3H2.747V30.7H7.989ZM28.081,2.745A13.962,13.962,0,0,1,38.975,25.458H36.817V20.631l.321.262a.874.874,0,0,0,1.171-.059l2.621-2.621a.874.874,0,0,0-.05-1.281l-4.062-3.482V7.986a.874.874,0,0,0-.874-.874H32.449a.874.874,0,0,0-.874.874v.971L28.649,6.45a.874.874,0,0,0-1.136,0L15.283,16.933a.874.874,0,0,0-.05,1.281l2.621,2.621a.874.874,0,0,0,1.171.059l.321-.262v4.827H17.188A13.962,13.962,0,0,1,28.081,2.745ZM30.7,25.458H25.46V22.837a2.621,2.621,0,0,1,5.242,0Zm-2.621-6.989a4.373,4.373,0,0,0-4.368,4.368v2.621H21.093V19.2l6.989-5.719L35.07,19.2v6.257H32.449V22.837a4.373,4.373,0,0,0-4.368-4.368Zm6.989-6.516-1.747-1.5V8.86H35.07Zm3.956,5.692-1.4,1.4-9-7.362a.874.874,0,0,0-1.106,0l-9,7.362-1.4-1.4L28.081,8.263Zm-20.159,9.56H37.295a13.89,13.89,0,0,1-18.427,0ZM38.715,48.171a1.607,1.607,0,0,1-1.13-.467l-7.139-7.139L29.211,41.8,34.6,47.192a1.6,1.6,0,1,1-2.259,2.259l-6.265-6.266-1.235,1.235,4.518,4.518A1.6,1.6,0,1,1,27.1,51.2L21.71,45.806l-1.235,1.235,3.645,3.645a1.6,1.6,0,1,1-2.259,2.259l-7.139-7.139a.874.874,0,0,0-.618-.256H9.736v-13.1H23.352l-3.9,3.9a3.344,3.344,0,1,0,4.73,4.73l4.262-4.262h2.771l8.63,8.63a1.6,1.6,0,0,1-1.13,2.726Zm3.169-2.621a3.3,3.3,0,0,0-.8-1.341l-8.887-8.886a.874.874,0,0,0-.618-.256H28.081a.873.873,0,0,0-.617.256l-4.518,4.518a1.6,1.6,0,1,1-2.259-2.259l5.136-5.136h20.6v13.1ZM53.415,47.3H48.174V30.7h5.242Z"/>
    </g>
  </g>
</svg>
