<svg xmlns="http://www.w3.org/2000/svg" xmlns:xlink="http://www.w3.org/1999/xlink" width="95" height="100.278" viewBox="0 0 95 100.278">
  <defs>
    <clipPath id="clip-path">
      <rect id="Rectángulo_25628" data-name="Rectángulo 25628" width="78.911" height="69.233" fill="none"/>
    </clipPath>
  </defs>
  <g id="Grupo_1111676" data-name="Grupo 1111676" transform="translate(1884 7899)">
    <rect id="Rectángulo_404627" data-name="Rectángulo 404627" width="95" height="100.278" transform="translate(-1884 -7899)" fill="none"/>
    <g id="Grupo_58890" data-name="Grupo 58890" transform="translate(-1875.621 -7883.79)">
      <g id="Grupo_24953" data-name="Grupo 24953" clip-path="url(#clip-path)">
        <path id="Trazado_64741" data-name="Trazado 64741" d="M47.707,71.8l-1.335-4.72a15.181,15.181,0,0,0-8.219-9.638l-3.313-1.536a7.405,7.405,0,0,1-4.01-4.7l-1.6-5.655.126-.952a4.874,4.874,0,0,0-2.264-4.784l-.081-.05" transform="translate(-11.419 -16.815)" fill="none" stroke="#344154" stroke-linecap="round" stroke-linejoin="round" stroke-width="3"/>
        <path id="Trazado_64742" data-name="Trazado 64742" d="M20.614,73.209q-.355.049-.7.078a11.373,11.373,0,0,1-9.88-4.419C5.19,62.661,1.5,66.537,1.5,66.537a79.3,79.3,0,0,1,6.723,9.528A14.37,14.37,0,0,0,17.1,82.951q.35.087.716.163a8.359,8.359,0,0,1,5.692,4.3" transform="translate(-0.634 -27.629)" fill="none" stroke="#344154" stroke-linecap="round" stroke-linejoin="round" stroke-width="3"/>
        <path id="Trazado_64743" data-name="Trazado 64743" d="M6.559,49l-1.65-7.544L9.755,26.583s2.78.7,2.063,4.941L9.619,41.2l1.5,6.117" transform="translate(-2.076 -11.24)" fill="none" stroke="#344154" stroke-linecap="round" stroke-linejoin="round" stroke-width="3"/>
        <path id="Trazado_64744" data-name="Trazado 64744" d="M16.34,26.355l1.3-4.016s3.6,1.322,2.384,6.116L18.01,38.962l1.607,5.683" transform="translate(-6.909 -9.446)" fill="none" stroke="#344154" stroke-linecap="round" stroke-linejoin="round" stroke-width="3"/>
        <path id="Trazado_64745" data-name="Trazado 64745" d="M23.147,29.276l.183.134a5.462,5.462,0,0,1,2.14,5.41L24.3,41.043l1.663,5.788" transform="translate(-9.787 -12.379)" fill="none" stroke="#344154" stroke-linecap="round" stroke-linejoin="round" stroke-width="3"/>
        <path id="Trazado_64746" data-name="Trazado 64746" d="M49.476,105.162l-11.331,3.487-3.05-7.612,16.032-5.77v3.86" transform="translate(-14.839 -40.282)" fill="none" stroke="#344154" stroke-linecap="round" stroke-linejoin="round" stroke-width="3"/>
        <line id="Línea_160" data-name="Línea 160" y1="5.201" x2="14.714" transform="translate(21.574 58.843)" fill="none" stroke="#344154" stroke-linecap="round" stroke-linejoin="round" stroke-width="3"/>
        <path id="Trazado_64747" data-name="Trazado 64747" d="M73.849,71.8l1.335-4.72A15.181,15.181,0,0,1,83.4,57.444l3.313-1.536a7.405,7.405,0,0,0,4.01-4.7l1.6-5.655L92.2,44.6a4.874,4.874,0,0,1,2.264-4.784l.081-.05" transform="translate(-31.226 -16.815)" fill="none" stroke="#344154" stroke-linecap="round" stroke-linejoin="round" stroke-width="3"/>
        <path id="Trazado_64748" data-name="Trazado 64748" d="M99.986,73.209q.355.049.7.078a11.373,11.373,0,0,0,9.88-4.419c4.846-6.206,8.536-2.331,8.536-2.331a79.3,79.3,0,0,0-6.723,9.528,14.37,14.37,0,0,1-8.873,6.886q-.35.087-.716.163a8.359,8.359,0,0,0-5.692,4.3" transform="translate(-41.056 -27.629)" fill="none" stroke="#344154" stroke-linecap="round" stroke-linejoin="round" stroke-width="3"/>
        <path id="Trazado_64749" data-name="Trazado 64749" d="M125.014,49l1.65-7.544-4.846-14.875s-2.78.7-2.063,4.941l2.2,9.677-1.5,6.117" transform="translate(-50.587 -11.24)" fill="none" stroke="#344154" stroke-linecap="round" stroke-linejoin="round" stroke-width="3"/>
        <path id="Trazado_64750" data-name="Trazado 64750" d="M117.5,26.355l-1.3-4.016s-3.6,1.322-2.384,6.116l2.014,10.507-1.607,5.683" transform="translate(-48.019 -9.446)" fill="none" stroke="#344154" stroke-linecap="round" stroke-linejoin="round" stroke-width="3"/>
        <path id="Trazado_64751" data-name="Trazado 64751" d="M111.508,29.276l-.183.134a5.462,5.462,0,0,0-2.14,5.41l1.165,6.223-1.663,5.788" transform="translate(-45.957 -12.379)" fill="none" stroke="#344154" stroke-linecap="round" stroke-linejoin="round" stroke-width="3"/>
        <path id="Trazado_64752" data-name="Trazado 64752" d="M75.5,105.162l11.331,3.487,3.05-7.612L73.85,95.266v3.86" transform="translate(-31.226 -40.282)" fill="none" stroke="#344154" stroke-linecap="round" stroke-linejoin="round" stroke-width="3"/>
        <line id="Línea_161" data-name="Línea 161" x1="14.714" y1="5.201" transform="translate(42.623 58.843)" fill="none" stroke="#344154" stroke-linecap="round" stroke-linejoin="round" stroke-width="3"/>
        <path id="Trazado_64753" data-name="Trazado 64753" d="M56.522,0a16.9,16.9,0,1,0,16.9,16.9A16.9,16.9,0,0,0,56.522,0m0,29.7A12.806,12.806,0,1,1,69.329,16.9,12.806,12.806,0,0,1,56.522,29.7" transform="translate(-16.755)" fill="#56bcc7"/>
        <path id="Trazado_64754" data-name="Trazado 64754" d="M62.9,27.644a3.465,3.465,0,1,0,6.929,0c0-1.913-1.42-2.8-3.465-3.464-1.819-.594-3.465-1.551-3.465-3.465a3.465,3.465,0,1,1,6.929,0" transform="translate(-26.595 -7.294)" fill="none" stroke="#344154" stroke-linecap="round" stroke-linejoin="round" stroke-width="3"/>
        <line id="Línea_162" data-name="Línea 162" y2="1.955" transform="translate(39.767 8.024)" fill="none" stroke="#344154" stroke-linecap="round" stroke-linejoin="round" stroke-width="3"/>
        <line id="Línea_163" data-name="Línea 163" y2="1.955" transform="translate(39.767 23.815)" fill="none" stroke="#344154" stroke-linecap="round" stroke-linejoin="round" stroke-width="3"/>
      </g>
    </g>
  </g>
</svg>
