<svg xmlns="http://www.w3.org/2000/svg" xmlns:xlink="http://www.w3.org/1999/xlink" width="95" height="100.278" viewBox="0 0 95 100.278">
  <defs>
    <clipPath id="clip-path">
      <rect id="Rectángulo_25632" data-name="Rectángulo 25632" width="78.798" height="76.216" fill="none"/>
    </clipPath>
  </defs>
  <g id="Grupo_1111675" data-name="Grupo 1111675" transform="translate(1884 7447)">
    <rect id="Rectángulo_404628" data-name="Rectángulo 404628" width="95" height="100.278" transform="translate(-1884 -7447)" fill="none"/>
    <g id="Grupo_58893" data-name="Grupo 58893" transform="translate(-1875.516 -7435.401)">
      <g id="Grupo_24961" data-name="Grupo 24961" clip-path="url(#clip-path)">
        <path id="Trazado_64780" data-name="Trazado 64780" d="M38.191,15.97V11.6L28.042,1.5H1.5v38.24" transform="translate(-0.611 -0.611)" fill="none" stroke="#344154" stroke-linecap="round" stroke-linejoin="round" stroke-width="3"/>
        <path id="Trazado_64781" data-name="Trazado 64781" d="M34.742,31.929H14.932a1.185,1.185,0,1,1,0-2.37h19.81a1.185,1.185,0,1,1,0,2.37" transform="translate(-5.602 -12.046)" fill="#48a5d9"/>
        <path id="Trazado_64782" data-name="Trazado 64782" d="M34.412,41.071H14.6a1.185,1.185,0,0,1,0-2.37h19.81a1.185,1.185,0,0,1,0,2.37" transform="translate(-5.468 -15.772)" fill="#48a5d9"/>
        <path id="Trazado_64783" data-name="Trazado 64783" d="M34.906,22.788H15.1a1.185,1.185,0,0,1,0-2.37h19.81a1.185,1.185,0,1,1,0,2.37" transform="translate(-5.669 -8.321)" fill="#48a5d9"/>
        <path id="Trazado_64784" data-name="Trazado 64784" d="M101.819,49.668a48.492,48.492,0,0,1,.8,7.527,9.556,9.556,0,0,1-2.171,6.047A5.829,5.829,0,0,0,99.226,67.6l.084.72a1.905,1.905,0,0,0,.828,1.36,1.879,1.879,0,0,0,.534.25l8.754,2.542a8.266,8.266,0,0,1,3.394,1.782,10.106,10.106,0,0,1,3.463,5.79l2.048,15.53" transform="translate(-40.421 -20.241)" fill="none" stroke="#344154" stroke-linecap="round" stroke-linejoin="round" stroke-width="3"/>
        <path id="Trazado_64785" data-name="Trazado 64785" d="M87.188,20.525c5.111,0,10.467,2.844,12.608,7.627a22.75,22.75,0,0,1,1.592,6.706c.376,3.231.54,6.3,2.088,9.218a6.975,6.975,0,0,0,5.6,3.951,10.328,10.328,0,0,1-10.626,4.488" transform="translate(-35.532 -8.365)" fill="none" stroke="#344154" stroke-linecap="round" stroke-linejoin="round" stroke-width="3"/>
        <path id="Trazado_64786" data-name="Trazado 64786" d="M72.133,20.525c-5.112,0-10.468,2.844-12.609,7.627a22.75,22.75,0,0,0-1.592,6.706c-.376,3.231-.541,6.3-2.088,9.218a6.974,6.974,0,0,1-5.6,3.951,10.328,10.328,0,0,0,10.626,4.488" transform="translate(-20.476 -8.365)" fill="none" stroke="#344154" stroke-linecap="round" stroke-linejoin="round" stroke-width="3"/>
        <path id="Trazado_64787" data-name="Trazado 64787" d="M73.581,83.439l8.062,6.019L89.7,83.439" transform="translate(-29.986 -34.004)" fill="none" stroke="#344154" stroke-linecap="round" stroke-linejoin="round" stroke-width="3"/>
        <line id="Línea_172" data-name="Línea 172" x2="7.476" transform="translate(60.448 69.359)" fill="none" stroke="#344154" stroke-linecap="round" stroke-linejoin="round" stroke-width="3"/>
        <path id="Trazado_64788" data-name="Trazado 64788" d="M42.875,90.41l2.047-15.53a10.108,10.108,0,0,1,3.463-5.79,8.27,8.27,0,0,1,3.394-1.782l8.754-2.542a1.909,1.909,0,0,0,1.363-1.61l.084-.72a5.824,5.824,0,0,0-1.222-4.355,9.554,9.554,0,0,1-2.171-6.047,54.956,54.956,0,0,1,1.039-8.89,7.781,7.781,0,0,1,4.519-5.731,4.67,4.67,0,0,1,5.5,1.264l.028.034c.927,1.146,1.616,2.482,2.641,3.541a7.565,7.565,0,0,0,6.566,2.158" transform="translate(-17.473 -15.082)" fill="none" stroke="#344154" stroke-linecap="round" stroke-linejoin="round" stroke-width="3"/>
        <path id="Trazado_64789" data-name="Trazado 64789" d="M84.295,29.983a6.657,6.657,0,0,1,5.148,2.58c.949,1.242,1.449,2.818,2.574,3.9a4.691,4.691,0,0,0,4.392,1.13" transform="translate(-34.353 -12.219)" fill="none" stroke="#344154" stroke-linecap="round" stroke-linejoin="round" stroke-width="3"/>
        <path id="Trazado_64790" data-name="Trazado 64790" d="M6.315,71.619A11.36,11.36,0,1,0,17.676,60.258,11.36,11.36,0,0,0,6.315,71.619Z" transform="translate(-2.574 -24.557)" fill="none" stroke="#344154" stroke-linecap="round" stroke-linejoin="round" stroke-width="3"/>
        <path id="Trazado_64791" data-name="Trazado 64791" d="M17.268,77.529l3.882,3.462,6.285-7.686" transform="translate(-7.037 -29.874)" fill="none" stroke="#344154" stroke-linecap="round" stroke-linejoin="round" stroke-width="3"/>
      </g>
    </g>
  </g>
</svg>
