<svg xmlns="http://www.w3.org/2000/svg" xmlns:xlink="http://www.w3.org/1999/xlink" width="108.914" height="108.914" viewBox="0 0 108.914 108.914">
  <defs>
    <filter id="Trazado_874925" x="0" y="0" width="108.914" height="108.914" filterUnits="userSpaceOnUse">
      <feOffset dy="3" input="SourceAlpha"/>
      <feGaussianBlur stdDeviation="3" result="blur"/>
      <feFlood flood-opacity="0.161"/>
      <feComposite operator="in" in2="blur"/>
      <feComposite in="SourceGraphic"/>
    </filter>
  </defs>
  <g id="Grupo_1176624" data-name="Grupo 1176624" transform="translate(-3687.274 9773.867)">
    <g id="Grupo_1176443" data-name="Grupo 1176443" transform="translate(2572.949 -12285.024)">
      <g id="Grupo_1111317" data-name="Grupo 1111317" transform="translate(314.824 564.946)">
        <g id="Grupo_1109835" data-name="Grupo 1109835">
          <g id="Grupo_1107913" data-name="Grupo 1107913" transform="translate(808.5 1952.211)">
            <g transform="matrix(1, 0, 0, 1, -9, -6)" filter="url(#Trazado_874925)">
              <g id="Trazado_874925-2" data-name="Trazado 874925" transform="translate(9 6)" fill="#fd9826" opacity="0.859">
                <path d="M 45.45676803588867 89.41407012939453 C 39.52198028564453 89.41407012939453 33.76551818847656 88.25206756591797 28.34726715087891 85.96034240722656 C 23.11311721801758 83.74648284912109 18.41204261779785 80.57682800292969 14.37464332580566 76.5394287109375 C 10.33724308013916 72.50202941894531 7.167593002319336 67.80095672607422 4.953730583190918 62.56679534912109 C 2.662005424499512 57.14855575561523 1.500005483627319 51.39208221435547 1.500005483627319 45.45729446411133 C 1.500005483627319 39.52198028564453 2.662005424499512 33.76551818847656 4.953730583190918 28.34726905822754 C 7.167593002319336 23.11310577392578 10.33724308013916 18.41203117370605 14.37464332580566 14.37464332580566 C 18.41204261779785 10.33724403381348 23.11311721801758 7.167593955993652 28.34726715087891 4.953731060028076 C 33.76551818847656 2.662006139755249 39.52198028564453 1.500006198883057 45.45676803588867 1.500006198883057 C 51.39155578613281 1.500006198883057 57.14802932739258 2.662006139755249 62.56626892089844 4.953731060028076 C 67.80043029785156 7.167593955993652 72.50150299072266 10.33724403381348 76.53890228271484 14.37464332580566 C 80.57630920410156 18.41203117370605 83.74595642089844 23.11310577392578 85.95981597900391 28.34726905822754 C 88.25154113769531 33.76551818847656 89.41354370117188 39.52198028564453 89.41354370117188 45.45676803588867 C 89.41354370117188 51.39208221435547 88.25154113769531 57.14855575561523 85.95981597900391 62.56679534912109 C 83.74595642089844 67.80095672607422 80.57630920410156 72.50202941894531 76.53890228271484 76.5394287109375 C 72.50150299072266 80.57682800292969 67.80043029785156 83.74648284912109 62.56626892089844 85.96034240722656 C 57.14802932739258 88.25206756591797 51.39155578613281 89.41407012939453 45.45676803588867 89.41407012939453 Z" stroke="none"/>
                <path d="M 45.45676803588867 3 C 39.72381210327148 3 34.1639404296875 4.12213134765625 28.93159484863281 6.335227966308594 C 23.87622833251953 8.473472595214844 19.33542633056641 11.53517150878906 15.43529510498047 15.435302734375 C 11.53517150878906 19.33543395996094 8.473464965820312 23.87622833251953 6.335227966308594 28.93160247802734 C 4.122123718261719 34.16394424438477 3 39.72381591796875 3 45.4572868347168 C 3 51.19024658203125 4.122123718261719 56.75011825561523 6.335227966308594 61.98246002197266 C 8.473464965820312 67.03782653808594 11.53517150878906 71.57862854003906 15.43529510498047 75.478759765625 C 19.33542633056641 79.37889099121094 23.87622833251953 82.44058990478516 28.93159484863281 84.57883453369141 C 34.1639404296875 86.79193115234375 39.72381210327148 87.9140625 45.45676803588867 87.9140625 C 51.18972396850586 87.9140625 56.74959564208984 86.79193115234375 61.98194122314453 84.57883453369141 C 67.03730773925781 82.44058990478516 71.57810974121094 79.37889099121094 75.47824096679688 75.478759765625 C 79.37837219238281 71.57862854003906 82.44007110595703 67.03782653808594 84.57830810546875 61.98246002197266 C 86.79141235351562 56.75011825561523 87.91353607177734 51.19024658203125 87.91353607177734 45.4567756652832 C 87.91353607177734 39.72381591796875 86.79141235351562 34.16394424438477 84.57830810546875 28.93160247802734 C 82.44007110595703 23.87622833251953 79.37837219238281 19.33543395996094 75.47824096679688 15.435302734375 C 71.57810974121094 11.53517150878906 67.03730773925781 8.473472595214844 61.98194122314453 6.335227966308594 C 56.74959564208984 4.12213134765625 51.18972396850586 3 45.45676803588867 3 M 45.45676803588867 0 C 70.56185150146484 0 90.91353607177734 20.35169219970703 90.91353607177734 45.4567756652832 L 90.91353607177734 45.4572868347168 C 90.91353607177734 70.5623779296875 70.56185150146484 90.9140625 45.45676803588867 90.9140625 C 20.3516845703125 90.9140625 0 70.5623779296875 0 45.4572868347168 L 0 45.4567756652832 C 0 20.35169219970703 20.3516845703125 0 45.45676803588867 0 Z" stroke="none" fill="#fff"/>
              </g>
            </g>
            <g id="Trazado_874923" data-name="Trazado 874923" transform="translate(0 0)" fill="none">
              <path d="M45.457,0A45.457,45.457,0,0,1,90.914,45.457h0A45.457,45.457,0,0,1,0,45.457H0A45.457,45.457,0,0,1,45.457,0Z" stroke="none"/>
              <path d="M 45.45676803588867 3 C 39.72381210327148 3 34.1639404296875 4.12213134765625 28.93159484863281 6.335227966308594 C 23.87622833251953 8.473472595214844 19.33542633056641 11.53517150878906 15.43529510498047 15.435302734375 C 11.53517150878906 19.33543395996094 8.473464965820312 23.87622833251953 6.335227966308594 28.93160247802734 C 4.122123718261719 34.16394424438477 3 39.72381591796875 3 45.4572868347168 C 3 51.19024658203125 4.122123718261719 56.75011825561523 6.335227966308594 61.98246002197266 C 8.473464965820312 67.03782653808594 11.53517150878906 71.57862854003906 15.43529510498047 75.478759765625 C 19.33542633056641 79.37889099121094 23.87622833251953 82.44058990478516 28.93159484863281 84.57883453369141 C 34.1639404296875 86.79193115234375 39.72381210327148 87.9140625 45.45676803588867 87.9140625 C 51.18972396850586 87.9140625 56.74959564208984 86.79193115234375 61.98194122314453 84.57883453369141 C 67.03730773925781 82.44058990478516 71.57810974121094 79.37889099121094 75.47824096679688 75.478759765625 C 79.37837219238281 71.57862854003906 82.44007110595703 67.03782653808594 84.57830810546875 61.98246002197266 C 86.79141235351562 56.75011825561523 87.91353607177734 51.19024658203125 87.91353607177734 45.4567756652832 C 87.91353607177734 39.72381591796875 86.79141235351562 34.16394424438477 84.57830810546875 28.93160247802734 C 82.44007110595703 23.87622833251953 79.37837219238281 19.33543395996094 75.47824096679688 15.435302734375 C 71.57810974121094 11.53517150878906 67.03730773925781 8.473472595214844 61.98194122314453 6.335227966308594 C 56.74959564208984 4.12213134765625 51.18972396850586 3 45.45676803588867 3 M 45.45676803588867 0 C 70.56185150146484 0 90.91353607177734 20.35169219970703 90.91353607177734 45.4567756652832 L 90.91353607177734 45.4572868347168 C 90.91353607177734 70.5623779296875 70.56185150146484 90.9140625 45.45676803588867 90.9140625 C 20.3516845703125 90.9140625 0 70.5623779296875 0 45.4572868347168 L 0 45.4567756652832 C 0 20.35169219970703 20.3516845703125 0 45.45676803588867 0 Z" stroke="none" fill="#fff"/>
            </g>
          </g>
        </g>
      </g>
    </g>
    <g id="insight_2973258" transform="translate(3712.213 -9750.787)">
      <g id="Grupo_1176622" data-name="Grupo 1176622" transform="translate(1.929 1.929)">
        <g id="Grupo_1176597" data-name="Grupo 1176597" transform="translate(0 19.501)">
          <path id="Trazado_1031539" data-name="Trazado 1031539" d="M29.858,41.572H2V33.419A10.671,10.671,0,0,1,10.358,23l1.69,1.662L10.358,36l2.786,2.786L15.929,36l-1.69-11.338L15.929,23a10.628,10.628,0,0,1,5.284,2.925,10.209,10.209,0,0,0,8.645,15.647Z" transform="translate(-2 -23)" fill="#b4dd7f"/>
        </g>
        <g id="Grupo_1176598" data-name="Grupo 1176598" transform="translate(8.358 21.163)">
          <path id="Trazado_1031540" data-name="Trazado 1031540" d="M14.882,24.79l1.69,11.338-2.786,2.786L11,36.128,12.69,24.79l1.1,1.086Z" transform="translate(-11 -24.79)" fill="#ffeaa7"/>
        </g>
        <g id="Grupo_1176599" data-name="Grupo 1176599" transform="translate(5.572)">
          <path id="Trazado_1031541" data-name="Trazado 1031541" d="M21.929,8.965a6.8,6.8,0,0,1-.5,2.582,2.788,2.788,0,0,0-2.284-1.189H15.383A4.379,4.379,0,0,1,12.29,9.076,1.968,1.968,0,0,0,10.9,8.5a.452.452,0,0,0-.111.009V8.5A4.141,4.141,0,0,0,8,4.786l.65-.975A4.063,4.063,0,0,1,12.039,2h2.925a6.975,6.975,0,0,1,6.965,6.965Z" transform="translate(-8 -2)" fill="#656d78"/>
        </g>
        <g id="Grupo_1176600" data-name="Grupo 1176600" transform="translate(2.786 2.786)">
          <path id="Trazado_1031542" data-name="Trazado 1031542" d="M10.572,8.714v.009a1.951,1.951,0,0,0-1.848,1.848H7.786a2.753,2.753,0,0,0-2.377,1.337A4.028,4.028,0,0,1,5,10.145V8.863a4.018,4.018,0,0,1,.771-2.377A4.076,4.076,0,0,1,7.786,5a4.141,4.141,0,0,1,2.786,3.714Z" transform="translate(-5 -5)" fill="#656d78"/>
        </g>
        <g id="Grupo_1176601" data-name="Grupo 1176601" transform="translate(27.858 19.501)">
          <path id="Trazado_1031543" data-name="Trazado 1031543" d="M42.215,31.358a10.13,10.13,0,0,0-1.569-5.432,10.576,10.576,0,0,1,2.442-1.848A10.276,10.276,0,0,1,45.929,23l2.786,4.643L51.5,23a10.276,10.276,0,0,1,2.842,1.077,10.679,10.679,0,0,1,5.516,9.342v8.153H54.287V32.286a1.863,1.863,0,0,0-1.857-1.857H50.572a1.863,1.863,0,0,0-1.857,1.857v.929a1.871,1.871,0,0,0-1.857,1.857v1.086a1.863,1.863,0,0,0,.548,1.319l1.309,1.309-.325,2.786H32A10.209,10.209,0,0,0,42.215,31.358Z" transform="translate(-32 -23)" fill="#ef7385"/>
        </g>
        <g id="Grupo_1176602" data-name="Grupo 1176602" transform="translate(36.216)">
          <path id="Trazado_1031544" data-name="Trazado 1031544" d="M46.572,21.5a10.276,10.276,0,0,0-2.842,1.077A5.555,5.555,0,0,1,41,17.786V10.358a8.358,8.358,0,0,1,16.715,0v7.429a5.555,5.555,0,0,1-2.73,4.792A10.276,10.276,0,0,0,52.143,21.5l-.474-1.894A2.787,2.787,0,0,0,54,16.858v-6.5h-.232a6.164,6.164,0,0,1-4.355-1.8L49.358,8.5l-.056.056a6.164,6.164,0,0,1-4.355,1.8h-.232v6.5a2.787,2.787,0,0,0,2.331,2.749Z" transform="translate(-41 -2)" fill="#fcd770"/>
        </g>
        <g id="Grupo_1176603" data-name="Grupo 1176603" transform="translate(26.215 41.788)">
          <path id="Trazado_1031545" data-name="Trazado 1031545" d="M32.8,47l.715,6.389c-.511.826-1.068,1.625-1.644,2.414-.576-.789-1.133-1.588-1.644-2.414L30.945,47Z" transform="translate(-30.23 -47)" fill="#ffeaa7"/>
        </g>
        <g id="Grupo_1176604" data-name="Grupo 1176604" transform="translate(28.787 38.166)">
          <path id="Trazado_1031546" data-name="Trazado 1031546" d="M38.052,43.8a40.237,40.237,0,0,1-3.835,8.5c-.158.269-.325.548-.5.817L33,46.722,34.811,43.1A15.266,15.266,0,0,1,38.052,43.8Z" transform="translate(-33 -43.1)" fill="#ccd1d9"/>
        </g>
        <g id="Grupo_1176605" data-name="Grupo 1176605" transform="translate(22.092 38.445)">
          <path id="Trazado_1031547" data-name="Trazado 1031547" d="M28.957,43.4l1.672,3.343-.715,6.389c-.176-.269-.344-.548-.5-.826a39.813,39.813,0,0,1-3.622-7.847A15.29,15.29,0,0,1,28.957,43.4Z" transform="translate(-25.79 -43.4)" fill="#ccd1d9"/>
        </g>
        <g id="Grupo_1176606" data-name="Grupo 1176606" transform="translate(26.001 35.287)">
          <path id="Trazado_1031548" data-name="Trazado 1031548" d="M54.144,42.786V54.115a6.313,6.313,0,0,1-11.961,2.823l-1.04-2.08V60.43H30V57.644l7.429-1.857L36.5,52.072h1.857l2.786-6.955a15.674,15.674,0,0,1,6.027,6.825l1.077-9.156L48.572,40h5.572Z" transform="translate(-30 -40)" fill="#b4dd7f"/>
        </g>
        <g id="Grupo_1176607" data-name="Grupo 1176607" transform="translate(13.001 41.407)">
          <path id="Trazado_1031549" data-name="Trazado 1031549" d="M21.98,46.59l2.377,5.952h1.857l-.929,3.714,4.355,1.086c-.2.26-.427.52-.641.771V60.9H16V58.894A15.639,15.639,0,0,1,21.98,46.59Z" transform="translate(-16 -46.59)" fill="#b4dd7f"/>
        </g>
        <g id="Grupo_1176608" data-name="Grupo 1176608" transform="translate(30.004 38.863)">
          <path id="Trazado_1031550" data-name="Trazado 1031550" d="M34.31,52.347a40.237,40.237,0,0,0,3.835-8.5,15.317,15.317,0,0,1,3.306,1.542l-2.786,6.955H34.319Z" transform="translate(-34.31 -43.85)" fill="#a0d468"/>
        </g>
        <g id="Grupo_1176609" data-name="Grupo 1176609" transform="translate(26.001 47.359)">
          <path id="Trazado_1031551" data-name="Trazado 1031551" d="M33.5,53.817c.176-.269.344-.548.5-.817h2.5l.929,3.714L30,58.572c.214-.251.436-.511.641-.771.418-.511.826-1.04,1.216-1.569C32.433,55.442,32.99,54.644,33.5,53.817Z" transform="translate(-30 -53)" fill="#a0d468"/>
        </g>
        <g id="Grupo_1176610" data-name="Grupo 1176610" transform="translate(22.287 47.35)">
          <path id="Trazado_1031552" data-name="Trazado 1031552" d="M29.928,53.816c.511.826,1.068,1.625,1.644,2.414-.39.529-.8,1.059-1.216,1.569L26,56.714,26.929,53h2.489l.009-.009c.158.279.325.557.5.826Z" transform="translate(-26 -52.99)" fill="#a0d468"/>
        </g>
        <g id="Grupo_1176611" data-name="Grupo 1176611" transform="translate(18.981 39.503)">
          <path id="Trazado_1031553" data-name="Trazado 1031553" d="M25.551,44.54a39.813,39.813,0,0,0,3.622,7.847l-.009.009H24.817L22.44,46.444A15.178,15.178,0,0,1,25.551,44.54Z" transform="translate(-22.44 -44.54)" fill="#a0d468"/>
        </g>
        <g id="Grupo_1176612" data-name="Grupo 1176612" transform="translate(39.931 6.5)">
          <path id="Trazado_1031554" data-name="Trazado 1031554" d="M54.286,10.857v6.5a2.787,2.787,0,0,1-2.331,2.749,2.441,2.441,0,0,1-.455.037H47.786a2.441,2.441,0,0,1-.455-.037A2.787,2.787,0,0,1,45,17.358v-6.5h.232a6.164,6.164,0,0,0,4.355-1.8L49.643,9l.056.056a6.164,6.164,0,0,0,4.355,1.8Z" transform="translate(-45 -9)" fill="#f0d0b4"/>
        </g>
        <g id="Grupo_1176613" data-name="Grupo 1176613" transform="translate(41.788 17.607)">
          <path id="Trazado_1031555" data-name="Trazado 1031555" d="M51.643,21a2.441,2.441,0,0,0,.455-.037l.474,1.894L49.786,27.5,47,22.854l.474-1.894a2.441,2.441,0,0,0,.455.037Z" transform="translate(-47 -20.96)" fill="#f0d0b4"/>
        </g>
        <g id="Grupo_1176614" data-name="Grupo 1176614" transform="translate(42.716 26.93)">
          <path id="Trazado_1031556" data-name="Trazado 1031556" d="M55.429,32.857v6.5H49.857l-1.309-1.309A1.863,1.863,0,0,1,48,36.73V35.643a1.871,1.871,0,0,1,1.857-1.857v-.929A1.863,1.863,0,0,1,51.714,31h1.857a1.863,1.863,0,0,1,1.857,1.857Z" transform="translate(-48 -31)" fill="#f0d0b4"/>
        </g>
        <g id="Grupo_1176615" data-name="Grupo 1176615" transform="translate(25.258 38.073)">
          <path id="Trazado_1031557" data-name="Trazado 1031557" d="M34.54,43.093l-1.811,3.622H30.872L29.2,43.371A15.58,15.58,0,0,1,32.58,43h.3A14.135,14.135,0,0,1,34.54,43.093Z" transform="translate(-29.2 -43)" fill="#f0d0b4"/>
        </g>
        <g id="Grupo_1176616" data-name="Grupo 1176616" transform="translate(15.786 8.358)">
          <path id="Trazado_1031558" data-name="Trazado 1031558" d="M19.929,11a2.788,2.788,0,0,1,2.284,1.189V12.2a2.737,2.737,0,0,1,.5,1.588,2.79,2.79,0,0,1-2.786,2.786H19V11Z" transform="translate(-19 -11)" fill="#f0d0b4"/>
        </g>
        <g id="Grupo_1176617" data-name="Grupo 1176617" transform="translate(8.358 17.607)">
          <path id="Trazado_1031559" data-name="Trazado 1031559" d="M15.643,21a2.441,2.441,0,0,0,.455-.037l.474,1.894-1.69,1.662-1.1,1.086-1.1-1.086L11,22.854l.474-1.894a2.342,2.342,0,0,0,.446.037Z" transform="translate(-11 -20.96)" fill="#f0d0b4"/>
        </g>
        <g id="Grupo_1176618" data-name="Grupo 1176618" transform="translate(6.5 6.5)">
          <path id="Trazado_1031560" data-name="Trazado 1031560" d="M18.286,16.429v.929a2.787,2.787,0,0,1-2.331,2.749,2.441,2.441,0,0,1-.455.037H11.777a2.342,2.342,0,0,1-.446-.037A2.777,2.777,0,0,1,9,17.367v-6.4a.452.452,0,0,1,.009-.111,1.951,1.951,0,0,1,1.848-1.848A.452.452,0,0,1,10.969,9a1.968,1.968,0,0,1,1.393.576,4.379,4.379,0,0,0,3.092,1.281h2.832Z" transform="translate(-9 -9)" fill="#f0d0b4"/>
        </g>
        <g id="Grupo_1176619" data-name="Grupo 1176619" transform="translate(2.786 8.358)">
          <path id="Trazado_1031561" data-name="Trazado 1031561" d="M8.714,11.111v5.46H7.786A2.79,2.79,0,0,1,5,13.786a2.712,2.712,0,0,1,.409-1.439v-.009A2.753,2.753,0,0,1,7.786,11h.938A.452.452,0,0,0,8.714,11.111Z" transform="translate(-5 -11)" fill="#f0d0b4"/>
        </g>
        <g id="Grupo_1176620" data-name="Grupo 1176620" transform="translate(17.644 17.644)">
          <path id="Trazado_1031562" data-name="Trazado 1031562" d="M41.43,31.215a10.226,10.226,0,1,1-1.569-5.432A10.209,10.209,0,0,1,41.43,31.215Z" transform="translate(-21 -21)" fill="#e6e9ed"/>
        </g>
        <g id="Grupo_1176621" data-name="Grupo 1176621" transform="translate(23.215 24.144)">
          <path id="Trazado_1031563" data-name="Trazado 1031563" d="M36.286,30.628V30.8a2.617,2.617,0,0,1-.576,1.634l-2.563,3.2a1.924,1.924,0,0,1-3.009,0l-2.563-3.2A2.617,2.617,0,0,1,27,30.8v-.167a2.627,2.627,0,0,1,4.485-1.857l.158.158.158-.158a2.627,2.627,0,0,1,4.485,1.857Z" transform="translate(-27 -28)" fill="#ef7385"/>
        </g>
      </g>
      <g id="Grupo_1176623" data-name="Grupo 1176623" transform="translate(1 1)">
        <path id="Trazado_1031564" data-name="Trazado 1031564" d="M29.337,36.141a2.861,2.861,0,0,0,4.468,0l2.558-3.2a3.564,3.564,0,0,0,.78-2.221v-.166a3.557,3.557,0,0,0-5.572-2.93A3.557,3.557,0,0,0,26,30.556v.166a3.569,3.569,0,0,0,.779,2.221Zm-1.48-5.586a1.7,1.7,0,0,1,2.9-1.2l.816.815.815-.815a1.7,1.7,0,0,1,2.9,1.2v.166a1.71,1.71,0,0,1-.372,1.061l-2.559,3.2a1.033,1.033,0,0,1-1.567,0l-2.558-3.2a1.707,1.707,0,0,1-.372-1.06Z" transform="translate(-2.785 -2.856)"/>
        <path id="Trazado_1031565" data-name="Trazado 1031565" d="M58.574,31.849a11.524,11.524,0,0,0-4.824-9.424,6.527,6.527,0,0,0,2.038-4.71V10.286a9.286,9.286,0,0,0-18.572,0v7.429a6.527,6.527,0,0,0,2.058,4.727q-.354.254-.687.535a11.124,11.124,0,0,0-7.871-4.286v-1.9H28.858v1.9a11.123,11.123,0,0,0-7.871,4.286,11.558,11.558,0,0,0-4.364-2.313l-.13-.52a3.71,3.71,0,0,0,2.15-3.357,3.718,3.718,0,0,0,3.714-3.714,3.659,3.659,0,0,0-.417-1.673A7.871,7.871,0,0,0,14.465,1H11.538A4.991,4.991,0,0,0,7.376,3.228l-.481.722a5,5,0,0,0-3.109,4.63V9.856A5.037,5.037,0,0,0,4.1,11.587a3.707,3.707,0,0,0,3.4,5.2V16.8a3.7,3.7,0,0,0,2.149,3.35l-.129.515A11.527,11.527,0,0,0,1,31.849v9.082H22.975A16.568,16.568,0,0,0,14,55.636v2.938H40V55.7a7.231,7.231,0,0,0,13-4.369v-10.4h5.572Zm-19.5-14.134V10.286a7.429,7.429,0,0,1,14.858,0v7.429a4.666,4.666,0,0,1-1.862,3.711,11.739,11.739,0,0,0-2.016-.763l-.13-.519a3.709,3.709,0,0,0,2.151-3.357V9.358H50.912a5.248,5.248,0,0,1-3.753-1.585l-.709-.6-.657.657a5.2,5.2,0,0,1-3.7,1.532H40.931v7.429a3.709,3.709,0,0,0,2.151,3.357l-.13.52a11.548,11.548,0,0,0-1.995.777,4.666,4.666,0,0,1-1.883-3.726Zm9.286.929H44.645a1.859,1.859,0,0,1-1.857-1.857V11.181A7.039,7.039,0,0,0,46.5,9.675a7.02,7.02,0,0,0,3.718,1.506v5.605A1.859,1.859,0,0,1,48.359,18.644ZM44.906,20.5H48.1l.2.781L46.5,24.267l-1.791-2.986Zm-16.047.047v1.81h1.857v-1.81a9.3,9.3,0,0,1,8.31,8.31h-1.81v1.857h1.81a9.285,9.285,0,0,1-18.478,0h1.81V28.858h-1.81a9.3,9.3,0,0,1,8.31-8.31ZM51.145,36.287H46.887l-1.041-1.041a.924.924,0,0,1-.272-.657V33.5a.93.93,0,0,1,.929-.929h.929V30.716a.93.93,0,0,1,.929-.929h1.857a.93.93,0,0,1,.929.929ZM44.5,46.261a16.6,16.6,0,0,0-6.053-5.33h6.68Zm-10.27,6.066-3.869.967c.747-1,1.45-2.022,2.1-3.077H33.7Zm-5.125-2.439.582-5.242h.2l.582,5.243c-.222.345-.446.69-.68,1.028q-.348-.508-.68-1.029Zm2.561-6L33.062,41.1a14.581,14.581,0,0,1,1.505.318,39.412,39.412,0,0,1-2.53,5.8Zm-1.105-2.957h.3c.068,0,.135.007.2.007l-.925,1.85h-.709l-.853-1.707a14.569,14.569,0,0,1,1.984-.15Zm-2.658,2.957-.37,3.329a39.376,39.376,0,0,1-2.343-5.256,14.423,14.423,0,0,1,1.5-.5Zm-4.4-1.143a41.281,41.281,0,0,0,2.543,5.615H23.915l-1.874-4.685a14.546,14.546,0,0,1,1.46-.93Zm2.368,7.473h1.247c.479.778.988,1.54,1.519,2.287-.139.182-.281.361-.423.54l-2.87-.718Zm7.669-1.857A41.23,41.23,0,0,0,36.332,42a14.743,14.743,0,0,1,1.576.737l-2.249,5.624ZM14.871,34.1l-1.8,1.8-1.8-1.8,1.348-9.066.45.444.45-.444Zm-.2-13.6.16.64-1.756,1.733-1.756-1.733.16-.64Zm3.975-5.572V11.215a1.857,1.857,0,0,1,0,3.714ZM11.538,2.857h2.927a6,6,0,0,1,5.957,6.974,3.67,3.67,0,0,0-1.778-.474H14.883a3.424,3.424,0,0,1-2.435-1.008,2.87,2.87,0,0,0-1.308-.741A4.779,4.779,0,0,0,8.855,4.357l.066-.1a3.139,3.139,0,0,1,2.617-1.4ZM5.643,13.072A1.859,1.859,0,0,1,7.5,11.215v3.714A1.859,1.859,0,0,1,5.643,13.072ZM7.7,9.358H7.5a3.678,3.678,0,0,0-1.855.515c0-.006,0-.01,0-.016V8.579A3.135,3.135,0,0,1,7.5,5.722,3.206,3.206,0,0,1,9.27,7.729,2.905,2.905,0,0,0,7.7,9.358ZM9.358,10.4a1.041,1.041,0,0,1,1.777-.736,5.265,5.265,0,0,0,3.748,1.553h1.9v5.572a1.859,1.859,0,0,1-1.857,1.857H11.2A1.848,1.848,0,0,1,9.358,16.8Zm-6.5,21.45a9.676,9.676,0,0,1,7.154-9.386l.972.959L9.3,34.756l3.773,3.773,3.773-3.773L15.16,23.422l.961-.948a9.681,9.681,0,0,1,3.838,2.073,11.049,11.049,0,0,0-1.268,4.312h-1.9v1.857h1.9a11.143,11.143,0,0,0,4.95,8.358H2.857Zm13,23.787a14.652,14.652,0,0,1,4.677-10.726l2.123,5.306h1.3l-.865,3.462L27,54.656v2.061H21.43V49.288H19.572v7.429H15.858Zm29.9,1.081a5.355,5.355,0,0,1-4.816-2.976L40,51.855V49.288H38.145v7.429H28.858V55.585l7.627-1.906-.865-3.462h1.3L39.5,43.75a14.669,14.669,0,0,1,4.638,5.582l-.419,3.562,1.844.216,1.761-14.966h3.818V51.333A5.39,5.39,0,0,1,45.761,56.717ZM56.717,39.073H53V30.716a2.789,2.789,0,0,0-2.786-2.786H48.359a2.789,2.789,0,0,0-2.786,2.786v.159A2.791,2.791,0,0,0,43.716,33.5v1.087a2.769,2.769,0,0,0,.816,1.971l.995.995-.178,1.519H35.934a11.143,11.143,0,0,0,4.95-8.358h1.9V28.858h-1.9a11.049,11.049,0,0,0-1.268-4.312,9.679,9.679,0,0,1,3.674-2.023L46.5,27.878l3.222-5.371a9.676,9.676,0,0,1,6.992,9.342Z" transform="translate(-1 -1)"/>
      </g>
    </g>
  </g>
</svg>
