<svg xmlns="http://www.w3.org/2000/svg" xmlns:xlink="http://www.w3.org/1999/xlink" width="108.914" height="108.914" viewBox="0 0 108.914 108.914">
  <defs>
    <filter id="Trazado_874925" x="0" y="0" width="108.914" height="108.914" filterUnits="userSpaceOnUse">
      <feOffset dy="3" input="SourceAlpha"/>
      <feGaussianBlur stdDeviation="3" result="blur"/>
      <feFlood flood-opacity="0.161"/>
      <feComposite operator="in" in2="blur"/>
      <feComposite in="SourceGraphic"/>
    </filter>
  </defs>
  <g id="Grupo_1176556" data-name="Grupo 1176556" transform="translate(6852 9482.179)">
    <g id="Grupo_1111380" data-name="Grupo 1111380" transform="translate(-7651.5 -11993.336)">
      <g id="Grupo_1111316" data-name="Grupo 1111316" transform="translate(0 564.946)">
        <g id="Grupo_1109835" data-name="Grupo 1109835">
          <g id="Grupo_1107913" data-name="Grupo 1107913" transform="translate(808.5 1952.211)">
            <g transform="matrix(1, 0, 0, 1, -9, -6)" filter="url(#Trazado_874925)">
              <g id="Trazado_874925-2" data-name="Trazado 874925" transform="translate(9 6)" fill="#fd9826" opacity="0.859">
                <path d="M 45.45676803588867 89.41407012939453 C 39.52198028564453 89.41407012939453 33.76551818847656 88.25206756591797 28.34726715087891 85.96034240722656 C 23.11311721801758 83.74648284912109 18.41204261779785 80.57682800292969 14.37464332580566 76.5394287109375 C 10.33724308013916 72.50202941894531 7.167593002319336 67.80095672607422 4.953730583190918 62.56679534912109 C 2.662005424499512 57.14855575561523 1.500005483627319 51.39208221435547 1.500005483627319 45.45729446411133 C 1.500005483627319 39.52198028564453 2.662005424499512 33.76551818847656 4.953730583190918 28.34726905822754 C 7.167593002319336 23.11310577392578 10.33724308013916 18.41203117370605 14.37464332580566 14.37464332580566 C 18.41204261779785 10.33724403381348 23.11311721801758 7.167593955993652 28.34726715087891 4.953731060028076 C 33.76551818847656 2.662006139755249 39.52198028564453 1.500006198883057 45.45676803588867 1.500006198883057 C 51.39155578613281 1.500006198883057 57.14802932739258 2.662006139755249 62.56626892089844 4.953731060028076 C 67.80043029785156 7.167593955993652 72.50150299072266 10.33724403381348 76.53890228271484 14.37464332580566 C 80.57630920410156 18.41203117370605 83.74595642089844 23.11310577392578 85.95981597900391 28.34726905822754 C 88.25154113769531 33.76551818847656 89.41354370117188 39.52198028564453 89.41354370117188 45.45676803588867 C 89.41354370117188 51.39208221435547 88.25154113769531 57.14855575561523 85.95981597900391 62.56679534912109 C 83.74595642089844 67.80095672607422 80.57630920410156 72.50202941894531 76.53890228271484 76.5394287109375 C 72.50150299072266 80.57682800292969 67.80043029785156 83.74648284912109 62.56626892089844 85.96034240722656 C 57.14802932739258 88.25206756591797 51.39155578613281 89.41407012939453 45.45676803588867 89.41407012939453 Z" stroke="none"/>
                <path d="M 45.45676803588867 3 C 39.72381210327148 3 34.1639404296875 4.12213134765625 28.93159484863281 6.335227966308594 C 23.87622833251953 8.473472595214844 19.33542633056641 11.53517150878906 15.43529510498047 15.435302734375 C 11.53517150878906 19.33543395996094 8.473464965820312 23.87622833251953 6.335227966308594 28.93160247802734 C 4.122123718261719 34.16394424438477 3 39.72381591796875 3 45.4572868347168 C 3 51.19024658203125 4.122123718261719 56.75011825561523 6.335227966308594 61.98246002197266 C 8.473464965820312 67.03782653808594 11.53517150878906 71.57862854003906 15.43529510498047 75.478759765625 C 19.33542633056641 79.37889099121094 23.87622833251953 82.44058990478516 28.93159484863281 84.57883453369141 C 34.1639404296875 86.79193115234375 39.72381210327148 87.9140625 45.45676803588867 87.9140625 C 51.18972396850586 87.9140625 56.74959564208984 86.79193115234375 61.98194122314453 84.57883453369141 C 67.03730773925781 82.44058990478516 71.57810974121094 79.37889099121094 75.47824096679688 75.478759765625 C 79.37837219238281 71.57862854003906 82.44007110595703 67.03782653808594 84.57830810546875 61.98246002197266 C 86.79141235351562 56.75011825561523 87.91353607177734 51.19024658203125 87.91353607177734 45.4567756652832 C 87.91353607177734 39.72381591796875 86.79141235351562 34.16394424438477 84.57830810546875 28.93160247802734 C 82.44007110595703 23.87622833251953 79.37837219238281 19.33543395996094 75.47824096679688 15.435302734375 C 71.57810974121094 11.53517150878906 67.03730773925781 8.473472595214844 61.98194122314453 6.335227966308594 C 56.74959564208984 4.12213134765625 51.18972396850586 3 45.45676803588867 3 M 45.45676803588867 0 C 70.56185150146484 0 90.91353607177734 20.35169219970703 90.91353607177734 45.4567756652832 L 90.91353607177734 45.4572868347168 C 90.91353607177734 70.5623779296875 70.56185150146484 90.9140625 45.45676803588867 90.9140625 C 20.3516845703125 90.9140625 0 70.5623779296875 0 45.4572868347168 L 0 45.4567756652832 C 0 20.35169219970703 20.3516845703125 0 45.45676803588867 0 Z" stroke="none" fill="#fff"/>
              </g>
            </g>
            <g id="Trazado_874923" data-name="Trazado 874923" transform="translate(0 0)" fill="none">
              <path d="M45.457,0A45.457,45.457,0,0,1,90.914,45.457h0A45.457,45.457,0,0,1,0,45.457H0A45.457,45.457,0,0,1,45.457,0Z" stroke="none"/>
              <path d="M 45.45676803588867 3 C 39.72381210327148 3 34.1639404296875 4.12213134765625 28.93159484863281 6.335227966308594 C 23.87622833251953 8.473472595214844 19.33542633056641 11.53517150878906 15.43529510498047 15.435302734375 C 11.53517150878906 19.33543395996094 8.473464965820312 23.87622833251953 6.335227966308594 28.93160247802734 C 4.122123718261719 34.16394424438477 3 39.72381591796875 3 45.4572868347168 C 3 51.19024658203125 4.122123718261719 56.75011825561523 6.335227966308594 61.98246002197266 C 8.473464965820312 67.03782653808594 11.53517150878906 71.57862854003906 15.43529510498047 75.478759765625 C 19.33542633056641 79.37889099121094 23.87622833251953 82.44058990478516 28.93159484863281 84.57883453369141 C 34.1639404296875 86.79193115234375 39.72381210327148 87.9140625 45.45676803588867 87.9140625 C 51.18972396850586 87.9140625 56.74959564208984 86.79193115234375 61.98194122314453 84.57883453369141 C 67.03730773925781 82.44058990478516 71.57810974121094 79.37889099121094 75.47824096679688 75.478759765625 C 79.37837219238281 71.57862854003906 82.44007110595703 67.03782653808594 84.57830810546875 61.98246002197266 C 86.79141235351562 56.75011825561523 87.91353607177734 51.19024658203125 87.91353607177734 45.4567756652832 C 87.91353607177734 39.72381591796875 86.79141235351562 34.16394424438477 84.57830810546875 28.93160247802734 C 82.44007110595703 23.87622833251953 79.37837219238281 19.33543395996094 75.47824096679688 15.435302734375 C 71.57810974121094 11.53517150878906 67.03730773925781 8.473472595214844 61.98194122314453 6.335227966308594 C 56.74959564208984 4.12213134765625 51.18972396850586 3 45.45676803588867 3 M 45.45676803588867 0 C 70.56185150146484 0 90.91353607177734 20.35169219970703 90.91353607177734 45.4567756652832 L 90.91353607177734 45.4572868347168 C 90.91353607177734 70.5623779296875 70.56185150146484 90.9140625 45.45676803588867 90.9140625 C 20.3516845703125 90.9140625 0 70.5623779296875 0 45.4572868347168 L 0 45.4567756652832 C 0 20.35169219970703 20.3516845703125 0 45.45676803588867 0 Z" stroke="none" fill="#fff"/>
            </g>
          </g>
        </g>
      </g>
    </g>
    <g id="judge_1865643" transform="translate(-6869.854 -9460.872)">
      <path id="Trazado_1031245" data-name="Trazado 1031245" d="M84.016,412.1h39.168V422.34H84.016Z" transform="translate(-31.746 -365.178)" fill="#cb9081"/>
      <path id="Trazado_1031246" data-name="Trazado 1031246" d="M58.191,366.646H103.24v5.176H58.191Z" transform="translate(-8.861 -324.896)" fill="#cb9081"/>
      <path id="Trazado_1031247" data-name="Trazado 1031247" d="M142.408,237.2H108.744l1.265-8.043c.687-4.874,4.094-6.354,4.644-6.562l.006,0,.084-.025,1.1-.471.015-.007a18.849,18.849,0,0,1,7.425-1.524h4.443a18.851,18.851,0,0,1,7.427,1.524l.023.009,1.094.469.019.009a8.36,8.36,0,0,1,4.723,6.581Z" transform="translate(-53.658 -195.454)" fill="#dfecff"/>
      <path id="Trazado_1031248" data-name="Trazado 1031248" d="M122.136,245.387l-.713,3.673H108.744l1.265-8.043c.687-4.874,4.094-6.354,4.644-6.562l.006,0,.069-.025,1.114-.478,0,.007Z" transform="translate(-53.658 -207.31)" fill="#868eaf"/>
      <path id="Trazado_1031249" data-name="Trazado 1031249" d="M299.165,249.131H286.374l-.73-3.673,6.29-11.428,1.094.469.019.009a8.36,8.36,0,0,1,4.723,6.581Z" transform="translate(-210.414 -207.381)" fill="#868eaf"/>
      <path id="Trazado_1031250" data-name="Trazado 1031250" d="M205.627,60.97a5.719,5.719,0,1,0,11.438,0v-3a5.719,5.719,0,1,0-11.437,0Z" transform="translate(-139.509 -46.299)" fill="#ffd0c6"/>
      <path id="Trazado_1031251" data-name="Trazado 1031251" d="M229.312,165.621v6.272c-.548-.048-1.1-.073-1.652-.073h-4.428q-.83,0-1.652.073v-6.337a5.72,5.72,0,0,0,7.733.065Z" transform="translate(-153.644 -146.704)" fill="#ffd0c6"/>
      <path id="Trazado_1031252" data-name="Trazado 1031252" d="M229.278,225.261l1.817-4.691h-7.206l1.887,4.691Z" transform="translate(-155.691 -195.454)" fill="#868eaf"/>
      <path id="Trazado_1031253" data-name="Trazado 1031253" d="M225.916,261.765h-3.5l-2.319,11.943h8.194Z" transform="translate(-152.329 -231.958)" fill="#868eaf"/>
      <path id="Trazado_1031254" data-name="Trazado 1031254" d="M154.174,460.066v2.418H124.145v-2.418a2.733,2.733,0,0,0,2.8-2.66h24.428A2.733,2.733,0,0,0,154.174,460.066Z" transform="translate(-67.305 -405.321)" fill="#b96b57"/>
      <path id="Trazado_1031255" data-name="Trazado 1031255" d="M154.094,26.968a2.651,2.651,0,0,1-2.509,2.774v.034H149.1a2.462,2.462,0,0,1-2.267-1.686l-1.959-4.116h0c.011-.145.017-.292.017-.44v-3a5.718,5.718,0,0,0-5.814-5.718,5.779,5.779,0,0,0-5.624,5.811v2.909c0,.109,0,.217.01.326l-.01,0-2.014,4.234a2.46,2.46,0,0,1-2.267,1.686h-2.485v-.034a2.651,2.651,0,0,1-2.507-2.774,2.839,2.839,0,0,1,1.249-2.4,2.833,2.833,0,0,1-1.249-2.342,2.7,2.7,0,0,1,2.57-2.832,2.49,2.49,0,0,0,2.339-1.907,10.486,10.486,0,0,1,20.1,0,2.709,2.709,0,0,0,.886,1.379,2.293,2.293,0,0,0,1.452.528,2.7,2.7,0,0,1,2.571,2.832,2.834,2.834,0,0,1-1.25,2.342A2.84,2.84,0,0,1,154.094,26.968Z" transform="translate(-67.336 -8.861)" fill="#dfecff"/>
      <path id="Trazado_1031256" data-name="Trazado 1031256" d="M94.379,40.611h-4.67s-1.038-5.918-1.225-7.073a10.39,10.39,0,0,0-1.4-3.924,9.574,9.574,0,0,0-2.874-2.919,13.283,13.283,0,0,0-2.276-1.107,19.882,19.882,0,0,0-5.127-1.423V19.389a6.9,6.9,0,0,0,.926-1.221l.717,1.506a3.574,3.574,0,0,0,3.316,2.379H84.25A1.139,1.139,0,0,0,84.586,22a3.823,3.823,0,0,0,3.31-3.9,4.117,4.117,0,0,0-.766-2.4,4.084,4.084,0,0,0,.766-2.326A4.035,4.035,0,0,0,86.758,10.5a3.591,3.591,0,0,0-2.572-1.1,1.156,1.156,0,0,1-.733-.273,1.586,1.586,0,0,1-.508-.8A12.055,12.055,0,0,0,79.78,3.029a12.022,12.022,0,0,0-15.957,0,12.054,12.054,0,0,0-3.166,5.288,1.356,1.356,0,0,1-1.242,1.076,3.589,3.589,0,0,0-2.57,1.1,4.09,4.09,0,0,0-.373,5.214,4.119,4.119,0,0,0-.765,2.4A3.822,3.822,0,0,0,59.015,22a1.137,1.137,0,0,0,.337.051h2.485a3.572,3.572,0,0,0,3.316-2.379L65.9,18.1a6.9,6.9,0,0,0,.894,1.214v4.865a19.872,19.872,0,0,0-4.933,1.369,12.474,12.474,0,0,0-1.182.5,8.319,8.319,0,0,0-1.537.808,9.085,9.085,0,0,0-3.438,4.632,15.118,15.118,0,0,0-.558,2.54l-1.036,6.586H49.33a1.139,1.139,0,0,0-1.139,1.139v5.176a1.139,1.139,0,0,0,1.139,1.139h1.8v9.1a1.139,1.139,0,1,0,2.277,0v-9.1s23.474.015,23.547.012a1.138,1.138,0,0,0,1.094-1.146,1.152,1.152,0,0,0-1.138-1.144H50.468v-2.9H93.24v2.9H87.185a1.151,1.151,0,0,0-1.112,1.383,1.2,1.2,0,0,0,1.277.9l.012,0H90.3v9.1a1.139,1.139,0,0,0,2.277,0v-9.1h1.8a1.139,1.139,0,0,0,1.139-1.139V41.75a1.139,1.139,0,0,0-1.139-1.139Zm-36.9-6.727a10.941,10.941,0,0,1,.227-1.129,7.172,7.172,0,0,1,3.677-4.538c.052-.014.307-.119.307-.119l5.6,10.166-.455,2.346h-3.87V37.575a1.139,1.139,0,0,0-2.277,0v3.037H56.418ZM71.317,7.12q.14-.017.281-.025a4.576,4.576,0,0,1,4.819,4.573v3c0,.073,0,.146-.006.218,0,.016,0,.032,0,.049a4.58,4.58,0,0,1-9.144-.009s0,0,0,0c0-.064-.005-.13-.006-.2,0-.02,0-.039,0-.059v-2.92a4.729,4.729,0,0,1,1.081-2.993A4.619,4.619,0,0,1,71.317,7.12ZM86,32.74a18.33,18.33,0,0,1,.361,1.864L87.4,40.611H82.922V37.575a1.139,1.139,0,0,0-2.277,0v3.037h-3.75l-.467-2.349L82.019,28.1a7.479,7.479,0,0,1,3.962,4.591C85.986,32.71,85.991,32.724,86,32.74ZM72.807,28.668H70.854l-.971-2.413h3.859Zm-1.783,2.277h1.628l1.92,9.665H69.147Zm4.714,3.846-.97-4.882,1.369-3.534a17.546,17.546,0,0,1,3.757.864ZM70.151,21.318a6.862,6.862,0,0,0,4.377-.339v3H69.073V20.949a6.8,6.8,0,0,0,1.049.362Zm-2.671,5.067L68.9,29.92l-.943,4.854-4.148-7.537a17.537,17.537,0,0,1,3.669-.852Zm-4.446-7.55a1.327,1.327,0,0,1-1.2.941H59.63a1.14,1.14,0,0,0-.278-.034,1.522,1.522,0,0,1-1.369-1.635,1.706,1.706,0,0,1,.726-1.443,1.139,1.139,0,0,0,0-1.915,1.7,1.7,0,0,1-.727-1.406,1.745,1.745,0,0,1,.486-1.251,1.331,1.331,0,0,1,.945-.422A3.606,3.606,0,0,0,62.85,8.932a9.348,9.348,0,0,1,17.9,0,3.828,3.828,0,0,0,1.264,1.956,3.408,3.408,0,0,0,2.171.784,1.333,1.333,0,0,1,.946.422,1.744,1.744,0,0,1,.486,1.249,1.707,1.707,0,0,1-.728,1.407,1.139,1.139,0,0,0,0,1.916,1.707,1.707,0,0,1,.728,1.443,1.522,1.522,0,0,1-1.37,1.635,1.14,1.14,0,0,0-.278.034H81.765a1.329,1.329,0,0,1-1.2-.942c-.012-.032-1.875-3.951-1.875-3.951q0-.106,0-.213v-3a6.858,6.858,0,0,0-13.715,0v.082s0,.007,0,.011v2.909q0,.033,0,.066s-1.933,4.066-1.945,4.1Z" transform="translate(0 0)"/>
      <path id="Trazado_1031257" data-name="Trazado 1031257" d="M145.313,450.066a1.6,1.6,0,0,1-1.662-1.521,1.139,1.139,0,0,0-1.139-1.139H118.083a1.139,1.139,0,0,0-1.139,1.139,1.6,1.6,0,0,1-1.661,1.521,1.139,1.139,0,0,0-1.139,1.139v2.418a1.139,1.139,0,0,0,2.277,0v-1.441a3.891,3.891,0,0,0,2.619-2.5h22.513a3.891,3.891,0,0,0,2.62,2.5v1.441a1.139,1.139,0,0,0,2.277,0V451.2a1.139,1.139,0,0,0-1.139-1.139Z" transform="translate(-58.444 -396.46)"/>
      <path id="Trazado_1031258" data-name="Trazado 1031258" d="M335.244,403.941a1.139,1.139,0,1,0,.2-1.495,1.148,1.148,0,0,0-.2,1.495Z" transform="translate(-254.201 -356.383)"/>
    </g>
  </g>
</svg>
