<svg xmlns="http://www.w3.org/2000/svg" xmlns:xlink="http://www.w3.org/1999/xlink" width="108.914" height="108.914" viewBox="0 0 108.914 108.914">
  <defs>
    <filter id="Trazado_874925" x="0" y="0" width="108.914" height="108.914" filterUnits="userSpaceOnUse">
      <feOffset dy="3" input="SourceAlpha"/>
      <feGaussianBlur stdDeviation="3" result="blur"/>
      <feFlood flood-opacity="0.161"/>
      <feComposite operator="in" in2="blur"/>
      <feComposite in="SourceGraphic"/>
    </filter>
  </defs>
  <g id="Grupo_1176626" data-name="Grupo 1176626" transform="translate(-3371 9415.867)">
    <g id="Grupo_1176445" data-name="Grupo 1176445" transform="translate(2571.5 -11927.024)">
      <g id="Grupo_1111316" data-name="Grupo 1111316" transform="translate(0 564.946)">
        <g id="Grupo_1109835" data-name="Grupo 1109835">
          <g id="Grupo_1107913" data-name="Grupo 1107913" transform="translate(808.5 1952.211)">
            <g transform="matrix(1, 0, 0, 1, -9, -6)" filter="url(#Trazado_874925)">
              <g id="Trazado_874925-2" data-name="Trazado 874925" transform="translate(9 6)" fill="#fd9826" opacity="0.859">
                <path d="M 45.45676803588867 89.41407012939453 C 39.52198028564453 89.41407012939453 33.76551818847656 88.25206756591797 28.34726715087891 85.96034240722656 C 23.11311721801758 83.74648284912109 18.41204261779785 80.57682800292969 14.37464332580566 76.5394287109375 C 10.33724308013916 72.50202941894531 7.167593002319336 67.80095672607422 4.953730583190918 62.56679534912109 C 2.662005424499512 57.14855575561523 1.500005483627319 51.39208221435547 1.500005483627319 45.45729446411133 C 1.500005483627319 39.52198028564453 2.662005424499512 33.76551818847656 4.953730583190918 28.34726905822754 C 7.167593002319336 23.11310577392578 10.33724308013916 18.41203117370605 14.37464332580566 14.37464332580566 C 18.41204261779785 10.33724403381348 23.11311721801758 7.167593955993652 28.34726715087891 4.953731060028076 C 33.76551818847656 2.662006139755249 39.52198028564453 1.500006198883057 45.45676803588867 1.500006198883057 C 51.39155578613281 1.500006198883057 57.14802932739258 2.662006139755249 62.56626892089844 4.953731060028076 C 67.80043029785156 7.167593955993652 72.50150299072266 10.33724403381348 76.53890228271484 14.37464332580566 C 80.57630920410156 18.41203117370605 83.74595642089844 23.11310577392578 85.95981597900391 28.34726905822754 C 88.25154113769531 33.76551818847656 89.41354370117188 39.52198028564453 89.41354370117188 45.45676803588867 C 89.41354370117188 51.39208221435547 88.25154113769531 57.14855575561523 85.95981597900391 62.56679534912109 C 83.74595642089844 67.80095672607422 80.57630920410156 72.50202941894531 76.53890228271484 76.5394287109375 C 72.50150299072266 80.57682800292969 67.80043029785156 83.74648284912109 62.56626892089844 85.96034240722656 C 57.14802932739258 88.25206756591797 51.39155578613281 89.41407012939453 45.45676803588867 89.41407012939453 Z" stroke="none"/>
                <path d="M 45.45676803588867 3 C 39.72381210327148 3 34.1639404296875 4.12213134765625 28.93159484863281 6.335227966308594 C 23.87622833251953 8.473472595214844 19.33542633056641 11.53517150878906 15.43529510498047 15.435302734375 C 11.53517150878906 19.33543395996094 8.473464965820312 23.87622833251953 6.335227966308594 28.93160247802734 C 4.122123718261719 34.16394424438477 3 39.72381591796875 3 45.4572868347168 C 3 51.19024658203125 4.122123718261719 56.75011825561523 6.335227966308594 61.98246002197266 C 8.473464965820312 67.03782653808594 11.53517150878906 71.57862854003906 15.43529510498047 75.478759765625 C 19.33542633056641 79.37889099121094 23.87622833251953 82.44058990478516 28.93159484863281 84.57883453369141 C 34.1639404296875 86.79193115234375 39.72381210327148 87.9140625 45.45676803588867 87.9140625 C 51.18972396850586 87.9140625 56.74959564208984 86.79193115234375 61.98194122314453 84.57883453369141 C 67.03730773925781 82.44058990478516 71.57810974121094 79.37889099121094 75.47824096679688 75.478759765625 C 79.37837219238281 71.57862854003906 82.44007110595703 67.03782653808594 84.57830810546875 61.98246002197266 C 86.79141235351562 56.75011825561523 87.91353607177734 51.19024658203125 87.91353607177734 45.4567756652832 C 87.91353607177734 39.72381591796875 86.79141235351562 34.16394424438477 84.57830810546875 28.93160247802734 C 82.44007110595703 23.87622833251953 79.37837219238281 19.33543395996094 75.47824096679688 15.435302734375 C 71.57810974121094 11.53517150878906 67.03730773925781 8.473472595214844 61.98194122314453 6.335227966308594 C 56.74959564208984 4.12213134765625 51.18972396850586 3 45.45676803588867 3 M 45.45676803588867 0 C 70.56185150146484 0 90.91353607177734 20.35169219970703 90.91353607177734 45.4567756652832 L 90.91353607177734 45.4572868347168 C 90.91353607177734 70.5623779296875 70.56185150146484 90.9140625 45.45676803588867 90.9140625 C 20.3516845703125 90.9140625 0 70.5623779296875 0 45.4572868347168 L 0 45.4567756652832 C 0 20.35169219970703 20.3516845703125 0 45.45676803588867 0 Z" stroke="none" fill="#fff"/>
              </g>
            </g>
            <g id="Trazado_874923" data-name="Trazado 874923" transform="translate(0 0)" fill="none">
              <path d="M45.457,0A45.457,45.457,0,0,1,90.914,45.457h0A45.457,45.457,0,0,1,0,45.457H0A45.457,45.457,0,0,1,45.457,0Z" stroke="none"/>
              <path d="M 45.45676803588867 3 C 39.72381210327148 3 34.1639404296875 4.12213134765625 28.93159484863281 6.335227966308594 C 23.87622833251953 8.473472595214844 19.33542633056641 11.53517150878906 15.43529510498047 15.435302734375 C 11.53517150878906 19.33543395996094 8.473464965820312 23.87622833251953 6.335227966308594 28.93160247802734 C 4.122123718261719 34.16394424438477 3 39.72381591796875 3 45.4572868347168 C 3 51.19024658203125 4.122123718261719 56.75011825561523 6.335227966308594 61.98246002197266 C 8.473464965820312 67.03782653808594 11.53517150878906 71.57862854003906 15.43529510498047 75.478759765625 C 19.33542633056641 79.37889099121094 23.87622833251953 82.44058990478516 28.93159484863281 84.57883453369141 C 34.1639404296875 86.79193115234375 39.72381210327148 87.9140625 45.45676803588867 87.9140625 C 51.18972396850586 87.9140625 56.74959564208984 86.79193115234375 61.98194122314453 84.57883453369141 C 67.03730773925781 82.44058990478516 71.57810974121094 79.37889099121094 75.47824096679688 75.478759765625 C 79.37837219238281 71.57862854003906 82.44007110595703 67.03782653808594 84.57830810546875 61.98246002197266 C 86.79141235351562 56.75011825561523 87.91353607177734 51.19024658203125 87.91353607177734 45.4567756652832 C 87.91353607177734 39.72381591796875 86.79141235351562 34.16394424438477 84.57830810546875 28.93160247802734 C 82.44007110595703 23.87622833251953 79.37837219238281 19.33543395996094 75.47824096679688 15.435302734375 C 71.57810974121094 11.53517150878906 67.03730773925781 8.473472595214844 61.98194122314453 6.335227966308594 C 56.74959564208984 4.12213134765625 51.18972396850586 3 45.45676803588867 3 M 45.45676803588867 0 C 70.56185150146484 0 90.91353607177734 20.35169219970703 90.91353607177734 45.4567756652832 L 90.91353607177734 45.4572868347168 C 90.91353607177734 70.5623779296875 70.56185150146484 90.9140625 45.45676803588867 90.9140625 C 20.3516845703125 90.9140625 0 70.5623779296875 0 45.4572868347168 L 0 45.4567756652832 C 0 20.35169219970703 20.3516845703125 0 45.45676803588867 0 Z" stroke="none" fill="#fff"/>
            </g>
          </g>
        </g>
      </g>
    </g>
    <g id="accounting_3870688" transform="translate(3397.818 -9392.182)">
      <path id="Trazado_1031566" data-name="Trazado 1031566" d="M3,53V15.359L13.324,5h26.33V53Z" transform="translate(-0.127 -0.382)" fill="#c2dff6"/>
      <g id="Grupo_1176625" data-name="Grupo 1176625" transform="translate(8.109 38.654)">
        <path id="Trazado_1031567" data-name="Trazado 1031567" d="M9,47h4.364v4.364H9Z" transform="translate(-9 -44.382)" fill="#ec455a"/>
        <path id="Trazado_1031568" data-name="Trazado 1031568" d="M18,44h4.364v6.982H18Z" transform="translate(-10.146 -44)" fill="#ec455a"/>
        <path id="Trazado_1031569" data-name="Trazado 1031569" d="M27,48h4.364v3.491H27Z" transform="translate(-11.291 -44.509)" fill="#ec455a"/>
      </g>
      <path id="Trazado_1031570" data-name="Trazado 1031570" d="M7,52H30.563v3.491H7Z" transform="translate(-0.636 -6.364)" fill="#ef8746"/>
      <path id="Trazado_1031571" data-name="Trazado 1031571" d="M13.473,5v5.236a5.236,5.236,0,0,1-5.236,5.236H3Z" transform="translate(-0.127 -0.382)" fill="#48a3d2"/>
      <rect id="Rectángulo_404750" data-name="Rectángulo 404750" width="32" height="33" rx="2" transform="translate(21.182 3.181)" fill="#3e3d42"/>
      <path id="Trazado_1031572" data-name="Trazado 1031572" d="M28,7H53.309v6.982H28Z" transform="translate(-3.309 -0.636)" fill="#57a4ff"/>
      <path id="Trazado_1031573" data-name="Trazado 1031573" d="M28,20h5.236v5.236H28Z" transform="translate(-3.309 -2.291)" fill="#e9e9ea"/>
      <path id="Trazado_1031574" data-name="Trazado 1031574" d="M28,30h5.236v5.236H28Z" transform="translate(-3.309 -3.564)" fill="#e9e9ea"/>
      <path id="Trazado_1031575" data-name="Trazado 1031575" d="M39,20h5.236v5.236H39Z" transform="translate(-4.709 -2.291)" fill="#e9e9ea"/>
      <path id="Trazado_1031576" data-name="Trazado 1031576" d="M50,20h5.236V33.964H50Z" transform="translate(-6.109 -2.291)" fill="#fae058"/>
      <path id="Trazado_1031577" data-name="Trazado 1031577" d="M55.63,35.909V47.691l-1.745,3.2v5.524H40.794V50.894l-1.745-2.33-.873-2.618-4.87-3.517a2.187,2.187,0,1,1,2.81-3.351l2.059,1.17V27.182a2.182,2.182,0,0,1,4.364,0v7.854a2.182,2.182,0,1,1,4.364,0,2.182,2.182,0,1,1,4.364,0v.873a2.182,2.182,0,0,1,4.364,0Z" transform="translate(-3.885 -2.927)" fill="#ffcbbe"/>
      <path id="Trazado_1031578" data-name="Trazado 1031578" d="M8,26h3.491v1.745H8Z" transform="translate(-0.764 -3.055)"/>
      <path id="Trazado_1031579" data-name="Trazado 1031579" d="M8,21h3.491v1.745H8Z" transform="translate(-0.764 -2.418)"/>
      <path id="Trazado_1031580" data-name="Trazado 1031580" d="M8,36h3.491v1.745H8Z" transform="translate(-0.764 -4.327)"/>
      <path id="Trazado_1031581" data-name="Trazado 1031581" d="M8,31h3.491v1.745H8Z" transform="translate(-0.764 -3.691)"/>
      <path id="Trazado_1031582" data-name="Trazado 1031582" d="M51.745,2h-28.8a2.627,2.627,0,0,0-2.461,1.745H13.2a.9.9,0,0,0-.62.253L2.253,14.358a.879.879,0,0,0-.253.62v37.64a.873.873,0,0,0,.873.873H36.036a.873.873,0,0,0,.873.873H50a.873.873,0,0,0,.873-.873V48.184l1.641-3a.873.873,0,0,0,.1-.419V36.752a2.627,2.627,0,0,0,1.745-2.461V4.618A2.626,2.626,0,0,0,51.745,2ZM12.473,6.582V9.854a4.364,4.364,0,0,1-4.364,4.364H4.863ZM36.036,51.745H3.745V15.964H8.109a6.116,6.116,0,0,0,6.109-6.109V5.491h6.109V18.582H12.473v1.745h7.854v2.618H12.473v1.745h7.854v2.618H12.473v1.745h7.854v2.618H12.473v1.745h7.854v.873a2.626,2.626,0,0,0,2.618,2.618H27.92a3.247,3.247,0,0,0-.148.916,3.125,3.125,0,0,0,1.135,2.383l4.643,3.351.785,2.356a.947.947,0,0,0,.131.244l1.571,2.095Zm14.836-7.2-1.641,3a.873.873,0,0,0-.1.419v4.652H37.782V47.966a.859.859,0,0,0-.175-.524l-1.658-2.217-.829-2.487a.9.9,0,0,0-.314-.428l-4.817-3.473a1.313,1.313,0,0,1-.471-1.012,1.337,1.337,0,0,1,.314-.847.524.524,0,0,1,.07-.07h.026v-.026a1.309,1.309,0,0,1,1.745-.061.684.684,0,0,0,.131.087l2.06,1.169a.873.873,0,0,0,1.3-.759V24.254a1.309,1.309,0,0,1,2.618,0v7.854a.873.873,0,1,0,1.745,0,1.309,1.309,0,0,1,2.618,0,.873.873,0,1,0,1.745,0,1.309,1.309,0,0,1,2.618,0v.873a.873.873,0,1,0,1.745,0,1.309,1.309,0,1,1,2.618,0ZM35.163,21.505V18.582h3.491v3.491H38.6a3.007,3.007,0,0,0-3.439-.567Zm9.6,7.593V18.582h3.491V30.224a3.055,3.055,0,0,0-.463.271,3.055,3.055,0,0,0-2.592-1.44,3.518,3.518,0,0,0-.436.044Zm7.854,3.884A3.055,3.055,0,0,0,50,29.971V17.709a.873.873,0,0,0-.873-.873H43.891a.873.873,0,0,0-.873.873V29.971a3.045,3.045,0,0,0-2.182-.916,3,3,0,0,0-1.309.3v-5.1a3.518,3.518,0,0,0-.044-.436h.044a.873.873,0,0,0,.873-.873V17.709a.873.873,0,0,0-.873-.873H34.291a.873.873,0,0,0-.873.873v5.236a.865.865,0,0,0,.14.445,3.142,3.142,0,0,0-.14.864V35.818l-.7-.393a3.062,3.062,0,0,0-3.377-.262h-6.4a.873.873,0,0,1-.873-.873V4.618a.873.873,0,0,1,.873-.873h28.8a.873.873,0,0,1,.873.873Z" transform="translate(0)"/>
      <path id="Trazado_1031583" data-name="Trazado 1031583" d="M30.436,49.982h-.873V47.364a.873.873,0,0,0-.873-.873H24.327a.873.873,0,0,0-.873.873v2.618H21.709V43.873A.873.873,0,0,0,20.836,43H16.473a.873.873,0,0,0-.873.873v6.109H13.854V46.491a.873.873,0,0,0-.873-.873H8.618a.873.873,0,0,0-.873.873v3.491H6.873A.873.873,0,0,0,6,50.854v3.491a.873.873,0,0,0,.873.873H30.436a.873.873,0,0,0,.873-.873V50.854A.873.873,0,0,0,30.436,49.982ZM25.2,48.236h2.618v1.745H25.2Zm-7.854-3.491h2.618v5.236H17.345ZM9.491,47.364h2.618v2.618H9.491Zm20.073,6.109H7.745V51.727H29.563Z" transform="translate(-0.509 -5.218)"/>
      <path id="Trazado_1031584" data-name="Trazado 1031584" d="M53.182,6H27.873A.873.873,0,0,0,27,6.873v6.982a.873.873,0,0,0,.873.873H53.182a.873.873,0,0,0,.873-.873V6.873A.873.873,0,0,0,53.182,6Zm-.873,6.982H28.745V7.745H52.309Z" transform="translate(-3.182 -0.509)"/>
      <path id="Trazado_1031585" data-name="Trazado 1031585" d="M33.109,19H27.873a.873.873,0,0,0-.873.873v5.236a.873.873,0,0,0,.873.873h5.236a.873.873,0,0,0,.873-.873V19.873A.873.873,0,0,0,33.109,19Zm-.873,5.236H28.745V20.745h3.491Z" transform="translate(-3.182 -2.164)"/>
      <path id="Trazado_1031586" data-name="Trazado 1031586" d="M33.109,29H27.873a.873.873,0,0,0-.873.873v5.236a.873.873,0,0,0,.873.873h5.236a.873.873,0,0,0,.873-.873V29.873A.873.873,0,0,0,33.109,29Zm-.873,5.236H28.745V30.745h3.491Z" transform="translate(-3.182 -3.437)"/>
    </g>
  </g>
</svg>
