<svg xmlns="http://www.w3.org/2000/svg" xmlns:xlink="http://www.w3.org/1999/xlink" width="108.914" height="108.914" viewBox="0 0 108.914 108.914">
  <defs>
    <filter id="Trazado_874925" x="0" y="0" width="108.914" height="108.914" filterUnits="userSpaceOnUse">
      <feOffset dy="3" input="SourceAlpha"/>
      <feGaussianBlur stdDeviation="3" result="blur"/>
      <feFlood flood-opacity="0.161"/>
      <feComposite operator="in" in2="blur"/>
      <feComposite in="SourceGraphic"/>
    </filter>
  </defs>
  <g id="Grupo_1176557" data-name="Grupo 1176557" transform="translate(6540.75 9482.179)">
    <g id="Grupo_1176511" data-name="Grupo 1176511" transform="translate(-7340.25 -11993.336)">
      <g id="Grupo_1111316" data-name="Grupo 1111316" transform="translate(0 564.946)">
        <g id="Grupo_1109835" data-name="Grupo 1109835">
          <g id="Grupo_1107913" data-name="Grupo 1107913" transform="translate(808.5 1952.211)">
            <g transform="matrix(1, 0, 0, 1, -9, -6)" filter="url(#Trazado_874925)">
              <g id="Trazado_874925-2" data-name="Trazado 874925" transform="translate(9 6)" fill="#fd9826" opacity="0.859">
                <path d="M 45.45676803588867 89.41407012939453 C 39.52198028564453 89.41407012939453 33.76551818847656 88.25206756591797 28.34726715087891 85.96034240722656 C 23.11311721801758 83.74648284912109 18.41204261779785 80.57682800292969 14.37464332580566 76.5394287109375 C 10.33724308013916 72.50202941894531 7.167593002319336 67.80095672607422 4.953730583190918 62.56679534912109 C 2.662005424499512 57.14855575561523 1.500005483627319 51.39208221435547 1.500005483627319 45.45729446411133 C 1.500005483627319 39.52198028564453 2.662005424499512 33.76551818847656 4.953730583190918 28.34726905822754 C 7.167593002319336 23.11310577392578 10.33724308013916 18.41203117370605 14.37464332580566 14.37464332580566 C 18.41204261779785 10.33724403381348 23.11311721801758 7.167593955993652 28.34726715087891 4.953731060028076 C 33.76551818847656 2.662006139755249 39.52198028564453 1.500006198883057 45.45676803588867 1.500006198883057 C 51.39155578613281 1.500006198883057 57.14802932739258 2.662006139755249 62.56626892089844 4.953731060028076 C 67.80043029785156 7.167593955993652 72.50150299072266 10.33724403381348 76.53890228271484 14.37464332580566 C 80.57630920410156 18.41203117370605 83.74595642089844 23.11310577392578 85.95981597900391 28.34726905822754 C 88.25154113769531 33.76551818847656 89.41354370117188 39.52198028564453 89.41354370117188 45.45676803588867 C 89.41354370117188 51.39208221435547 88.25154113769531 57.14855575561523 85.95981597900391 62.56679534912109 C 83.74595642089844 67.80095672607422 80.57630920410156 72.50202941894531 76.53890228271484 76.5394287109375 C 72.50150299072266 80.57682800292969 67.80043029785156 83.74648284912109 62.56626892089844 85.96034240722656 C 57.14802932739258 88.25206756591797 51.39155578613281 89.41407012939453 45.45676803588867 89.41407012939453 Z" stroke="none"/>
                <path d="M 45.45676803588867 3 C 39.72381210327148 3 34.1639404296875 4.12213134765625 28.93159484863281 6.335227966308594 C 23.87622833251953 8.473472595214844 19.33542633056641 11.53517150878906 15.43529510498047 15.435302734375 C 11.53517150878906 19.33543395996094 8.473464965820312 23.87622833251953 6.335227966308594 28.93160247802734 C 4.122123718261719 34.16394424438477 3 39.72381591796875 3 45.4572868347168 C 3 51.19024658203125 4.122123718261719 56.75011825561523 6.335227966308594 61.98246002197266 C 8.473464965820312 67.03782653808594 11.53517150878906 71.57862854003906 15.43529510498047 75.478759765625 C 19.33542633056641 79.37889099121094 23.87622833251953 82.44058990478516 28.93159484863281 84.57883453369141 C 34.1639404296875 86.79193115234375 39.72381210327148 87.9140625 45.45676803588867 87.9140625 C 51.18972396850586 87.9140625 56.74959564208984 86.79193115234375 61.98194122314453 84.57883453369141 C 67.03730773925781 82.44058990478516 71.57810974121094 79.37889099121094 75.47824096679688 75.478759765625 C 79.37837219238281 71.57862854003906 82.44007110595703 67.03782653808594 84.57830810546875 61.98246002197266 C 86.79141235351562 56.75011825561523 87.91353607177734 51.19024658203125 87.91353607177734 45.4567756652832 C 87.91353607177734 39.72381591796875 86.79141235351562 34.16394424438477 84.57830810546875 28.93160247802734 C 82.44007110595703 23.87622833251953 79.37837219238281 19.33543395996094 75.47824096679688 15.435302734375 C 71.57810974121094 11.53517150878906 67.03730773925781 8.473472595214844 61.98194122314453 6.335227966308594 C 56.74959564208984 4.12213134765625 51.18972396850586 3 45.45676803588867 3 M 45.45676803588867 0 C 70.56185150146484 0 90.91353607177734 20.35169219970703 90.91353607177734 45.4567756652832 L 90.91353607177734 45.4572868347168 C 90.91353607177734 70.5623779296875 70.56185150146484 90.9140625 45.45676803588867 90.9140625 C 20.3516845703125 90.9140625 0 70.5623779296875 0 45.4572868347168 L 0 45.4567756652832 C 0 20.35169219970703 20.3516845703125 0 45.45676803588867 0 Z" stroke="none" fill="#fff"/>
              </g>
            </g>
            <g id="Trazado_874923" data-name="Trazado 874923" transform="translate(0 0)" fill="none">
              <path d="M45.457,0A45.457,45.457,0,0,1,90.914,45.457h0A45.457,45.457,0,0,1,0,45.457H0A45.457,45.457,0,0,1,45.457,0Z" stroke="none"/>
              <path d="M 45.45676803588867 3 C 39.72381210327148 3 34.1639404296875 4.12213134765625 28.93159484863281 6.335227966308594 C 23.87622833251953 8.473472595214844 19.33542633056641 11.53517150878906 15.43529510498047 15.435302734375 C 11.53517150878906 19.33543395996094 8.473464965820312 23.87622833251953 6.335227966308594 28.93160247802734 C 4.122123718261719 34.16394424438477 3 39.72381591796875 3 45.4572868347168 C 3 51.19024658203125 4.122123718261719 56.75011825561523 6.335227966308594 61.98246002197266 C 8.473464965820312 67.03782653808594 11.53517150878906 71.57862854003906 15.43529510498047 75.478759765625 C 19.33542633056641 79.37889099121094 23.87622833251953 82.44058990478516 28.93159484863281 84.57883453369141 C 34.1639404296875 86.79193115234375 39.72381210327148 87.9140625 45.45676803588867 87.9140625 C 51.18972396850586 87.9140625 56.74959564208984 86.79193115234375 61.98194122314453 84.57883453369141 C 67.03730773925781 82.44058990478516 71.57810974121094 79.37889099121094 75.47824096679688 75.478759765625 C 79.37837219238281 71.57862854003906 82.44007110595703 67.03782653808594 84.57830810546875 61.98246002197266 C 86.79141235351562 56.75011825561523 87.91353607177734 51.19024658203125 87.91353607177734 45.4567756652832 C 87.91353607177734 39.72381591796875 86.79141235351562 34.16394424438477 84.57830810546875 28.93160247802734 C 82.44007110595703 23.87622833251953 79.37837219238281 19.33543395996094 75.47824096679688 15.435302734375 C 71.57810974121094 11.53517150878906 67.03730773925781 8.473472595214844 61.98194122314453 6.335227966308594 C 56.74959564208984 4.12213134765625 51.18972396850586 3 45.45676803588867 3 M 45.45676803588867 0 C 70.56185150146484 0 90.91353607177734 20.35169219970703 90.91353607177734 45.4567756652832 L 90.91353607177734 45.4572868347168 C 90.91353607177734 70.5623779296875 70.56185150146484 90.9140625 45.45676803588867 90.9140625 C 20.3516845703125 90.9140625 0 70.5623779296875 0 45.4572868347168 L 0 45.4567756652832 C 0 20.35169219970703 20.3516845703125 0 45.45676803588867 0 Z" stroke="none" fill="#fff"/>
            </g>
          </g>
        </g>
      </g>
    </g>
    <g id="competence_992616" transform="translate(-6515.144 -9459.916)">
      <path id="Trazado_1031259" data-name="Trazado 1031259" d="M37,4H56.539V23.539H37Z" transform="translate(-3.915 -0.113)" fill="#b6dedc"/>
      <circle id="Elipse_12979" data-name="Elipse 12979" cx="4.441" cy="4.441" r="4.441" transform="translate(9.993 29.643)" fill="#4bad32"/>
      <path id="Trazado_1031260" data-name="Trazado 1031260" d="M22.539,30v7.975a3.571,3.571,0,0,1-3.571,3.571H10.123a3.571,3.571,0,0,1-3.571-3.571V30H3v9.769a6.217,6.217,0,0,0,6.217,6.217V57.532H19.875V45.986a6.217,6.217,0,0,0,6.217-6.217V30Z" transform="translate(-0.112 -3.021)" fill="#4bad32"/>
      <circle id="Elipse_12980" data-name="Elipse 12980" cx="4.441" cy="4.441" r="4.441" transform="translate(38.414 29.643)" fill="#344496"/>
      <path id="Trazado_1031261" data-name="Trazado 1031261" d="M54.539,30v7.975a3.571,3.571,0,0,1-3.571,3.571H42.123a3.571,3.571,0,0,1-3.571-3.571V30H35v9.769a6.217,6.217,0,0,0,6.217,6.217V57.532H51.875V45.986a6.217,6.217,0,0,0,6.217-6.217V30Z" transform="translate(-3.692 -3.021)" fill="#344496"/>
      <circle id="Elipse_12981" data-name="Elipse 12981" cx="9.769" cy="9.769" r="9.769" transform="translate(4.664 3.887)" fill="#ec322c"/>
      <path id="Trazado_1031262" data-name="Trazado 1031262" d="M3,26H26.092v3.553H3Z" transform="translate(-0.112 -2.574)" fill="#fcd821"/>
      <path id="Trazado_1031263" data-name="Trazado 1031263" d="M35,26H58.092v3.553H35Z" transform="translate(-3.692 -2.574)" fill="#fcd821"/>
      <path id="Trazado_1031264" data-name="Trazado 1031264" d="M10,13.329A5.329,5.329,0,0,1,15.329,8" transform="translate(-0.895 -0.56)" fill="#ec322c"/>
      <path id="Trazado_1031265" data-name="Trazado 1031265" d="M25.98,22.538H20.312a10.658,10.658,0,1,0-11.757,0H2.888A.888.888,0,0,0,2,23.426V36.748A7.115,7.115,0,0,0,8.217,43.8V54.511a.888.888,0,0,0,.888.888H19.763a.888.888,0,0,0,.888-.888V43.8a7.115,7.115,0,0,0,6.217-7.05V23.426a.888.888,0,0,0-.888-.888ZM5.553,13.657a8.881,8.881,0,1,1,8.881,8.881,8.881,8.881,0,0,1-8.881-8.881ZM25.092,36.748a5.335,5.335,0,0,1-5.329,5.329.888.888,0,0,0-.888.888V53.623H9.993V42.965a.888.888,0,0,0-.888-.888,5.335,5.335,0,0,1-5.329-5.329V27.867H5.553v7.087a4.464,4.464,0,0,0,4.459,4.459h8.845a4.464,4.464,0,0,0,4.459-4.459V27.867h1.776ZM14.434,28.755a5.32,5.32,0,0,0-3.961,8.881h-.462a2.686,2.686,0,0,1-2.683-2.683V27.867h14.21v7.087a2.686,2.686,0,0,1-2.683,2.683h-.462a5.32,5.32,0,0,0-3.961-8.881Zm3.553,5.329a3.553,3.553,0,1,1-3.553-3.553A3.553,3.553,0,0,1,17.986,34.084Zm7.105-7.993H3.776V24.314H25.092Z"/>
      <path id="Trazado_1031266" data-name="Trazado 1031266" d="M57.98,22.539h-.888V3.888A.888.888,0,0,0,56.2,3H36.664a.888.888,0,0,0-.888.888V22.539h-.888a.888.888,0,0,0-.888.888V36.749a7.115,7.115,0,0,0,6.217,7.05V54.512a.888.888,0,0,0,.888.888H51.763a.888.888,0,0,0,.888-.888V43.8a7.115,7.115,0,0,0,6.217-7.05V23.427A.888.888,0,0,0,57.98,22.539ZM37.553,4.776H55.315V22.539H37.553ZM57.092,36.749a5.335,5.335,0,0,1-5.329,5.329.888.888,0,0,0-.888.888V53.624H41.993V42.966a.888.888,0,0,0-.888-.888,5.335,5.335,0,0,1-5.329-5.329V27.868h1.776v7.087a4.464,4.464,0,0,0,4.459,4.459h8.845a4.464,4.464,0,0,0,4.459-4.459V27.868h1.776ZM46.434,28.756a5.32,5.32,0,0,0-3.961,8.881h-.462a2.686,2.686,0,0,1-2.683-2.683V27.868h14.21v7.087a2.686,2.686,0,0,1-2.683,2.683h-.462a5.32,5.32,0,0,0-3.961-8.881Zm3.553,5.329a3.553,3.553,0,1,1-3.553-3.553A3.553,3.553,0,0,1,49.986,34.085Zm7.105-7.993H35.776V24.315H57.092Z" transform="translate(-3.58 -0.001)"/>
      <path id="Trazado_1031267" data-name="Trazado 1031267" d="M10.776,13.217H9A6.224,6.224,0,0,1,15.217,7V8.776A4.446,4.446,0,0,0,10.776,13.217Z" transform="translate(-0.783 -0.449)"/>
      <path id="Trazado_1031268" data-name="Trazado 1031268" d="M54,8h1.776V20.434H54Z" transform="translate(-5.817 -0.56)"/>
    </g>
  </g>
</svg>
